<?xml version="1.0" encoding="UTF-8" standalone="no"?>

<!--
# BSD LICENSE
# Copyright (c) <2014>, Intel Corporation
# All rights reserved.
#
# Redistribution and use in source and binary forms, with or without
# modification, are permitted provided that the following conditions
# are met:
#
# - Redistributions of source code must retain the above copyright
#   notice, this list of conditions and the following disclaimer.
#
# - Redistributions in binary form must reproduce the above copyright
#   notice, this list of conditions and the following disclaimer in
#   the documentation and/or other materials provided with the
#   distribution.
#
# - Neither the name of Intel Corporation nor the names of its
#   contributors may be used to endorse or promote products derived
#   from this software without specific prior written permission.
#
# THIS SOFTWARE IS PROVIDED BY THE COPYRIGHT HOLDERS AND CONTRIBUTORS
# "AS IS" AND ANY EXPRESS OR IMPLIED WARRANTIES, INCLUDING, BUT NOT
# LIMITED TO, THE IMPLIED WARRANTIES OF MERCHANTABILITY AND FITNESS
# FOR A PARTICULAR PURPOSE ARE DISCLAIMED. IN NO EVENT SHALL THE
# COPYRIGHT OWNER OR CONTRIBUTORS BE LIABLE FOR ANY DIRECT, INDIRECT,
# INCIDENTAL, SPECIAL, EXEMPLARY, OR CONSEQUENTIAL DAMAGES
# (INCLUDING, BUT NOT LIMITED TO, PROCUREMENT OF SUBSTITUTE GOODS OR
# SERVICES; LOSS OF USE, DATA, OR PROFITS; OR BUSINESS INTERRUPTION)
# HOWEVER CAUSED AND ON ANY THEORY OF LIABILITY, WHETHER IN CONTRACT,
# STRICT LIABILITY, OR TORT (INCLUDING NEGLIGENCE OR OTHERWISE)
# ARISING IN ANY WAY OUT OF THE USE OF THIS SOFTWARE, EVEN IF ADVISED
# OF THE POSSIBILITY OF SUCH DAMAGE.
-->

<svg xmlns:rdf="http://www.w3.org/1999/02/22-rdf-syntax-ns#" xmlns="http://www.w3.org/2000/svg" height="330.16" width="568.88" version="1.0" xmlns:cc="http://creativecommons.org/ns#" xmlns:dc="http://purl.org/dc/elements/1.1/">
 <g transform="matrix(0.136 0 0 .13439 -6.7377 -69.183)">
  <path d="m3004.4 514.8v2456.8h1228v-2456.8h-1228z" fill-rule="evenodd" fill="#fcd5b5"/>
  <path d="m1359.6 514.8v2456.8h1644.8v-2456.8h-1644.8z" fill-rule="evenodd" fill="#d9d9d9"/>
  <path d="m1096 1460v188.8h415.2v-188.8h-415.2z" fill-rule="evenodd" fill="#4f81bd"/>
  <path stroke-linejoin="round" d="m1089.2 1460c0-3.7 3.1-6.8 6.8-6.8h415.2c3.8 0 6.8 3.1 6.8 6.8v188.8c0 3.8-3 6.8-6.8 6.8h-415.2c-3.7 0-6.8-3-6.8-6.8zm13.6 188.8-6.8-6.8h415.2l-6.8 6.8v-188.8l6.8 6.8h-415.2l6.8-6.8z" stroke="#385d8a" stroke-width=".1px" fill="#385d8a"/>
  <text xml:space="preserve" font-size="106.4px" y="1594.3033" x="1175.8816" font-family="Arial" fill="#ffffff">Port0</text>
  <path d="m1096 1762.4v188.8h415.2v-188.8h-415.2z" fill-rule="evenodd" fill="#4f81bd"/>
  <path stroke-linejoin="round" d="m1089.2 1762.4c0-3.7 3.1-6.8 6.8-6.8h415.2c3.8 0 6.8 3.1 6.8 6.8v188.8c0 3.8-3 6.8-6.8 6.8h-415.2c-3.7 0-6.8-3-6.8-6.8zm13.6 188.8-6.8-6.8h415.2l-6.8 6.8v-188.8l6.8 6.8h-415.2l6.8-6.8z" stroke="#385d8a" stroke-width=".1px" fill="#385d8a"/>
  <text xml:space="preserve" font-size="106.4px" y="1896.6992" x="1175.8816" font-family="Arial" fill="#ffffff">Port1</text>
  <path d="m1096 2177.6v189.6h415.2v-189.6h-415.2z" fill-rule="evenodd" fill="#4f81bd"/>
  <path stroke-linejoin="round" d="m1089.2 2177.6c0-3.7 3.1-6.8 6.8-6.8h415.2c3.8 0 6.8 3.1 6.8 6.8v189.6c0 3.8-3 6.8-6.8 6.8h-415.2c-3.7 0-6.8-3-6.8-6.8zm13.6 189.6-6.8-6.8h415.2l-6.8 6.8v-189.6l6.8 6.8h-415.2l6.8-6.8z" stroke="#385d8a" stroke-width=".1px" fill="#385d8a"/>
  <text xml:space="preserve" font-size="106.4px" y="2312.4934" x="1167.0984" font-family="Arial" fill="#ffffff">PortN</text>
  <path d="m2060 892.8v151.2h491.2v-151.2h-491.2z" fill-rule="evenodd" fill="#4f81bd"/>
  <path stroke-linejoin="round" d="m2053.2 892.8c0-3.7 3.1-6.8 6.8-6.8h491.2c3.8 0 6.8 3.1 6.8 6.8v151.2c0 3.8-3 6.8-6.8 6.8h-491.2c-3.7 0-6.8-3-6.8-6.8zm13.6 151.2-6.8-6.8h491.2l-6.8 6.8v-151.2l6.8 6.8h-491.2l6.8-6.8z" stroke="#385d8a" stroke-width=".1px" fill="#385d8a"/>
  <text xml:space="preserve" font-size="106.4px" y="1008.4115" x="2124.8179" font-family="Arial" fill="#ffffff">CoreA0</text>
  <path d="m2060 1157.6v151.2h491.2v-151.2h-491.2z" fill-rule="evenodd" fill="#4f81bd"/>
  <path stroke-linejoin="round" d="m2053.2 1157.6c0-3.7 3.1-6.8 6.8-6.8h491.2c3.8 0 6.8 3.1 6.8 6.8v151.2c0 3.8-3 6.8-6.8 6.8h-491.2c-3.7 0-6.8-3-6.8-6.8zm13.6 151.2-6.8-6.8h491.2l-6.8 6.8v-151.2l6.8 6.8h-491.2l6.8-6.8z" stroke="#385d8a" stroke-width=".1px" fill="#385d8a"/>
  <text xml:space="preserve" font-size="106.4px" y="1273.0079" x="2124.8179" font-family="Arial" fill="#ffffff">CoreA1</text>
  <path d="m2060 1535.2v151.2h491.2v-151.2h-491.2z" fill-rule="evenodd" fill="#4f81bd"/>
  <path stroke-linejoin="round" d="m2053.2 1535.2c0-3.7 3.1-6.8 6.8-6.8h491.2c3.8 0 6.8 3.1 6.8 6.8v151.2c0 3.8-3 6.8-6.8 6.8h-491.2c-3.7 0-6.8-3-6.8-6.8zm13.6 151.2-6.8-6.8h491.2l-6.8 6.8v-151.2l6.8 6.8h-491.2l6.8-6.8z" stroke="#385d8a" stroke-width=".1px" fill="#385d8a"/>
  <text xml:space="preserve" font-size="106.4px" y="1651.0026" x="2116.0015" font-family="Arial" fill="#ffffff">CoreAN</text>
  <path d="m2060 2026.4v151.2h491.2v-151.2h-491.2z" fill-rule="evenodd" fill="#4f81bd"/>
  <path stroke-linejoin="round" d="m2053.2 2026.4c0-3.7 3.1-6.8 6.8-6.8h491.2c3.8 0 6.8 3.1 6.8 6.8v151.2c0 3.8-3 6.8-6.8 6.8h-491.2c-3.7 0-6.8-3-6.8-6.8zm13.6 151.2-6.8-6.8h491.2l-6.8 6.8v-151.2l6.8 6.8h-491.2l6.8-6.8z" stroke="#385d8a" stroke-width=".1px" fill="#385d8a"/>
  <text xml:space="preserve" font-size="106.4px" y="2142.3958" x="2124.8179" font-family="Arial" fill="#ffffff">CoreB0</text>
  <path d="m2060 2291.2v151.2h491.2v-151.2h-491.2z" fill-rule="evenodd" fill="#4f81bd"/>
  <path stroke-linejoin="round" d="m2053.2 2291.2c0-3.7 3.1-6.8 6.8-6.8h491.2c3.8 0 6.8 3.1 6.8 6.8v151.2c0 3.8-3 6.8-6.8 6.8h-491.2c-3.7 0-6.8-3-6.8-6.8zm13.6 151.2-6.8-6.8h491.2l-6.8 6.8v-151.2l6.8 6.8h-491.2l6.8-6.8z" stroke="#385d8a" stroke-width=".1px" fill="#385d8a"/>
  <text xml:space="preserve" font-size="106.4px" y="2406.9922" x="2124.8179" font-family="Arial" fill="#ffffff">CoreB1</text>
  <path d="m2060 2669.6v151.2h491.2v-151.2h-491.2z" fill-rule="evenodd" fill="#4f81bd"/>
  <path stroke-linejoin="round" d="m2053.2 2669.6c0-3.7 3.1-6.8 6.8-6.8h491.2c3.8 0 6.8 3.1 6.8 6.8v151.2c0 3.8-3 6.8-6.8 6.8h-491.2c-3.7 0-6.8-3-6.8-6.8zm13.6 151.2-6.8-6.8h491.2l-6.8 6.8v-151.2l6.8 6.8h-491.2l6.8-6.8z" stroke="#385d8a" stroke-width=".1px" fill="#385d8a"/>
  <text xml:space="preserve" font-size="106.4px" y="2784.9868" x="2116.0015" font-family="Arial" fill="#ffffff">CoreBN</text>
  <path d="m2834.4 892.8v151.2h453.6v-151.2h-453.6z" fill-rule="evenodd" fill="#4f81bd"/>
  <path stroke-linejoin="round" d="m2827.6 892.8c0-3.6 3.2-6.8 6.8-6.8h453.6c3.8 0 6.8 3.2 6.8 6.8v151.2c0 3.8-3 6.8-6.8 6.8h-453.6c-3.6 0-6.8-3-6.8-6.8zm13.6 151.2-6.8-6.8h453.6l-6.8 6.8v-151.2l6.8 6.8h-453.6l6.8-6.8z" stroke="#385d8a" stroke-width=".2px" fill="#385d8a"/>
  <text xml:space="preserve" font-size="106.4px" y="1008.4115" x="2921.5908" font-family="Arial" fill="#ffffff">tapA0</text>
  <path d="m2834.4 1157.6v151.2h453.6v-151.2h-453.6z" fill-rule="evenodd" fill="#4f81bd"/>
  <path stroke-linejoin="round" d="m2827.6 1157.6c0-3.6 3.2-6.8 6.8-6.8h453.6c3.8 0 6.8 3.2 6.8 6.8v151.2c0 3.8-3 6.8-6.8 6.8h-453.6c-3.6 0-6.8-3-6.8-6.8zm13.6 151.2-6.8-6.8h453.6l-6.8 6.8v-151.2l6.8 6.8h-453.6l6.8-6.8z" stroke="#385d8a" stroke-width=".2px" fill="#385d8a"/>
  <text xml:space="preserve" font-size="106.4px" y="1273.0079" x="2921.5908" font-family="Arial" fill="#ffffff">tapA1</text>
  <path d="m2834.4 1535.2v151.2h453.6v-151.2h-453.6z" fill-rule="evenodd" fill="#4f81bd"/>
  <path stroke-linejoin="round" d="m2827.6 1535.2c0-3.6 3.2-6.8 6.8-6.8h453.6c3.8 0 6.8 3.2 6.8 6.8v151.2c0 3.8-3 6.8-6.8 6.8h-453.6c-3.6 0-6.8-3-6.8-6.8zm13.6 151.2-6.8-6.8h453.6l-6.8 6.8v-151.2l6.8 6.8h-453.6l6.8-6.8z" stroke="#385d8a" stroke-width=".2px" fill="#385d8a"/>
  <text xml:space="preserve" font-size="106.4px" y="1651.0026" x="2912.8074" font-family="Arial" fill="#ffffff">tapAN</text>
  <path d="m2834.4 2026.4v151.2h453.6v-151.2h-453.6z" fill-rule="evenodd" fill="#4f81bd"/>
  <path stroke-linejoin="round" d="m2827.6 2026.4c0-3.6 3.2-6.8 6.8-6.8h453.6c3.8 0 6.8 3.2 6.8 6.8v151.2c0 3.8-3 6.8-6.8 6.8h-453.6c-3.6 0-6.8-3-6.8-6.8zm13.6 151.2-6.8-6.8h453.6l-6.8 6.8v-151.2l6.8 6.8h-453.6l6.8-6.8z" stroke="#385d8a" stroke-width=".2px" fill="#385d8a"/>
  <text xml:space="preserve" font-size="106.4px" y="2142.3958" x="2921.5908" font-family="Arial" fill="#ffffff">t</text>
  <text xml:space="preserve" font-size="106.4px" y="2142.3958" x="2951.1909" font-family="Arial" fill="#ffffff">apB0</text>
  <path d="m2834.4 2291.2v151.2h453.6v-151.2h-453.6z" fill-rule="evenodd" fill="#4f81bd"/>
  <path stroke-linejoin="round" d="m2827.6 2291.2c0-3.6 3.2-6.8 6.8-6.8h453.6c3.8 0 6.8 3.2 6.8 6.8v151.2c0 3.8-3 6.8-6.8 6.8h-453.6c-3.6 0-6.8-3-6.8-6.8zm13.6 151.2-6.8-6.8h453.6l-6.8 6.8v-151.2l6.8 6.8h-453.6l6.8-6.8z" stroke="#385d8a" stroke-width=".2px" fill="#385d8a"/>
  <text xml:space="preserve" font-size="106.4px" y="2406.9922" x="2921.5908" font-family="Arial" fill="#ffffff">tapB1</text>
  <path d="m2834.4 2669.6v151.2h453.6v-151.2h-453.6z" fill-rule="evenodd" fill="#4f81bd"/>
  <path stroke-linejoin="round" d="m2827.6 2669.6c0-3.6 3.2-6.8 6.8-6.8h453.6c3.8 0 6.8 3.2 6.8 6.8v151.2c0 3.8-3 6.8-6.8 6.8h-453.6c-3.6 0-6.8-3-6.8-6.8zm13.6 151.2-6.8-6.8h453.6l-6.8 6.8v-151.2l6.8 6.8h-453.6l6.8-6.8z" stroke="#385d8a" stroke-width=".2px" fill="#385d8a"/>
  <text xml:space="preserve" font-size="106.4px" y="2784.9868" x="2912.8074" font-family="Arial" fill="#ffffff">tapBN</text>
  <path stroke-linejoin="round" d="m1510.7 1543.2 9-0.4 7.8-1.2 8.1-1.9 7.9-2.6 8-3.3 7.9-3.9 8-4.7 7.9-5.3 7.7-5.9 7.7-6.6 7.6-7.1 7.5-7.7 7.2-8.2 7.1-8.8 6.8-9.2 6.6-9.7 6.4-10.2 6.1-10.5 5.8-10.9 5.4-11.3 5.1-11.6 4.8-11.9 4.4-12.1 4-12.4 3.7-12.6 3.1-12.7 2.8-13 2.2-13.1 1.8-13.1 1.3-13.2 0.8-13.2 0.2-13.4 0.6-13.9 1.6-14.5 2.6-14.4 3.6-14.4 4.6-14.2 5.5-14 6.4-13.8 7.2-13.5 8-13.3 8.7-13 9.5-12.7 10.2-12.4 10.8-12.1 11.6-11.6 12-11.3 12.7-10.8 13.1-10.4 13.6-9.9 14.2-9.4 14.5-8.9 15-8.3 15.3-7.8 15.7-7.1 15.9-6.5 16.3-5.9c0.6-0.2 1.2-0.4 1.9-0.5l12.2-2.1 4 22.8-12.2 2.2 1.9-0.5-15.3 5.4-15.1 6.2-14.8 6.8-14.6 7.3-14.1 7.8-13.8 8.4-13.3 8.9-12.9 9.3-12.5 9.8-11.9 10.2-11.4 10.6-10.7 10.9-10.2 11.2-9.5 11.5-8.8 11.8-8.2 12.1-7.4 12.2-6.6 12.4-5.8 12.6-5 12.6-4.2 12.7-3.3 12.8-2.4 12.9-1.5 12.8-0.5 13.5-0.3 14.2-0.8 14.2-1.4 14.1-1.9 13.9-2.5 13.9-2.9 13.7-3.4 13.6-3.8 13.3-4.3 13.2-4.6 12.9-5.1 12.6-5.5 12.3-5.9 12-6.2 11.7-6.5 11.3-6.8 10.8-7.2 10.5-7.4 10-7.7 9.5-8 9.1-8.2 8.5-8.5 7.8-8.6 7.4-9 6.8-9.1 6-9.3 5.3-9.5 4.8-9.6 3.8-9.9 3.1-9.8 2.2-10.1 1.4-9 0.4zm428.8-589.4 120.1 15-108.6 53.6z" stroke="#c0504d" stroke-width=".1px" fill="#c0504d"/>
  <path stroke-linejoin="round" d="m1510.6 2261.2 9.5-0.5 8.3-1.3 8.3-2.1 8.3-3 8.4-3.7 8.4-4.5 8.4-5.2 8.3-6 8.2-6.7 8.1-7.4 8-8.1 7.8-8.7 7.7-9.4 7.5-10 7.2-10.4 6.9-11 6.8-11.5 6.4-12 6.1-12.4 5.7-12.7 5.5-13.2 5-13.4 4.7-13.9 4.2-14 3.8-14.3 3.3-14.5 2.9-14.6 2.4-14.8 1.9-15 1.4-15 0.8-15 0.3-15.1 0.5-15.7 1.6-16.2 2.5-16.1 3.5-16 4.4-15.8 5.3-15.6 6.1-15.5 6.9-15.2 7.8-14.9 8.5-14.6 9.2-14.3 9.9-13.9 10.5-13.6 11.2-13.1 11.7-12.7 12.3-12.2 12.8-11.7 13.2-11.2 13.8-10.6 14.2-10.1 14.5-9.4 14.9-8.8 15.3-8.1 15.6-7.3 26.4-8.6 7.1 22.1-23.6 7.4-14.6 7-14.4 7.6-14.1 8.2-13.8 8.9-13.4 9.4-12.9 10-12.6 10.6-12.1 11-11.6 11.6-11.1 11.9-10.5 12.4-9.9 12.7-9.3 13.1-8.6 13.3-8 13.7-7.3 13.9-6.4 14.1-5.8 14.3-4.9 14.4-4.1 14.6-3.2 14.7-2.4 14.7-1.4 14.7-0.5 15.3-0.3 15.9-0.9 15.9-1.5 15.9-2 15.6-2.5 15.6-3.1 15.5-3.5 15.2-4 15-4.5 14.8-4.9 14.4-5.3 14.3-5.7 13.8-6.1 13.5-6.5 13.1-6.8 12.7-7.1 12.2-7.5 11.8-7.8 11.2-8.1 10.7-8.3 10.1-8.6 9.6-8.9 8.9-9.1 8.3-9.3 7.6-9.6 6.8-9.7 6-10 5.3-10 4.4-10.4 3.5-10.5 2.5-10.5 1.5-9.4 0.5-1.3-23.1zm428.5-661.4 120.5 11.4-106.9 56.9-13.6-68.3z" stroke="#c0504d" stroke-width=".1px" fill="#c0504d"/>
  <path stroke-linejoin="round" d="m2059.2 2114.1-9.7-0.4-10.5-1.2-10.6-2.1-10.4-2.8-10.2-3.6-10.1-4.4-9.9-5-9.7-5.6-9.6-6.2-9.3-6.9-9.1-7.4-8.8-8-8.6-8.3-8.3-9-8-9.3-7.7-9.9-7.4-10.1-7-10.6-6.7-11-6.3-11.2-5.9-11.6-5.5-11.8-5.1-12.2-4.6-12.3-4.2-12.6-3.6-12.8-3.2-12.8-2.6-13.1-2.1-13.2-1.5-13.2-0.9-13.4-0.4-13.3-0.4-12.7-1.4-11.9-2.3-12-3.2-11.8-4-11.9-4.7-11.8-5.6-11.7-6.3-11.5-7.1-11.4-7.8-11.3-8.5-11-9.1-10.7-9.7-10.5-10.3-10.2-10.9-9.9-11.4-9.5-11.9-9.2-12.4-8.7-12.8-8.3-13.2-7.8-13.6-7.4-13.8-6.8-14.3-6.3-14.4-5.7-21.4-5.5 5.9-22.4 24 6.3 15.4 6.1 15 6.7 14.7 7.3 14.4 7.8 14 8.3 13.6 8.8 13 9.2 12.7 9.8 12.1 10.2 11.6 10.5 11.1 10.9 10.3 11.3 9.9 11.6 9.1 11.9 8.4 12.2 7.7 12.5 7 12.7 6.1 13 5.3 13.1 4.4 13.3 3.5 13.6 2.5 13.5 1.5 13.7 0.5 13 0.3 12.4 0.8 12.2 1.4 12.3 1.9 12.2 2.5 12.1 2.9 12.1 3.4 11.9 3.8 11.6 4.4 11.6 4.6 11.3 5.1 11.1 5.5 10.8 5.9 10.5 6.2 10.2 6.5 9.8 6.8 9.4 7.1 9.1 7.4 8.6 7.6 8.2 7.8 7.7 8 7.3 8.2 6.7 8.3 6.1 8.4 5.6 8.6 5 8.6 4.3 8.7 3.8 8.6 3.1 8.8 2.5 8.7 1.8 8.8 1.1 9.6 0.4-0.9 23.1zm-439.5-505.7-108.5-54 120.3-14.6-11.8 68.6z" stroke="#c0504d" stroke-width=".1px" fill="#c0504d"/>
  <path stroke-linejoin="round" d="m2059.3 2378.7-10.4-0.3-11.2-1.2-11-1.9-11-2.6-10.8-3.3-10.7-4-10.6-4.7-10.2-5.1-10.3-5.8-9.9-6.4-9.7-6.8-9.4-7.4-9.2-7.8-8.9-8.3-8.6-8.8-8.2-9.1-7.9-9.5-7.6-9.9-7.1-10.2-6.8-10.5-6.4-10.8-5.9-11.2-5.4-11.3-5-11.5-4.5-11.8-3.9-11.9-3.4-12.2-2.9-12.2-2.2-12.3-1.7-12.5-1-12.5-0.3-12.6-0.4-11.8-1.4-11-2.2-11-3-11.1-3.7-11-4.6-10.8-5.3-10.9-6.1-10.7-6.7-10.6-7.4-10.4-8.1-10.2-8.7-10-9.3-9.7-9.9-9.5-10.4-9.1-10.9-8.9-11.4-8.5-11.8-8.1-12.2-7.8-12.6-7.2-13-6.8-13.3-6.4-13.6-5.9-13.9-5.3 1.6 0.4-17.4-4 5.2-22.6 17.5 4c0.5 0.2 1 0.3 1.6 0.5l14.6 5.7 14.4 6.3 14.1 6.7 13.7 7.3 13.5 7.8 12.9 8.2 12.7 8.6 12.1 9.1 11.6 9.4 11.2 9.9 10.5 10.2 10 10.5 9.4 10.9 8.7 11 8.2 11.5 7.4 11.6 6.6 11.9 5.9 12.1 5.1 12.3 4.3 12.5 3.3 12.6 2.4 12.7 1.5 12.9 0.5 12.1 0.3 11.3 0.8 11.4 1.5 11.3 2 11.3 2.6 11.2 3.1 11.1 3.7 11 4 10.8 4.6 10.7 5 10.4 5.5 10.3 5.8 10 6.2 9.8 6.7 9.4 6.9 9.1 7.3 8.8 7.6 8.5 7.9 8 8.1 7.6 8.4 7.2 8.5 6.7 8.9 6.3 8.9 5.7 9 5.3 9.4 4.6 9.2 4.2 9.4 3.5 9.5 2.9 9.5 2.4 9.5 1.7 9.5 1 10.3 0.4zm-439.7-467.7-108.4-54.2 120.3-14.4z" stroke="#c0504d" stroke-width=".1px" fill="#c0504d"/>
  <path stroke-linejoin="round" d="m2059.3 2756.9-10.4-0.3-11.1-1.1-10.9-1.7-11-2.4-10.8-3.1-10.7-3.7-10.4-4.2-10.4-4.9-10.1-5.3-9.9-5.9-9.7-6.3-9.5-6.9-9.1-7.2-9-7.8-8.5-8-8.3-8.4-8-8.9-7.5-9.2-7.2-9.4-6.8-9.9-6.4-10-5.9-10.2-5.5-10.6-5-10.8-4.4-10.9-4-11.2-3.5-11.2-2.8-11.5-2.3-11.5-1.6-11.6-1.1-11.7-0.3-11.7-0.4-10.9-1.4-10-2.2-10.1-2.9-10.1-3.7-10.1-4.6-10-5.3-9.9-6-10-6.7-9.7-7.4-9.6-8-9.4-8.7-9.2-9.3-9-9.8-8.8-10.4-8.5-10.9-8.1-11.4-7.9-11.8-7.5-12.3-7.2-12.6-6.7-13-6.3-13.3-6-13.6-5.4-13.9-4.9-15.7-3.3 4.8-22.7 18.8 4.1 14.6 5.3 14.4 5.7 14.1 6.3 13.7 6.7 13.5 7.2 12.9 7.6 12.6 8 12.1 8.4 11.6 8.8 11.2 9.1 10.6 9.4 10 9.8 9.4 10.1 8.8 10.3 8.2 10.6 7.4 10.8 6.7 11.1 5.9 11.3 5.1 11.5 4.3 11.6 3.4 11.8 2.4 11.9 1.5 12.1 0.5 11.2 0.3 10.4 0.8 10.4 1.5 10.4 2 10.3 2.5 10.3 3.1 10.2 3.6 10.2 4.1 9.9 4.6 9.9 4.9 9.6 5.5 9.5 5.8 9.2 6.2 9 6.6 8.8 6.9 8.4 7.3 8.1 7.6 7.8 7.9 7.4 8 7.1 8.5 6.7 8.5 6.2 8.8 5.8 8.9 5.3 9.2 4.8 9.2 4.4 9.4 3.8 9.4 3.3 9.5 2.7 9.5 2.2 9.6 1.5 9.6 1 10.3 0.4-0.7 23.1zm-439.1-431.2-109-52.9 120.1-15.8-11.1 68.7z" stroke="#c0504d" stroke-width=".1px" fill="#c0504d"/>
  <path stroke-linejoin="round" d="m2551.2 957.2h26.5 12.9l12.7 0.1h12.2 11.7 11.1l10.4 0.1h9.5 8.5l7.7 0.1h3.4 2.9 2.8l2.6 0.1h1.9 1.7l1.8 0.1 0.6-0.1 1.6 0.1h-0.8 0.2l1.6 0.1v-0.1h1.4l2 0.1h1.8 2.6 2.5 3.1l3.6 0.1h18.4v23.2h-18.8l-3.2-0.1h-3.1-2.9-2.2-2.4l-1.4-0.1h-1.4-2 0.4-0.2-1.2l0.4-0.1h-1.4-1-1.7-2.3l-2.2-0.1h-2.8-3.2-3.3l-7.5-0.1h-8.6-9.5l-10.3-0.1h-11.2-11.6-12.3l-12.6-0.1h-12.9-26.5v-23.2zm167.4-22.5 115.9 35-116.1 34.6 0.2-69.6z" stroke="#c0504d" stroke-width=".1px" fill="#c0504d"/>
  <path stroke-linejoin="round" d="m2551.2 1221.2h26.5 12.9l12.7 0.1h12.2 11.7 11.1l10.4 0.1h9.5 8.5l7.7 0.1h3.4 2.9 2.8l2.6 0.1h1.9 1.7l1.8 0.1 0.6-0.1 1.6 0.1h-0.8 0.2l1.6 0.1v-0.1h1.4l2 0.1h1.8 2.6 2.5 3.1l3.6 0.1h18.4v23.2h-18.8l-3.2-0.1h-3.1-2.9-2.2-2.4l-1.4-0.1h-1.4-2 0.4-0.2-1.2l0.4-0.1h-1.4-1-1.7-2.3l-2.2-0.1h-2.8-3.2-3.3l-7.5-0.1h-8.6-9.5l-10.3-0.1h-11.2-11.6-12.3l-12.6-0.1h-12.9-26.5v-23.2zm167.4-22.5 115.9 35-116.1 34.6 0.2-69.6z" stroke="#c0504d" stroke-width=".1px" fill="#c0504d"/>
  <path stroke-linejoin="round" d="m2551.2 1599.6h26.5 12.9l12.7 0.1h12.2 11.7 11.1l10.4 0.1h9.5 8.5l7.7 0.1h3.4 2.9 2.8l2.6 0.1h1.9 1.7l1.8 0.1 0.6-0.1 1.6 0.1h-0.8 0.2l1.6 0.1v-0.1h1.4l2 0.1h1.8 2.6 2.5 3.1l3.6 0.1h18.4v23.2h-18.8l-3.2-0.1h-3.1-2.9-2.2-2.4l-1.4-0.1h-1.4-2 0.4-0.2-1.2l0.4-0.1h-1.4-1-1.7-2.3l-2.2-0.1h-2.8-3.2-3.3l-7.5-0.1h-8.6-9.5l-10.3-0.1h-11.2-11.6-12.3l-12.6-0.1h-12.9-26.5v-23.2zm167.4-22.5 115.9 35-116.1 34.6 0.2-69.6z" stroke="#c0504d" stroke-width=".1px" fill="#c0504d"/>
  <path stroke-linejoin="round" d="m2834.5 2114.9h-26.4-13l-12.6-0.1h-12.2-11.7-11.2-10.3l-9.5-0.1h-8.6-7.5l-3.5-0.1h-3-2.7-2.6-1.9l-2-0.1h-1.1-1-1.6 0.8-0.2l-1.6-0.1h-1.8-1.3-2.1l-2.6-0.1h-2.6-3.1-3.5l-18.5-0.1 0.1-23.2 18.8 0.1h3.1 3.1 3l2.2 0.1h2.1 2.1 1l2 0.1h-0.4 0.2 1.2-0.4 1l1.7 0.1h1.4 2.3 2.2 2.7 3.3l3.2 0.1h7.6 8.6l9.4 0.1h10.4 11.1 11.7 12.2l12.6 0.1h13 26.4v23.2zm-167.3 22.5-116-35 116.1-34.6-0.1 69.6z" stroke="#c0504d" stroke-width=".1px" fill="#c0504d"/>
  <path stroke-linejoin="round" d="m2834.5 2379.7h-26.4-13l-12.6-0.1h-12.2-11.7-11.2-10.3l-9.5-0.1h-8.6-7.5l-3.5-0.1h-3-2.7-2.6-1.9l-2-0.1h-1.1-1-1.6 0.8-0.2l-1.6-0.1h-1.8-1.3-2.1l-2.6-0.1h-2.6-3.1-3.5l-18.5-0.1 0.1-23.2 18.8 0.1h3.1 3.1 3l2.2 0.1h2.1 2.1 1l2 0.1h-0.4 0.2 1.2-0.4 1l1.7 0.1h1.4 2.3 2.2 2.7 3.3l3.2 0.1h7.6 8.6l9.4 0.1h10.4 11.1 11.7 12.2l12.6 0.1h13 26.4v23.2zm-167.3 22.5-116-35 116.1-34.6-0.1 69.6z" stroke="#c0504d" stroke-width=".1px" fill="#c0504d"/>
  <path stroke-linejoin="round" d="m2834.5 2757.3h-26.4-13l-12.6-0.1h-12.2-11.7-11.2-10.3l-9.5-0.1h-8.6-7.5l-3.5-0.1h-3-2.7-2.6-1.9l-2-0.1h-1.1-1-1.6 0.8-0.2l-1.6-0.1h-1.8-1.3-2.1l-2.6-0.1h-2.6-3.1-3.5l-18.5-0.1 0.1-23.2 18.8 0.1h3.1 3.1 3l2.2 0.1h2.1 2.1 1l2 0.1h-0.4 0.2 1.2-0.4 1l1.7 0.1h1.4 2.3 2.2 2.7 3.3l3.2 0.1h7.6 8.6l9.4 0.1h10.4 11.1 11.7 12.2l12.6 0.1h13 26.4v23.2zm-167.3 22.5-116-35 116.1-34.6-0.1 69.6z" stroke="#c0504d" stroke-width=".1px" fill="#c0504d"/>
  <path stroke-linejoin="round" d="m3288.2 957.2 16.2 0.4 16.6 0.8 16.6 1.2 16.6 1.8 16.4 2.2 16.4 2.8 16.4 3.2 16.4 3.6 16.2 4.2 16.2 4.6 16 5 16 5.4 16 6 15.8 6.2 15.6 6.8 15.4 7 15.4 7.6 15.4 7.8 15 8.2 15 8.6 14.8 9 14.6 9.2 14.4 9.8 14.2 9.8 14 10.4 14 10.6 13.6 10.8 13.4 11.4 26 23 25.2 24.4 24.2 25.6 23 26.4 11.2 13.6 10.8 13.6 10.6 14 10 14.4 10 14.2 9.4 14.6 9.2 14.8 9 14.8 8.4 15.2 8.2 15.2 7.8 15.4 7.4 15.6 7 15.6 6.6 15.8 6.2 16 5.8 16 5.4 16 5 16.2 4.6 16.4 4 16.4 3.8 16.4 3 16.6 2.8 16.6 2.2 16.6 1.8 16.6 1.2 16.8 0.8 16.6 0.2 16.8v16.8l-0.8 16.8-1.2 16.8-1.8 16.6-2.2 16.8-2.8 16.6-3.2 16.4-3.6 16.6-4 16.4-4.6 16.2-5 16.2-5.4 16.2-5.8 16-6.2 16-6.6 15.8-7 15.6-7.4 15.6-7.8 15.4-8 15.4-8.6 15-8.8 15-9.2 14.6-9.6 14.6-9.8 14.4-10.2 14.2-10.4 14-10.8 13.8-11.2 13.6-22.8 26.2-24.2 25.6-25.2 24.4-26 23.2-13.6 11.2-13.4 11-14 10.6-14 10.4-14.2 9.8-14.4 9.8-14.6 9.2-14.8 9-14.8 8.6-15.2 8.2-15.2 7.8-15.4 7.6-15.4 7-15.8 6.8-15.6 6.2-16 5.8-15.8 5.6-16.2 5-16 4.6-16.4 4-26 4.6-3.8-22.8 24.2-4.2 15.6-4 15.6-4.4 15.4-4.8 15.4-5.2 15.4-5.8 15.2-6 15-6.4 15-7 15-7.2 14.8-7.6 14.6-7.8 14.4-8.4 14.4-8.8 14-9 14-9.4 13.8-9.6 13.8-10 13.4-10.2 13.2-10.8 13-10.8 25.4-22.6 24.4-23.6 23.4-24.8 22.6-25.8 10.8-13.2 10.4-13.2 10.2-13.6 9.8-13.8 9.6-14 9.4-14.2 8.8-14.2 8.6-14.6 8.2-14.6 8-14.8 7.4-15 7.2-15 6.8-15.2 6.4-15.2 6-15.4 5.6-15.6 5.2-15.6 4.8-15.6 4.4-15.6 4-15.8 3.4-16 3.2-15.8 2.6-16 2.2-16 1.6-16 1.2-16 0.8-15.8v-16.4l-0.2-16-0.6-16.2-1.2-15.8-1.8-16.2-2.2-15.8-2.6-16-3-15.8-3.4-16-4-15.8-4.4-15.8-4.8-15.6-5.2-15.6-5.6-15.4-6-15.4-6.4-15.4-6.8-15-7.2-15.2-7.4-14.8-8-14.8-8.2-14.6-8.6-14.6-9-14.4-9.2-14-9.6-14-9.8-13.8-10.2-13.6-10.6-13.4-10.6-13-22.4-25.8-23.6-24.6-24.4-23.8-25.6-22.8-13-10.8-13.2-10.6-13.4-10.4-13.6-10-14-9.6-13.8-9.4-14.2-9-14.4-8.6-14.4-8.4-14.8-8-14.6-7.6-15-7.2-15-7-15.2-6.4-15.2-6-15.2-5.8-15.4-5.2-15.6-4.8-15.6-4.6-15.6-3.8-15.6-3.6-15.8-3.2-15.8-2.6-15.8-2.2-15.8-1.6-15.8-1.4-15.8-0.6-16.2-0.4 0.2-23.2zm119.8 1432.2-119.2-22.2 111.6-47 7.6 69.2z" stroke="#c0504d" stroke-width=".2px" fill="#c0504d"/>
  <path stroke-linejoin="round" d="m3288.2 1221.2 10.8 0.2 11.2 0.6 11 0.8 11 1 22 3.2 21.8 4.2 21.8 5.6 21.4 6.6 21.2 7.4 20.8 8.8 20.6 9.6 20 10.4 19.6 11.4 19.2 12.4 18.8 13 18 13.8 17.4 14.6 16.8 15.4 16.2 15.8 15.4 16.6 14.8 17 13.8 17.8 13 18 12 18.6 11.2 19 10.2 19.6 9.2 19.6 8 20.2 7 20.2 5.8 20.6 2.6 10.4 2 10.6 1.8 10.4 1.6 10.4 1.2 10.6 0.8 10.4 0.6 10.6 0.2 10.6v10.6l-0.6 10.8-0.8 10.6-1.2 10.4-1.6 10.4-1.8 10.6-2.2 10.4-2.4 10.4-5.6 20.4-7 20.4-8 20-9.2 19.8-10.2 19.6-11 19-12.2 18.6-13 18.2-13.8 17.6-14.6 17.2-15.4 16.6-16 15.8-16.8 15.4-17.6 14.6-18 13.8-18.6 13-19 12.4-19.8 11.4-20 10.6-20.4 9.6-20.8 8.6-21.2 7.6-25.6 6-5.2-22.6 23-5.2 20.2-7.2 19.8-8.2 19.4-9.2 19.2-10 18.8-11 18.2-11.8 18-12.4 17.2-13.2 16.8-14 16-14.6 15.4-15.2 14.8-15.8 14-16.4 13.2-17 12.4-17.2 11.6-17.8 10.6-18 9.6-18.4 8.6-18.8 7.6-18.8 6.6-19.2 5.4-19.6 2.4-9.8 2-9.6 1.8-9.8 1.4-9.8 1-9.8 0.8-9.8 0.6-9.6v-10.2l-0.2-10-0.4-9.6-0.8-10-1.2-9.6-1.4-9.8-1.6-9.8-2-9.8-2.4-9.6-5.4-19.2-6.4-19.2-7.6-19-8.8-18.8-9.6-18.4-10.6-18-11.4-17.8-12.6-17.4-13-16.8-14-16.4-14.8-15.8-15.6-15.4-16-14.6-16.8-14-17.2-13.2-17.8-12.6-18.4-11.6-18.8-11-19.2-10-19.4-9.2-19.8-8.2-20.2-7.4-20.4-6.2-20.4-5.2-20.8-4-20.8-3-10.4-1.2-10.4-0.6-10.6-0.6-10.6-0.2 0.2-23.2zm120.6 897.8-120-17 109.4-51.8 10.6 68.8z" stroke="#c0504d" stroke-width=".2px" fill="#c0504d"/>
  <path stroke-linejoin="round" d="m3288.2 1599.6 14.8 0.2 14.8 0.8 15 1 14.8 1.4 15 1.8 14.8 2.2 14.8 2.6 14.6 3 14.6 3.4 14.8 3.8 14.4 4 14.4 4.4 14.4 4.8 14.2 5.2 14 5.4 14.2 5.6 13.8 6.2 13.8 6.4 27 13.6 26.6 14.8 25.8 15.8 25.2 17 24.4 18 23.6 18.8 22.8 19.8 22 20.8 20.8 21.4 19.8 22.2 18.6 22.8 9 12 8.8 11.8 8.2 12 8 12.2 7.8 12.2 7.4 12.4 7 12.6 6.6 12.6 6.4 12.8 6 12.8 5.6 13 5.2 13 5 13.2 4.6 13.2 4 13.4 3.8 13.2 3.2 13.6 3 13.4 2.4 13.6 2 13.4 1.6 13.6 1.2 13.8 0.6 13.6 0.4 13.6-0.2 13.8-0.6 13.8-1 13.6-1.8 13.8-2 13.4-2.4 13.6-3 13.6-3.2 13.4-3.8 13.4-4 13.4-4.6 13.2-4.8 13.2-5.2 13-5.8 13-5.8 12.8-6.4 12.8-6.8 12.8-7 12.4-7.4 12.4-7.6 12.4-8 12.2-8.4 12-17.4 23.4-18.8 23-19.6 22.2-21 21.4-21.8 20.8-22.6 19.8-23.6 18.8-24.4 18-25.2 17-25.8 16-26.6 14.8-27 13.6-14 6.4-13.8 6.2-14 5.6-14.2 5.4-14.2 5.2-14.2 4.8-14.4 4.4-14.6 4-14.6 3.8-14.6 3.2-13.8 1.8-2.6-23 11.2-1.4 14.2-3.2 14-3.4 14-4 13.8-4.2 13.8-4.6 13.8-5 13.6-5.2 13.4-5.6 13.6-5.8 13.2-6.2 26.2-13.2 25.6-14.2 25-15.4 24.4-16.4 23.6-17.4 23-18.4 22-19.2 21-20 20.2-20.6 19.2-21.6 18-22 17-22.8 8-11.6 7.8-11.8 7.4-11.8 7-11.8 6.8-12.2 6.4-12 6-12.2 5.8-12.4 5.4-12.4 5-12.6 4.8-12.4 4.2-12.8 4-12.6 3.4-12.8 3.2-12.8 2.8-12.6 2.4-13 1.8-12.8 1.6-12.8 1-13 0.6-12.6 0.2-13.4-0.2-12.8-0.8-13-1-12.8-1.4-12.8-2-13-2.4-12.8-2.6-12.8-3.2-12.6-3.6-12.8-3.8-12.8-4.4-12.6-4.6-12.6-5-12.4-5.4-12.4-5.8-12.4-6-12.2-6.4-12.2-6.8-12-7.2-11.8-7.4-12-7.6-11.6-8-11.6-8.4-11.4-8.4-11.2-18.2-22.2-19-21.4-20.2-20.8-21.2-20-22-19.2-22.8-18.4-23.8-17.4-24.2-16.4-25.2-15.4-25.6-14.4-26.4-13.2-13.2-6.2-13.6-5.8-13.4-5.6-13.8-5.2-13.6-5-13.8-4.6-14-4.2-13.8-4-14.2-3.6-14-3.2-14.2-2.8-14-2.6-14.4-2.2-14.2-1.8-14.2-1.2-14.4-1.2-14.2-0.6-14.6-0.2 0.2-23.2zm119.6 1167.6-119.2-22.2 111.6-47 7.6 69.2z" stroke="#c0504d" stroke-width=".2px" fill="#c0504d"/>
  <text xml:space="preserve" font-size="106.4px" y="642.81787" x="3128.3906" font-family="Arial" fill="#000000">Kernel</text>
  <text xml:space="preserve" font-size="106.4px" y="642.81787" x="3436.3906" font-family="Arial" fill="#000000">-</text>
  <text xml:space="preserve" font-size="106.4px" y="642.81787" x="3471.5906" font-family="Arial" fill="#000000">space: </text>
  <text xml:space="preserve" font-size="106.4px" y="770.81787" x="3128.3906" font-family="Arial" fill="#000000">bridging/forwarding</text>
  <path d="m56.8 1422.4v906.4h604.8v-906.4h-604.8z" fill-rule="evenodd" fill="#4f81bd"/>
  <path stroke-linejoin="round" d="m50 1422.4c0-3.7 3.1-6.8 6.8-6.8h604.8c3.8 0 6.8 3.1 6.8 6.8v906.4c0 3.8-3 6.8-6.8 6.8h-604.8c-3.7 0-6.8-3-6.8-6.8zm13.6 906.4-6.8-6.8h604.8l-6.8 6.8v-906.4l6.8 6.8h-604.8l6.8-6.8z" stroke="#385d8a" stroke-width=".1px" fill="#385d8a"/>
  <text xml:space="preserve" font-size="106.4px" y="1851.599" x="213.47821" font-family="Arial" fill="#ffffff">Traffic </text>
  <text xml:space="preserve" font-size="106.4px" y="1979.599" x="119.07821" font-family="Arial" fill="#ffffff">Generator</text>
  <path stroke-linejoin="round" d="m1510.7 1845 9.9-0.5 8.8-1.2 8.9-2.1 9-2.7 8.8-3.6 8.8-4.2 8.9-5 8.7-5.7 8.6-6.4 8.6-6.9 8.3-7.7 8.2-8.2 8.1-8.8 7.8-9.4 7.5-9.8 7.3-10.4 7.1-10.8 6.7-11.3 6.3-11.6 6.1-12 5.6-12.4 5.3-12.6 4.8-13 4.4-13.2 4-13.4 3.5-13.6 3-13.8 2.5-13.9 2-14 1.5-14.1 0.8-14.1 0.3-14.1 0.5-14.8 1.5-15.3 2.4-15.3 3.5-15.1 4.2-15 5.3-14.8 5.9-14.6 6.8-14.4 7.5-14.1 8.3-13.8 9-13.5 9.6-13.1 10.3-12.8 10.8-12.4 11.4-12 11.9-11.5 12.5-11.1 12.9-10.5 13.4-10.1 13.8-9.5 14.1-8.8 14.6-8.3 14.9-7.6 15.1-7l1.5-0.6 21.5-6.3 6.6 22.2-21.5 6.4 1.6-0.6-14.3 6.5-14 7.2-13.7 7.7-13.3 8.4-13 8.9-12.6 9.4-12.2 10-11.7 10.3-11.3 10.9-10.8 11.2-10.2 11.7-9.6 11.9-9 12.4-8.4 12.6-7.7 12.8-7 13.1-6.3 13.2-5.6 13.5-4.7 13.5-4 13.7-3.2 13.8-2.2 13.7-1.4 13.9-0.5 14.4-0.3 15.1-1 15.1-1.5 14.9-2.1 14.9-2.7 14.8-3.2 14.6-3.7 14.4-4.3 14.2-4.6 14-5.2 13.7-5.6 13.3-6 13.2-6.4 12.8-6.8 12.4-7.2 11.9-7.5 11.6-7.8 11.1-8.2 10.7-8.5 10-8.8 9.6-8.9 9-9.4 8.4-9.4 7.7-9.8 7.2-10 6.4-10.1 5.7-10.4 4.9-10.6 4.1-10.6 3.3-10.8 2.3-10.9 1.5-9.9 0.4zm428.4-623.6 120.5 11.4-106.9 56.9z" stroke="#c0504d" stroke-width=".1px" fill="#c0504d"/>
  <text xml:space="preserve" font-size="106.4px" y="642.81787" x="1503.0131" font-family="Arial" fill="#000000">User</text>
  <text xml:space="preserve" font-size="106.4px" y="642.81787" x="1727.8131" font-family="Arial" fill="#000000">-</text>
  <text xml:space="preserve" font-size="106.4px" y="642.81787" x="1763.0131" font-family="Arial" fill="#000000">space:</text>
  <text xml:space="preserve" font-size="106.4px" y="770.81787" x="1503.0131" font-family="Arial" fill="#000000">DPDK application</text>
  <path stroke-linejoin="round" d="m768.1 1596.7 215-31.4 3.4 22.9-215.1 31.5-3.3-23zm18.2 44.3-119.9-17.7 109.8-51.2 10.1 68.9zm182-97 119.8 17.6-109.7 51.3-10.1-68.9z" stroke="#c0504d" stroke-width=".1px" fill="#c0504d"/>
  <path stroke-linejoin="round" d="m772.4 1853.1 212.9-0.4v23.2l-212.8 0.4-0.1-23.2zm11.7 46.4-116.1-34.6 116-35 0.1 69.6zm189.5-70 116.1 34.5-115.9 35.1-0.2-69.6z" stroke="#c0504d" stroke-width=".1px" fill="#c0504d"/>
  <path stroke-linejoin="round" d="m775.2 2204.9 216.5 41.1-4.3 22.8-216.5-41.1 4.3-22.8zm2.7 47.8-107.5-55.9 120.5-12.5-13 68.4zm206.7-31.7 107.5 55.8-120.4 12.6 12.9-68.4z" stroke="#c0504d" stroke-width=".1px" fill="#c0504d"/>
  <path d="m1266 1988.4v24h24.8v-24h-24.8z" fill-rule="evenodd" fill="#1f497d"/>
  <path d="m1266 2064.4v24h24.8v-24h-24.8z" fill-rule="evenodd" fill="#1f497d"/>
  <path d="m1266 2139.6v24h24.8v-24h-24.8z" fill-rule="evenodd" fill="#1f497d"/>
  <path d="m2286 1346v24h24.8v-24h-24.8z" fill-rule="evenodd" fill="#1f497d"/>
  <path d="m2286 1422v24h24.8v-24h-24.8z" fill-rule="evenodd" fill="#1f497d"/>
  <path d="m2286 1497.2v24h24.8v-24h-24.8z" fill-rule="evenodd" fill="#1f497d"/>
  <path d="m2286 2479.6v24h24.8v-24h-24.8z" fill-rule="evenodd" fill="#1f497d"/>
  <path d="m2286 2555.6v24h24.8v-24h-24.8z" fill-rule="evenodd" fill="#1f497d"/>
  <path d="m2286 2630.8v24h24.8v-24h-24.8z" fill-rule="evenodd" fill="#1f497d"/>
  <path d="m3042 1346v24h24.8v-24h-24.8z" fill-rule="evenodd" fill="#1f497d"/>
  <path d="m3042 1422v24h24.8v-24h-24.8z" fill-rule="evenodd" fill="#1f497d"/>
  <path d="m3042 1497.2v24h24.8v-24h-24.8z" fill-rule="evenodd" fill="#1f497d"/>
  <path d="m3042 2479.6v24h24.8v-24h-24.8z" fill-rule="evenodd" fill="#1f497d"/>
  <path d="m3042 2555.6v24h24.8v-24h-24.8z" fill-rule="evenodd" fill="#1f497d"/>
  <path d="m3042 2630.8v24h24.8v-24h-24.8z" fill-rule="evenodd" fill="#1f497d"/>
 </g>
</svg>
