<?xml version="1.0" encoding="UTF-8" standalone="no"?>
<!-- Created with Inkscape (http://www.inkscape.org/) -->

<svg
   xmlns:dc="http://purl.org/dc/elements/1.1/"
   xmlns:cc="http://creativecommons.org/ns#"
   xmlns:rdf="http://www.w3.org/1999/02/22-rdf-syntax-ns#"
   xmlns:svg="http://www.w3.org/2000/svg"
   xmlns="http://www.w3.org/2000/svg"
   xmlns:sodipodi="http://sodipodi.sourceforge.net/DTD/sodipodi-0.dtd"
   xmlns:inkscape="http://www.inkscape.org/namespaces/inkscape"
   width="469.492"
   height="382.11536"
   id="svg6126"
   version="1.1"
   inkscape:version="0.48.4 r9939"
   sodipodi:docname="ipPipelines_3_update.svg">
  <defs
     id="defs6128">
    <clipPath
       id="clipEmfPath1"
       clipPathUnits="userSpaceOnUse">
      <rect
         id="rect6139"
         height="406.59448"
         width="585"
         y="0"
         x="0" />
    </clipPath>
    <clipPath
       id="clipEmfPath2"
       clipPathUnits="userSpaceOnUse">
      <rect
         id="rect6142"
         height="134.38165"
         width="277.79999"
         y="247.76617"
         x="49.650002" />
    </clipPath>
    <clipPath
       id="clipEmfPath3"
       clipPathUnits="userSpaceOnUse">
      <rect
         id="rect6145"
         height="93.137283"
         width="230.55"
         y="280.01178"
         x="72.150002" />
    </clipPath>
    <clipPath
       id="clipEmfPath4"
       clipPathUnits="userSpaceOnUse">
      <rect
         id="rect6148"
         height="13.648136"
         width="45.900002"
         y="308.50787"
         x="76.650002" />
    </clipPath>
    <clipPath
       id="clipEmfPath5"
       clipPathUnits="userSpaceOnUse">
      <rect
         id="rect6151"
         height="13.648136"
         width="83.400002"
         y="308.50787"
         x="126.15" />
    </clipPath>
    <clipPath
       id="clipEmfPath6"
       clipPathUnits="userSpaceOnUse">
      <rect
         id="rect6154"
         height="137.38124"
         width="208.2"
         y="18.147522"
         x="240.75" />
    </clipPath>
    <clipPath
       id="clipEmfPath7"
       clipPathUnits="userSpaceOnUse">
      <rect
         id="rect6157"
         height="137.38124"
         width="190.2"
         y="18.147522"
         x="42.75" />
    </clipPath>
    <clipPath
       id="clipEmfPath8"
       clipPathUnits="userSpaceOnUse">
      <rect
         id="rect6160"
         height="93.137283"
         width="142.64999"
         y="54.592545"
         x="66.449997" />
    </clipPath>
    <clipPath
       id="clipEmfPath9"
       clipPathUnits="userSpaceOnUse">
      <rect
         id="rect6163"
         height="13.648136"
         width="45.900002"
         y="83.088654"
         x="70.949997" />
    </clipPath>
    <clipPath
       id="clipEmfPath10"
       clipPathUnits="userSpaceOnUse">
      <rect
         id="rect6166"
         height="13.648136"
         width="83.400002"
         y="83.088654"
         x="120.45" />
    </clipPath>
    <clipPath
       id="clipEmfPath11"
       clipPathUnits="userSpaceOnUse">
      <rect
         id="rect6169"
         height="90.887589"
         width="161.39999"
         y="53.092751"
         x="265.20001" />
    </clipPath>
    <clipPath
       id="clipEmfPath12"
       clipPathUnits="userSpaceOnUse">
      <rect
         id="rect6172"
         height="13.648136"
         width="54.599998"
         y="84.588448"
         x="270.45001" />
    </clipPath>
    <clipPath
       id="clipEmfPath13"
       clipPathUnits="userSpaceOnUse">
      <rect
         id="rect6175"
         height="13.648136"
         width="90.150002"
         y="84.588448"
         x="329.54999" />
    </clipPath>
    <clipPath
       id="clipEmfPath14"
       clipPathUnits="userSpaceOnUse">
      <rect
         id="rect6178"
         height="13.648136"
         width="83.400002"
         y="308.50787"
         x="213.89999" />
    </clipPath>
  </defs>
  <sodipodi:namedview
     id="base"
     pagecolor="#ffffff"
     bordercolor="#666666"
     borderopacity="1.0"
     inkscape:pageopacity="0.0"
     inkscape:pageshadow="2"
     inkscape:zoom="1.979899"
     inkscape:cx="228.24994"
     inkscape:cy="175.22545"
     inkscape:document-units="px"
     inkscape:current-layer="layer1"
     showgrid="false"
     inkscape:window-width="1033"
     inkscape:window-height="1284"
     inkscape:window-x="86"
     inkscape:window-y="249"
     inkscape:window-maximized="0"
     fit-margin-top="0"
     fit-margin-left="0"
     fit-margin-right="0"
     fit-margin-bottom="0"
     showborder="true"
     borderlayer="false" />
  <metadata
     id="metadata6131">
    <rdf:RDF>
      <cc:Work
         rdf:about="">
        <dc:format>image/svg+xml</dc:format>
        <dc:type
           rdf:resource="http://purl.org/dc/dcmitype/StillImage" />
        <dc:title></dc:title>
      </cc:Work>
    </rdf:RDF>
  </metadata>
  <g
     inkscape:label="Layer 1"
     inkscape:groupmode="layer"
     id="layer1"
     transform="translate(-156.65375,-367.02875)">
    <text
       xml:space="preserve"
       x="626.14575"
       y="749.1441"
       style="font-size:13.80000019px;font-style:normal;font-weight:normal;text-align:start;text-anchor:start;fill:#000000;font-family:Calibri"
       id="text6182"> </text>
    <rect
       style="fill:none;stroke:#000000;stroke-width:1.1530993;stroke-linecap:butt;stroke-linejoin:miter;stroke-miterlimit:4;stroke-opacity:1;stroke-dasharray:3.45929811, 1.15309937;stroke-dashoffset:0"
       id="rect3114"
       width="279.14426"
       height="142.7157"
       x="186.01018"
       y="597.78625" />
    <path
       inkscape:connector-curvature="0"
       style="fill:#ffffff;fill-opacity:1;fill-rule:evenodd;stroke:none"
       clip-path="url(#clipEmfPath2)"
       d="m 71.775,275.13743 0,102.73597 231.15,0 0,-102.73597 -231.15,0 z"
       id="path6188"
       transform="translate(137.14575,354.09808)" />
    <path
       inkscape:connector-curvature="0"
       style="fill:none;stroke:#000000;stroke-width:0.60000002px;stroke-linecap:butt;stroke-linejoin:round;stroke-opacity:1;stroke-dasharray:none"
       d="m 208.92075,629.23551 231.15,0 0,102.73597 -231.15,0 z"
       id="path6190" />
    <path
       inkscape:connector-curvature="0"
       style="fill:#ffffff;fill-opacity:1;fill-rule:evenodd;stroke:none"
       clip-path="url(#clipEmfPath3)"
       d="m 76.275,303.63354 0,23.24683 46.5,0 0,-23.24683 -46.5,0 z"
       id="path6192"
       transform="translate(137.14575,354.09808)" />
    <path
       inkscape:connector-curvature="0"
       style="fill:none;stroke:#000000;stroke-width:0.60000002px;stroke-linecap:butt;stroke-linejoin:round;stroke-opacity:1;stroke-dasharray:none"
       d="m 213.42075,657.73162 46.5,0 0,23.24683 -46.5,0 z"
       id="path6194" />
    <path
       inkscape:connector-curvature="0"
       style="fill:#ffffff;fill-opacity:1;fill-rule:evenodd;stroke:none"
       clip-path="url(#clipEmfPath4)"
       d="m 125.775,303.63354 0,23.24683 84,0 0,-23.24683 -84,0 z"
       id="path6196"
       transform="translate(137.14575,354.09808)" />
    <path
       inkscape:connector-curvature="0"
       style="fill:none;stroke:#000000;stroke-width:0.60000002px;stroke-linecap:butt;stroke-linejoin:round;stroke-opacity:1;stroke-dasharray:none"
       d="m 262.92075,657.73162 84,0 0,23.24683 -84,0 z"
       id="path6198" />
    <path
       inkscape:connector-curvature="0"
       style="fill:#ffffff;fill-opacity:1;fill-rule:evenodd;stroke:none"
       clip-path="url(#clipEmfPath5)"
       d="m 76.275,329.87996 0,41.99426 46.5,0 0,-41.99426 -46.5,0 z"
       id="path6200"
       transform="translate(137.14575,354.09808)" />
    <path
       inkscape:connector-curvature="0"
       style="fill:none;stroke:#000000;stroke-width:0.60000002px;stroke-linecap:butt;stroke-linejoin:round;stroke-opacity:1;stroke-dasharray:none"
       d="m 213.42075,683.97804 46.5,0 0,41.99426 -46.5,0 z"
       id="path6202" />
    <path
       inkscape:connector-curvature="0"
       style="fill:#ffffff;fill-opacity:1;fill-rule:evenodd;stroke:none"
       d="m 262.92075,683.97804 0,42.74416 84,0 0,-42.74416 -84,0 z"
       id="path6204" />
    <path
       inkscape:connector-curvature="0"
       style="fill:none;stroke:#000000;stroke-width:0.60000002px;stroke-linecap:butt;stroke-linejoin:round;stroke-opacity:1;stroke-dasharray:none"
       d="m 262.92075,683.97804 84,0 0,42.74416 -84,0 z"
       id="path6206" />
    <rect
       style="fill:#ffffff;fill-opacity:1;stroke:none"
       id="rect3920-48"
       width="16.515228"
       height="21.21936"
       x="177.68185"
       y="647.82019" />
    <path
       inkscape:connector-curvature="0"
       style="fill:none;stroke:#000000;stroke-width:1.20000005px;stroke-linecap:butt;stroke-linejoin:miter;stroke-miterlimit:4;stroke-opacity:1;stroke-dasharray:none"
       d="m 179.52075,649.33277 3.2625,0 c 0.35625,0 0.6375,0.29996 0.6375,0.65616 l 0,16.74146 -3.9,0 z"
       id="path6208" />
    <path
       inkscape:connector-curvature="0"
       style="fill:none;stroke:#000000;stroke-width:1.20000005px;stroke-linecap:butt;stroke-linejoin:miter;stroke-miterlimit:4;stroke-opacity:1;stroke-dasharray:none"
       d="m 183.42075,649.18279 3.13125,0 c 0.35625,0 0.61875,0.28121 0.61875,0.63741 l 0,16.91019 -3.75,0 z"
       id="path6210" />
    <path
       inkscape:connector-curvature="0"
       style="fill:none;stroke:#000000;stroke-width:1.20000005px;stroke-linecap:butt;stroke-linejoin:miter;stroke-miterlimit:4;stroke-opacity:1;stroke-dasharray:none"
       d="m 187.17075,649.33277 3.2625,0 c 0.35625,0 0.6375,0.29996 0.6375,0.65616 l 0,16.74146 -3.9,0 z"
       id="path6212" />
    <rect
       style="fill:#ffffff;fill-opacity:1;stroke:none"
       id="rect3920-48-8"
       width="16.515228"
       height="21.21936"
       x="176.61043"
       y="694.24872" />
    <path
       inkscape:connector-curvature="0"
       style="fill:none;stroke:#000000;stroke-width:1.20000005px;stroke-linecap:butt;stroke-linejoin:miter;stroke-miterlimit:4;stroke-opacity:1;stroke-dasharray:none"
       d="m 179.52075,696.57632 3.2625,0 c 0.35625,0 0.6375,0.29996 0.6375,0.65616 l 0,16.74146 -3.9,0 z"
       id="path6214" />
    <path
       inkscape:connector-curvature="0"
       style="fill:none;stroke:#000000;stroke-width:1.20000005px;stroke-linecap:butt;stroke-linejoin:miter;stroke-miterlimit:4;stroke-opacity:1;stroke-dasharray:none"
       d="m 183.42075,696.42634 3.13125,0 c 0.35625,0 0.61875,0.28121 0.61875,0.63741 l 0,16.91019 -3.75,0 z"
       id="path6216" />
    <path
       inkscape:connector-curvature="0"
       style="fill:none;stroke:#000000;stroke-width:1.20000005px;stroke-linecap:butt;stroke-linejoin:miter;stroke-miterlimit:4;stroke-opacity:1;stroke-dasharray:none"
       d="m 187.17075,696.57632 3.2625,0 c 0.35625,0 0.6375,0.29996 0.6375,0.65616 l 0,16.74146 -3.9,0 z"
       id="path6218" />
    <path
       inkscape:connector-curvature="0"
       style="fill:#000000;fill-opacity:1;fill-rule:nonzero;stroke:#000000;stroke-width:0.01875;stroke-linecap:butt;stroke-linejoin:round;stroke-opacity:1;stroke-dasharray:0.01875,0.01875;stroke-miterlimit:4;stroke-dashoffset:0"
       d="m 162.4395,659.13768 12.1125,-0.33745 -0.0375,-1.25608 -12.09375,0.33745 0.0188,1.25608 z m 12.09375,-0.95612 -2.4,3.80573 7.3875,-3.95571 -7.59375,-3.52452 2.60625,3.6745 z"
       id="path6220" />
    <path
       inkscape:connector-curvature="0"
       style="fill:#000000;fill-opacity:1;fill-rule:nonzero;stroke:#000000;stroke-width:0.01875;stroke-linecap:butt;stroke-linejoin:round;stroke-opacity:1;stroke-dasharray:0.01875,0.01875;stroke-miterlimit:4;stroke-dashoffset:0"
       d="m 191.8395,659.13768 12.1125,-0.33745 -0.0375,-1.25608 -12.09375,0.33745 0.0187,1.25608 z m 12.09375,-0.95612 -2.4,3.80573 7.3875,-3.95571 -7.59375,-3.52452 2.60625,3.6745 z"
       id="path6222" />
    <path
       inkscape:connector-curvature="0"
       style="fill:#000000;fill-opacity:1;fill-rule:nonzero;stroke:#000000;stroke-width:0.01875;stroke-linecap:butt;stroke-linejoin:round;stroke-opacity:1;stroke-dasharray:0.01875,0.0375;stroke-miterlimit:4;stroke-dashoffset:0"
       d="m 191.0895,705.63133 12.1125,-0.33745 -0.0375,-1.25608 -12.09375,0.33745 0.0187,1.25608 z m 12.09375,-0.95612 -2.4,3.80573 7.3875,-3.95571 -7.59375,-3.52452 2.60625,3.6745 z"
       id="path6224" />
    <path
       inkscape:connector-curvature="0"
       style="fill:#000000;fill-opacity:1;fill-rule:nonzero;stroke:#000000;stroke-width:0.01875;stroke-linecap:butt;stroke-linejoin:round;stroke-opacity:1;stroke-dasharray:0.01875,0.01875;stroke-miterlimit:4;stroke-dashoffset:0"
       d="m 162.4395,705.63133 12.1125,-0.33745 -0.0375,-1.25608 -12.09375,0.33745 0.0188,1.25608 z m 12.09375,-0.95612 -2.4,3.80573 7.3875,-3.95571 -7.59375,-3.52452 2.60625,3.6745 z"
       id="path6226" />
    <path
       inkscape:connector-curvature="0"
       style="fill:#ffffff;fill-opacity:1;fill-rule:evenodd;stroke:none"
       d="m 377.52075,367.37127 0,146.97993 208.8,0 0,-146.97993 -208.8,0 z"
       id="path6228" />
    <path
       inkscape:connector-curvature="0"
       style="fill:#ffffff;fill-opacity:1;fill-rule:evenodd;stroke:none"
       clip-path="url(#clipEmfPath6)"
       d="m 42.375,13.273188 0,146.979932 190.8,0 0,-146.979932 -190.8,0 z"
       id="path6232"
       transform="translate(137.14575,354.09808)" />
    <rect
       style="fill:none;stroke:#000000;stroke-width:1.1530993;stroke-linecap:butt;stroke-linejoin:miter;stroke-miterlimit:4;stroke-opacity:1;stroke-dasharray:3.45929801, 1.15309934;stroke-dashoffset:0"
       id="rect3114-1"
       width="191.96552"
       height="148.42998"
       x="180.02544"
       y="368.29129" />
    <path
       inkscape:connector-curvature="0"
       style="fill:#ffffff;fill-opacity:1;fill-rule:evenodd;stroke:none"
       clip-path="url(#clipEmfPath7)"
       d="m 66.075,49.718211 0,102.735969 143.25,0 0,-102.735969 -143.25,0 z"
       id="path6236"
       transform="translate(137.14575,354.09808)" />
    <path
       inkscape:connector-curvature="0"
       style="fill:none;stroke:#000000;stroke-width:0.60000002px;stroke-linecap:butt;stroke-linejoin:round;stroke-opacity:1;stroke-dasharray:none"
       d="m 203.22075,403.81629 143.25,0 0,102.73597 -143.25,0 z"
       id="path6238" />
    <path
       inkscape:connector-curvature="0"
       style="fill:#ffffff;fill-opacity:1;fill-rule:evenodd;stroke:none"
       clip-path="url(#clipEmfPath8)"
       d="m 70.575,78.21432 0,23.24683 46.5,0 0,-23.24683 -46.5,0 z"
       id="path6240"
       transform="translate(137.14575,354.09808)" />
    <path
       inkscape:connector-curvature="0"
       style="fill:none;stroke:#000000;stroke-width:0.60000002px;stroke-linecap:butt;stroke-linejoin:round;stroke-opacity:1;stroke-dasharray:none"
       d="m 207.72075,432.3124 46.5,0 0,23.24683 -46.5,0 z"
       id="path6242" />
    <path
       inkscape:connector-curvature="0"
       style="fill:#ffffff;fill-opacity:1;fill-rule:evenodd;stroke:none"
       clip-path="url(#clipEmfPath9)"
       d="m 120.075,78.21432 0,23.24683 84,0 0,-23.24683 -84,0 z"
       id="path6244"
       transform="translate(137.14575,354.09808)" />
    <path
       inkscape:connector-curvature="0"
       style="fill:none;stroke:#000000;stroke-width:0.60000002px;stroke-linecap:butt;stroke-linejoin:round;stroke-opacity:1;stroke-dasharray:none"
       d="m 257.22075,432.3124 84,0 0,23.24683 -84,0 z"
       id="path6246" />
    <path
       inkscape:connector-curvature="0"
       style="fill:#ffffff;fill-opacity:1;fill-rule:evenodd;stroke:none"
       clip-path="url(#clipEmfPath10)"
       d="m 70.575,104.46074 0,41.99426 46.5,0 0,-41.99426 -46.5,0 z"
       id="path6248"
       transform="translate(137.14575,354.09808)" />
    <path
       inkscape:connector-curvature="0"
       style="fill:none;stroke:#000000;stroke-width:0.60000002px;stroke-linecap:butt;stroke-linejoin:round;stroke-opacity:1;stroke-dasharray:none"
       d="m 207.72075,458.55882 46.5,0 0,41.99426 -46.5,0 z"
       id="path6250" />
    <path
       inkscape:connector-curvature="0"
       style="fill:#ffffff;fill-opacity:1;fill-rule:evenodd;stroke:none"
       d="m 257.22075,458.55882 0,42.74416 84,0 0,-42.74416 -84,0 z"
       id="path6252" />
    <path
       inkscape:connector-curvature="0"
       style="fill:none;stroke:#000000;stroke-width:0.60000002px;stroke-linecap:butt;stroke-linejoin:round;stroke-opacity:1;stroke-dasharray:none"
       d="m 257.22075,458.55882 84,0 0,42.74416 -84,0 z"
       id="path6254" />
    <path
       inkscape:connector-curvature="0"
       style="fill:#ffffff;fill-opacity:1;fill-rule:evenodd;stroke:none"
       d="m 401.97075,402.3165 0,100.48628 162,0 0,-100.48628 -162,0 z"
       id="path6256" />
    <path
       inkscape:connector-curvature="0"
       style="fill:none;stroke:#000000;stroke-width:0.60000002px;stroke-linecap:butt;stroke-linejoin:round;stroke-opacity:1;stroke-dasharray:none"
       d="m 401.97075,402.3165 162,0 0,100.48628 -162,0 z"
       id="path6258" />
    <path
       inkscape:connector-curvature="0"
       style="fill:#ffffff;fill-opacity:1;fill-rule:evenodd;stroke:none"
       clip-path="url(#clipEmfPath11)"
       d="m 270.075,79.714116 0,23.246824 55.2,0 0,-23.246824 -55.2,0 z"
       id="path6260"
       transform="translate(137.14575,354.09808)" />
    <path
       inkscape:connector-curvature="0"
       style="fill:none;stroke:#000000;stroke-width:0.60000002px;stroke-linecap:butt;stroke-linejoin:round;stroke-opacity:1;stroke-dasharray:none"
       d="m 407.22075,433.8122 55.2,0 0,23.24682 -55.2,0 z"
       id="path6262" />
    <path
       inkscape:connector-curvature="0"
       style="fill:#ffffff;fill-opacity:1;fill-rule:evenodd;stroke:none"
       clip-path="url(#clipEmfPath12)"
       d="m 329.025,79.714116 0,23.246824 90.9,0 0,-23.246824 -90.9,0 z"
       id="path6264"
       transform="translate(137.14575,354.09808)" />
    <path
       inkscape:connector-curvature="0"
       style="fill:none;stroke:#000000;stroke-width:0.60000002px;stroke-linecap:butt;stroke-linejoin:round;stroke-opacity:1;stroke-dasharray:none"
       d="m 466.17075,433.8122 90.9,0 0,23.24682 -90.9,0 z"
       id="path6266" />
    <path
       inkscape:connector-curvature="0"
       style="fill:#ffffff;fill-opacity:1;fill-rule:evenodd;stroke:none"
       clip-path="url(#clipEmfPath13)"
       d="m 269.325,106.71043 0,36.74498 55.95,0 0,-36.74498 -55.95,0 z"
       id="path6268"
       transform="translate(137.14575,354.09808)" />
    <path
       inkscape:connector-curvature="0"
       style="fill:none;stroke:#000000;stroke-width:0.60000002px;stroke-linecap:butt;stroke-linejoin:round;stroke-opacity:1;stroke-dasharray:none"
       d="m 406.47075,460.80851 55.95,0 0,36.74498 -55.95,0 z"
       id="path6270" />
    <path
       inkscape:connector-curvature="0"
       style="fill:#ffffff;fill-opacity:1;fill-rule:evenodd;stroke:none"
       d="m 466.92075,460.80851 0,36.74498 90.15,0 0,-36.74498 -90.15,0 z"
       id="path6272" />
    <rect
       style="fill:none;stroke:#000000;stroke-width:1.1530993;stroke-linecap:butt;stroke-linejoin:miter;stroke-miterlimit:4;stroke-opacity:1;stroke-dasharray:3.45929818, 1.15309941;stroke-dashoffset:0"
       id="rect3114-1-7"
       width="208.7556"
       height="148.37921"
       x="377.85892"
       y="367.84274" />
    <path
       inkscape:connector-curvature="0"
       style="fill:none;stroke:#000000;stroke-width:0.60000002px;stroke-linecap:butt;stroke-linejoin:round;stroke-opacity:1;stroke-dasharray:none"
       d="m 466.92075,460.80851 90.15,0 0,36.74498 -90.15,0 z"
       id="path6274" />
    <rect
       style="fill:#ffffff;fill-opacity:1;stroke:none"
       id="rect3920-9"
       width="16.515228"
       height="21.21936"
       x="171.55568"
       y="422.16541" />
    <path
       inkscape:connector-curvature="0"
       style="fill:none;stroke:#000000;stroke-width:1.20000005px;stroke-linecap:butt;stroke-linejoin:miter;stroke-miterlimit:4;stroke-opacity:1;stroke-dasharray:none"
       d="m 173.82075,423.91355 3.25312,0 c 0.35625,0 0.64688,0.29996 0.64688,0.65616 l 0,16.74146 -3.9,0 z"
       id="path6276" />
    <path
       inkscape:connector-curvature="0"
       style="fill:none;stroke:#000000;stroke-width:1.20000005px;stroke-linecap:butt;stroke-linejoin:miter;stroke-miterlimit:4;stroke-opacity:1;stroke-dasharray:none"
       d="m 177.72075,423.76357 3.25312,0 c 0.35625,0 0.64688,0.29996 0.64688,0.65616 l 0,16.89144 -3.9,0 z"
       id="path6278" />
    <path
       inkscape:connector-curvature="0"
       style="fill:none;stroke:#000000;stroke-width:1.20000005px;stroke-linecap:butt;stroke-linejoin:miter;stroke-miterlimit:4;stroke-opacity:1;stroke-dasharray:none"
       d="m 181.62075,423.91355 3.13125,0 c 0.34687,0 0.61875,0.28121 0.61875,0.62804 l 0,16.76958 -3.75,0 z"
       id="path6280" />
    <rect
       style="fill:#ffffff;fill-opacity:1;stroke:none"
       id="rect3920-0"
       width="16.515228"
       height="21.21936"
       x="171.50339"
       y="469.72925" />
    <path
       inkscape:connector-curvature="0"
       style="fill:none;stroke:#000000;stroke-width:1.20000005px;stroke-linecap:butt;stroke-linejoin:miter;stroke-miterlimit:4;stroke-opacity:1;stroke-dasharray:none"
       d="m 173.82075,471.1571 3.25312,0 c 0.35625,0 0.64688,0.29996 0.64688,0.65616 l 0,16.74146 -3.9,0 z"
       id="path6282" />
    <path
       inkscape:connector-curvature="0"
       style="fill:none;stroke:#000000;stroke-width:1.20000005px;stroke-linecap:butt;stroke-linejoin:miter;stroke-miterlimit:4;stroke-opacity:1;stroke-dasharray:none"
       d="m 177.72075,471.00712 3.25312,0 c 0.35625,0 0.64688,0.29996 0.64688,0.65616 l 0,16.89144 -3.9,0 z"
       id="path6284" />
    <path
       inkscape:connector-curvature="0"
       style="fill:none;stroke:#000000;stroke-width:1.20000005px;stroke-linecap:butt;stroke-linejoin:miter;stroke-miterlimit:4;stroke-opacity:1;stroke-dasharray:none"
       d="m 181.62075,471.1571 3.13125,0 c 0.34687,0 0.61875,0.28121 0.61875,0.62804 l 0,16.76958 -3.75,0 z"
       id="path6286" />
    <path
       inkscape:connector-curvature="0"
       style="fill:#000000;fill-opacity:1;fill-rule:nonzero;stroke:#000000;stroke-width:0.009375;stroke-linecap:butt;stroke-linejoin:round;stroke-opacity:1;stroke-dasharray:0.009375,0.009375;stroke-miterlimit:4;stroke-dashoffset:0"
       d="m 156.7395,433.70908 12.10312,-0.32808 -0.0375,-1.2467 -12.09375,0.32808 0.0281,1.24671 z m 12.08437,-0.95611 -2.39062,3.8151 7.3875,-3.95571 -7.59375,-3.53389 2.59687,3.6745 z"
       id="path6288" />
    <path
       inkscape:connector-curvature="0"
       style="fill:#000000;fill-opacity:1;fill-rule:nonzero;stroke:#000000;stroke-width:0.009375;stroke-linecap:butt;stroke-linejoin:round;stroke-opacity:1;stroke-dasharray:0.009375,0.009375;stroke-miterlimit:4;stroke-dashoffset:0"
       d="m 186.1395,433.70908 12.10312,-0.32808 -0.0375,-1.2467 -12.09375,0.32808 0.0281,1.24671 z m 12.08437,-0.95611 -2.39062,3.8151 7.3875,-3.95571 -7.59375,-3.53389 2.59687,3.6745 z"
       id="path6290" />
    <path
       inkscape:connector-curvature="0"
       style="fill:#000000;fill-opacity:1;fill-rule:nonzero;stroke:#000000;stroke-width:0.009375;stroke-linecap:butt;stroke-linejoin:round;stroke-opacity:1;stroke-dasharray:0.009375,0.009375;stroke-miterlimit:4;stroke-dashoffset:0"
       d="m 185.3895,480.20274 12.10312,-0.32808 -0.0375,-1.24671 -12.09375,0.32808 0.0281,1.24671 z m 12.08437,-0.95612 -2.39062,3.8151 7.3875,-3.95571 -7.59375,-3.53389 2.59687,3.6745 z"
       id="path6292" />
    <path
       inkscape:connector-curvature="0"
       style="fill:#000000;fill-opacity:1;fill-rule:nonzero;stroke:#000000;stroke-width:0.009375;stroke-linecap:butt;stroke-linejoin:round;stroke-opacity:1;stroke-dasharray:0.009375,0.009375;stroke-miterlimit:4;stroke-dashoffset:0"
       d="m 156.7395,480.20274 12.10312,-0.32808 -0.0375,-1.24671 -12.09375,0.32808 0.0281,1.24671 z m 12.08437,-0.95612 -2.39062,3.8151 7.3875,-3.95571 -7.59375,-3.53389 2.59687,3.6745 z"
       id="path6294" />
    <rect
       style="fill:#ffffff;fill-opacity:1;stroke:none"
       id="rect3920-4"
       width="16.515228"
       height="21.21936"
       x="578.84741"
       y="448.11557" />
    <path
       inkscape:connector-curvature="0"
       style="fill:none;stroke:#000000;stroke-width:1.20000005px;stroke-linecap:butt;stroke-linejoin:miter;stroke-miterlimit:4;stroke-opacity:1;stroke-dasharray:none"
       d="m 581.07075,450.6099 3.13125,0 c 0.35625,0 0.61875,0.28121 0.61875,0.63741 l 0,16.9102 -3.75,0 z"
       id="path6296" />
    <path
       inkscape:connector-curvature="0"
       style="fill:none;stroke:#000000;stroke-width:1.20000005px;stroke-linecap:butt;stroke-linejoin:miter;stroke-miterlimit:4;stroke-opacity:1;stroke-dasharray:none"
       d="m 584.82075,450.6099 3.2625,0 c 0.35625,0 0.6375,0.29996 0.6375,0.65616 l 0,16.74147 -3.9,0 z"
       id="path6298" />
    <path
       inkscape:connector-curvature="0"
       style="fill:none;stroke:#000000;stroke-width:1.20000005px;stroke-linecap:butt;stroke-linejoin:miter;stroke-miterlimit:4;stroke-opacity:1;stroke-dasharray:none"
       d="m 588.72075,450.6099 3.2625,0 c 0.35625,0 0.6375,0.29996 0.6375,0.65616 l 0,16.89145 -3.9,0 z"
       id="path6300" />
    <path
       inkscape:connector-curvature="0"
       style="fill:#000000;fill-opacity:1;fill-rule:nonzero;stroke:#000000;stroke-width:0.01875;stroke-linecap:butt;stroke-linejoin:round;stroke-opacity:1;stroke-dasharray:0.01875,0.01875;stroke-miterlimit:4;stroke-dashoffset:0"
       d="m 563.2395,459.21498 12.1125,-0.33746 -0.0375,-1.25608 -12.09375,0.33746 0.0188,1.25608 z m 12.09375,-0.95612 -2.4,3.80573 7.3875,-3.95571 -7.59375,-3.52452 2.60625,3.6745 z"
       id="path6302" />
    <path
       inkscape:connector-curvature="0"
       style="fill:#000000;fill-opacity:1;fill-rule:nonzero;stroke:#000000;stroke-width:0.01875;stroke-linecap:butt;stroke-linejoin:round;stroke-opacity:1;stroke-dasharray:0.01875,0.01875;stroke-miterlimit:4;stroke-dashoffset:0"
       d="m 593.9895,458.76504 12.1125,-0.33746 -0.0375,-1.25607 -12.09375,0.33745 0.0188,1.25608 z m 12.09375,-0.95612 -2.4,3.80573 7.3875,-3.95571 -7.59375,-3.52452 2.60625,3.6745 z"
       id="path6304" />
    <rect
       style="fill:#ffffff;fill-opacity:1;stroke:none"
       id="rect3920"
       width="16.515228"
       height="21.21936"
       x="366.35788"
       y="448.70401" />
    <path
       inkscape:connector-curvature="0"
       style="fill:none;stroke:#000000;stroke-width:1.20000005px;stroke-linecap:butt;stroke-linejoin:miter;stroke-miterlimit:4;stroke-opacity:1;stroke-dasharray:none"
       d="m 368.67075,450.90986 3.13125,0 c 0.34687,0 0.61875,0.28121 0.61875,0.62804 l 0,16.76959 -3.75,0 z"
       id="path6306" />
    <path
       inkscape:connector-curvature="0"
       style="fill:none;stroke:#000000;stroke-width:1.20000005px;stroke-linecap:butt;stroke-linejoin:miter;stroke-miterlimit:4;stroke-opacity:1;stroke-dasharray:none"
       d="m 372.42075,450.90986 3.25312,0 c 0.35625,0 0.64688,0.29996 0.64688,0.65616 l 0,16.74147 -3.9,0 z"
       id="path6308" />
    <path
       inkscape:connector-curvature="0"
       style="fill:none;stroke:#000000;stroke-width:1.20000005px;stroke-linecap:butt;stroke-linejoin:miter;stroke-miterlimit:4;stroke-opacity:1;stroke-dasharray:none"
       d="m 376.32075,450.90986 3.25312,0 c 0.35625,0 0.64688,0.29996 0.64688,0.65616 l 0,16.74147 -3.9,0 z"
       id="path6310" />
    <path
       inkscape:connector-curvature="0"
       style="fill:#000000;fill-opacity:1;fill-rule:nonzero;stroke:#000000;stroke-width:0.009375;stroke-linecap:butt;stroke-linejoin:round;stroke-opacity:1;stroke-dasharray:0.009375,0.009375;stroke-miterlimit:4;stroke-dashoffset:0"
       d="m 347.52075,457.79017 13.7625,0 0,1.24671 -13.7625,0 0,-1.24671 z m 13.7625,0.61867 -2.50312,-3.74949 7.5,3.74949 -7.5,3.74949 2.50312,-3.74949 z"
       id="path6312" />
    <path
       inkscape:connector-curvature="0"
       style="fill:#000000;fill-opacity:1;fill-rule:nonzero;stroke:#000000;stroke-width:0.009375;stroke-linecap:butt;stroke-linejoin:round;stroke-opacity:1;stroke-dasharray:0.009375,0.009375;stroke-miterlimit:4;stroke-dashoffset:0"
       d="m 381.27075,457.79017 13.7625,0 0,1.24671 -13.7625,0 0,-1.24671 z m 13.7625,0.61867 -2.50313,-3.74949 7.5,3.74949 -7.5,3.74949 2.50313,-3.74949 z"
       id="path6314" />
    <path
       inkscape:connector-curvature="0"
       style="fill:#ffffff;fill-opacity:1;fill-rule:evenodd;stroke:none"
       d="m 350.67075,657.73162 0,23.24683 84,0 0,-23.24683 -84,0 z"
       id="path6316" />
    <path
       inkscape:connector-curvature="0"
       style="fill:none;stroke:#000000;stroke-width:0.60000002px;stroke-linecap:butt;stroke-linejoin:round;stroke-opacity:1;stroke-dasharray:none"
       d="m 350.67075,657.73162 84,0 0,23.24683 -84,0 z"
       id="path6318" />
    <path
       inkscape:connector-curvature="0"
       style="fill:#ffffff;fill-opacity:1;fill-rule:evenodd;stroke:none"
       clip-path="url(#clipEmfPath14)"
       d="m 213.675,329.87996 0,42.74416 84,0 0,-42.74416 -84,0 z"
       id="path6320"
       transform="translate(137.14575,354.09808)" />
    <path
       inkscape:connector-curvature="0"
       style="fill:none;stroke:#000000;stroke-width:0.60000002px;stroke-linecap:butt;stroke-linejoin:round;stroke-opacity:1;stroke-dasharray:none"
       d="m 350.82075,683.97804 84,0 0,42.74416 -84,0 z"
       id="path6322" />
    <rect
       style="fill:#ffffff;fill-opacity:1;stroke:none"
       id="rect3920-48-2"
       width="16.515228"
       height="21.21936"
       x="456.96756"
       y="669.96301" />
    <path
       inkscape:connector-curvature="0"
       style="fill:none;stroke:#000000;stroke-width:1.20000005px;stroke-linecap:butt;stroke-linejoin:miter;stroke-miterlimit:4;stroke-opacity:1;stroke-dasharray:none"
       d="m 459.57075,671.67972 3.2625,0 c 0.35625,0 0.6375,0.29996 0.6375,0.65616 l 0,16.89144 -3.9,0 z"
       id="path6324" />
    <path
       inkscape:connector-curvature="0"
       style="fill:none;stroke:#000000;stroke-width:1.20000005px;stroke-linecap:butt;stroke-linejoin:miter;stroke-miterlimit:4;stroke-opacity:1;stroke-dasharray:none"
       d="m 463.47075,671.67972 3.13125,0 c 0.35625,0 0.61875,0.28121 0.61875,0.63741 l 0,16.76021 -3.75,0 z"
       id="path6326" />
    <path
       inkscape:connector-curvature="0"
       style="fill:none;stroke:#000000;stroke-width:1.20000005px;stroke-linecap:butt;stroke-linejoin:miter;stroke-miterlimit:4;stroke-opacity:1;stroke-dasharray:none"
       d="m 467.22075,671.67972 3.2625,0 c 0.35625,0 0.6375,0.29996 0.6375,0.65616 l 0,16.89144 -3.9,0 z"
       id="path6328" />
    <path
       inkscape:connector-curvature="0"
       style="fill:#000000;fill-opacity:1;fill-rule:nonzero;stroke:#000000;stroke-width:0.01875;stroke-linecap:butt;stroke-linejoin:round;stroke-opacity:1;stroke-dasharray:0.01875,0.01875;stroke-miterlimit:4;stroke-dashoffset:0"
       d="m 440.0895,681.16592 14.475,-0.11248 -0.0188,-1.25608 -14.475,0.11248 0.0188,1.25608 z m 14.45625,-0.73115 -2.45625,3.76824 7.4625,-3.82448 -7.5375,-3.6745 2.53125,3.73074 z"
       id="path6330" />
    <path
       inkscape:connector-curvature="0"
       style="fill:#000000;fill-opacity:1;fill-rule:nonzero;stroke:#000000;stroke-width:0.01875;stroke-linecap:butt;stroke-linejoin:round;stroke-opacity:1;stroke-dasharray:0.01875,0.0375;stroke-miterlimit:4;stroke-dashoffset:0"
       d="m 471.12075,679.4599 13.48125,0 0,1.25608 -13.48125,0 0,-1.25608 z m 13.48125,0.61867 -2.5125,-3.74949 7.5,3.74949 -7.5,3.74949 2.5125,-3.74949 z"
       id="path6332" />
    <path
       inkscape:connector-curvature="0"
       style="fill:#ffffff;fill-opacity:1;fill-rule:evenodd;stroke:none"
       d="m 316.58325,533.69856 0,36.37003 2.4375,0 -4.875,4.87434 -4.875,-4.87434 2.4375,0 0,-36.37003 z"
       id="path6334" />
    <path
       inkscape:connector-curvature="0"
       style="fill:none;stroke:#000000;stroke-width:1.20000005px;stroke-linecap:butt;stroke-linejoin:miter;stroke-miterlimit:4;stroke-opacity:1;stroke-dasharray:none"
       d="m 316.58325,533.69856 0,36.37003 2.4375,0 -4.875,4.87434 -4.875,-4.87434 2.4375,0 0,-36.37003 z"
       id="path6336" />
    <text
       xml:space="preserve"
       style="font-size:11px;font-style:normal;font-variant:normal;font-weight:normal;font-stretch:normal;text-align:start;line-height:125%;letter-spacing:0px;word-spacing:0px;writing-mode:lr-tb;text-anchor:start;fill:#000000;fill-opacity:1;stroke:none;font-family:Sans;-inkscape-font-specification:Sans"
       x="251.32822"
       y="385.15088"
       id="text4458-5-6-8-7"
       sodipodi:linespacing="125%"><tspan
         sodipodi:role="line"
         x="251.32822"
         y="385.15088"
         style="font-size:11px;font-style:normal;font-variant:normal;font-weight:normal;font-stretch:normal;text-align:start;line-height:125%;writing-mode:lr-tb;text-anchor:start;font-family:Sans;-inkscape-font-specification:Sans"
         id="tspan4668-2-5">Pipeline 1</tspan></text>
    <text
       xml:space="preserve"
       style="font-size:11px;font-style:normal;font-variant:normal;font-weight:normal;font-stretch:normal;text-align:start;line-height:125%;letter-spacing:0px;word-spacing:0px;writing-mode:lr-tb;text-anchor:start;fill:#000000;fill-opacity:1;stroke:none;font-family:Sans;-inkscape-font-specification:Sans"
       x="458.32822"
       y="385.15088"
       id="text4458-5-6-8-7-4"
       sodipodi:linespacing="125%"><tspan
         sodipodi:role="line"
         x="458.32822"
         y="385.15088"
         style="font-size:11px;font-style:normal;font-variant:normal;font-weight:normal;font-stretch:normal;text-align:start;line-height:125%;writing-mode:lr-tb;text-anchor:start;font-family:Sans;-inkscape-font-specification:Sans"
         id="tspan6590">Pipeline 2</tspan></text>
    <text
       xml:space="preserve"
       style="font-size:11px;font-style:normal;font-variant:normal;font-weight:normal;font-stretch:normal;text-align:start;line-height:125%;letter-spacing:0px;word-spacing:0px;writing-mode:lr-tb;text-anchor:start;fill:#000000;fill-opacity:1;stroke:none;font-family:Sans;-inkscape-font-specification:Sans"
       x="252.12177"
       y="418.59369"
       id="text4458-5-6-8-7-7"
       sodipodi:linespacing="125%"><tspan
         sodipodi:role="line"
         x="252.12177"
         y="418.59369"
         style="font-size:11px;font-style:normal;font-variant:normal;font-weight:normal;font-stretch:normal;text-align:start;line-height:125%;writing-mode:lr-tb;text-anchor:start;font-family:Sans;-inkscape-font-specification:Sans"
         id="tspan4668-2-5-6">Flow Table 1</tspan></text>
    <text
       xml:space="preserve"
       style="font-size:11px;font-style:normal;font-variant:normal;font-weight:normal;font-stretch:normal;text-align:start;line-height:125%;letter-spacing:0px;word-spacing:0px;writing-mode:lr-tb;text-anchor:start;fill:#000000;fill-opacity:1;stroke:none;font-family:Sans;-inkscape-font-specification:Sans"
       x="452.02521"
       y="418.59369"
       id="text4458-5-6-8-7-7-3"
       sodipodi:linespacing="125%"><tspan
         sodipodi:role="line"
         x="452.02521"
         y="418.59369"
         style="font-size:11px;font-style:normal;font-variant:normal;font-weight:normal;font-stretch:normal;text-align:start;line-height:125%;writing-mode:lr-tb;text-anchor:start;font-family:Sans;-inkscape-font-specification:Sans"
         id="tspan4668-2-5-6-6">Flow Table 2</tspan></text>
    <text
       xml:space="preserve"
       style="font-size:11px;font-style:normal;font-variant:normal;font-weight:normal;font-stretch:normal;text-align:start;line-height:125%;letter-spacing:0px;word-spacing:0px;writing-mode:lr-tb;text-anchor:start;fill:#000000;fill-opacity:1;stroke:none;font-family:Sans;-inkscape-font-specification:Sans"
       x="214.38213"
       y="447.87283"
       id="text4458-5-6-8-7-7-1"
       sodipodi:linespacing="125%"><tspan
         sodipodi:role="line"
         x="214.38213"
         y="447.87283"
         style="font-size:11px;font-style:normal;font-variant:normal;font-weight:normal;font-stretch:normal;text-align:start;line-height:125%;writing-mode:lr-tb;text-anchor:start;font-family:Sans;-inkscape-font-specification:Sans"
         id="tspan4668-2-5-6-5">Flow #</tspan></text>
    <text
       xml:space="preserve"
       style="font-size:11px;font-style:normal;font-variant:normal;font-weight:normal;font-stretch:normal;text-align:start;line-height:125%;letter-spacing:0px;word-spacing:0px;writing-mode:lr-tb;text-anchor:start;fill:#000000;fill-opacity:1;stroke:none;font-family:Sans;-inkscape-font-specification:Sans"
       x="418.23212"
       y="449.37262"
       id="text4458-5-6-8-7-7-1-4"
       sodipodi:linespacing="125%"><tspan
         sodipodi:role="line"
         x="418.23212"
         y="449.37262"
         style="font-size:11px;font-style:normal;font-variant:normal;font-weight:normal;font-stretch:normal;text-align:start;line-height:125%;writing-mode:lr-tb;text-anchor:start;font-family:Sans;-inkscape-font-specification:Sans"
         id="tspan4668-2-5-6-5-2">Flow #</tspan></text>
    <text
       xml:space="preserve"
       style="font-size:11px;font-style:normal;font-variant:normal;font-weight:normal;font-stretch:normal;text-align:start;line-height:125%;letter-spacing:0px;word-spacing:0px;writing-mode:lr-tb;text-anchor:start;fill:#000000;fill-opacity:1;stroke:none;font-family:Sans;-inkscape-font-specification:Sans"
       x="489.28775"
       y="449.32428"
       id="text4458-5-6-8-7-7-1-4-0"
       sodipodi:linespacing="125%"><tspan
         sodipodi:role="line"
         x="489.28775"
         y="449.32428"
         style="font-size:11px;font-style:normal;font-variant:normal;font-weight:normal;font-stretch:normal;text-align:start;line-height:125%;writing-mode:lr-tb;text-anchor:start;font-family:Sans;-inkscape-font-specification:Sans"
         id="tspan6678">Actions 2</tspan></text>
    <text
       xml:space="preserve"
       style="font-size:11px;font-style:normal;font-variant:normal;font-weight:normal;font-stretch:normal;text-align:start;line-height:125%;letter-spacing:0px;word-spacing:0px;writing-mode:lr-tb;text-anchor:start;fill:#000000;fill-opacity:1;stroke:none;font-family:Sans;-inkscape-font-specification:Sans"
       x="277.60748"
       y="447.82449"
       id="text4458-5-6-8-7-7-1-4-0-7"
       sodipodi:linespacing="125%"><tspan
         sodipodi:role="line"
         x="277.60748"
         y="447.82449"
         style="font-size:11px;font-style:normal;font-variant:normal;font-weight:normal;font-stretch:normal;text-align:start;line-height:125%;writing-mode:lr-tb;text-anchor:start;font-family:Sans;-inkscape-font-specification:Sans"
         id="tspan6678-3">Actions 1</tspan></text>
    <text
       xml:space="preserve"
       style="font-size:11px;font-style:normal;font-variant:normal;font-weight:normal;font-stretch:normal;text-align:start;line-height:125%;letter-spacing:0px;word-spacing:0px;writing-mode:lr-tb;text-anchor:start;fill:#000000;fill-opacity:1;stroke:none;font-family:Sans;-inkscape-font-specification:Sans"
       x="302.02823"
       y="613.45862"
       id="text4458-5-6-8-7-72"
       sodipodi:linespacing="125%"><tspan
         sodipodi:role="line"
         x="302.02823"
         y="613.45862"
         style="font-size:11px;font-style:normal;font-variant:normal;font-weight:normal;font-stretch:normal;text-align:start;line-height:125%;writing-mode:lr-tb;text-anchor:start;font-family:Sans;-inkscape-font-specification:Sans"
         id="tspan4668-2-5-60">Pipeline 1</tspan></text>
    <text
       xml:space="preserve"
       style="font-size:11px;font-style:normal;font-variant:normal;font-weight:normal;font-stretch:normal;text-align:start;line-height:125%;letter-spacing:0px;word-spacing:0px;writing-mode:lr-tb;text-anchor:start;fill:#000000;fill-opacity:1;stroke:none;font-family:Sans;-inkscape-font-specification:Sans"
       x="293.5502"
       y="644.90143"
       id="text4458-5-6-8-7-7-16"
       sodipodi:linespacing="125%"><tspan
         sodipodi:role="line"
         x="293.5502"
         y="644.90143"
         style="font-size:11px;font-style:normal;font-variant:normal;font-weight:normal;font-stretch:normal;text-align:start;line-height:125%;writing-mode:lr-tb;text-anchor:start;font-family:Sans;-inkscape-font-specification:Sans"
         id="tspan4668-2-5-6-57">Flow Table 1</tspan></text>
    <text
       xml:space="preserve"
       style="font-size:11px;font-style:normal;font-variant:normal;font-weight:normal;font-stretch:normal;text-align:start;line-height:125%;letter-spacing:0px;word-spacing:0px;writing-mode:lr-tb;text-anchor:start;fill:#000000;fill-opacity:1;stroke:none;font-family:Sans;-inkscape-font-specification:Sans"
       x="220.08212"
       y="673.29205"
       id="text4458-5-6-8-7-7-1-5"
       sodipodi:linespacing="125%"><tspan
         sodipodi:role="line"
         x="220.08212"
         y="673.29205"
         style="font-size:11px;font-style:normal;font-variant:normal;font-weight:normal;font-stretch:normal;text-align:start;line-height:125%;writing-mode:lr-tb;text-anchor:start;font-family:Sans;-inkscape-font-specification:Sans"
         id="tspan4668-2-5-6-5-4">Flow #</tspan></text>
    <text
       xml:space="preserve"
       style="font-size:11px;font-style:normal;font-variant:normal;font-weight:normal;font-stretch:normal;text-align:start;line-height:125%;letter-spacing:0px;word-spacing:0px;writing-mode:lr-tb;text-anchor:start;fill:#000000;fill-opacity:1;stroke:none;font-family:Sans;-inkscape-font-specification:Sans"
       x="283.30746"
       y="673.24371"
       id="text4458-5-6-8-7-7-1-4-0-7-1"
       sodipodi:linespacing="125%"><tspan
         sodipodi:role="line"
         x="283.30746"
         y="673.24371"
         style="font-size:11px;font-style:normal;font-variant:normal;font-weight:normal;font-stretch:normal;text-align:start;line-height:125%;writing-mode:lr-tb;text-anchor:start;font-family:Sans;-inkscape-font-specification:Sans"
         id="tspan6678-3-2">Actions 1</tspan></text>
    <text
       xml:space="preserve"
       style="font-size:11px;font-style:normal;font-variant:normal;font-weight:normal;font-stretch:normal;text-align:start;line-height:125%;letter-spacing:0px;word-spacing:0px;writing-mode:lr-tb;text-anchor:start;fill:#000000;fill-opacity:1;stroke:none;font-family:Sans;-inkscape-font-specification:Sans"
       x="370.33774"
       y="673.24371"
       id="text4458-5-6-8-7-7-1-4-0-7-1-0"
       sodipodi:linespacing="125%"><tspan
         sodipodi:role="line"
         x="370.33774"
         y="673.24371"
         style="font-size:11px;font-style:normal;font-variant:normal;font-weight:normal;font-stretch:normal;text-align:start;line-height:125%;writing-mode:lr-tb;text-anchor:start;font-family:Sans;-inkscape-font-specification:Sans"
         id="tspan6678-3-2-0">Actions 2</tspan></text>
  </g>
</svg>
