<?xml version="1.0" encoding="UTF-8" standalone="no"?>
<svg
   xmlns:dc="http://purl.org/dc/elements/1.1/"
   xmlns:cc="http://creativecommons.org/ns#"
   xmlns:rdf="http://www.w3.org/1999/02/22-rdf-syntax-ns#"
   xmlns:svg="http://www.w3.org/2000/svg"
   xmlns="http://www.w3.org/2000/svg"
   xmlns:sodipodi="http://sodipodi.sourceforge.net/DTD/sodipodi-0.dtd"
   xmlns:inkscape="http://www.inkscape.org/namespaces/inkscape"
   width="1237.4869"
   height="481.37463"
   version="1.1"
   viewBox="0 0 1237.4869 481.37463"
   xml:space="preserve"
   id="svg7800"
   sodipodi:docname="abi_stability_policy.svg"
   inkscape:version="0.92.2 (5c3e80d, 2017-08-06)"><metadata
     id="metadata7804"><rdf:RDF><cc:Work
         rdf:about=""><dc:format>image/svg+xml</dc:format><dc:type
           rdf:resource="http://purl.org/dc/dcmitype/StillImage" /></cc:Work></rdf:RDF></metadata><sodipodi:namedview
     pagecolor="#ffffff"
     bordercolor="#666666"
     borderopacity="1"
     objecttolerance="10"
     gridtolerance="10"
     guidetolerance="10"
     inkscape:pageopacity="0"
     inkscape:pageshadow="2"
     inkscape:window-width="1920"
     inkscape:window-height="1017"
     id="namedview7802"
     showgrid="false"
     inkscape:zoom="0.8875"
     inkscape:cx="840.50495"
     inkscape:cy="179.36692"
     inkscape:window-x="-8"
     inkscape:window-y="-8"
     inkscape:window-maximized="1"
     inkscape:current-layer="svg7800" /><defs
     id="defs7394"><clipPath
       id="clipPath3975"><path
         d="M 0,1.2207e-4 H 960 V 540.00012 H 0 Z"
         id="path7226"
         inkscape:connector-curvature="0"
         style="clip-rule:evenodd" /></clipPath><clipPath
       id="clipPath4003"><path
         d="M 1.4305e-5,0 H 960.00001 V 540 H 1.4305e-5 Z"
         id="path7229"
         inkscape:connector-curvature="0"
         style="clip-rule:evenodd" /></clipPath><clipPath
       id="clipPath4025"><path
         d="M 1.4305e-5,0 H 960.00001 V 540 H 1.4305e-5 Z"
         id="path7232"
         inkscape:connector-curvature="0"
         style="clip-rule:evenodd" /></clipPath><clipPath
       id="clipPath4037"><path
         d="M 1.4305e-5,0 H 960.00001 V 540 H 1.4305e-5 Z"
         id="path7235"
         inkscape:connector-curvature="0"
         style="clip-rule:evenodd" /></clipPath><clipPath
       id="clipPath4049"><path
         d="M 1.4305e-5,0 H 960.00001 V 540 H 1.4305e-5 Z"
         id="path7238"
         inkscape:connector-curvature="0"
         style="clip-rule:evenodd" /></clipPath><clipPath
       id="clipPath4061"><path
         d="M 1.4305e-5,0 H 960.00001 V 540 H 1.4305e-5 Z"
         id="path7241"
         inkscape:connector-curvature="0"
         style="clip-rule:evenodd" /></clipPath><clipPath
       id="clipPath4073"><path
         d="M 1.4305e-5,0 H 960.00001 V 540 H 1.4305e-5 Z"
         id="path7244"
         inkscape:connector-curvature="0"
         style="clip-rule:evenodd" /></clipPath><clipPath
       id="clipPath4085"><path
         d="M 1.4305e-5,0 H 960.00001 V 540 H 1.4305e-5 Z"
         id="path7247"
         inkscape:connector-curvature="0"
         style="clip-rule:evenodd" /></clipPath><clipPath
       id="clipPath4097"><path
         d="M 1.4305e-5,0 H 960.00001 V 540 H 1.4305e-5 Z"
         id="path7250"
         inkscape:connector-curvature="0"
         style="clip-rule:evenodd" /></clipPath><clipPath
       id="clipPath4109"><path
         d="M 1.4305e-5,0 H 960.00001 V 540 H 1.4305e-5 Z"
         id="path7253"
         inkscape:connector-curvature="0"
         style="clip-rule:evenodd" /></clipPath><clipPath
       id="clipPath4121"><path
         d="M 1.4305e-5,0 H 960.00001 V 540 H 1.4305e-5 Z"
         id="path7256"
         inkscape:connector-curvature="0"
         style="clip-rule:evenodd" /></clipPath><clipPath
       id="clipPath4133"><path
         d="M 1.4305e-5,0 H 960.00001 V 540 H 1.4305e-5 Z"
         id="path7259"
         inkscape:connector-curvature="0"
         style="clip-rule:evenodd" /></clipPath><clipPath
       id="clipPath4145"><path
         d="M 1.4305e-5,0 H 960.00001 V 540 H 1.4305e-5 Z"
         id="path7262"
         inkscape:connector-curvature="0"
         style="clip-rule:evenodd" /></clipPath><clipPath
       id="clipPath4157"><path
         d="M 1.4305e-5,0 H 960.00001 V 540 H 1.4305e-5 Z"
         id="path7265"
         inkscape:connector-curvature="0"
         style="clip-rule:evenodd" /></clipPath><clipPath
       id="clipPath4169"><path
         d="M 1.4305e-5,0 H 960.00001 V 540 H 1.4305e-5 Z"
         id="path7268"
         inkscape:connector-curvature="0"
         style="clip-rule:evenodd" /></clipPath><clipPath
       id="clipPath4181"><path
         d="M 1.4305e-5,0 H 960.00001 V 540 H 1.4305e-5 Z"
         id="path7271"
         inkscape:connector-curvature="0"
         style="clip-rule:evenodd" /></clipPath><clipPath
       id="clipPath4193"><path
         d="M 1.4305e-5,0 H 960.00001 V 540 H 1.4305e-5 Z"
         id="path7274"
         inkscape:connector-curvature="0"
         style="clip-rule:evenodd" /></clipPath><clipPath
       id="clipPath4205"><path
         d="M 1.4305e-5,0 H 960.00001 V 540 H 1.4305e-5 Z"
         id="path7277"
         inkscape:connector-curvature="0"
         style="clip-rule:evenodd" /></clipPath><clipPath
       id="clipPath4217"><path
         d="M 1.4305e-5,0 H 960.00001 V 540 H 1.4305e-5 Z"
         id="path7280"
         inkscape:connector-curvature="0"
         style="clip-rule:evenodd" /></clipPath><clipPath
       id="clipPath4229"><path
         d="M 1.4305e-5,0 H 960.00001 V 540 H 1.4305e-5 Z"
         id="path7283"
         inkscape:connector-curvature="0"
         style="clip-rule:evenodd" /></clipPath><clipPath
       id="clipPath4241"><path
         d="M 1.4305e-5,0 H 960.00001 V 540 H 1.4305e-5 Z"
         id="path7286"
         inkscape:connector-curvature="0"
         style="clip-rule:evenodd" /></clipPath><clipPath
       id="clipPath4253"><path
         d="M 1.4305e-5,0 H 960.00001 V 540 H 1.4305e-5 Z"
         id="path7289"
         inkscape:connector-curvature="0"
         style="clip-rule:evenodd" /></clipPath><clipPath
       id="clipPath4265"><path
         d="M 1.4305e-5,0 H 960.00001 V 540 H 1.4305e-5 Z"
         id="path7292"
         inkscape:connector-curvature="0"
         style="clip-rule:evenodd" /></clipPath><clipPath
       id="clipPath4277"><path
         d="M 1.4305e-5,0 H 960.00001 V 540 H 1.4305e-5 Z"
         id="path7295"
         inkscape:connector-curvature="0"
         style="clip-rule:evenodd" /></clipPath><clipPath
       id="clipPath4289"><path
         d="M 1.4305e-5,0 H 960.00001 V 540 H 1.4305e-5 Z"
         id="path7298"
         inkscape:connector-curvature="0"
         style="clip-rule:evenodd" /></clipPath><clipPath
       id="clipPath4301"><path
         d="M 1.4305e-5,0 H 960.00001 V 540 H 1.4305e-5 Z"
         id="path7301"
         inkscape:connector-curvature="0"
         style="clip-rule:evenodd" /></clipPath><clipPath
       id="clipPath4313"><path
         d="M 1.4305e-5,0 H 960.00001 V 540 H 1.4305e-5 Z"
         id="path7304"
         inkscape:connector-curvature="0"
         style="clip-rule:evenodd" /></clipPath><clipPath
       id="clipPath4327"><path
         d="M 1.4305e-5,0 H 960.00001 V 540 H 1.4305e-5 Z"
         id="path7307"
         inkscape:connector-curvature="0"
         style="clip-rule:evenodd" /></clipPath><clipPath
       id="clipPath4339"><path
         d="M 1.4305e-5,0 H 960.00001 V 540 H 1.4305e-5 Z"
         id="path7310"
         inkscape:connector-curvature="0"
         style="clip-rule:evenodd" /></clipPath><clipPath
       id="clipPath4351"><path
         d="M 1.4305e-5,0 H 960.00001 V 540 H 1.4305e-5 Z"
         id="path7313"
         inkscape:connector-curvature="0"
         style="clip-rule:evenodd" /></clipPath><clipPath
       id="clipPath4363"><path
         d="M 1.4305e-5,0 H 960.00001 V 540 H 1.4305e-5 Z"
         id="path7316"
         inkscape:connector-curvature="0"
         style="clip-rule:evenodd" /></clipPath><clipPath
       id="clipPath4375"><path
         d="M 1.4305e-5,0 H 960.00001 V 540 H 1.4305e-5 Z"
         id="path7319"
         inkscape:connector-curvature="0"
         style="clip-rule:evenodd" /></clipPath><clipPath
       id="clipPath4389"><path
         d="M 1.4305e-5,0 H 960.00001 V 540 H 1.4305e-5 Z"
         id="path7322"
         inkscape:connector-curvature="0"
         style="clip-rule:evenodd" /></clipPath><clipPath
       id="clipPath4403"><path
         d="M 1.4305e-5,0 H 960.00001 V 540 H 1.4305e-5 Z"
         id="path7325"
         inkscape:connector-curvature="0"
         style="clip-rule:evenodd" /></clipPath><clipPath
       id="clipPath4417"><path
         d="M 1.4305e-5,0 H 960.00001 V 540 H 1.4305e-5 Z"
         id="path7328"
         inkscape:connector-curvature="0"
         style="clip-rule:evenodd" /></clipPath><clipPath
       id="clipPath4429"><path
         d="M 1.4305e-5,0 H 960.00001 V 540 H 1.4305e-5 Z"
         id="path7331"
         inkscape:connector-curvature="0"
         style="clip-rule:evenodd" /></clipPath><clipPath
       id="clipPath4441"><path
         d="M 1.4305e-5,0 H 960.00001 V 540 H 1.4305e-5 Z"
         id="path7334"
         inkscape:connector-curvature="0"
         style="clip-rule:evenodd" /></clipPath><clipPath
       id="clipPath4453"><path
         d="M 1.4305e-5,0 H 960.00001 V 540 H 1.4305e-5 Z"
         id="path7337"
         inkscape:connector-curvature="0"
         style="clip-rule:evenodd" /></clipPath><clipPath
       id="clipPath4477"><path
         d="M 1.4305e-5,0 H 960.00001 V 540 H 1.4305e-5 Z"
         id="path7340"
         inkscape:connector-curvature="0"
         style="clip-rule:evenodd" /></clipPath><clipPath
       id="clipPath4489"><path
         d="M 1.4305e-5,0 H 960.00001 V 540 H 1.4305e-5 Z"
         id="path7343"
         inkscape:connector-curvature="0"
         style="clip-rule:evenodd" /></clipPath><clipPath
       id="clipPath4501"><path
         d="M 1.4305e-5,0 H 960.00001 V 540 H 1.4305e-5 Z"
         id="path7346"
         inkscape:connector-curvature="0"
         style="clip-rule:evenodd" /></clipPath><clipPath
       id="clipPath4513"><path
         d="M 1.4305e-5,0 H 960.00001 V 540 H 1.4305e-5 Z"
         id="path7349"
         inkscape:connector-curvature="0"
         style="clip-rule:evenodd" /></clipPath><clipPath
       id="clipPath4525"><path
         d="M 1.4305e-5,0 H 960.00001 V 540 H 1.4305e-5 Z"
         id="path7352"
         inkscape:connector-curvature="0"
         style="clip-rule:evenodd" /></clipPath><clipPath
       id="clipPath4537"><path
         d="M 1.4305e-5,0 H 960.00001 V 540 H 1.4305e-5 Z"
         id="path7355"
         inkscape:connector-curvature="0"
         style="clip-rule:evenodd" /></clipPath><clipPath
       id="clipPath4549"><path
         d="M 1.4305e-5,0 H 960.00001 V 540 H 1.4305e-5 Z"
         id="path7358"
         inkscape:connector-curvature="0"
         style="clip-rule:evenodd" /></clipPath><clipPath
       id="clipPath4561"><path
         d="M 1.4305e-5,0 H 960.00001 V 540 H 1.4305e-5 Z"
         id="path7361"
         inkscape:connector-curvature="0"
         style="clip-rule:evenodd" /></clipPath><clipPath
       id="clipPath4573"><path
         d="M 1.4305e-5,0 H 960.00001 V 540 H 1.4305e-5 Z"
         id="path7364"
         inkscape:connector-curvature="0"
         style="clip-rule:evenodd" /></clipPath><clipPath
       id="clipPath4589"><path
         d="M 1.4305e-5,0 H 960.00001 V 540 H 1.4305e-5 Z"
         id="path7367"
         inkscape:connector-curvature="0"
         style="clip-rule:evenodd" /></clipPath><clipPath
       id="clipPath4601"><path
         d="M 1.4305e-5,0 H 960.00001 V 540 H 1.4305e-5 Z"
         id="path7370"
         inkscape:connector-curvature="0"
         style="clip-rule:evenodd" /></clipPath><clipPath
       id="clipPath4615"><path
         d="M 1.4305e-5,0 H 960.00001 V 540 H 1.4305e-5 Z"
         id="path7373"
         inkscape:connector-curvature="0"
         style="clip-rule:evenodd" /></clipPath><clipPath
       id="clipPath4629"><path
         d="M 1.4305e-5,0 H 960.00001 V 540 H 1.4305e-5 Z"
         id="path7376"
         inkscape:connector-curvature="0"
         style="clip-rule:evenodd" /></clipPath><clipPath
       id="clipPath4641"><path
         d="M 1.4305e-5,0 H 960.00001 V 540 H 1.4305e-5 Z"
         id="path7379"
         inkscape:connector-curvature="0"
         style="clip-rule:evenodd" /></clipPath><clipPath
       id="clipPath4653"><path
         d="M 1.4305e-5,0 H 960.00001 V 540 H 1.4305e-5 Z"
         id="path7382"
         inkscape:connector-curvature="0"
         style="clip-rule:evenodd" /></clipPath><clipPath
       id="clipPath4673"><path
         d="M 1.4305e-5,0 H 960.00001 V 540 H 1.4305e-5 Z"
         id="path7385"
         inkscape:connector-curvature="0"
         style="clip-rule:evenodd" /></clipPath><clipPath
       id="clipPath4685"><path
         d="M 1.4305e-5,0 H 960.00001 V 540 H 1.4305e-5 Z"
         id="path7388"
         inkscape:connector-curvature="0"
         style="clip-rule:evenodd" /></clipPath><clipPath
       id="clipPath4699"><path
         d="M 1.4305e-5,0 H 960.00001 V 540 H 1.4305e-5 Z"
         id="path7391"
         inkscape:connector-curvature="0"
         style="clip-rule:evenodd" /></clipPath></defs><g
     id="g7406"
     transform="matrix(1.3333,0,0,-1.3333,-24.241503,623.02442)"><path
       style="fill:#44546a"
       inkscape:connector-curvature="0"
       id="path7400"
       d="m 161.83,180.57 773.79,4.78 c 0.82,0.01 1.49,0.68 1.49,1.51 -0.01,0.83 -0.68,1.5 -1.51,1.49 l -773.79,-4.78 c -0.83,-0.01 -1.5,-0.68 -1.49,-1.51 0.01,-0.83 0.68,-1.5 1.51,-1.49 z m 772.3,1.77 8.97,4.56 -9.03,4.44 z" /><path
       style="fill:#00b050;fill-rule:evenodd"
       inkscape:connector-curvature="0"
       id="path7402"
       d="m 173.28,182.22 c 0,4.67 3.36,8.46 7.5,8.46 4.14,0 7.5,-3.79 7.5,-8.46 0,-4.67 -3.36,-8.46 -7.5,-8.46 -4.14,0 -7.5,3.79 -7.5,8.46 z" /><path
       style="fill:#00b050;fill-rule:evenodd"
       inkscape:connector-curvature="0"
       id="path7404"
       d="m 612.24,183.78 c 0,4.67 3.36,8.46 7.5,8.46 4.14,0 7.5,-3.79 7.5,-8.46 0,-4.67 -3.36,-8.46 -7.5,-8.46 -4.14,0 -7.5,3.79 -7.5,8.46 z" /></g><g
     style="fill:#ff0000;fill-rule:evenodd"
     id="g7420"
     transform="matrix(1.3333,0,0,-1.3333,-24.241503,623.02442)"><path
       inkscape:connector-curvature="0"
       id="path7408"
       d="m 228.12,182.22 c 0,4.67 3.36,8.46 7.5,8.46 4.14,0 7.5,-3.79 7.5,-8.46 0,-4.67 -3.36,-8.46 -7.5,-8.46 -4.14,0 -7.5,3.79 -7.5,8.46 z" /><path
       inkscape:connector-curvature="0"
       id="path7410"
       d="m 282.96,182.22 c 0,4.67 3.36,8.46 7.5,8.46 4.14,0 7.5,-3.79 7.5,-8.46 0,-4.67 -3.36,-8.46 -7.5,-8.46 -4.14,0 -7.5,3.79 -7.5,8.46 z" /><path
       inkscape:connector-curvature="0"
       id="path7412"
       d="m 337.8,182.22 c 0,4.67 3.38,8.46 7.56,8.46 4.18,0 7.56,-3.79 7.56,-8.46 0,-4.67 -3.38,-8.46 -7.56,-8.46 -4.18,0 -7.56,3.79 -7.56,8.46 z" /><path
       inkscape:connector-curvature="0"
       id="path7414"
       d="m 447.6,182.22 c 0,4.67 3.36,8.46 7.5,8.46 4.14,0 7.5,-3.79 7.5,-8.46 0,-4.67 -3.36,-8.46 -7.5,-8.46 -4.14,0 -7.5,3.79 -7.5,8.46 z" /><path
       inkscape:connector-curvature="0"
       id="path7416"
       d="m 502.44,182.34 c 0,4.67 3.38,8.46 7.56,8.46 4.18,0 7.56,-3.79 7.56,-8.46 0,-4.67 -3.38,-8.46 -7.56,-8.46 -4.18,0 -7.56,3.79 -7.56,8.46 z" /><path
       inkscape:connector-curvature="0"
       id="path7418"
       d="m 557.28,182.34 c 0,4.67 3.38,8.46 7.56,8.46 4.18,0 7.56,-3.79 7.56,-8.46 0,-4.67 -3.38,-8.46 -7.56,-8.46 -4.18,0 -7.56,3.79 -7.56,8.46 z" /></g><g
     id="g7426"
     clip-path="url(#clipPath4003)"
     transform="matrix(1.3333,0,0,-1.3333,-24.241503,623.02442)"><text
       style="font-size:14.03999996px;font-family:Calibri;fill:#000000"
       id="text7424"
       font-size="14.04px"
       transform="matrix(1,0,0,-1,152.98,149.45)"><tspan
         id="tspan7422"
         y="0"
         x="0 6.3460798 13.46436 20.52648 24.10668 31.22496">v19.11</tspan></text>
</g><path
     style="fill:#00b050;fill-rule:evenodd;stroke-width:1.33329999"
     inkscape:connector-curvature="0"
     id="path7428"
     d="m 499.42541,379.9105 c 0,-6.22651 4.47989,-11.27972 9.99975,-11.27972 5.51986,0 9.99975,5.05321 9.99975,11.27972 0,6.22651 -4.47989,11.27972 -9.99975,11.27972 -5.51986,0 -9.99975,-5.05321 -9.99975,-11.27972 z" /><path
     style="fill:#00b050;fill-rule:evenodd;stroke-width:1.33329999"
     inkscape:connector-curvature="0"
     id="path7430"
     d="m 1084.6908,373.67065 c 0,-6.22651 4.4799,-11.27971 9.9997,-11.27971 5.5199,0 9.9998,5.0532 9.9998,11.27971 0,6.22652 -4.4799,11.27972 -9.9998,11.27972 -5.5198,0 -9.9997,-5.0532 -9.9997,-11.27972 z" /><g
     style="fill:#ff0000;fill-rule:evenodd"
     id="g7438"
     transform="matrix(1.3333,0,0,-1.3333,-24.241503,623.02442)"><path
       inkscape:connector-curvature="0"
       id="path7432"
       d="m 667.08,185.4 c 0,4.64 3.36,8.4 7.5,8.4 4.14,0 7.5,-3.76 7.5,-8.4 0,-4.64 -3.36,-8.4 -7.5,-8.4 -4.14,0 -7.5,3.76 -7.5,8.4 z" /><path
       inkscape:connector-curvature="0"
       id="path7434"
       d="m 721.92,185.58 c 0,4.67 3.38,8.46 7.56,8.46 4.18,0 7.56,-3.79 7.56,-8.46 0,-4.67 -3.38,-8.46 -7.56,-8.46 -4.18,0 -7.56,3.79 -7.56,8.46 z" /><path
       inkscape:connector-curvature="0"
       id="path7436"
       d="m 776.76,185.58 c 0,4.67 3.38,8.46 7.56,8.46 4.18,0 7.56,-3.79 7.56,-8.46 0,-4.67 -3.38,-8.46 -7.56,-8.46 -4.18,0 -7.56,3.79 -7.56,8.46 z" /></g><g
     id="g7444"
     clip-path="url(#clipPath4025)"
     transform="matrix(1.3333,0,0,-1.3333,-24.241503,623.02442)"><text
       style="font-size:14.03999996px;font-family:Calibri;fill:#000000"
       id="text7442"
       font-size="14.04px"
       transform="matrix(1,0,0,-1,210.14,150.1)"><tspan
         id="tspan7440"
         y="0"
         x="0 6.3460798 13.46436 20.52648 24.10668 31.22496">v20.02</tspan></text>
</g><g
     id="g7450"
     clip-path="url(#clipPath4037)"
     transform="matrix(1.3333,0,0,-1.3333,-24.241503,623.02442)"><text
       style="font-size:14.03999996px;font-family:Calibri;fill:#000000"
       id="text7448"
       font-size="14.04px"
       transform="matrix(1,0,0,-1,265.01,150.1)"><tspan
         id="tspan7446"
         y="0"
         x="0 6.3460798 13.46436 20.52648 24.10668 31.22496">v20.05</tspan></text>
</g><g
     id="g7456"
     clip-path="url(#clipPath4049)"
     transform="matrix(1.3333,0,0,-1.3333,-24.241503,623.02442)"><text
       style="font-size:14.03999996px;font-family:Calibri;fill:#000000"
       id="text7454"
       font-size="14.04px"
       transform="matrix(1,0,0,-1,319.9,150.77)"><tspan
         id="tspan7452"
         y="0"
         x="0 6.3460798 13.46436 20.52648 24.10668 31.22496">v20.08</tspan></text>
</g><g
     id="g7462"
     clip-path="url(#clipPath4061)"
     transform="matrix(1.3333,0,0,-1.3333,-24.241503,623.02442)"><text
       style="font-size:14.06400013px;font-family:Calibri;fill:#000000"
       id="text7460"
       font-size="14.064px"
       transform="matrix(1,0,0,-1,375,150.94)"><tspan
         id="tspan7458"
         y="0"
         x="0 7.9180322 14.992224 22.066416 25.652737 32.726929">V20.11</tspan></text>
</g><g
     id="g7468"
     clip-path="url(#clipPath4073)"
     transform="matrix(1.3333,0,0,-1.3333,-24.241503,623.02442)"><text
       style="font-size:14.06400013px;font-family:Calibri;fill:#000000"
       id="text7466"
       font-size="14.064px"
       transform="matrix(1,0,0,-1,429.17,150.94)"><tspan
         id="tspan7464"
         y="0"
         x="0 6.3569279 13.445184 20.519377 24.105696 31.179888">v21.02</tspan></text>
</g><g
     id="g7474"
     clip-path="url(#clipPath4085)"
     transform="matrix(1.3333,0,0,-1.3333,-24.241503,623.02442)"><text
       style="font-size:14.03999996px;font-family:Calibri;fill:#000000"
       id="text7472"
       font-size="14.04px"
       transform="matrix(1,0,0,-1,483,150.55)"><tspan
         id="tspan7470"
         y="0"
         x="0 6.3460798 13.46436 20.52648 24.10668 31.22496">v21.05</tspan></text>
</g><g
     id="g7480"
     clip-path="url(#clipPath4097)"
     transform="matrix(1.3333,0,0,-1.3333,-24.241503,623.02442)"><text
       style="font-size:14.06400013px;font-family:Calibri;fill:#000000"
       id="text7478"
       font-size="14.064px"
       transform="matrix(1,0,0,-1,537.38,150.82)"><tspan
         id="tspan7476"
         y="0"
         x="0 6.3569279 13.445184 20.519377 24.105696 31.179888">v21.08</tspan></text>
</g><g
     id="g7486"
     clip-path="url(#clipPath4109)"
     transform="matrix(1.3333,0,0,-1.3333,-24.241503,623.02442)"><text
       style="font-size:14.06400013px;font-family:Calibri;fill:#000000"
       id="text7484"
       font-size="14.064px"
       transform="matrix(1,0,0,-1,592.27,150.82)"><tspan
         id="tspan7482"
         y="0"
         x="0 6.3569279 13.445184 20.519377 24.105696 31.179888">v21.11</tspan></text>
</g><g
     id="g7492"
     clip-path="url(#clipPath4121)"
     transform="matrix(1.3333,0,0,-1.3333,-24.241503,623.02442)"><text
       style="font-size:14.03999996px;font-family:Calibri;fill:#000000"
       id="text7490"
       font-size="14.04px"
       transform="matrix(1,0,0,-1,647.14,151.46)"><tspan
         id="tspan7488"
         y="0"
         x="0 6.3460798 13.46436 20.52648 24.10668 31.22496">v22.02</tspan></text>
</g><g
     id="g7498"
     clip-path="url(#clipPath4133)"
     transform="matrix(1.3333,0,0,-1.3333,-24.241503,623.02442)"><text
       style="font-size:14.03999996px;font-family:Calibri;fill:#000000"
       id="text7496"
       font-size="14.04px"
       transform="matrix(1,0,0,-1,702.24,151.63)"><tspan
         id="tspan7494"
         y="0"
         x="0 7.96068 14.99472 22.113001 25.651079 32.76936">V22.05</tspan></text>
</g><g
     id="g7504"
     clip-path="url(#clipPath4145)"
     transform="matrix(1.3333,0,0,-1.3333,-24.241503,623.02442)"><text
       style="font-size:14.03999996px;font-family:Calibri;fill:#000000"
       id="text7502"
       font-size="14.04px"
       transform="matrix(1,0,0,-1,756.43,151.63)"><tspan
         id="tspan7500"
         y="0"
         x="0 7.96068 14.99472 22.113001 25.651079 32.76936">V22.08</tspan></text>
</g><g
     id="g7510"
     clip-path="url(#clipPath4157)"
     transform="matrix(1.3333,0,0,-1.3333,-24.241503,623.02442)"><text
       style="font-size:14.03999996px;font-family:Calibri;fill:#000000"
       id="text7508"
       font-size="14.04px"
       transform="matrix(1,0,0,-1,811.99,151.63)"><tspan
         id="tspan7506"
         y="0"
         x="0 7.96068 14.99472 22.113001 25.651079 32.76936">V22.11</tspan></text>
</g><g
     id="g7516"
     clip-path="url(#clipPath4169)"
     transform="matrix(1.3333,0,0,-1.3333,-24.241503,623.02442)"><text
       style="font-size:14.03999996px;font-family:Calibri;fill:#000000"
       id="text7514"
       font-size="14.04px"
       transform="matrix(1,0,0,-1,105.82,214.18)"><tspan
         id="tspan7512"
         y="0"
         x="0 6.3460798 13.46436">v20</tspan></text>
</g><g
     id="g7522"
     clip-path="url(#clipPath4181)"
     transform="matrix(1.3333,0,0,-1.3333,-24.241503,623.02442)"><text
       style="font-size:14.06400013px;font-family:Calibri;fill:#000000"
       id="text7520"
       font-size="14.064px"
       transform="matrix(1,0,0,-1,105.5,247.68)"><tspan
         id="tspan7518"
         y="0"
         x="0 6.3569279 13.445184">v21</tspan></text>
</g><g
     id="g7528"
     clip-path="url(#clipPath4193)"
     transform="matrix(1.3333,0,0,-1.3333,-24.241503,623.02442)"><text
       style="font-size:14.03999996px;font-family:Calibri;fill:#000000"
       id="text7526"
       font-size="14.04px"
       transform="matrix(1,0,0,-1,228.79,214.51)"><tspan
         id="tspan7524"
         y="0"
         x="0">√</tspan></text>
</g><g
     id="g7534"
     clip-path="url(#clipPath4205)"
     transform="matrix(1.3333,0,0,-1.3333,-24.241503,623.02442)"><text
       style="font-size:14.03999996px;font-family:Calibri;fill:#000000"
       id="text7532"
       font-size="14.04px"
       transform="matrix(1,0,0,-1,283.8,214.51)"><tspan
         id="tspan7530"
         y="0"
         x="0">√</tspan></text>
</g><g
     id="g7540"
     clip-path="url(#clipPath4217)"
     transform="matrix(1.3333,0,0,-1.3333,-24.241503,623.02442)"><text
       style="font-size:14.03999996px;font-family:Calibri;fill:#000000"
       id="text7538"
       font-size="14.04px"
       transform="matrix(1,0,0,-1,337.68,214.51)"><tspan
         id="tspan7536"
         y="0"
         x="0">√</tspan></text>
</g><g
     id="g7546"
     clip-path="url(#clipPath4229)"
     transform="matrix(1.3333,0,0,-1.3333,-24.241503,623.02442)"><text
       style="font-size:14.03999996px;font-family:Calibri;fill:#000000"
       id="text7544"
       font-size="14.04px"
       transform="matrix(1,0,0,-1,611.66,285.79)"><tspan
         id="tspan7542"
         y="0"
         x="0">√</tspan></text>
</g><g
     id="g7552"
     clip-path="url(#clipPath4241)"
     transform="matrix(1.3333,0,0,-1.3333,-24.241503,623.02442)"><text
       style="font-size:14.03999996px;font-family:Calibri;fill:#000000"
       id="text7550"
       font-size="14.04px"
       transform="matrix(1,0,0,-1,666.65,285.79)"><tspan
         id="tspan7548"
         y="0"
         x="0">√</tspan></text>
</g><g
     id="g7558"
     clip-path="url(#clipPath4253)"
     transform="matrix(1.3333,0,0,-1.3333,-24.241503,623.02442)"><text
       style="font-size:14.03999996px;font-family:Calibri;fill:#000000"
       id="text7556"
       font-size="14.04px"
       transform="matrix(1,0,0,-1,719.4,285.79)"><tspan
         id="tspan7554"
         y="0"
         x="0">√</tspan></text>
</g><g
     id="g7564"
     clip-path="url(#clipPath4265)"
     transform="matrix(1.3333,0,0,-1.3333,-24.241503,623.02442)"><text
       style="font-size:14.03999996px;font-family:Calibri;fill:#000000"
       id="text7562"
       font-size="14.04px"
       transform="matrix(1,0,0,-1,775.56,285.79)"><tspan
         id="tspan7560"
         y="0"
         x="0">√</tspan></text>
</g><g
     id="g7570"
     clip-path="url(#clipPath4277)"
     transform="matrix(1.3333,0,0,-1.3333,-24.241503,623.02442)"><text
       style="font-size:14.03999996px;font-family:Calibri;fill:#000000"
       id="text7568"
       font-size="14.04px"
       transform="matrix(1,0,0,-1,398.54,249.22)"><tspan
         id="tspan7566"
         y="0"
         x="0">√</tspan></text>
</g><g
     id="g7576"
     clip-path="url(#clipPath4289)"
     transform="matrix(1.3333,0,0,-1.3333,-24.241503,623.02442)"><text
       style="font-size:14.03999996px;font-family:Calibri;fill:#000000"
       id="text7574"
       font-size="14.04px"
       transform="matrix(1,0,0,-1,453.53,249.22)"><tspan
         id="tspan7572"
         y="0"
         x="0">√</tspan></text>
</g><g
     id="g7582"
     clip-path="url(#clipPath4301)"
     transform="matrix(1.3333,0,0,-1.3333,-24.241503,623.02442)"><text
       style="font-size:14.03999996px;font-family:Calibri;fill:#000000"
       id="text7580"
       font-size="14.04px"
       transform="matrix(1,0,0,-1,507.43,249.22)"><tspan
         id="tspan7578"
         y="0"
         x="0">√</tspan></text>
</g><g
     id="g7588"
     clip-path="url(#clipPath4313)"
     transform="matrix(1.3333,0,0,-1.3333,-24.241503,623.02442)"><text
       style="font-size:14.03999996px;font-family:Calibri;fill:#000000"
       id="text7586"
       font-size="14.04px"
       transform="matrix(1,0,0,-1,561.05,249.22)"><tspan
         id="tspan7584"
         y="0"
         x="0">√</tspan></text>
</g><path
     style="fill:#44546a;stroke-width:1.33329999"
     inkscape:connector-curvature="0"
     id="path7590"
     d="m 217.67245,474.73479 v -25.14603 c 0,-1.10664 -0.89331,-1.99995 -1.99995,-1.99995 -1.10664,0 -1.99995,0.89331 -1.99995,1.99995 v 25.14603 c 0,1.09331 0.89331,1.99995 1.99995,1.99995 1.10664,0 1.99995,-0.90664 1.99995,-1.99995 z m 3.9999,-23.14608 -5.99985,-11.9997 -5.99985,11.9997 z" /><g
     id="g7596"
     clip-path="url(#clipPath4327)"
     transform="matrix(1.3333,0,0,-1.3333,-24.241503,623.02442)"><text
       style="font-size:14.03999996px;font-family:Calibri;fill:#000000"
       id="text7594"
       font-size="14.04px"
       transform="matrix(1,0,0,-1,170.83,214.51)"><tspan
         id="tspan7592"
         y="0"
         x="0">√</tspan></text>
</g><g
     id="g7602"
     clip-path="url(#clipPath4339)"
     transform="matrix(1.3333,0,0,-1.3333,-24.241503,623.02442)"><text
       style="font-weight:bold;font-size:14.06400013px;font-family:Calibri;fill:#000000"
       id="text7600"
       font-weight="bold"
       font-size="14.064px"
       transform="matrix(1,0,0,-1,23.4,272.33)"><tspan
         id="tspan7598"
         y="0"
         x="0 8.5227842 16.412687 20.167776">ABI </tspan></text>
</g><g
     id="g7608"
     clip-path="url(#clipPath4351)"
     transform="matrix(1.3333,0,0,-1.3333,-24.241503,623.02442)"><text
       style="font-weight:bold;font-size:14.06400013px;font-family:Calibri;fill:#000000"
       id="text7606"
       font-weight="bold"
       font-size="14.064px"
       transform="matrix(1,0,0,-1,46.68,272.33)"><tspan
         id="tspan7604"
         y="0"
         x="0 7.566432 14.640624 19.563025 25.174561 28.662432 36.228863">Version</tspan></text>
</g><g
     id="g7614"
     clip-path="url(#clipPath4363)"
     transform="matrix(1.3333,0,0,-1.3333,-24.241503,623.02442)"><text
       style="font-weight:bold;font-size:14.03999996px;font-family:Calibri;fill:#000000"
       id="text7612"
       font-weight="bold"
       font-size="14.04px"
       transform="matrix(1,0,0,-1,17.64,255.5)"><tspan
         id="tspan7610"
         y="0"
         x="0 7.4271598 14.98068 26.395201 33.934681 40.80024 45.700199 49.154041 56.7216 60.175442 63.671398 67.125237 72.053284">Compatibility</tspan></text>
</g><g
     id="g7620"
     clip-path="url(#clipPath4375)"
     transform="matrix(1.3333,0,0,-1.3333,-24.241503,623.02442)"><text
       style="font-size:14.03999996px;font-family:Calibri;fill:#000000"
       id="text7618"
       font-size="14.04px"
       transform="matrix(1,0,0,-1,191.28,116.86)"><tspan
         id="tspan7616"
         y="0"
         x="0 6.3460798 13.46436">v20</tspan></text>
</g><path
     style="fill:#44546a;stroke-width:1.33329999"
     inkscape:connector-curvature="0"
     id="path7622"
     d="m 511.7451,474.89479 v -25.14604 c 0,-1.10664 -0.89331,-1.99995 -1.99995,-1.99995 -1.10664,0 -1.99995,0.89331 -1.99995,1.99995 v 25.14604 c 0,1.09331 0.89331,1.99995 1.99995,1.99995 1.10664,0 1.99995,-0.90664 1.99995,-1.99995 z m 3.9999,-23.14609 -5.99985,-11.9997 -5.99985,11.9997 z" /><g
     id="g7628"
     clip-path="url(#clipPath4389)"
     transform="matrix(1.3333,0,0,-1.3333,-24.241503,623.02442)"><text
       style="font-size:14.03999996px;font-family:Calibri;fill:#000000"
       id="text7626"
       font-size="14.04px"
       transform="matrix(1,0,0,-1,407.06,115.63)"><tspan
         id="tspan7624"
         y="0"
         x="0 6.3460798 13.46436">v21</tspan></text>
</g><path
     style="fill:#44546a;stroke-width:1.33329999"
     inkscape:connector-curvature="0"
     id="path7630"
     d="m 804.53778,476.01476 v -25.14604 c 0,-1.10664 -0.89331,-1.99995 -1.99995,-1.99995 -1.10664,0 -1.99995,0.89331 -1.99995,1.99995 v 25.14604 c 0,1.09331 0.89331,1.99995 1.99995,1.99995 1.10664,0 1.99995,-0.90664 1.99995,-1.99995 z m 3.9999,-23.14609 -5.99985,-11.9997 -5.99985,11.9997 z" /><g
     id="g7636"
     clip-path="url(#clipPath4403)"
     transform="matrix(1.3333,0,0,-1.3333,-24.241503,623.02442)"><text
       style="font-size:14.03999996px;font-family:Calibri;fill:#000000"
       id="text7634"
       font-size="14.04px"
       transform="matrix(1,0,0,-1,626.66,114.74)"><tspan
         id="tspan7632"
         y="0"
         x="0 6.3460798 13.46436">v22</tspan></text>
</g><path
     style="fill:#44546a;stroke-width:1.33329999"
     inkscape:connector-curvature="0"
     id="path7638"
     d="m 1098.2904,479.37468 v -25.14604 c 0,-1.10664 -0.8933,-1.99995 -1.9999,-1.99995 -1.1067,0 -2,0.89331 -2,1.99995 v 25.14604 c 0,1.0933 0.8933,1.99995 2,1.99995 1.1066,0 1.9999,-0.90665 1.9999,-1.99995 z m 3.9999,-23.14609 -5.9998,-11.9997 -5.9999,11.9997 z" /><g
     id="g7644"
     clip-path="url(#clipPath4417)"
     transform="matrix(1.3333,0,0,-1.3333,-24.241503,623.02442)"><text
       style="font-size:14.06400013px;font-family:Calibri;fill:#000000"
       id="text7642"
       font-size="14.064px"
       transform="matrix(1,0,0,-1,846.96,112.22)"><tspan
         id="tspan7640"
         y="0"
         x="0 6.3569279 13.445184">v23</tspan></text>
</g><g
     id="g7650"
     clip-path="url(#clipPath4429)"
     transform="matrix(1.3333,0,0,-1.3333,-24.241503,623.02442)"><text
       style="font-size:14.03999996px;font-family:Calibri;fill:#000000"
       id="text7648"
       font-size="14.04px"
       transform="matrix(1,0,0,-1,832.87,318.46)"><tspan
         id="tspan7646"
         y="0"
         x="0">√</tspan></text>
</g><g
     id="g7656"
     clip-path="url(#clipPath4441)"
     transform="matrix(1.3333,0,0,-1.3333,-24.241503,623.02442)"><text
       style="font-size:14.03999996px;font-family:Calibri;fill:#000000"
       id="text7654"
       font-size="14.04px"
       transform="matrix(1,0,0,-1,105.5,285.67)"><tspan
         id="tspan7652"
         y="0"
         x="0 6.3460798 13.46436">v22</tspan></text>
</g><g
     id="g7662"
     clip-path="url(#clipPath4453)"
     transform="matrix(1.3333,0,0,-1.3333,-24.241503,623.02442)"><text
       style="font-size:14.03999996px;font-family:Calibri;fill:#000000"
       id="text7660"
       font-size="14.04px"
       transform="matrix(1,0,0,-1,104.93,319.87)"><tspan
         id="tspan7658"
         y="0"
         x="0 6.3460798 13.46436">v23</tspan></text>
</g><path
     style="fill:none;stroke:#5b9bd5;stroke-width:0.63998401;stroke-miterlimit:10;stroke-dasharray:2.559936, 1.919952"
     inkscape:connector-curvature="0"
     id="path7664"
     stroke-miterlimit="10"
     d="m 1104.7569,213.75465 -934.60326,0.39999" /><path
     style="fill:none;stroke:#5b9bd5;stroke-width:0.63998401;stroke-miterlimit:10;stroke-dasharray:2.559936, 1.919952"
     inkscape:connector-curvature="0"
     id="path7666"
     stroke-miterlimit="10"
     d="M 1105.3969,255.35361 170.79362,255.7536" /><path
     style="fill:none;stroke:#5b9bd5;stroke-width:0.63998401;stroke-miterlimit:10;stroke-dasharray:2.559936, 1.919952"
     inkscape:connector-curvature="0"
     id="path7668"
     stroke-miterlimit="10"
     d="M 1105.3969,299.35251 170.79362,299.7525" /><g
     id="g7674"
     clip-path="url(#clipPath4477)"
     transform="matrix(1.3333,0,0,-1.3333,-24.241503,623.02442)"><text
       style="font-size:14.06400013px;font-family:Calibri;fill:#8497b0"
       id="text7672"
       font-size="14.064px"
       transform="matrix(1,0,0,-1,283.8,251.38)"><tspan
         id="tspan7670"
         y="0"
         x="0">√</tspan></text>
</g><g
     id="g7680"
     clip-path="url(#clipPath4489)"
     transform="matrix(1.3333,0,0,-1.3333,-24.241503,623.02442)"><text
       style="font-size:14.03999996px;font-family:Calibri;fill:#8497b0"
       id="text7678"
       font-size="14.04px"
       transform="matrix(1,0,0,-1,339.5,251.95)"><tspan
         id="tspan7676"
         y="0"
         x="0">√</tspan></text>
</g><g
     id="g7686"
     clip-path="url(#clipPath4501)"
     transform="matrix(1.3333,0,0,-1.3333,-24.241503,623.02442)"><text
       style="font-size:14.03999996px;font-family:Calibri;fill:#d0cece"
       id="text7684"
       font-size="14.04px"
       transform="matrix(1,0,0,-1,229.8,250.63)"><tspan
         id="tspan7682"
         y="0"
         x="0">√</tspan></text>
</g><g
     id="g7692"
     clip-path="url(#clipPath4513)"
     transform="matrix(1.3333,0,0,-1.3333,-24.241503,623.02442)"><text
       style="font-size:14.03999996px;font-family:Calibri;fill:#d0cece"
       id="text7690"
       font-size="14.04px"
       transform="matrix(1,0,0,-1,453.53,286.63)"><tspan
         id="tspan7688"
         y="0"
         x="0">√</tspan></text>
</g><g
     id="g7698"
     clip-path="url(#clipPath4525)"
     transform="matrix(1.3333,0,0,-1.3333,-24.241503,623.02442)"><text
       style="font-size:14.03999996px;font-family:Calibri;fill:#8497b0"
       id="text7696"
       font-size="14.04px"
       transform="matrix(1,0,0,-1,507.43,286.63)"><tspan
         id="tspan7694"
         y="0"
         x="0">√</tspan></text>
</g><g
     id="g7704"
     clip-path="url(#clipPath4537)"
     transform="matrix(1.3333,0,0,-1.3333,-24.241503,623.02442)"><text
       style="font-size:14.03999996px;font-family:Calibri;fill:#8497b0"
       id="text7702"
       font-size="14.04px"
       transform="matrix(1,0,0,-1,561.05,286.63)"><tspan
         id="tspan7700"
         y="0"
         x="0">√</tspan></text>
</g><g
     id="g7710"
     clip-path="url(#clipPath4549)"
     transform="matrix(1.3333,0,0,-1.3333,-24.241503,623.02442)"><text
       style="font-size:14.03999996px;font-family:Calibri;fill:#d0cece"
       id="text7708"
       font-size="14.04px"
       transform="matrix(1,0,0,-1,667.39,318.89)"><tspan
         id="tspan7706"
         y="0"
         x="0">√</tspan></text>
</g><g
     id="g7716"
     clip-path="url(#clipPath4561)"
     transform="matrix(1.3333,0,0,-1.3333,-24.241503,623.02442)"><text
       style="font-size:14.03999996px;font-family:Calibri;fill:#8497b0"
       id="text7714"
       font-size="14.04px"
       transform="matrix(1,0,0,-1,720.14,318.89)"><tspan
         id="tspan7712"
         y="0"
         x="0">√</tspan></text>
</g><g
     id="g7722"
     clip-path="url(#clipPath4573)"
     transform="matrix(1.3333,0,0,-1.3333,-24.241503,623.02442)"><text
       style="font-size:14.03999996px;font-family:Calibri;fill:#8497b0"
       id="text7720"
       font-size="14.04px"
       transform="matrix(1,0,0,-1,776.3,318.89)"><tspan
         id="tspan7718"
         y="0"
         x="0">√</tspan></text>
</g><path
     style="fill:#7030a0;stroke-width:1.33329999"
     inkscape:connector-curvature="0"
     id="path7724"
     d="m 211.36594,305.0057 2.18661,-227.154316 c 0.0133,-1.0933 -0.87997,-1.99995 -1.98661,-2.01328 -1.09331,-0.0133 -1.99995,0.87998 -2.01329,1.98662 l -2.18661,227.140986 c -0.0133,1.10663 0.87998,2.01328 1.98662,2.02661 1.10664,0.0133 1.99995,-0.87998 2.01328,-1.98662 z m -7.97313,-2.07994 5.87985,12.06636 6.11985,-11.94637 z" /><path
     style="fill:#7030a0;stroke-width:1.33329999"
     inkscape:connector-curvature="0"
     id="path7726"
     d="M 289.03067,238.94069 V 107.43731 c 0,-1.10664 -0.89331,-1.99995 -1.99995,-1.99995 -1.10664,0 -1.99995,0.89331 -1.99995,1.99995 v 131.50338 c 0,1.09331 0.89331,1.99995 1.99995,1.99995 1.10664,0 1.99995,-0.90664 1.99995,-1.99995 z m -7.9998,-1.99995 5.99985,11.9997 5.99985,-11.9997 z" /><g
     id="g7732"
     clip-path="url(#clipPath4589)"
     transform="matrix(1.3333,0,0,-1.3333,-24.241503,623.02442)"><text
       style="font-size:14.03999996px;font-family:Calibri;fill:#000000"
       id="text7730"
       font-size="14.04px"
       transform="matrix(1,0,0,-1,164.59,422.74)"><tspan
         id="tspan7728"
         y="0"
         x="0 6.3460798 13.46436 20.52648 23.75568 31.88484 39.578758 43.06068 46.065239 49.294441 54.784081 57.957119 65.271957 72.263878 78.118561 81.347763 88.072922 92.762283 99.754204 107.04096 110.38248 117.10764 120.33684 123.56604 130.17888 137.50777 144.49968 151.78644 155.12796 165.16656 168.43788 173.14128 180.44208 183.67128 190.01736 197.13564 204.19775 207.77795 214.89624 221.94432 225.17352 229.9752 236.70036">v20 ABI is declared aligned with v19.11 LTS</tspan></text>
</g><g
     id="g7738"
     clip-path="url(#clipPath4601)"
     transform="matrix(1.3333,0,0,-1.3333,-24.241503,623.02442)"><text
       style="font-size:14.06400013px;font-family:Calibri;fill:#000000"
       id="text7736"
       font-size="14.064px"
       transform="matrix(1,0,0,-1,222.12,398.3)"><tspan
         id="tspan7734"
         y="0"
         x="0 6.3569279 13.445184 20.519377 23.740032 29.014032 35.385025 46.537777 53.851055 61.262783 64.497505 70.038719 73.034355 79.771011 84.440254 91.401939 94.622589 101.35925 108.65846 115.97174 122.93343 130.2467 133.59393 140.3306 147.62981 154.94308 158.16374 164.52068 171.60893 178.68312 181.90378 187.17778 193.54877 204.70152 212.0148 219.42653 222.66125 228.20247 231.32468 238.06133 242.73058 249.69226 252.81447 263.98129 271.39301 278.77661 282.01132 286.30084 289.53555 296.53943 303.82458 307.34061 310.51904 316.0462 323.3595 330.67276 337.98605 345.39777 350.30612 355.01755 358.13977 362.21832 369.63004 374.53839 377.5762 383.93314 391.02139 398.09558 401.2178 409.36084 417.03979 420.51361 423.6358 429.40204 436.81378 444.04266 448.75412 451.98883 459.28806 466.60132 473.56302 479.06204">v21 symbols are added and v20 symbols are modified, support for v20 ABI continues.</tspan></text>
</g><path
     style="fill:#7030a0;stroke-width:1.33329999"
     inkscape:connector-curvature="0"
     id="path7740"
     d="m 510.78512,258.56686 -0.31999,-126.17017 c 0,-1.09331 0.89331,-1.99995 1.99995,-1.99995 1.09331,0 1.99995,0.89331 1.99995,1.99995 l 0.31999,126.15684 c 0,1.10664 -0.89331,2.01328 -1.99995,2.01328 -1.0933,0 -1.99995,-0.89331 -1.99995,-1.99995 z m 7.9998,-2.01328 -5.97318,12.01303 -6.02652,-11.98636 z" /><g
     id="g7746"
     clip-path="url(#clipPath4615)"
     transform="matrix(1.3333,0,0,-1.3333,-24.241503,623.02442)"><text
       style="font-size:14.03999996px;font-family:Calibri;fill:#000000"
       id="text7744"
       font-size="14.04px"
       transform="matrix(1,0,0,-1,388.51,373.39)"><tspan
         id="tspan7742"
         y="0"
         x="0 6.3460798 13.46436 20.52648 23.75568 31.88484 39.578758 43.06068 46.065239 49.294441 54.784081 57.957119 65.271957 72.263878 78.118561 81.347763 88.072922 92.762283 99.754204 107.04096 110.38248 117.10764 120.33684 123.56604 130.17888 137.50777 144.49968 151.78644 155.12796 165.16656 168.43788 173.14128 180.44208 183.67128 190.01736 197.13564 204.19775 207.77795 214.89624 221.94432 225.17352 229.9752 236.70036 243.14471 246.65472 249.78564 254.46095 261.45288 272.58661 279.31177 282.54095 289.86984 293.09903 300.47003 307.02673 310.36823 316.71432 323.83261 330.89471 334.12393 339.40295 345.76309 356.92487 364.23972 371.63879 374.91013 380.39975 383.4324 390.15756 394.83289 401.8248 404.99783 409.71527 416.70721 427.84091 435.23999 441.51587 448.50781 455.79456">v21 ABI is declared aligned with v20.11 LTS, remaining v20 symbols are removed.</tspan></text>
</g><path
     style="fill:none;stroke:#7030a0;stroke-width:2.07994795;stroke-miterlimit:10"
     inkscape:connector-curvature="0"
     id="path7748"
     stroke-miterlimit="10"
     d="M 278.23094,342.95142 H 449.58665 V 261.03347 H 278.23094 Z" /><g
     id="g7754"
     clip-path="url(#clipPath4629)"
     transform="matrix(1.3333,0,0,-1.3333,-24.241503,623.02442)"><text
       style="font-weight:bold;font-size:14.03999996px;font-family:Calibri;fill:#000000"
       id="text7752"
       font-weight="bold"
       font-size="14.04px"
       transform="matrix(1,0,0,-1,23.616,114.74)"><tspan
         id="tspan7750"
         y="0"
         x="0 8.5082397 16.4268 20.17548 23.26428 30.817801 37.879921 42.821999 48.423962 51.93396 59.48748 67.026962">ABI Versions</tspan></text>
</g><g
     id="g7760"
     clip-path="url(#clipPath4641)"
     transform="matrix(1.3333,0,0,-1.3333,-24.241503,623.02442)"><text
       style="font-weight:bold;font-size:14.03999996px;font-family:Calibri;fill:#000000"
       id="text7758"
       font-weight="bold"
       font-size="14.04px"
       transform="matrix(1,0,0,-1,20.064,150.17)"><tspan
         id="tspan7756"
         y="0"
         x="0 8.8451996 16.31448 25.159679 32.839561 36.0126 43.67844 50.740559 54.222481 61.284599 68.248444 73.850403 80.954643">DPDK Releases</tspan></text>
</g><g
     id="g7766"
     clip-path="url(#clipPath4653)"
     transform="matrix(1.3333,0,0,-1.3333,-24.241503,623.02442)"><text
       style="font-size:14.03999996px;font-family:Calibri;fill:#000000"
       id="text7764"
       font-size="14.04px"
       transform="matrix(1,0,0,-1,444,346.1)"><tspan
         id="tspan7762"
         y="0"
         x="0 6.3460798 13.46436 20.52648 23.75568 29.034719 35.39484 46.556641 53.871479 61.270561 64.541878 70.031517 73.064163 79.789322 84.464638 91.456558 94.629601 101.35476 108.72576 116.02656 123.01848 130.30524 133.64676 140.37192 147.68677 155.0016 158.2308 164.57687 171.69516 178.75728 181.98648 187.26552 193.62564 204.78745 212.10228 219.50136 222.77267 228.26231 231.43536 238.16052 242.80775 249.79968 252.88847 264.05029 271.44937 278.82037 282.04956 286.33176 289.60309 296.595 303.88177 307.39175 310.56479 316.1106 323.42545 330.74026 338.05511 345.45419 350.39627 355.09967 358.20251 362.28815 369.68723 374.62933 377.63388 383.97995 391.09824 398.16037 401.27725 409.4064 417.10031 420.58224 423.69913 429.45551 436.85461 444.09924 448.80264 452.03183 459.33264 466.64749 473.6394 479.12903 488.81665 492.43896">v22 symbols are added and v21 symbols are modified, support for v21 ABI continues…..</tspan></text>
</g><path
     style="fill:#7030a0;stroke-width:1.33329999"
     inkscape:connector-curvature="0"
     id="path7768"
     d="m 583.39664,198.26171 -0.13333,-30.49257 c 0,-1.10664 0.89331,-2.01329 1.98662,-2.01329 1.10664,0 2.01328,0.89331 2.01328,1.98662 l 0.13333,30.49257 c 0,1.10664 -0.89331,2.01328 -1.99995,2.01328 -1.0933,0 -1.99995,-0.89331 -1.99995,-1.98661 z m 7.98647,-2.03995 -5.94652,12.02636 -6.05318,-11.97303 z" /><path
     style="fill:none;stroke:#7030a0;stroke-width:2.07994795;stroke-miterlimit:10"
     inkscape:connector-curvature="0"
     id="path7770"
     stroke-miterlimit="10"
     d="M 571.18361,299.43251 H 742.37933 V 212.87467 H 571.18361 Z" /><path
     style="fill:#00b050;fill-rule:evenodd;stroke-width:1.33329999"
     inkscape:connector-curvature="0"
     id="path7772"
     d="m 933.01457,30.959224 c 0,-6.22651 4.50655,-11.27972 10.07975,-11.27972 5.57319,0 10.07974,5.05321 10.07974,11.27972 0,6.22651 -4.50655,11.27972 -10.07974,11.27972 -5.5732,0 -10.07975,-5.05321 -10.07975,-11.27972 z" /><path
     style="fill:#ff0000;fill-rule:evenodd;stroke-width:1.33329999"
     inkscape:connector-curvature="0"
     id="path7774"
     d="m 1081.3309,29.759254 c 0,-6.18651 4.4798,-11.19972 9.9997,-11.19972 5.5199,0 9.9998,5.01321 9.9998,11.19972 0,6.18651 -4.4799,11.19972 -9.9998,11.19972 -5.5199,0 -9.9997,-5.01321 -9.9997,-11.19972 z" /><g
     id="g7780"
     clip-path="url(#clipPath4673)"
     transform="matrix(1.3333,0,0,-1.3333,-24.241503,623.02442)"><text
       style="font-size:14.03999996px;font-family:Calibri;fill:#000000"
       id="text7778"
       font-size="14.04px"
       transform="matrix(1,0,0,-1,744.89,439.54)"><tspan
         id="tspan7776"
         y="0"
         x="0 4.8016801 11.52684 17.971201 21.144239 28.5714 35.56332 38.792519 45.728279 52.453442 57.943081">LTS Release</tspan></text>
</g><g
     id="g7786"
     clip-path="url(#clipPath4685)"
     transform="matrix(1.3333,0,0,-1.3333,-24.241503,623.02442)"><text
       style="font-size:14.03999996px;font-family:Calibri;fill:#000000"
       id="text7784"
       font-size="14.04px"
       transform="matrix(1,0,0,-1,856.06,439.75)"><tspan
         id="tspan7782"
         y="0"
         x="0 12.0042 15.2334 22.562281 29.961361 34.903439 38.020321 45.461521 52.453442 55.68264 62.618401 69.343559 74.833199">Minor Release</tspan></text>
</g><path
     style="fill:#44546a;stroke-width:1.33329999"
     inkscape:connector-curvature="0"
     id="path7788"
     d="m 779.25841,46.265514 v -25.14604 c 0,-1.10664 -0.89331,-1.99995 -1.99995,-1.99995 -1.10664,0 -1.99995,0.89331 -1.99995,1.99995 v 25.14604 c 0,1.0933 0.89331,1.99995 1.99995,1.99995 1.10664,0 1.99995,-0.90665 1.99995,-1.99995 z m 3.9999,-23.14609 -5.99985,-11.9997 -5.99985,11.9997 z" /><g
     id="g7794"
     clip-path="url(#clipPath4699)"
     transform="matrix(1.3333,0,0,-1.3333,-24.241503,623.02442)"><text
       style="font-size:14.03999996px;font-family:Calibri;fill:#000000"
       id="text7792"
       font-size="14.04px"
       transform="matrix(1,0,0,-1,622.34,439.54)"><tspan
         id="tspan7790"
         y="0"
         x="0 8.1291599 15.82308 19.305 22.309561 29.512079 36.504002 41.151241 46.640881 49.870079 57.339359">ABI Version</tspan></text>
</g><path
     style="fill:none;stroke:#002060;stroke-width:1.27996802;stroke-miterlimit:10"
     inkscape:connector-curvature="0"
     id="path7796"
     stroke-miterlimit="10"
     d="M 763.41881,62.078444 H 1236.847 V 0.63998401 H 763.41881 Z" /></svg>