<?xml version="1.0" encoding="UTF-8" standalone="no"?>
<svg
   xmlns:dc="http://purl.org/dc/elements/1.1/"
   xmlns:cc="http://creativecommons.org/ns#"
   xmlns:rdf="http://www.w3.org/1999/02/22-rdf-syntax-ns#"
   xmlns:svg="http://www.w3.org/2000/svg"
   xmlns="http://www.w3.org/2000/svg"
   xmlns:sodipodi="http://sodipodi.sourceforge.net/DTD/sodipodi-0.dtd"
   xmlns:inkscape="http://www.inkscape.org/namespaces/inkscape"
   width="970.69568"
   height="522.22693"
   version="1.1"
   viewBox="0 0 970.69568 522.22693"
   xml:space="preserve"
   id="svg8399"
   sodipodi:docname="what_is_an_abi.svg"
   inkscape:version="0.92.2 (5c3e80d, 2017-08-06)"><metadata
     id="metadata8403"><rdf:RDF><cc:Work
         rdf:about=""><dc:format>image/svg+xml</dc:format><dc:type
           rdf:resource="http://purl.org/dc/dcmitype/StillImage" /></cc:Work></rdf:RDF></metadata><sodipodi:namedview
     pagecolor="#ffffff"
     bordercolor="#666666"
     borderopacity="1"
     objecttolerance="10"
     gridtolerance="10"
     guidetolerance="10"
     inkscape:pageopacity="0"
     inkscape:pageshadow="2"
     inkscape:window-width="1920"
     inkscape:window-height="1017"
     id="namedview8401"
     showgrid="false"
     inkscape:zoom="0.62755727"
     inkscape:cx="820.83951"
     inkscape:cy="-47.473217"
     inkscape:window-x="-8"
     inkscape:window-y="-8"
     inkscape:window-maximized="1"
     inkscape:current-layer="svg8399" /><defs
     id="defs8269"><clipPath
       id="clipPath26"><path
         d="M 0,1.2207e-4 H 960 V 540.00012 H 0 Z"
         id="path8206"
         inkscape:connector-curvature="0"
         style="clip-rule:evenodd" /></clipPath><radialGradient
       id="radialGradient40"
       cx="0"
       cy="0"
       r="1"
       gradientTransform="matrix(386.44367,-1.3123672e-5,-1.3123672e-5,-386.44367,470.30824,246.15384)"
       gradientUnits="userSpaceOnUse"><stop
         stop-color="#f9d8e2"
         offset="0"
         id="stop8209" /><stop
         stop-color="#fff"
         offset=".74"
         id="stop8211" /><stop
         stop-color="#fff"
         offset=".83"
         id="stop8213" /><stop
         stop-color="#fff"
         offset="1"
         id="stop8215" /></radialGradient><clipPath
       id="clipPath56"><path
         d="M 1.4305e-5,0 H 960.00001 V 540 H 1.4305e-5 Z"
         id="path8218"
         inkscape:connector-curvature="0"
         style="clip-rule:evenodd" /></clipPath><clipPath
       id="clipPath68"><path
         d="M 1.4305e-5,0 H 960.00001 V 540 H 1.4305e-5 Z"
         id="path8221"
         inkscape:connector-curvature="0"
         style="clip-rule:evenodd" /></clipPath><clipPath
       id="clipPath82"><path
         d="M 1.4305e-5,0 H 960.00001 V 540 H 1.4305e-5 Z"
         id="path8224"
         inkscape:connector-curvature="0"
         style="clip-rule:evenodd" /></clipPath><clipPath
       id="clipPath96"><path
         d="M 1.4305e-5,0 H 960.00001 V 540 H 1.4305e-5 Z"
         id="path8227"
         inkscape:connector-curvature="0"
         style="clip-rule:evenodd" /></clipPath><clipPath
       id="clipPath108"><path
         d="M 1.4305e-5,0 H 960.00001 V 540 H 1.4305e-5 Z"
         id="path8230"
         inkscape:connector-curvature="0"
         style="clip-rule:evenodd" /></clipPath><clipPath
       id="clipPath120"><path
         d="M 1.4305e-5,0 H 960.00001 V 540 H 1.4305e-5 Z"
         id="path8233"
         inkscape:connector-curvature="0"
         style="clip-rule:evenodd" /></clipPath><clipPath
       id="clipPath132"><path
         d="M 1.4305e-5,0 H 960.00001 V 540 H 1.4305e-5 Z"
         id="path8236"
         inkscape:connector-curvature="0"
         style="clip-rule:evenodd" /></clipPath><clipPath
       id="clipPath144"><path
         d="M 1.4305e-5,0 H 960.00001 V 540 H 1.4305e-5 Z"
         id="path8239"
         inkscape:connector-curvature="0"
         style="clip-rule:evenodd" /></clipPath><clipPath
       id="clipPath156"><path
         d="M 1.4305e-5,0 H 960.00001 V 540 H 1.4305e-5 Z"
         id="path8242"
         inkscape:connector-curvature="0"
         style="clip-rule:evenodd" /></clipPath><clipPath
       id="clipPath168"><path
         d="M 1.4305e-5,0 H 960.00001 V 540 H 1.4305e-5 Z"
         id="path8245"
         inkscape:connector-curvature="0"
         style="clip-rule:evenodd" /></clipPath><clipPath
       id="clipPath180"><path
         d="M 1.4305e-5,0 H 960.00001 V 540 H 1.4305e-5 Z"
         id="path8248"
         inkscape:connector-curvature="0"
         style="clip-rule:evenodd" /></clipPath><clipPath
       id="clipPath192"><path
         d="M 1.4305e-5,0 H 960.00001 V 540 H 1.4305e-5 Z"
         id="path8251"
         inkscape:connector-curvature="0"
         style="clip-rule:evenodd" /></clipPath><clipPath
       id="clipPath204"><path
         d="M 1.4305e-5,0 H 960.00001 V 540 H 1.4305e-5 Z"
         id="path8254"
         inkscape:connector-curvature="0"
         style="clip-rule:evenodd" /></clipPath><clipPath
       id="clipPath216"><path
         d="M 1.4305e-5,0 H 960.00001 V 540 H 1.4305e-5 Z"
         id="path8257"
         inkscape:connector-curvature="0"
         style="clip-rule:evenodd" /></clipPath><clipPath
       id="clipPath228"><path
         d="M 1.4305e-5,0 H 960.00001 V 540 H 1.4305e-5 Z"
         id="path8260"
         inkscape:connector-curvature="0"
         style="clip-rule:evenodd" /></clipPath><clipPath
       id="clipPath240"><path
         d="M 1.4305e-5,0 H 960.00001 V 540 H 1.4305e-5 Z"
         id="path8263"
         inkscape:connector-curvature="0"
         style="clip-rule:evenodd" /></clipPath><clipPath
       id="clipPath260"><path
         d="M 1.4305e-5,0 H 960.00001 V 540 H 1.4305e-5 Z"
         id="path8266"
         inkscape:connector-curvature="0"
         style="clip-rule:evenodd" /></clipPath></defs><path
     inkscape:connector-curvature="0"
     style="fill:url(#radialGradient40);fill-rule:evenodd;stroke-width:1.33329999"
     id="path8275"
     d="m 116.15709,143.06309 c 0,-28.46596 23.07942,-51.545378 51.54538,-51.545378 h 605.21154 c 28.46595,0 51.54537,23.079418 51.54537,51.545378 V 349.2446 c 0,28.46595 -23.07942,51.54538 -51.54537,51.54538 H 167.70247 c -28.46595,0 -51.54538,-23.07943 -51.54538,-51.54538 z" /><path
     style="fill:#00b050;stroke-width:1.33329999"
     inkscape:connector-curvature="0"
     id="path8277"
     d="m 478.70803,73.758152 0.58665,373.057338 c 0,1.67996 -1.35997,3.03993 -3.03992,3.03993 -1.67996,0.0133 -3.03993,-1.34663 -3.03993,-3.02659 L 472.62818,73.758152 c 0,-1.67995 1.35997,-3.03992 3.03992,-3.03992 1.67996,0 3.03993,1.35997 3.03993,3.03992 z m 6.65317,370.004088 -9.09311,18.25287 -9.14644,-18.22621 z" /><path
     style="fill:none;stroke:#7030a0;stroke-width:6.07984781;stroke-linecap:round;stroke-linejoin:round;stroke-miterlimit:10"
     inkscape:connector-curvature="0"
     id="path8279"
     stroke-miterlimit="10"
     d="m 3.0399239,186.92866 c 0,-36.70575 29.7459201,-66.45167 66.4516701,-66.45167 H 778.00721 c 36.70575,0 66.45167,29.74592 66.45167,66.45167 v 265.80669 c 0,36.70574 -29.74592,66.45167 -66.45167,66.45167 H 69.491594 c -36.70575,0 -66.4516701,-29.74593 -66.4516701,-66.45167 z" /><path
     style="fill:none;stroke:#3b3059;stroke-width:6.07984781;stroke-linecap:round;stroke-linejoin:round;stroke-miterlimit:10"
     inkscape:connector-curvature="0"
     id="path8281"
     stroke-miterlimit="10"
     d="m 101.27746,71.464882 c 0,-37.78572 30.63924,-68.4249581 68.42496,-68.4249581 h 729.52846 c 37.7857,0 68.4249,30.6392381 68.4249,68.4249581 V 345.1647 c 0,37.78572 -30.6392,68.42496 -68.4249,68.42496 H 169.70242 c -37.78572,0 -68.42496,-30.63924 -68.42496,-68.42496 z" /><g
     id="g8287"
     clip-path="url(#clipPath56)"
     transform="matrix(1.3333,0,0,-1.3333,-143.35642,633.10417)"><text
       style="font-size:32.06399918px;font-family:'Century Gothic';fill:#3b3059"
       id="text8285"
       font-size="32.064px"
       transform="matrix(1,0,0,-1,409.78,93.312)"><tspan
         id="tspan8283"
         y="0"
         x="0 23.855616 42.837505 66.693123">DPDK</tspan></text>
</g><g
     id="g8293"
     clip-path="url(#clipPath68)"
     transform="matrix(1.3333,0,0,-1.3333,-143.35642,633.10417)"><text
       style="font-size:32.06399918px;font-family:'Century Gothic';fill:#3b3059"
       id="text8291"
       font-size="32.064px"
       transform="matrix(1,0,0,-1,358.03,435.43)"><tspan
         id="tspan8289"
         y="0"
         x="0 23.72736 45.595009 67.462654 73.875458 80.160004 100.90541 122.80512 133.54655 139.95937 160.96127">Application</tspan></text>
</g><path
     style="fill:#f9d8e2;fill-opacity:0.70196001;fill-rule:evenodd;stroke-width:1.33329999"
     inkscape:connector-curvature="0"
     id="path8295"
     d="M 424.30939,345.59136 H 531.18672 V 277.91305 H 424.30939 Z" /><g
     id="g8301"
     clip-path="url(#clipPath82)"
     transform="matrix(1.3333,0,0,-1.3333,-143.35642,633.10417)"><text
       style="font-size:32.04000092px;font-family:'Century Gothic';fill:#3b3059"
       id="text8299"
       font-size="32.04px"
       transform="matrix(1,0,0,-1,432.96,231.41)"><tspan
         id="tspan8297"
         y="0"
         x="0 23.7096 42.67728">API</tspan></text>
</g><path
     style="fill:#f9d8e2;fill-opacity:0.70196001;fill-rule:evenodd;stroke-width:1.33329999"
     inkscape:connector-curvature="0"
     id="path8303"
     d="m 422.38944,213.91465 h 107.19732 v -67.8383 H 422.38944 Z" /><g
     id="g8309"
     clip-path="url(#clipPath96)"
     transform="matrix(1.3333,0,0,-1.3333,-143.35642,633.10417)"><text
       style="font-size:32.04000092px;font-family:'Century Gothic';fill:#3b3059"
       id="text8307"
       font-size="32.04px"
       transform="matrix(1,0,0,-1,431.54,330.29)"><tspan
         id="tspan8305"
         y="0"
         x="0 23.7096 42.100559">ABI</tspan></text>
</g><g
     id="g8315"
     clip-path="url(#clipPath108)"
     transform="matrix(1.3333,0,0,-1.3333,-143.35642,633.10417)"><text
       style="font-size:15.96000004px;font-family:'Century Gothic';fill:#3b3059"
       id="text8313"
       font-size="15.96px"
       transform="matrix(1,0,0,-1,221.78,293.23)"><tspan
         id="tspan8311"
         y="0"
         x="0 9.4483204 14.25228 24.706079 35.447159 40.203239 51.10392 66.106323 81.076797 84.332642 94.068237">Programming</tspan></text>
</g><g
     id="g8321"
     clip-path="url(#clipPath120)"
     transform="matrix(1.3333,0,0,-1.3333,-143.35642,633.10417)"><text
       style="font-size:15.98400021px;font-family:'Century Gothic';fill:#3b3059"
       id="text8319"
       font-size="15.984px"
       transform="matrix(1,0,0,-1,221.78,274.03)"><tspan
         id="tspan8317"
         y="0"
         x="0 7.320672 18.237743 27.987984 38.633327 48.351601 59.268673 69.945984">Language</tspan></text>
</g><g
     id="g8327"
     clip-path="url(#clipPath132)"
     transform="matrix(1.3333,0,0,-1.3333,-143.35642,633.10417)"><text
       style="font-size:15.96000004px;font-family:'Century Gothic';fill:#3b3059"
       id="text8325"
       font-size="15.96px"
       transform="matrix(1,0,0,-1,221.78,254.81)"><tspan
         id="tspan8323"
         y="0"
         x="0 7.6767602 17.38044 27.116039 37.442162 42.708961 45.93288 56.386681 66.122276">Functions</tspan></text>
</g><g
     id="g8333"
     clip-path="url(#clipPath144)"
     transform="matrix(1.3333,0,0,-1.3333,-143.35642,633.10417)"><text
       style="font-size:15.96000004px;font-family:'Century Gothic';fill:#3b3059"
       id="text8331"
       font-size="15.96px"
       transform="matrix(1,0,0,-1,221.78,235.61)"><tspan
         id="tspan8329"
         y="0"
         x="0 11.87424 22.77492 28.073641 38.974319 44.273041 52.891441 63.776161 74.150162">Datatypes</tspan></text>
</g><g
     id="g8339"
     clip-path="url(#clipPath156)"
     transform="matrix(1.3333,0,0,-1.3333,-143.35642,633.10417)"><text
       style="font-size:15.96000004px;font-family:'Century Gothic';fill:#3b3059"
       id="text8337"
       font-size="15.96px"
       transform="matrix(1,0,0,-1,221.78,216.41)"><tspan
         id="tspan8335"
         y="0"
         x="0 9.6877203 20.06172 25.312559 35.016239 39.820202 49.555801 54.216122 60.823559 69.441963 80.326683 90.700684">Return Types</tspan></text>
</g><g
     id="g8345"
     clip-path="url(#clipPath168)"
     transform="matrix(1.3333,0,0,-1.3333,-143.35642,633.10417)"><text
       style="font-size:15.96000004px;font-family:'Century Gothic';fill:#3b3059"
       id="text8343"
       font-size="15.96px"
       transform="matrix(1,0,0,-1,221.78,197.21)"><tspan
         id="tspan8341"
         y="0"
         x="0 12.97548 23.429279 33.164879 39.357361 44.640121 55.540798 65.276398 70.559158">Constants</tspan></text>
</g><g
     id="g8351"
     clip-path="url(#clipPath180)"
     transform="matrix(1.3333,0,0,-1.3333,-143.35642,633.10417)"><text
       style="font-size:15.96000004px;font-family:'Century Gothic';fill:#3b3059"
       id="text8349"
       font-size="15.96px"
       transform="matrix(1,0,0,-1,221.78,178.01)"><tspan
         id="tspan8347"
         y="0"
         x="0">…</tspan></text>
</g><g
     id="g8357"
     clip-path="url(#clipPath192)"
     transform="matrix(1.3333,0,0,-1.3333,-143.35642,633.10417)"><text
       style="font-size:15.96000004px;font-family:'Century Gothic';fill:#3b3059"
       id="text8355"
       font-size="15.96px"
       transform="matrix(1,0,0,-1,546.38,354.12)"><tspan
         id="tspan8353"
         y="0"
         x="0 3.8304 13.566 19.75848 25.07316 29.877119 39.580799 49.906921 55.189678 58.413601 68.867401 78.602997 83.2314 89.423882 99.797882">Instruction set</tspan></text>
</g><g
     id="g8363"
     clip-path="url(#clipPath204)"
     transform="matrix(1.3333,0,0,-1.3333,-143.35642,633.10417)"><text
       style="font-size:15.98400021px;font-family:'Century Gothic';fill:#3b3059"
       id="text8361"
       font-size="15.984px"
       transform="matrix(1,0,0,-1,546.38,332.88)"><tspan
         id="tspan8359"
         y="0"
         x="0 8.5674238 16.239744 26.517456 36.859104 46.577377 51.836113 62.753185 73.654274 77.026894 87.352562 91.892014 103.99191 108.33955 115.66022 118.85703 128.60727 136.63123 147.02083">Executable &amp; Linker</tspan></text>
</g><g
     id="g8369"
     clip-path="url(#clipPath216)"
     transform="matrix(1.3333,0,0,-1.3333,-143.35642,633.10417)"><text
       style="font-size:15.96000004px;font-family:'Century Gothic';fill:#3b3059"
       id="text8367"
       font-size="15.96px"
       transform="matrix(1,0,0,-1,546.38,313.66)"><tspan
         id="tspan8365"
         y="0"
         x="0 7.6767602 18.13056 22.934521 37.904999 48.805679">Format</tspan></text>
</g><g
     id="g8375"
     clip-path="url(#clipPath228)"
     transform="matrix(1.3333,0,0,-1.3333,-143.35642,633.10417)"><text
       style="font-size:15.96000004px;font-family:'Century Gothic';fill:#3b3059"
       id="text8373"
       font-size="15.96px"
       transform="matrix(1,0,0,-1,546.38,292.42)"><tspan
         id="tspan8371"
         y="0"
         x="0 12.97548 23.87616 27.22776 30.579359 33.80328 43.538879 54.200161 58.39764 71.373123 81.82692 91.562523 100.6278 110.95392 120.68952 125.95632 129.18024 139.63403 149.36964 155.56212">Calling Conventions.</tspan></text>
</g><g
     id="g8381"
     clip-path="url(#clipPath240)"
     transform="matrix(1.3333,0,0,-1.3333,-143.35642,633.10417)"><text
       style="font-size:15.96000004px;font-family:'Century Gothic';fill:#3b3059"
       id="text8379"
       font-size="15.96px"
       transform="matrix(1,0,0,-1,546.38,271.3)"><tspan
         id="tspan8377"
         y="0"
         x="0">…</tspan></text>
</g><path
     style="fill:none;stroke:#ffffff;stroke-width:6.07984781;stroke-linecap:round;stroke-linejoin:round;stroke-miterlimit:10;stroke-dasharray:18.239544, 24.319392"
     inkscape:connector-curvature="0"
     id="path8383"
     stroke-miterlimit="10"
     d="M 122.71693,120.47699 H 782.84709" /><path
     style="fill:none;stroke:#ffffff;stroke-width:6.07984781;stroke-linecap:round;stroke-linejoin:round;stroke-miterlimit:10;stroke-dasharray:18.239544, 24.319392"
     inkscape:connector-curvature="0"
     id="path8385"
     stroke-miterlimit="10"
     d="M 177.27556,413.58966 H 837.40573" /><g
     id="g8391"
     clip-path="url(#clipPath260)"
     transform="matrix(1.3333,0,0,-1.3333,-143.35642,633.10417)"><text
       style="font-style:italic;font-size:15.96000004px;font-family:'Century Gothic';fill:#3b3059"
       id="text8389"
       font-style="italic"
       font-size="15.96px"
       transform="matrix(1,0,0,-1,483.19,405.82)"><tspan
         id="tspan8387"
         y="0"
         x="0 5.0114398 14.71512 24.45072 34.77684 40.299 43.522919 53.976719 63.712318 68.13324 78.459358 89.360039 92.583961 95.807877">function calls</tspan></text>
</g><path
     style="fill:none;stroke:#3b3059;stroke-width:0.95997602;stroke-linecap:round;stroke-linejoin:round;stroke-miterlimit:10"
     inkscape:connector-curvature="0"
     id="path8393"
     stroke-miterlimit="10"
     d="m 574.38564,303.03242 c -11.93304,0 -21.59946,-1.61329 -21.59946,-3.59991 V 164.62255 c 0,-1.98662 -9.66643,-3.59991 -21.59946,-3.59991 11.93303,0 21.59946,-1.61329 21.59946,-3.59991 v -18.30621 c 0,-1.98662 9.66642,-3.59991 21.59946,-3.59991" /><path
     style="fill:none;stroke:#3b3059;stroke-width:0.95997602;stroke-linecap:round;stroke-linejoin:round;stroke-miterlimit:10"
     inkscape:connector-curvature="0"
     id="path8395"
     stroke-miterlimit="10"
     d="m 372.63068,389.43026 c 13.293,0 24.0794,-1.79995 24.0794,-4.01323 v -91.53105 c 0,-2.21327 10.78639,-4.01323 24.0794,-4.01323 -13.29301,0 -24.0794,-1.79995 -24.0794,-4.01323 v -65.3717 c 0,-2.21328 -10.7864,-4.01323 -24.0794,-4.01323" /></svg>