<?xml version="1.0" encoding="UTF-8" standalone="no"?>
<!-- SPDX-License-Identifier: BSD-3-Clause -->
<!-- Copyright(c) 2014 Intel Corporation -->
<!DOCTYPE svg PUBLIC "-//W3C//DTD SVG 1.1//EN" "http://www.w3.org/Graphics/SVG/1.1/DTD/svg11.dtd">
<!-- Generated by Microsoft Visio, SVG Export Link Bonding Modes.svg Page-1 -->
<svg xmlns="http://www.w3.org/2000/svg" xmlns:xlink="http://www.w3.org/1999/xlink" xmlns:ev="http://www.w3.org/2001/xml-events"
		width="4.42446in" height="2.20365in" viewBox="0 0 318.561 158.663" xml:space="preserve" color-interpolation-filters="sRGB"
		class="st13">
	<style type="text/css">
	<![CDATA[
		.st1 {fill:url(#grad0-4);stroke:#4f87bb;stroke-width:0.75}
		.st2 {fill:#4f87bb;font-family:Calibri;font-size:0.833336em}
		.st3 {visibility:visible}
		.st4 {fill:#759fcc;fill-opacity:0.25;filter:url(#filter_2);stroke:#759fcc;stroke-opacity:0.25}
		.st5 {fill:#668bb3;stroke:#547395;stroke-width:0.75}
		.st6 {fill:#feffff;font-family:Calibri;font-size:0.833336em}
		.st7 {fill:#5b9bd5;fill-opacity:0.25;filter:url(#filter_2);stroke:#5b9bd5;stroke-opacity:0.25}
		.st8 {fill:#4f87bb;stroke:#40709c;stroke-width:0.75}
		.st9 {fill:#759fcc;fill-opacity:0.22;filter:url(#filter_2);stroke:#759fcc;stroke-opacity:0.22}
		.st10 {fill:#759fcc;stroke:#c7c8c8;stroke-width:0.25}
		.st11 {font-size:1em}
		.st12 {fill:url(#grad0-56);stroke:#a6b6cd;stroke-width:0.75}
		.st13 {fill:none;fill-rule:evenodd;font-size:12px;overflow:visible;stroke-linecap:square;stroke-miterlimit:3}
	]]>
	</style>

	<defs id="Patterns_And_Gradients">
		<linearGradient id="grad0-4" x1="0" y1="0" x2="1" y2="0" gradientTransform="rotate(60 0.5 0.5)">
			<stop offset="0" stop-color="#e9eff7" stop-opacity="1"/>
			<stop offset="0.24" stop-color="#f4f7fb" stop-opacity="1"/>
			<stop offset="0.54" stop-color="#feffff" stop-opacity="1"/>
		</linearGradient>
		<linearGradient id="grad0-56" x1="0" y1="0" x2="1" y2="0" gradientTransform="rotate(60 0.5 0.5)">
			<stop offset="0" stop-color="#f3f6fa" stop-opacity="1"/>
			<stop offset="0.24" stop-color="#f9fafc" stop-opacity="1"/>
			<stop offset="0.54" stop-color="#feffff" stop-opacity="1"/>
		</linearGradient>
	</defs>
	<defs id="Filters">
		<filter id="filter_2">
			<feGaussianBlur stdDeviation="2"/>
		</filter>
	</defs>
	<g>
		<title>Page-1</title>
		<g id="shape38-1" transform="translate(3.0294,-0.75)">
			<title>Rectangle.38</title>
			<desc>DPDK</desc>
			<rect x="0" y="70.7886" width="311.811" height="87.874" class="st1"/>
			<text x="285.14" y="83.79" class="st2">DPDK</text>		</g>
		<g id="shape8-6" transform="translate(12.5358,-7.83661)">
			<title>Rectangle.8</title>
			<desc>bonding ethdev</desc>
			<g id="shadow8-7" transform="matrix(1,0,0,1,0.345598,1.97279)" class="st3">
				<rect x="0" y="87.7965" width="171.911" height="70.8661" class="st4"/>
			</g>
			<rect x="0" y="87.7965" width="171.911" height="70.8661" class="st5"/>
			<text x="55.03" y="100.8" class="st6">bonding ethdev</text>		</g>
		<g id="shape3-12" transform="translate(3.0294,-121.309)">
			<title>Rectangle</title>
			<desc>User Application</desc>
			<g id="shadow3-13" transform="matrix(1,0,0,1,0.345598,1.97279)" class="st3">
				<rect x="0" y="122.711" width="311.811" height="35.9516" class="st7"/>
			</g>
			<rect x="0" y="122.711" width="311.811" height="35.9516" class="st8"/>
			<text x="122.34" y="143.69" class="st6">User Application</text>		</g>
		<g id="shape5-18" transform="translate(17.2026,-14.9232)">
			<title>Rectangle.5</title>
			<desc>ethdev port</desc>
			<g id="shadow5-19" transform="matrix(1,0,0,1,0.345598,1.97279)" class="st3">
				<rect x="0" y="123.143" width="47.3593" height="35.5195" class="st9"/>
			</g>
			<rect x="0" y="123.143" width="47.3593" height="35.5195" class="st10"/>
			<text x="9.52" y="137.9" class="st6">ethdev <tspan x="15" dy="1.2em" class="st11">port</tspan></text>		</g>
		<g id="shape6-25" transform="translate(73.8955,-14.9232)">
			<title>Rectangle.6</title>
			<desc>ethdev port</desc>
			<g id="shadow6-26" transform="matrix(1,0,0,1,0.345598,1.97279)" class="st3">
				<rect x="0" y="123.143" width="47.3593" height="35.5195" class="st9"/>
			</g>
			<rect x="0" y="123.143" width="47.3593" height="35.5195" class="st10"/>
			<text x="9.52" y="137.9" class="st6">ethdev <tspan x="15" dy="1.2em" class="st11">port</tspan></text>		</g>
		<g id="shape7-32" transform="translate(130.588,-14.9232)">
			<title>Rectangle.7</title>
			<desc>ethdev port</desc>
			<g id="shadow7-33" transform="matrix(1,0,0,1,0.345598,1.97279)" class="st3">
				<rect x="0" y="123.143" width="47.3593" height="35.5195" class="st9"/>
			</g>
			<rect x="0" y="123.143" width="47.3593" height="35.5195" class="st10"/>
			<text x="9.52" y="137.9" class="st6">ethdev <tspan x="15" dy="1.2em" class="st11">port</tspan></text>		</g>
		<g id="shape9-39" transform="translate(199.035,-14.8368)">
			<title>Rectangle.9</title>
			<desc>ethdev port</desc>
			<g id="shadow9-40" transform="matrix(1,0,0,1,0.345598,1.97279)" class="st3">
				<rect x="0" y="123.143" width="47.3593" height="35.5195" class="st9"/>
			</g>
			<rect x="0" y="123.143" width="47.3593" height="35.5195" class="st10"/>
			<text x="9.52" y="137.9" class="st6">ethdev <tspan x="15" dy="1.2em" class="st11">port</tspan></text>		</g>
		<g id="shape10-46" transform="translate(255.728,-14.8368)">
			<title>Rectangle.10</title>
			<desc>ethdev port</desc>
			<g id="shadow10-47" transform="matrix(1,0,0,1,0.345598,1.97279)" class="st3">
				<rect x="0" y="123.143" width="47.3593" height="35.5195" class="st9"/>
			</g>
			<rect x="0" y="123.143" width="47.3593" height="35.5195" class="st10"/>
			<text x="9.52" y="137.9" class="st6">ethdev <tspan x="15" dy="1.2em" class="st11">port</tspan></text>		</g>
		<g id="shape28-53" transform="translate(-60.1711,80.2563) rotate(-90.107)">
			<title>Simple Double Arrow</title>
			<path d="M0 158.66 L11.34 154.18 L11.34 156.42 L29.38 156.42 L29.38 154.18 L40.72 158.66 L29.38 163.15 L29.38 160.9 L11.34
						 160.9 L11.34 163.15 L0 158.66 Z" class="st12"/>
		</g>
		<g id="shape30-57" transform="translate(120.746,108.97) rotate(-90.2397)">
			<title>Simple Double Arrow.30</title>
			<path d="M0 158.66 L11.34 154.18 L11.34 156.42 L56.41 156.42 L56.41 154.18 L67.75 158.66 L56.41 163.15 L56.41 160.9 L11.34
						 160.9 L11.34 163.15 L0 158.66 Z" class="st12"/>
		</g>
		<g id="shape42-60" transform="translate(64.0521,108.636) rotate(-90.1191)">
			<title>Simple Double Arrow.42</title>
			<path d="M0 158.66 L11.34 154.18 L11.34 156.42 L56.87 156.42 L56.87 154.18 L68.21 158.66 L56.87 163.15 L56.87 160.9 L11.34
						 160.9 L11.34 163.15 L0 158.66 Z" class="st12"/>
		</g>
	</g>
</svg>
