<?xml version="1.0" encoding="UTF-8" standalone="no"?>
<!DOCTYPE svg PUBLIC "-//W3C//DTD SVG 1.1//EN" "http://www.w3.org/Graphics/SVG/1.1/DTD/svg11.dtd">
<!-- Generated by Microsoft Visio, SVG Export crypto_xform_chain.svg Page-1 -->
<svg xmlns="http://www.w3.org/2000/svg" xmlns:xlink="http://www.w3.org/1999/xlink" xmlns:ev="http://www.w3.org/2001/xml-events"
		width="4.9352in" height="4.2584in" viewBox="0 0 355.334 306.605" xml:space="preserve" color-interpolation-filters="sRGB"
		class="st12">
	<style type="text/css">
	<![CDATA[
		.st1 {fill:url(#grad0-4);stroke:#386288;stroke-width:0.75}
		.st2 {fill:#386288;font-family:Calibri;font-size:0.833336em}
		.st3 {font-size:0.799995em}
		.st4 {font-size:0.799995em;font-weight:bold}
		.st5 {visibility:visible}
		.st6 {fill:#bdd0e9;fill-opacity:0.25;filter:url(#filter_2);stroke:#bdd0e9;stroke-opacity:0.25}
		.st7 {fill:#a6b6cd;stroke:#41719c;stroke-width:0.75}
		.st8 {fill:#41719c;font-family:Calibri;font-size:0.833336em}
		.st9 {fill:#ffffff;stroke:#41719c;stroke-width:0.75}
		.st10 {marker-end:url(#mrkr4-135);stroke:#41719c;stroke-linecap:round;stroke-linejoin:round;stroke-width:1}
		.st11 {fill:#41719c;fill-opacity:1;stroke:#41719c;stroke-opacity:1;stroke-width:0.28409090909091}
		.st12 {fill:none;fill-rule:evenodd;font-size:12px;overflow:visible;stroke-linecap:square;stroke-miterlimit:3}
	]]>
	</style>

	<defs id="Patterns_And_Gradients">
		<linearGradient id="grad0-4" x1="0" y1="0" x2="1" y2="0" gradientTransform="rotate(60 0.5 0.5)">
			<stop offset="0" stop-color="#e8ebef" stop-opacity="1"/>
			<stop offset="0.24" stop-color="#f4f5f7" stop-opacity="1"/>
			<stop offset="0.54" stop-color="#feffff" stop-opacity="1"/>
		</linearGradient>
	</defs>
	<defs id="Markers">
		<g id="lend4">
			<path d="M 2 1 L 0 0 L 2 -1 L 2 1 " style="stroke:none"/>
		</g>
		<marker id="mrkr4-135" class="st11" refX="-7.04" orient="auto" markerUnits="strokeWidth" overflow="visible">
			<use xlink:href="#lend4" transform="scale(-3.52,-3.52) "/>
		</marker>
	</defs>
	<defs id="Filters">
		<filter id="filter_2">
			<feGaussianBlur stdDeviation="2"/>
		</filter>
	</defs>
	<g>
		<title>Page-1</title>
		<g id="shape9-1" transform="translate(0.749889,-75.0177)">
			<title>Rounded Rectangle.24</title>
			<desc>Symmetric Transform (struct rte_crypto_sym_xform)</desc>
			<path d="M6.78 306.6 L148.14 306.6 A6.77735 6.77735 -180 0 0 154.91 299.83 L154.91 82.55 A6.77735 6.77735 -180 0 0 148.14
						 75.77 L6.78 75.77 A6.77735 6.77735 -180 0 0 -0 82.55 L0 299.83 A6.77735 6.77735 -180 0 0 6.78 306.6 Z"
					class="st1"/>
			<text x="33.55" y="88.77" class="st2">Symmetric Transform <tspan x="27.14" dy="1.5em" class="st3">(</tspan><tspan
						class="st4">struct </tspan><tspan class="st3">rte</tspan><tspan class="st3">_</tspan><tspan class="st3">crypto</tspan><tspan
						class="st3">_</tspan><tspan class="st3">sym</tspan><tspan class="st3">_</tspan><tspan class="st3">xform</tspan><tspan
						class="st3">)</tspan></text>		</g>
		<g id="shape10-16" transform="translate(10.6711,-83.0965)">
			<title>Rounded Rectangle.25</title>
			<desc>Transform Parameters struct rte_crypto_auth_xform struct rte_...</desc>
			<g id="shadow10-17" transform="matrix(1,0,0,1,0.345598,1.97279)" class="st5">
				<path d="M5.91 306.6 L129.16 306.6 A5.90925 5.90925 -180 0 0 135.07 300.7 L135.07 207.92 A5.90925 5.90925 -180 0
							 0 129.16 202.01 L5.91 202.01 A5.90925 5.90925 -180 0 0 -0 207.92 L0 300.7 A5.90925 5.90925 -180 0 0
							 5.91 306.6 Z" class="st6"/>
			</g>
			<path d="M5.91 306.6 L129.16 306.6 A5.90925 5.90925 -180 0 0 135.07 300.7 L135.07 207.92 A5.90925 5.90925 -180 0 0 129.16
						 202.01 L5.91 202.01 A5.90925 5.90925 -180 0 0 -0 207.92 L0 300.7 A5.90925 5.90925 -180 0 0 5.91 306.6 Z"
					class="st7"/>
			<text x="21.89" y="241.71" class="st8">Transform Parameters  <tspan x="18.76" dy="2.475em" class="st4">struct </tspan><tspan
						class="st3">rte</tspan><tspan class="st3">_</tspan><tspan class="st3">crypto</tspan><tspan class="st3">_</tspan><tspan
						class="st3">auth</tspan><tspan class="st3">_</tspan><tspan class="st3">xform  </tspan><tspan x="16.02"
						dy="1.425em" class="st4">struct </tspan><tspan class="st3">rte</tspan><tspan class="st3">_</tspan><tspan
						class="st3">crypto</tspan><tspan class="st3">_</tspan><tspan class="st3">cipher</tspan><tspan class="st3">_</tspan><tspan
						class="st3">xform</tspan><tspan x="18.76" dy="1.425em" class="st4">struct </tspan><tspan
                                                class="st3">rte</tspan><tspan class="st3">_</tspan><tspan class="st3">crypto</tspan><tspan class="st3">_</tspan><tspan
                                                class="st3">aead</tspan><tspan class="st3">_</tspan><tspan class="st3">xform</tspan></text>		</g>
		<g id="shape11-38" transform="translate(10.6711,-238.133)">
			<title>Rounded Rectangle.26</title>
			<desc>next transform (struct rte_crypto_sym_xform *)</desc>
			<path d="M5.91 306.6 L129.16 306.6 A5.90925 5.90925 -180 0 0 135.07 300.7 L135.07 283.84 A5.90925 5.90925 -180 0 0 129.16
						 277.93 L5.91 277.93 A5.90925 5.90925 -180 0 0 0 283.84 L0 300.7 A5.90925 5.90925 -180 0 0 5.91 306.6 Z"
					class="st9"/>
			<text x="37.15" y="289.27" class="st8">next transform  <tspan x="14.33" dy="1.5em" class="st3">(</tspan><tspan
						class="st4">struct </tspan><tspan class="st3">rte</tspan><tspan class="st3">_</tspan><tspan class="st3">crypto</tspan><tspan
						class="st3">_</tspan><tspan class="st3">sym</tspan><tspan class="st3">_</tspan><tspan class="st3">xform </tspan><tspan
						class="st3">*)</tspan></text>		</g>
		<g id="shape12-51" transform="translate(10.6711,-199.175)">
			<title>Rounded Rectangle.29</title>
			<desc>transform type (enum rte_crypto_sym_xform_type)</desc>
			<path d="M5.91 306.6 L129.16 306.6 A5.90925 5.90925 -180 0 0 135.07 300.7 L135.07 283.84 A5.90925 5.90925 -180 0 0 129.16
						 277.93 L5.91 277.93 A5.90925 5.90925 -180 0 0 0 283.84 L0 300.7 A5.90925 5.90925 -180 0 0 5.91 306.6 Z"
					class="st9"/>
			<text x="37.06" y="289.27" class="st8">transform type <tspan x="8.04" dy="1.5em" class="st3">(</tspan><tspan
						class="st4">enum </tspan><tspan class="st3">rte</tspan><tspan class="st3">_</tspan><tspan class="st3">crypto</tspan><tspan
						class="st3">_</tspan><tspan class="st3">sym</tspan><tspan class="st3">_</tspan><tspan class="st3">xform</tspan><tspan
						class="st3">_</tspan><tspan class="st3">type</tspan><tspan class="st3">)</tspan></text>		</g>
		<g id="shape13-66" transform="translate(199.671,-0.75)">
			<title>Rounded Rectangle.30</title>
			<desc>Symmetric Transform (struct rte_crypto_sym_xform)</desc>
			<path d="M6.78 306.6 L148.14 306.6 A6.77735 6.77735 -180 0 0 154.91 299.83 L154.91 82.55 A6.77735 6.77735 -180 0 0 148.14
						 75.77 L6.78 75.77 A6.77735 6.77735 -180 0 0 -0 82.55 L0 299.83 A6.77735 6.77735 -180 0 0 6.78 306.6 Z"
					class="st1"/>
			<text x="33.55" y="88.77" class="st2">Symmetric Transform <tspan x="27.14" dy="1.5em" class="st3">(</tspan><tspan
						class="st4">struct </tspan><tspan class="st3">rte</tspan><tspan class="st3">_</tspan><tspan class="st3">crypto</tspan><tspan
						class="st3">_</tspan><tspan class="st3">sym</tspan><tspan class="st3">_</tspan><tspan class="st3">xform</tspan><tspan
						class="st3">)</tspan></text>		</g>
		<g id="shape14-80" transform="translate(209.592,-8.82874)">
			<title>Rounded Rectangle.31</title>
			<desc>Transform Parameters struct rte_crypto_auth_xform struct rte_...</desc>
			<g id="shadow14-81" transform="matrix(1,0,0,1,0.345598,1.97279)" class="st5">
				<path d="M5.91 306.6 L129.16 306.6 A5.90925 5.90925 -180 0 0 135.07 300.7 L135.07 207.92 A5.90925 5.90925 -180 0
							 0 129.16 202.01 L5.91 202.01 A5.90925 5.90925 -180 0 0 -0 207.92 L0 300.7 A5.90925 5.90925 -180 0 0
							 5.91 306.6 Z" class="st6"/>
			</g>
			<path d="M5.91 306.6 L129.16 306.6 A5.90925 5.90925 -180 0 0 135.07 300.7 L135.07 207.92 A5.90925 5.90925 -180 0 0 129.16
						 202.01 L5.91 202.01 A5.90925 5.90925 -180 0 0 -0 207.92 L0 300.7 A5.90925 5.90925 -180 0 0 5.91 306.6 Z"
					class="st7"/>
			<text x="21.89" y="241.71" class="st8">Transform Parameters  <tspan x="18.76" dy="2.475em" class="st4">struct </tspan><tspan
						class="st3">rte</tspan><tspan class="st3">_</tspan><tspan class="st3">crypto</tspan><tspan class="st3">_</tspan><tspan
						class="st3">auth</tspan><tspan class="st3">_</tspan><tspan class="st3">xform  </tspan><tspan x="16.02"
						dy="1.425em" class="st4">struct </tspan><tspan class="st3">rte</tspan><tspan class="st3">_</tspan><tspan
						class="st3">crypto</tspan><tspan class="st3">_</tspan><tspan class="st3">cipher</tspan><tspan class="st3">_</tspan><tspan
						class="st3">xform</tspan><tspan x="18.76" dy="1.425em" class="st4">struct </tspan><tspan
                                                class="st3">rte</tspan><tspan class="st3">_</tspan><tspan class="st3">crypto</tspan><tspan class="st3">_</tspan><tspan
                                                class="st3">aead</tspan><tspan class="st3">_</tspan><tspan class="st3">xform</tspan></text>		</g>
		<g id="shape15-102" transform="translate(209.592,-163.865)">
			<title>Rounded Rectangle.32</title>
			<desc>next transform (struct rte_crypto_sym_xform *)</desc>
			<path d="M5.91 306.6 L129.16 306.6 A5.90925 5.90925 -180 0 0 135.07 300.7 L135.07 283.84 A5.90925 5.90925 -180 0 0 129.16
						 277.93 L5.91 277.93 A5.90925 5.90925 -180 0 0 0 283.84 L0 300.7 A5.90925 5.90925 -180 0 0 5.91 306.6 Z"
					class="st9"/>
			<text x="37.15" y="289.27" class="st8">next transform  <tspan x="14.33" dy="1.5em" class="st3">(</tspan><tspan
						class="st4">struct </tspan><tspan class="st3">rte</tspan><tspan class="st3">_</tspan><tspan class="st3">crypto</tspan><tspan
						class="st3">_</tspan><tspan class="st3">sym</tspan><tspan class="st3">_</tspan><tspan class="st3">xform </tspan><tspan
						class="st3">*)</tspan></text>		</g>
		<g id="shape16-115" transform="translate(209.592,-124.907)">
			<title>Rounded Rectangle.33</title>
			<desc>transform type (enum rte_crypto_sym_xform_type)</desc>
			<path d="M5.91 306.6 L129.16 306.6 A5.90925 5.90925 -180 0 0 135.07 300.7 L135.07 283.84 A5.90925 5.90925 -180 0 0 129.16
						 277.93 L5.91 277.93 A5.90925 5.90925 -180 0 0 0 283.84 L0 300.7 A5.90925 5.90925 -180 0 0 5.91 306.6 Z"
					class="st9"/>
			<text x="37.06" y="289.27" class="st8">transform type <tspan x="8.04" dy="1.5em" class="st3">(</tspan><tspan
						class="st4">enum </tspan><tspan class="st3">rte</tspan><tspan class="st3">_</tspan><tspan class="st3">crypto</tspan><tspan
						class="st3">_</tspan><tspan class="st3">sym</tspan><tspan class="st3">_</tspan><tspan class="st3">xform</tspan><tspan
						class="st3">_</tspan><tspan class="st3">type</tspan><tspan class="st3">)</tspan></text>		</g>
		<g id="shape17-130" transform="translate(145.742,-252.47)">
			<title>Dynamic connector</title>
			<path d="M0 306.6 L131.39 306.6 L131.39 320.45" class="st10"/>
		</g>
	</g>
</svg>
