<?xml version="1.0" encoding="UTF-8" standalone="no"?>
<!DOCTYPE svg PUBLIC "-//W3C//DTD SVG 1.1//EN" "http://www.w3.org/Graphics/SVG/1.1/DTD/svg11.dtd">
<!-- Generated by Microsoft Visio, SVG Export crypto_op.svg Page-1 -->
<svg xmlns="http://www.w3.org/2000/svg" xmlns:xlink="http://www.w3.org/1999/xlink" xmlns:ev="http://www.w3.org/2001/xml-events"
		width="2.17241in" height="2.8102in" viewBox="0 0 156.413 202.335" xml:space="preserve" color-interpolation-filters="sRGB"
		class="st10">
	<style type="text/css">
	<![CDATA[
		.st1 {fill:url(#grad0-4);stroke:#386288;stroke-width:0.75}
		.st2 {fill:#386288;font-family:Calibri;font-size:0.833336em}
		.st3 {fill:#ffffff;stroke:#41719c;stroke-width:0.75}
		.st4 {fill:#41719c;font-family:Calibri;font-size:0.833336em}
		.st5 {font-size:0.799995em}
		.st6 {font-size:0.799995em;font-weight:bold}
		.st7 {visibility:visible}
		.st8 {fill:#bdd0e9;fill-opacity:0.25;filter:url(#filter_2);stroke:#bdd0e9;stroke-opacity:0.25}
		.st9 {fill:#a6b6cd;stroke:#41719c;stroke-width:0.75}
		.st10 {fill:none;fill-rule:evenodd;font-size:12px;overflow:visible;stroke-linecap:square;stroke-miterlimit:3}
	]]>
	</style>

	<defs id="Patterns_And_Gradients">
		<linearGradient id="grad0-4" x1="0" y1="0" x2="1" y2="0" gradientTransform="rotate(60 0.5 0.5)">
			<stop offset="0" stop-color="#e8ebef" stop-opacity="1"/>
			<stop offset="0.24" stop-color="#f4f5f7" stop-opacity="1"/>
			<stop offset="0.54" stop-color="#feffff" stop-opacity="1"/>
		</linearGradient>
	</defs>
	<defs id="Filters">
		<filter id="filter_2">
			<feGaussianBlur stdDeviation="2"/>
		</filter>
	</defs>
	<g>
		<title>Page-1</title>
		<g id="shape1-1" transform="translate(0.749889,-0.75)">
			<title>Rounded Rectangle.24</title>
			<desc>Crypto Operation</desc>
			<path d="M6.78 202.33 L148.14 202.33 A6.77735 6.77735 -180 0 0 154.91 195.56 L154.91 8.28 A6.77735 6.77735 -180 0 0 148.14
						 1.5 L6.78 1.5 A6.77735 6.77735 -180 0 0 -0 8.28 L0 195.56 A6.77735 6.77735 -180 0 0 6.78 202.33 Z"
					class="st1"/>
			<text x="42.07" y="14.5" class="st2">Crypto Operation</text>		</g>
		<g id="shape2-6" transform="translate(10.6711,-66.2303)">
			<title>Rounded Rectangle.7</title>
			<desc>Operation Specific Data (struct rte_crypto_sym_op)</desc>
			<path d="M5.91 202.33 L129.16 202.33 A5.90925 5.90925 -180 0 0 135.07 196.43 L135.07 160.06 A5.90925 5.90925 -180 0 0
						 129.16 154.15 L5.91 154.15 A5.90925 5.90925 -180 0 0 -0 160.06 L0 196.43 A5.90925 5.90925 -180 0 0 5.91
						 202.33 Z" class="st3"/>
			<text x="19.62" y="175.24" class="st4">Operation Specific Data <tspan x="22.66" dy="1.5em" class="st5">(</tspan><tspan
						class="st6">struct </tspan><tspan class="st5">rte</tspan><tspan class="st5">_</tspan><tspan class="st5">crypto</tspan><tspan
						class="st5">_</tspan><tspan class="st5">sym</tspan><tspan class="st5">_</tspan><tspan class="st5">op</tspan><tspan
						class="st5">)</tspan></text>		</g>
		<g id="shape3-19" transform="translate(10.6711,-9.5374)">
			<title>Rounded Rectangle.8</title>
			<desc>private data</desc>
			<g id="shadow3-20" transform="matrix(1,0,0,1,0.345598,1.97279)" class="st7">
				<path d="M5.91 202.33 L129.16 202.33 A5.90925 5.90925 -180 0 0 135.07 196.43 L135.07 160.06 A5.90925 5.90925 -180
							 0 0 129.16 154.15 L5.91 154.15 A5.90925 5.90925 -180 0 0 -0 160.06 L0 196.43 A5.90925 5.90925 -180 0
							 0 5.91 202.33 Z" class="st8"/>
			</g>
			<path d="M5.91 202.33 L129.16 202.33 A5.90925 5.90925 -180 0 0 135.07 196.43 L135.07 160.06 A5.90925 5.90925 -180 0 0
						 129.16 154.15 L5.91 154.15 A5.90925 5.90925 -180 0 0 -0 160.06 L0 196.43 A5.90925 5.90925 -180 0 0 5.91
						 202.33 Z" class="st9"/>
			<text x="42.98" y="181.24" class="st4">private data</text>		</g>
		<g id="shape4-25" transform="translate(10.6711,-122.923)">
			<title>Rounded Rectangle.9</title>
			<desc>General Operation Data (struct rte_crypto_op)</desc>
			<path d="M5.91 202.33 L129.16 202.33 A5.90925 5.90925 -180 0 0 135.07 196.43 L135.07 160.06 A5.90925 5.90925 -180 0 0
						 129.16 154.15 L5.91 154.15 A5.90925 5.90925 -180 0 0 -0 160.06 L0 196.43 A5.90925 5.90925 -180 0 0 5.91
						 202.33 Z" class="st3"/>
			<text x="19.04" y="175.24" class="st4">General Operation Data <tspan x="31.23" dy="1.5em" class="st5">(</tspan><tspan
						class="st6">struct </tspan><tspan class="st5">rte</tspan><tspan class="st5">_</tspan><tspan class="st5">crypto</tspan><tspan
						class="st5">_</tspan><tspan class="st5">op</tspan><tspan class="st5">)</tspan></text>		</g>
	</g>
</svg>
