<?xml version="1.0" encoding="UTF-8" standalone="no"?>
<!DOCTYPE svg PUBLIC "-//W3C//DTD SVG 1.1//EN" "http://www.w3.org/Graphics/SVG/1.1/DTD/svg11.dtd">
<!-- Generated by Microsoft Visio, SVG Export cryptodev_sym_sess.svg Page-1 -->
<svg xmlns="http://www.w3.org/2000/svg" xmlns:xlink="http://www.w3.org/1999/xlink" xmlns:ev="http://www.w3.org/2001/xml-events"
		width="2.17241in" height="2.8102in" viewBox="0 0 156.413 202.335" xml:space="preserve" color-interpolation-filters="sRGB"
		class="st10">
	<style type="text/css">
	<![CDATA[
		.st1 {fill:url(#grad0-4);stroke:#386288;stroke-width:0.75}
		.st2 {fill:#386288;font-family:Calibri;font-size:0.833336em}
		.st3 {visibility:visible}
		.st4 {fill:#bdd0e9;fill-opacity:0.25;filter:url(#filter_2);stroke:#bdd0e9;stroke-opacity:0.25}
		.st5 {fill:#a6b6cd;stroke:#41719c;stroke-width:0.75}
		.st6 {fill:#41719c;font-family:Calibri;font-size:0.833336em}
		.st7 {fill:#ffffff;stroke:#41719c;stroke-width:0.75}
		.st8 {font-size:0.799995em}
		.st9 {font-size:0.799995em;font-weight:bold}
		.st10 {fill:none;fill-rule:evenodd;font-size:12px;overflow:visible;stroke-linecap:square;stroke-miterlimit:3}
	]]>
	</style>

	<defs id="Patterns_And_Gradients">
		<linearGradient id="grad0-4" x1="0" y1="0" x2="1" y2="0" gradientTransform="rotate(60 0.5 0.5)">
			<stop offset="0" stop-color="#e8ebef" stop-opacity="1"/>
			<stop offset="0.24" stop-color="#f4f5f7" stop-opacity="1"/>
			<stop offset="0.54" stop-color="#feffff" stop-opacity="1"/>
		</linearGradient>
	</defs>
	<defs id="Filters">
		<filter id="filter_2">
			<feGaussianBlur stdDeviation="2"/>
		</filter>
	</defs>
	<g>
		<title>Page-1</title>
		<g id="shape18-1" transform="translate(0.749889,-0.75)">
			<title>Rounded Rectangle.12</title>
			<desc>Crypto Symmetric Session</desc>
			<path d="M6.78 202.33 L148.14 202.33 A6.77735 6.77735 -180 0 0 154.91 195.56 L154.91 8.28 A6.77735 6.77735 -180 0 0 148.14
						 1.5 L6.78 1.5 A6.77735 6.77735 -180 0 0 -0 8.28 L0 195.56 A6.77735 6.77735 -180 0 0 6.78 202.33 Z"
					class="st1"/>
			<text x="24.76" y="14.5" class="st2">Crypto Symmetric Session</text>		</g>
		<g id="shape19-6" transform="translate(10.6711,-9.82087)">
			<title>Rounded Rectangle.13</title>
			<desc>Private Session Data</desc>
			<g id="shadow19-7" transform="matrix(1,0,0,1,0.345598,1.97279)" class="st3">
				<path d="M5.91 202.33 L129.16 202.33 A5.90925 5.90925 -180 0 0 135.07 196.43 L135.07 103.65 A5.90925 5.90925 -180
							 0 0 129.16 97.74 L5.91 97.74 A5.90925 5.90925 -180 0 0 -0 103.65 L0 196.43 A5.90925 5.90925 -180 0 0
							 5.91 202.33 Z" class="st4"/>
			</g>
			<path d="M5.91 202.33 L129.16 202.33 A5.90925 5.90925 -180 0 0 135.07 196.43 L135.07 103.65 A5.90925 5.90925 -180 0 0
						 129.16 97.74 L5.91 97.74 A5.90925 5.90925 -180 0 0 -0 103.65 L0 196.43 A5.90925 5.90925 -180 0 0 5.91 202.33
						 Z" class="st5"/>
			<text x="26.34" y="153.04" class="st6">Private Session Data</text>		</g>
		<g id="shape20-12" transform="translate(10.6711,-122.923)">
			<title>Rounded Rectangle.15</title>
			<desc>General Session Data (struct rte_cryptodev_sym_session)</desc>
			<path d="M5.91 202.33 L129.16 202.33 A5.90925 5.90925 -180 0 0 135.07 196.43 L135.07 160.06 A5.90925 5.90925 -180 0 0
						 129.16 154.15 L5.91 154.15 A5.90925 5.90925 -180 0 0 -0 160.06 L0 196.43 A5.90925 5.90925 -180 0 0 5.91
						 202.33 Z" class="st7"/>
			<text x="24.58" y="175.24" class="st6">General Session Data <tspan x="9.16" dy="1.5em" class="st8">(</tspan><tspan
						class="st9">struct </tspan><tspan class="st8">rte</tspan><tspan class="st8">_</tspan><tspan class="st8">cryptodev</tspan><tspan
						class="st8">_</tspan><tspan class="st8">sym</tspan><tspan class="st8">_</tspan><tspan class="st8">session</tspan><tspan
						class="st8">)</tspan></text>		</g>
	</g>
</svg>
