<?xml version="1.0" encoding="UTF-8" standalone="no"?>
<!DOCTYPE svg PUBLIC "-//W3C//DTD SVG 1.1//EN" "http://www.w3.org/Graphics/SVG/1.1/DTD/svg11.dtd">
<!-- Generated by Microsoft Visio, SVG Export efd_i2.svg Page-1 -->
<svg xmlns="http://www.w3.org/2000/svg" xmlns:xlink="http://www.w3.org/1999/xlink" xmlns:ev="http://www.w3.org/2001/xml-events"
		xmlns:v="http://schemas.microsoft.com/visio/2003/SVGExtensions/" width="2.85156in" height="2.98777in"
		viewBox="0 0 205.313 215.12" xml:space="preserve" color-interpolation-filters="sRGB" class="st18">
	<v:documentProperties v:langID="1033" v:viewMarkup="false">
		<v:userDefs>
			<v:ud v:nameU="msvSubprocessMaster" v:prompt="" v:val="VT4(Rectangle)"/>
			<v:ud v:nameU="msvNoAutoConnect" v:val="VT0(1):26"/>
		</v:userDefs>
	</v:documentProperties>

	<style type="text/css">
	<![CDATA[
		.st1 {visibility:visible}
		.st2 {fill:#5b9bd5;fill-opacity:0.22;filter:url(#filter_2);stroke:#5b9bd5;stroke-opacity:0.22}
		.st3 {fill:#deebf6;stroke:#c7c8c8;stroke-width:0.25}
		.st4 {fill:#5b9bd5;stroke:#c7c8c8;stroke-width:0.25}
		.st5 {fill:#ff0000;stroke:#c7c8c8;stroke-width:0.25}
		.st6 {fill:none;filter:url(#filter_2);stroke:#5b9bd5;stroke-opacity:0.22}
		.st7 {fill:none;stroke:#0070c0;stroke-width:1.5}
		.st8 {marker-end:url(#mrkr5-91);stroke:#0070c0;stroke-linecap:round;stroke-linejoin:round;stroke-width:1.5}
		.st9 {fill:#0070c0;fill-opacity:1;stroke:#0070c0;stroke-opacity:1;stroke-width:0.37313432835821}
		.st10 {fill:none;stroke:none;stroke-width:0.25}
		.st11 {fill:#ff0000;font-family:Calibri;font-size:1.00001em;font-weight:bold}
		.st12 {font-size:1em}
		.st13 {marker-end:url(#mrkr5-101);stroke:#ff0000;stroke-linecap:round;stroke-linejoin:round;stroke-width:1}
		.st14 {fill:#ff0000;fill-opacity:1;stroke:#ff0000;stroke-opacity:1;stroke-width:0.28409090909091}
		.st15 {fill:#5b9bd5;font-family:Calibri;font-size:1.00001em;font-weight:bold}
		.st16 {marker-end:url(#mrkr5-110);stroke:#41719c;stroke-linecap:round;stroke-linejoin:round;stroke-width:1}
		.st17 {fill:#41719c;fill-opacity:1;stroke:#41719c;stroke-opacity:1;stroke-width:0.28409090909091}
		.st18 {fill:none;fill-rule:evenodd;font-size:12px;overflow:visible;stroke-linecap:square;stroke-miterlimit:3}
	]]>
	</style>

	<defs id="Markers">
		<g id="lend5">
			<path d="M 2 1 L 0 0 L 1.98117 -0.993387 C 1.67173 -0.364515 1.67301 0.372641 1.98465 1.00043 " style="stroke:none"/>
		</g>
		<marker id="mrkr5-91" class="st9" v:arrowType="5" v:arrowSize="2" v:setback="4.45" refX="-4.45" orient="auto"
				markerUnits="strokeWidth" overflow="visible">
			<use xlink:href="#lend5" transform="scale(-2.68,-2.68) "/>
		</marker>
		<marker id="mrkr5-101" class="st14" v:arrowType="5" v:arrowSize="2" v:setback="6.16" refX="-6.16" orient="auto"
				markerUnits="strokeWidth" overflow="visible">
			<use xlink:href="#lend5" transform="scale(-3.52,-3.52) "/>
		</marker>
		<marker id="mrkr5-110" class="st17" v:arrowType="5" v:arrowSize="2" v:setback="6.16" refX="-6.16" orient="auto"
				markerUnits="strokeWidth" overflow="visible">
			<use xlink:href="#lend5" transform="scale(-3.52,-3.52) "/>
		</marker>
	</defs>
	<defs id="Filters">
		<filter id="filter_2">
			<feGaussianBlur stdDeviation="2"/>
		</filter>
	</defs>
	<g v:mID="0" v:index="1" v:groupContext="foregroundPage">
		<v:userDefs>
			<v:ud v:nameU="msvThemeOrder" v:val="VT0(0):26"/>
		</v:userDefs>
		<title>Page-1</title>
		<v:pageProperties v:drawingScale="1" v:pageScale="1" v:drawingUnits="0" v:shadowOffsetX="9" v:shadowOffsetY="-9"/>
		<g id="shape2-1" v:mID="2" v:groupContext="shape" transform="translate(24.4044,-42.7174)">
			<title>Circle</title>
			<v:userDefs>
				<v:ud v:nameU="visVersion" v:val="VT0(15):26"/>
			</v:userDefs>
			<g id="shadow2-2" v:groupContext="shadow" v:shadowOffsetX="0.345598" v:shadowOffsetY="-1.97279" v:shadowType="1"
					transform="matrix(1,0,0,1,0.345598,1.97279)" class="st1">
				<path d="M0 138.62 A76.5 76.5 0 0 1 153 138.62 A76.5 76.5 0 1 1 0 138.62 Z" class="st2"/>
			</g>
			<path d="M0 138.62 A76.5 76.5 0 0 1 153 138.62 A76.5 76.5 0 1 1 0 138.62 Z" class="st3"/>
		</g>
		<g id="shape3-6" v:mID="3" v:groupContext="shape" transform="translate(24.4044,-144.53)">
			<title>Circle.3</title>
			<v:userDefs>
				<v:ud v:nameU="visVersion" v:val="VT0(15):26"/>
			</v:userDefs>
			<g id="shadow3-7" v:groupContext="shadow" v:shadowOffsetX="0.345598" v:shadowOffsetY="-1.97279" v:shadowType="1"
					transform="matrix(1,0,0,1,0.345598,1.97279)" class="st1">
				<path d="M0 208.93 A6.1875 6.1875 0 1 1 12.37 208.93 A6.1875 6.1875 0 0 1 0 208.93 Z" class="st2"/>
			</g>
			<path d="M0 208.93 A6.1875 6.1875 0 1 1 12.37 208.93 A6.1875 6.1875 0 0 1 0 208.93 Z" class="st4"/>
		</g>
		<g id="shape4-11" v:mID="4" v:groupContext="shape" transform="translate(21.0294,-102.342)">
			<title>Circle.4</title>
			<v:userDefs>
				<v:ud v:nameU="visVersion" v:val="VT0(15):26"/>
			</v:userDefs>
			<g id="shadow4-12" v:groupContext="shadow" v:shadowOffsetX="0.345598" v:shadowOffsetY="-1.97279" v:shadowType="1"
					transform="matrix(1,0,0,1,0.345598,1.97279)" class="st1">
				<path d="M0 208.93 A6.1875 6.1875 0 1 1 12.37 208.93 A6.1875 6.1875 0 0 1 0 208.93 Z" class="st2"/>
			</g>
			<path d="M0 208.93 A6.1875 6.1875 0 1 1 12.37 208.93 A6.1875 6.1875 0 0 1 0 208.93 Z" class="st4"/>
		</g>
		<g id="shape5-16" v:mID="5" v:groupContext="shape" transform="translate(69.4044,-183.342)">
			<title>Circle.5</title>
			<v:userDefs>
				<v:ud v:nameU="visVersion" v:val="VT0(15):26"/>
			</v:userDefs>
			<g id="shadow5-17" v:groupContext="shadow" v:shadowOffsetX="0.345598" v:shadowOffsetY="-1.97279" v:shadowType="1"
					transform="matrix(1,0,0,1,0.345598,1.97279)" class="st1">
				<path d="M0 208.93 A6.1875 6.1875 0 1 1 12.37 208.93 A6.1875 6.1875 0 0 1 0 208.93 Z" class="st2"/>
			</g>
			<path d="M0 208.93 A6.1875 6.1875 0 1 1 12.37 208.93 A6.1875 6.1875 0 0 1 0 208.93 Z" class="st4"/>
		</g>
		<g id="shape6-21" v:mID="6" v:groupContext="shape" transform="translate(117.217,-183.342)">
			<title>Circle.6</title>
			<v:userDefs>
				<v:ud v:nameU="visVersion" v:val="VT0(15):26"/>
			</v:userDefs>
			<g id="shadow6-22" v:groupContext="shadow" v:shadowOffsetX="0.345598" v:shadowOffsetY="-1.97279" v:shadowType="1"
					transform="matrix(1,0,0,1,0.345598,1.97279)" class="st1">
				<path d="M0 208.93 A6.1875 6.1875 0 1 1 12.37 208.93 A6.1875 6.1875 0 0 1 0 208.93 Z" class="st2"/>
			</g>
			<path d="M0 208.93 A6.1875 6.1875 0 1 1 12.37 208.93 A6.1875 6.1875 0 0 1 0 208.93 Z" class="st5"/>
		</g>
		<g id="shape7-26" v:mID="7" v:groupContext="shape" transform="translate(171.217,-104.03)">
			<title>Circle.7</title>
			<v:userDefs>
				<v:ud v:nameU="visVersion" v:val="VT0(15):26"/>
			</v:userDefs>
			<g id="shadow7-27" v:groupContext="shadow" v:shadowOffsetX="0.345598" v:shadowOffsetY="-1.97279" v:shadowType="1"
					transform="matrix(1,0,0,1,0.345598,1.97279)" class="st1">
				<path d="M0 208.93 A6.1875 6.1875 0 1 1 12.37 208.93 A6.1875 6.1875 0 0 1 0 208.93 Z" class="st2"/>
			</g>
			<path d="M0 208.93 A6.1875 6.1875 0 1 1 12.37 208.93 A6.1875 6.1875 0 0 1 0 208.93 Z" class="st5"/>
		</g>
		<g id="shape8-31" v:mID="8" v:groupContext="shape" transform="translate(109.904,-38.2174)">
			<title>Circle.8</title>
			<v:userDefs>
				<v:ud v:nameU="visVersion" v:val="VT0(15):26"/>
			</v:userDefs>
			<g id="shadow8-32" v:groupContext="shadow" v:shadowOffsetX="0.345598" v:shadowOffsetY="-1.97279" v:shadowType="1"
					transform="matrix(1,0,0,1,0.345598,1.97279)" class="st1">
				<path d="M0 208.93 A6.1875 6.1875 0 1 1 12.37 208.93 A6.1875 6.1875 0 0 1 0 208.93 Z" class="st2"/>
			</g>
			<path d="M0 208.93 A6.1875 6.1875 0 1 1 12.37 208.93 A6.1875 6.1875 0 0 1 0 208.93 Z" class="st5"/>
		</g>
		<g id="shape9-36" v:mID="9" v:groupContext="shape" transform="translate(21.0294,-124.842)">
			<title>Circle.9</title>
			<v:userDefs>
				<v:ud v:nameU="visVersion" v:val="VT0(15):26"/>
			</v:userDefs>
			<g id="shadow9-37" v:groupContext="shadow" v:shadowOffsetX="0.345598" v:shadowOffsetY="-1.97279" v:shadowType="1"
					transform="matrix(1,0,0,1,0.345598,1.97279)" class="st1">
				<path d="M0 208.93 A6.1875 6.1875 0 1 1 12.37 208.93 A6.1875 6.1875 0 0 1 0 208.93 Z" class="st2"/>
			</g>
			<path d="M0 208.93 A6.1875 6.1875 0 1 1 12.37 208.93 A6.1875 6.1875 0 0 1 0 208.93 Z" class="st5"/>
		</g>
		<g id="shape10-41" v:mID="10" v:groupContext="shape" transform="translate(147.029,-168.717)">
			<title>Circle.10</title>
			<v:userDefs>
				<v:ud v:nameU="visVersion" v:val="VT0(15):26"/>
			</v:userDefs>
			<g id="shadow10-42" v:groupContext="shadow" v:shadowOffsetX="0.345598" v:shadowOffsetY="-1.97279" v:shadowType="1"
					transform="matrix(1,0,0,1,0.345598,1.97279)" class="st1">
				<path d="M0 208.93 A6.1875 6.1875 0 1 1 12.37 208.93 A6.1875 6.1875 0 0 1 0 208.93 Z" class="st2"/>
			</g>
			<path d="M0 208.93 A6.1875 6.1875 0 1 1 12.37 208.93 A6.1875 6.1875 0 0 1 0 208.93 Z" class="st4"/>
		</g>
		<g id="shape11-46" v:mID="11" v:groupContext="shape" transform="translate(138.029,-48.3424)">
			<title>Circle.11</title>
			<v:userDefs>
				<v:ud v:nameU="visVersion" v:val="VT0(15):26"/>
			</v:userDefs>
			<g id="shadow11-47" v:groupContext="shadow" v:shadowOffsetX="0.345598" v:shadowOffsetY="-1.97279" v:shadowType="1"
					transform="matrix(1,0,0,1,0.345598,1.97279)" class="st1">
				<path d="M0 208.93 A6.1875 6.1875 0 1 1 12.37 208.93 A6.1875 6.1875 0 0 1 0 208.93 Z" class="st2"/>
			</g>
			<path d="M0 208.93 A6.1875 6.1875 0 1 1 12.37 208.93 A6.1875 6.1875 0 0 1 0 208.93 Z" class="st4"/>
		</g>
		<g id="shape12-51" v:mID="12" v:groupContext="shape" transform="translate(160.529,-74.2174)">
			<title>Circle.12</title>
			<v:userDefs>
				<v:ud v:nameU="visVersion" v:val="VT0(15):26"/>
			</v:userDefs>
			<g id="shadow12-52" v:groupContext="shadow" v:shadowOffsetX="0.345598" v:shadowOffsetY="-1.97279" v:shadowType="1"
					transform="matrix(1,0,0,1,0.345598,1.97279)" class="st1">
				<path d="M0 208.93 A6.1875 6.1875 0 1 1 12.37 208.93 A6.1875 6.1875 0 0 1 0 208.93 Z" class="st2"/>
			</g>
			<path d="M0 208.93 A6.1875 6.1875 0 1 1 12.37 208.93 A6.1875 6.1875 0 0 1 0 208.93 Z" class="st4"/>
		</g>
		<g id="shape13-56" v:mID="13" v:groupContext="shape" transform="translate(40.7169,-57.3424)">
			<title>Circle.13</title>
			<v:userDefs>
				<v:ud v:nameU="visVersion" v:val="VT0(15):26"/>
			</v:userDefs>
			<g id="shadow13-57" v:groupContext="shadow" v:shadowOffsetX="0.345598" v:shadowOffsetY="-1.97279" v:shadowType="1"
					transform="matrix(1,0,0,1,0.345598,1.97279)" class="st1">
				<path d="M0 208.93 A6.1875 6.1875 0 1 1 12.37 208.93 A6.1875 6.1875 0 0 1 0 208.93 Z" class="st2"/>
			</g>
			<path d="M0 208.93 A6.1875 6.1875 0 1 1 12.37 208.93 A6.1875 6.1875 0 0 1 0 208.93 Z" class="st4"/>
		</g>
		<g id="shape14-61" v:mID="14" v:groupContext="shape" transform="translate(42.4044,-168.717)">
			<title>Circle.14</title>
			<v:userDefs>
				<v:ud v:nameU="visVersion" v:val="VT0(15):26"/>
			</v:userDefs>
			<g id="shadow14-62" v:groupContext="shadow" v:shadowOffsetX="0.345598" v:shadowOffsetY="-1.97279" v:shadowType="1"
					transform="matrix(1,0,0,1,0.345598,1.97279)" class="st1">
				<path d="M0 208.93 A6.1875 6.1875 0 1 1 12.37 208.93 A6.1875 6.1875 0 0 1 0 208.93 Z" class="st2"/>
			</g>
			<path d="M0 208.93 A6.1875 6.1875 0 1 1 12.37 208.93 A6.1875 6.1875 0 0 1 0 208.93 Z" class="st4"/>
		</g>
		<g id="shape15-66" v:mID="15" v:groupContext="shape" transform="translate(66.0294,-42.7174)">
			<title>Circle.15</title>
			<v:userDefs>
				<v:ud v:nameU="visVersion" v:val="VT0(15):26"/>
			</v:userDefs>
			<g id="shadow15-67" v:groupContext="shadow" v:shadowOffsetX="0.345598" v:shadowOffsetY="-1.97279" v:shadowType="1"
					transform="matrix(1,0,0,1,0.345598,1.97279)" class="st1">
				<path d="M0 208.93 A6.1875 6.1875 0 1 1 12.37 208.93 A6.1875 6.1875 0 0 1 0 208.93 Z" class="st2"/>
			</g>
			<path d="M0 208.93 A6.1875 6.1875 0 1 1 12.37 208.93 A6.1875 6.1875 0 0 1 0 208.93 Z" class="st4"/>
		</g>
		<g id="shape16-71" v:mID="16" v:groupContext="shape" transform="translate(25.5294,-79.8424)">
			<title>Circle.16</title>
			<v:userDefs>
				<v:ud v:nameU="visVersion" v:val="VT0(15):26"/>
			</v:userDefs>
			<g id="shadow16-72" v:groupContext="shadow" v:shadowOffsetX="0.345598" v:shadowOffsetY="-1.97279" v:shadowType="1"
					transform="matrix(1,0,0,1,0.345598,1.97279)" class="st1">
				<path d="M0 208.93 A6.1875 6.1875 0 1 1 12.37 208.93 A6.1875 6.1875 0 0 1 0 208.93 Z" class="st2"/>
			</g>
			<path d="M0 208.93 A6.1875 6.1875 0 1 1 12.37 208.93 A6.1875 6.1875 0 0 1 0 208.93 Z" class="st4"/>
		</g>
		<g id="shape17-76" v:mID="17" v:groupContext="shape" transform="translate(165.029,-143.405)">
			<title>Circle.17</title>
			<v:userDefs>
				<v:ud v:nameU="visVersion" v:val="VT0(15):26"/>
			</v:userDefs>
			<g id="shadow17-77" v:groupContext="shadow" v:shadowOffsetX="0.345598" v:shadowOffsetY="-1.97279" v:shadowType="1"
					transform="matrix(1,0,0,1,0.345598,1.97279)" class="st1">
				<path d="M0 208.93 A6.1875 6.1875 0 1 1 12.37 208.93 A6.1875 6.1875 0 0 1 0 208.93 Z" class="st2"/>
			</g>
			<path d="M0 208.93 A6.1875 6.1875 0 1 1 12.37 208.93 A6.1875 6.1875 0 0 1 0 208.93 Z" class="st4"/>
		</g>
		<g id="shape18-81" v:mID="18" v:groupContext="shape" transform="translate(276.618,4.50201) rotate(45)">
			<title>Ellipse</title>
			<v:userDefs>
				<v:ud v:nameU="visVersion" v:val="VT0(15):26"/>
			</v:userDefs>
			<g id="shadow18-82" v:groupContext="shadow" v:shadowOffsetX="0.345598" v:shadowOffsetY="-1.97279" v:shadowType="1"
					transform="matrix(1,0,0,1,1.63935,1.1506)" class="st1">
				<path d="M0 187.01 A14.7383 28.1086 0 1 1 29.48 187.01 A14.7383 28.1086 0 1 1 0 187.01 Z" class="st6"/>
			</g>
			<path d="M0 187.01 A14.7383 28.1086 0 1 1 29.48 187.01 A14.7383 28.1086 0 1 1 0 187.01 Z" class="st7"/>
		</g>
		<g id="shape19-86" v:mID="19" v:groupContext="shape" transform="translate(251.273,355.436) rotate(156.038)">
			<title>Sheet.19</title>
			<path d="M-0 215.12 A73.4538 31.2572 85.43 0 1 40.92 208.96 L41.1 209.27" class="st8"/>
		</g>
		<g id="shape20-92" v:mID="20" v:groupContext="shape" transform="translate(62.705,-78.7174)">
			<title>Sheet.20</title>
			<desc>Target Hashed Value</desc>
			<v:textBlock v:margins="rect(4,4,4,4)"/>
			<v:textRect cx="42.6994" cy="203.87" width="85.4" height="22.5"/>
			<rect x="0" y="192.62" width="85.3987" height="22.5" class="st10"/>
			<text x="6.73" y="200.27" class="st11" v:langID="1033"><v:paragraph v:horizAlign="1"/><v:tabList/>Target Hashed <tspan
						x="28.48" dy="1.2em" class="st12">Value</tspan></text>		</g>
		<g id="shape21-96" v:mID="21" v:groupContext="shape" transform="translate(314.101,88.728) rotate(75.9638)">
			<title>Sheet.21</title>
			<path d="M0 215.12 L16.92 215.12" class="st13"/>
		</g>
		<g id="shape23-102" v:mID="23" v:groupContext="shape" transform="translate(60.4044,-138.342)">
			<title>Sheet.23</title>
			<desc>Keys</desc>
			<v:textBlock v:margins="rect(4,4,4,4)"/>
			<v:textRect cx="24.75" cy="203.87" width="49.5" height="22.5"/>
			<rect x="0" y="192.62" width="49.5" height="22.5" class="st10"/>
			<text x="13.21" y="207.47" class="st15" v:langID="1033"><v:paragraph v:horizAlign="1"/><v:tabList/>Keys</text>		</g>
		<g id="shape24-105" v:mID="24" v:groupContext="shape" transform="translate(-125.293,114.034) rotate(-104.574)">
			<title>Sheet.24</title>
			<path d="M0 215.12 L22.9 215.12" class="st16"/>
		</g>
	</g>
</svg>
