<?xml version="1.0" encoding="UTF-8" standalone="no"?>
<!DOCTYPE svg PUBLIC "-//W3C//DTD SVG 1.1//EN" "http://www.w3.org/Graphics/SVG/1.1/DTD/svg11.dtd">
<!-- Generated by Microsoft Visio, SVG Export efd_i11.svg Page-1 -->
<svg xmlns="http://www.w3.org/2000/svg" xmlns:xlink="http://www.w3.org/1999/xlink" xmlns:ev="http://www.w3.org/2001/xml-events"
		xmlns:v="http://schemas.microsoft.com/visio/2003/SVGExtensions/" width="9.76715in" height="2.82917in"
		viewBox="0 0 703.234 203.701" xml:space="preserve" color-interpolation-filters="sRGB" class="st15">
	<v:documentProperties v:langID="1033" v:viewMarkup="false">
		<v:userDefs>
			<v:ud v:nameU="msvSubprocessMaster" v:prompt="" v:val="VT4(Rectangle)"/>
			<v:ud v:nameU="msvNoAutoConnect" v:val="VT0(1):26"/>
		</v:userDefs>
	</v:documentProperties>

	<style type="text/css">
	<![CDATA[
		.st1 {fill:#ffffff;stroke:none;stroke-linecap:round;stroke-linejoin:round;stroke-width:0.75}
		.st2 {fill:none;stroke:#00aeef;stroke-linecap:round;stroke-linejoin:round;stroke-width:2.03901}
		.st3 {stroke:none;stroke-linecap:round;stroke-linejoin:round;stroke-width:0.75}
		.st4 {fill:#000000;font-family:Arial;font-size:0.998566em}
		.st5 {fill:#0071c5;stroke:none;stroke-linecap:round;stroke-linejoin:round;stroke-width:0.75}
		.st6 {fill:#000000;font-family:Arial;font-size:0.918686em;font-style:italic}
		.st7 {fill:#000000;font-family:Arial;font-size:0.918686em}
		.st8 {fill:#7e8d96;font-family:Arial;font-size:0.998566em;font-weight:bold}
		.st9 {fill:#00b050;font-family:Arial;font-size:0.998566em;font-weight:bold}
		.st10 {fill:#ff0000;font-family:Arial;font-size:0.998566em;font-weight:bold}
		.st11 {fill:#004280;stroke:#004280;stroke-linecap:round;stroke-linejoin:round;stroke-width:0.0299855}
		.st12 {fill:#ffffff;font-family:Arial;font-size:1.49785em}
		.st13 {stroke:#004280;stroke-linecap:round;stroke-linejoin:round;stroke-width:2.03901}
		.st14 {fill:#004280;stroke:#004280;stroke-linecap:round;stroke-linejoin:round;stroke-width:0.0149927}
		.st15 {fill:none;fill-rule:evenodd;font-size:12px;overflow:visible;stroke-linecap:square;stroke-miterlimit:3}
	]]>
	</style>

	<g v:mID="0" v:index="1" v:groupContext="foregroundPage">
		<v:userDefs>
			<v:ud v:nameU="msvThemeOrder" v:val="VT0(0):26"/>
		</v:userDefs>
		<title>Page-1</title>
		<v:pageProperties v:drawingScale="1" v:pageScale="1" v:drawingUnits="0" v:shadowOffsetX="9" v:shadowOffsetY="-9"/>
		<g id="shape3-1" v:mID="3" v:groupContext="shape" transform="translate(19.0195,-93.4328)">
			<title>Sheet.3</title>
			<path d="M0 182.93 C0 180.64 1.87 178.78 4.16 178.78 L109.18 178.78 C111.47 178.78 113.33 180.64 113.33 182.93 L113.33
						 199.55 C113.33 201.84 111.47 203.7 109.18 203.7 L4.16 203.7 C1.87 203.7 0 201.84 0 199.55 L0 182.93 Z"
					class="st1"/>
		</g>
		<g id="shape4-3" v:mID="4" v:groupContext="shape" transform="translate(19.0195,-93.4328)">
			<title>Sheet.4</title>
			<path d="M0 182.93 C0 180.64 1.87 178.78 4.16 178.78 L109.18 178.78 C111.47 178.78 113.33 180.64 113.33 182.93 L113.33
						 199.55 C113.33 201.84 111.47 203.7 109.18 203.7 L4.16 203.7 C1.87 203.7 0 201.84 0 199.55 L0 182.93 Z"
					class="st2"/>
		</g>
		<g id="shape5-5" v:mID="5" v:groupContext="shape" transform="translate(19.0195,-96.9057)">
			<title>Sheet.5</title>
			<desc>Key1: Value = 0</desc>
			<v:textBlock v:margins="rect(0,0,0,0)"/>
			<v:textRect cx="58.0575" cy="196.509" width="116.12" height="14.3829"/>
			<path d="M116.11 189.32 L0 189.32 L0 203.7 L116.11 203.7 L116.11 189.32" class="st3"/>
			<text x="15.59" y="200.1" class="st4" v:langID="1033"><v:paragraph v:horizAlign="1"/><v:tabList/>Key1: Value = 0</text>		</g>
		<g id="shape6-9" v:mID="6" v:groupContext="shape" transform="translate(19.0195,-68.6284)">
			<title>Sheet.6</title>
			<path d="M0 182.93 C0 180.64 1.87 178.78 4.16 178.78 L109.18 178.78 C111.47 178.78 113.33 180.64 113.33 182.93 L113.33
						 199.55 C113.33 201.84 111.47 203.7 109.18 203.7 L4.16 203.7 C1.87 203.7 0 201.84 0 199.55 L0 182.93 Z"
					class="st1"/>
		</g>
		<g id="shape7-11" v:mID="7" v:groupContext="shape" transform="translate(19.0195,-68.6284)">
			<title>Sheet.7</title>
			<path d="M0 182.93 C0 180.64 1.87 178.78 4.16 178.78 L109.18 178.78 C111.47 178.78 113.33 180.64 113.33 182.93 L113.33
						 199.55 C113.33 201.84 111.47 203.7 109.18 203.7 L4.16 203.7 C1.87 203.7 0 201.84 0 199.55 L0 182.93 Z"
					class="st2"/>
		</g>
		<g id="shape8-13" v:mID="8" v:groupContext="shape" transform="translate(19.0195,-72.0832)">
			<title>Sheet.8</title>
			<desc>Key3: Value = 1</desc>
			<v:textBlock v:margins="rect(0,0,0,0)"/>
			<v:textRect cx="58.0575" cy="196.509" width="116.12" height="14.3829"/>
			<path d="M116.11 189.32 L0 189.32 L0 203.7 L116.11 203.7 L116.11 189.32" class="st3"/>
			<text x="15.59" y="200.1" class="st4" v:langID="1033"><v:paragraph v:horizAlign="1"/><v:tabList/>Key3: Value = 1</text>		</g>
		<g id="shape9-17" v:mID="9" v:groupContext="shape" transform="translate(19.0195,-43.5843)">
			<title>Sheet.9</title>
			<path d="M0 182.84 C-0 180.53 1.88 178.66 4.19 178.66 L109.15 178.66 C111.46 178.66 113.33 180.53 113.33 182.84 L113.33
						 199.53 C113.33 201.84 111.46 203.7 109.15 203.7 L4.19 203.7 C1.88 203.7 0 201.84 0 199.53 L0 182.84 Z"
					class="st1"/>
		</g>
		<g id="shape10-19" v:mID="10" v:groupContext="shape" transform="translate(19.0195,-43.5843)">
			<title>Sheet.10</title>
			<path d="M0 182.84 C-0 180.53 1.88 178.66 4.19 178.66 L109.15 178.66 C111.46 178.66 113.33 180.53 113.33 182.84 L113.33
						 199.53 C113.33 201.84 111.46 203.7 109.15 203.7 L4.19 203.7 C1.88 203.7 0 201.84 0 199.53 L0 182.84 Z"
					class="st2"/>
		</g>
		<g id="shape11-21" v:mID="11" v:groupContext="shape" transform="translate(19.0195,-47.1109)">
			<title>Sheet.11</title>
			<desc>Key4: Value = 0</desc>
			<v:textBlock v:margins="rect(0,0,0,0)"/>
			<v:textRect cx="58.0575" cy="196.509" width="116.12" height="14.3829"/>
			<path d="M116.11 189.32 L0 189.32 L0 203.7 L116.11 203.7 L116.11 189.32" class="st3"/>
			<text x="15.59" y="200.1" class="st4" v:langID="1033"><v:paragraph v:horizAlign="1"/><v:tabList/>Key4: Value = 0</text>		</g>
		<g id="shape12-25" v:mID="12" v:groupContext="shape" transform="translate(19.0195,-19.0195)">
			<title>Sheet.12</title>
			<path d="M0 182.84 C-0 180.53 1.88 178.66 4.19 178.66 L109.15 178.66 C111.46 178.66 113.33 180.53 113.33 182.84 L113.33
						 199.53 C113.33 201.84 111.46 203.7 109.15 203.7 L4.19 203.7 C1.88 203.7 0 201.84 0 199.53 L0 182.84 Z"
					class="st1"/>
		</g>
		<g id="shape13-27" v:mID="13" v:groupContext="shape" transform="translate(19.0195,-19.0195)">
			<title>Sheet.13</title>
			<path d="M0 182.84 C-0 180.53 1.88 178.66 4.19 178.66 L109.15 178.66 C111.46 178.66 113.33 180.53 113.33 182.84 L113.33
						 199.53 C113.33 201.84 111.46 203.7 109.15 203.7 L4.19 203.7 C1.88 203.7 0 201.84 0 199.53 L0 182.84 Z"
					class="st2"/>
		</g>
		<g id="shape14-29" v:mID="14" v:groupContext="shape" transform="translate(19.0195,-22.5475)">
			<title>Sheet.14</title>
			<desc>Key7: Value = 1</desc>
			<v:textBlock v:margins="rect(0,0,0,0)"/>
			<v:textRect cx="58.0575" cy="196.509" width="116.12" height="14.3829"/>
			<path d="M116.11 189.32 L0 189.32 L0 203.7 L116.11 203.7 L116.11 189.32" class="st3"/>
			<text x="15.59" y="200.1" class="st4" v:langID="1033"><v:paragraph v:horizAlign="1"/><v:tabList/>Key7: Value = 1</text>		</g>
		<g id="shape15-33" v:mID="15" v:groupContext="shape" transform="translate(141.656,-45.5615)">
			<title>Sheet.15</title>
			<path d="M0 169.01 L22.75 169.01 L22.75 157.45 L45.5 180.57 L22.75 203.7 L22.75 192.14 L0 192.14 L0 169.01 Z"
					class="st5"/>
		</g>
		<g id="shape16-35" v:mID="16" v:groupContext="shape" transform="translate(193.22,-56.0464)">
			<title>Sheet.16</title>
			<path d="M0 182.84 C0 180.53 1.88 178.66 4.19 178.66 L96.55 178.66 C98.87 178.66 100.73 180.53 100.73 182.84 L100.73
						 199.54 C100.73 201.84 98.87 203.7 96.55 203.7 L4.19 203.7 C1.88 203.7 0 201.84 0 199.54 L0 182.84 Z"
					class="st1"/>
		</g>
		<g id="shape17-37" v:mID="17" v:groupContext="shape" transform="translate(193.22,-56.0464)">
			<title>Sheet.17</title>
			<path d="M0 182.84 C0 180.53 1.88 178.66 4.19 178.66 L96.55 178.66 C98.87 178.66 100.73 180.53 100.73 182.84 L100.73
						 199.54 C100.73 201.84 98.87 203.7 96.55 203.7 L4.19 203.7 C1.88 203.7 0 201.84 0 199.54 L0 182.84 Z"
					class="st2"/>
		</g>
		<g id="shape18-39" v:mID="18" v:groupContext="shape" transform="translate(228.157,-66.9545)">
			<title>Sheet.18</title>
			<desc>F</desc>
			<v:textBlock v:margins="rect(0,0,0,0)"/>
			<v:textRect cx="5.63538" cy="197.084" width="11.28" height="13.2327"/>
			<path d="M11.27 190.47 L0 190.47 L0 203.7 L11.27 203.7 L11.27 190.47" class="st3"/>
			<text x="2.27" y="200.39" class="st6" v:langID="1033"><v:paragraph v:horizAlign="1"/><v:tabList/>F</text>		</g>
		<g id="shape19-43" v:mID="19" v:groupContext="shape" transform="translate(234.88,-66.9545)">
			<title>Sheet.19</title>
			<desc>(key,</desc>
			<v:textBlock v:margins="rect(0,0,0,0)"/>
			<v:textRect cx="17.261" cy="197.084" width="34.53" height="13.2327"/>
			<path d="M34.52 190.47 L0 190.47 L0 203.7 L34.52 203.7 L34.52 190.47" class="st3"/>
			<text x="5.32" y="200.39" class="st7" v:langID="1033"><v:paragraph v:horizAlign="1"/><v:tabList/>(key,  </text>		</g>
		<g id="shape20-47" v:mID="20" v:groupContext="shape" transform="translate(198.215,-53.7734)">
			<title>Sheet.20</title>
			<desc>hash_index =</desc>
			<v:textBlock v:margins="rect(0,0,0,0)"/>
			<v:textRect cx="41.4128" cy="197.084" width="82.83" height="13.2327"/>
			<path d="M82.83 190.47 L0 190.47 L0 203.7 L82.83 203.7 L82.83 190.47" class="st3"/>
			<text x="8.47" y="200.39" class="st7" v:langID="1033"><v:paragraph v:horizAlign="1"/><v:tabList/>hash_index =  </text>		</g>
		<g id="shape21-51" v:mID="21" v:groupContext="shape" transform="translate(274.858,-53.7734)">
			<title>Sheet.21</title>
			<desc>i)</desc>
			<v:textBlock v:margins="rect(0,0,0,0)"/>
			<v:textRect cx="5.28241" cy="197.084" width="10.57" height="13.2327"/>
			<path d="M10.56 190.47 L0 190.47 L0 203.7 L10.56 203.7 L10.56 190.47" class="st3"/>
			<text x="2.22" y="200.39" class="st7" v:langID="1033"><v:paragraph v:horizAlign="1"/><v:tabList/>i)</text>		</g>
		<g id="shape22-55" v:mID="22" v:groupContext="shape" transform="translate(351.453,-93.7923)">
			<title>Sheet.22</title>
			<path d="M0 182.84 C0 180.53 1.88 178.66 4.19 178.66 L109.16 178.66 C111.47 178.66 113.33 180.53 113.33 182.84 L113.33
						 199.54 C113.33 201.84 111.47 203.7 109.16 203.7 L4.19 203.7 C1.88 203.7 0 201.84 0 199.54 L0 182.84 Z"
					class="st1"/>
		</g>
		<g id="shape23-57" v:mID="23" v:groupContext="shape" transform="translate(351.453,-93.7923)">
			<title>Sheet.23</title>
			<path d="M0 182.84 C0 180.53 1.88 178.66 4.19 178.66 L109.16 178.66 C111.47 178.66 113.33 180.53 113.33 182.84 L113.33
						 199.54 C113.33 201.84 111.47 203.7 109.16 203.7 L4.19 203.7 C1.88 203.7 0 201.84 0 199.54 L0 182.84 Z"
					class="st2"/>
		</g>
		<g id="shape24-59" v:mID="24" v:groupContext="shape" transform="translate(355.798,-97.3147)">
			<title>Sheet.24</title>
			<desc>Key1: Position 4</desc>
			<v:textBlock v:margins="rect(0,0,0,0)"/>
			<v:textRect cx="51.7083" cy="196.509" width="103.42" height="14.3829"/>
			<path d="M103.42 189.32 L0 189.32 L0 203.7 L103.42 203.7 L103.42 189.32" class="st3"/>
			<text x="8.41" y="200.1" class="st4" v:langID="1033"><v:paragraph v:horizAlign="1"/><v:tabList/>Key1: Position 4</text>		</g>
		<g id="shape25-63" v:mID="25" v:groupContext="shape" transform="translate(351.453,-68.9879)">
			<title>Sheet.25</title>
			<path d="M0 182.94 C0 180.65 1.88 178.78 4.17 178.78 L109.18 178.78 C111.47 178.78 113.33 180.65 113.33 182.94 L113.33
						 199.55 C113.33 201.84 111.47 203.7 109.18 203.7 L4.17 203.7 C1.88 203.7 0 201.84 0 199.55 L0 182.94 Z"
					class="st1"/>
		</g>
		<g id="shape26-65" v:mID="26" v:groupContext="shape" transform="translate(351.453,-68.9879)">
			<title>Sheet.26</title>
			<path d="M0 182.94 C0 180.65 1.88 178.78 4.17 178.78 L109.18 178.78 C111.47 178.78 113.33 180.65 113.33 182.94 L113.33
						 199.55 C113.33 201.84 111.47 203.7 109.18 203.7 L4.17 203.7 C1.88 203.7 0 201.84 0 199.55 L0 182.94 Z"
					class="st2"/>
		</g>
		<g id="shape27-67" v:mID="27" v:groupContext="shape" transform="translate(355.798,-72.4921)">
			<title>Sheet.27</title>
			<desc>Key3: Position 6</desc>
			<v:textBlock v:margins="rect(0,0,0,0)"/>
			<v:textRect cx="51.7083" cy="196.509" width="103.42" height="14.3829"/>
			<path d="M103.42 189.32 L0 189.32 L0 203.7 L103.42 203.7 L103.42 189.32" class="st3"/>
			<text x="8.41" y="200.1" class="st4" v:langID="1033"><v:paragraph v:horizAlign="1"/><v:tabList/>Key3: Position 6</text>		</g>
		<g id="shape28-71" v:mID="28" v:groupContext="shape" transform="translate(351.453,-44.0636)">
			<title>Sheet.28</title>
			<path d="M0 182.94 C0 180.65 1.88 178.78 4.17 178.78 L109.18 178.78 C111.47 178.78 113.33 180.65 113.33 182.94 L113.33
						 199.55 C113.33 201.84 111.47 203.7 109.18 203.7 L4.17 203.7 C1.88 203.7 0 201.84 0 199.55 L0 182.94 Z"
					class="st1"/>
		</g>
		<g id="shape29-73" v:mID="29" v:groupContext="shape" transform="translate(351.453,-44.0636)">
			<title>Sheet.29</title>
			<path d="M0 182.94 C0 180.65 1.88 178.78 4.17 178.78 L109.18 178.78 C111.47 178.78 113.33 180.65 113.33 182.94 L113.33
						 199.55 C113.33 201.84 111.47 203.7 109.18 203.7 L4.17 203.7 C1.88 203.7 0 201.84 0 199.55 L0 182.94 Z"
					class="st2"/>
		</g>
		<g id="shape30-75" v:mID="30" v:groupContext="shape" transform="translate(351.215,-47.5198)">
			<title>Sheet.30</title>
			<desc>Key4: Position 14</desc>
			<v:textBlock v:margins="rect(0,0,0,0)"/>
			<v:textRect cx="55.5403" cy="196.509" width="111.09" height="14.3829"/>
			<path d="M111.08 189.32 L0 189.32 L0 203.7 L111.08 203.7 L111.08 189.32" class="st3"/>
			<text x="8.91" y="200.1" class="st4" v:langID="1033"><v:paragraph v:horizAlign="1"/><v:tabList/>Key4: Position 14</text>		</g>
		<g id="shape31-79" v:mID="31" v:groupContext="shape" transform="translate(351.453,-19.4988)">
			<title>Sheet.31</title>
			<path d="M0 182.94 C0 180.65 1.88 178.78 4.17 178.78 L109.18 178.78 C111.47 178.78 113.33 180.65 113.33 182.94 L113.33
						 199.55 C113.33 201.84 111.47 203.7 109.18 203.7 L4.17 203.7 C1.88 203.7 0 201.84 0 199.55 L0 182.94 Z"
					class="st1"/>
		</g>
		<g id="shape32-81" v:mID="32" v:groupContext="shape" transform="translate(351.453,-19.4988)">
			<title>Sheet.32</title>
			<path d="M0 182.94 C0 180.65 1.88 178.78 4.17 178.78 L109.18 178.78 C111.47 178.78 113.33 180.65 113.33 182.94 L113.33
						 199.55 C113.33 201.84 111.47 203.7 109.18 203.7 L4.17 203.7 C1.88 203.7 0 201.84 0 199.55 L0 182.94 Z"
					class="st2"/>
		</g>
		<g id="shape33-83" v:mID="33" v:groupContext="shape" transform="translate(351.215,-22.9565)">
			<title>Sheet.33</title>
			<desc>Key7: Position 14</desc>
			<v:textBlock v:margins="rect(0,0,0,0)"/>
			<v:textRect cx="55.5403" cy="196.509" width="111.09" height="14.3829"/>
			<path d="M111.08 189.32 L0 189.32 L0 203.7 L111.08 203.7 L111.08 189.32" class="st3"/>
			<text x="8.91" y="200.1" class="st4" v:langID="1033"><v:paragraph v:horizAlign="1"/><v:tabList/>Key7: Position 14</text>		</g>
		<g id="shape34-87" v:mID="34" v:groupContext="shape" transform="translate(299.89,-46.0408)">
			<title>Sheet.34</title>
			<path d="M0 169.01 L22.75 169.01 L22.75 157.45 L45.5 180.57 L22.75 203.7 L22.75 192.14 L0 192.14 L0 169.01 Z"
					class="st5"/>
		</g>
		<g id="shape35-89" v:mID="35" v:groupContext="shape" transform="translate(528.896,-117.518)">
			<title>Sheet.35</title>
			<path d="M0 182.94 C0 180.66 1.89 178.78 4.17 178.78 L137.64 178.78 C139.92 178.78 141.79 180.66 141.79 182.94 L141.79
						 199.57 C141.79 201.84 139.92 203.7 137.64 203.7 L4.17 203.7 C1.89 203.7 0 201.84 0 199.57 L0 182.94 Z"
					class="st1"/>
		</g>
		<g id="shape36-91" v:mID="36" v:groupContext="shape" transform="translate(528.896,-117.518)">
			<title>Sheet.36</title>
			<path d="M0 182.94 C0 180.66 1.89 178.78 4.17 178.78 L137.64 178.78 C139.92 178.78 141.79 180.66 141.79 182.94 L141.79
						 199.57 C141.79 201.84 139.92 203.7 137.64 203.7 L4.17 203.7 C1.89 203.7 0 201.84 0 199.57 L0 182.94 Z"
					class="st2"/>
		</g>
		<g id="shape37-93" v:mID="37" v:groupContext="shape" transform="translate(530.056,-121.017)">
			<title>Sheet.37</title>
			<desc>0000</desc>
			<v:textBlock v:margins="rect(0,0,0,0)"/>
			<v:textRect cx="19.1585" cy="196.509" width="38.32" height="14.3829"/>
			<path d="M38.32 189.32 L0 189.32 L0 203.7 L38.32 203.7 L38.32 189.32" class="st3"/>
			<text x="5.83" y="200.1" class="st8" v:langID="1033"><v:paragraph v:horizAlign="1"/><v:tabList/>0000  </text>		</g>
		<g id="shape38-97" v:mID="38" v:groupContext="shape" transform="translate(567.215,-121.017)">
			<title>Sheet.38</title>
			<desc>0</desc>
			<v:textBlock v:margins="rect(0,0,0,0)"/>
			<v:textRect cx="5.7483" cy="196.509" width="11.5" height="14.3829"/>
			<path d="M11.5 189.32 L0 189.32 L0 203.7 L11.5 203.7 L11.5 189.32" class="st3"/>
			<text x="2.42" y="200.1" class="st9" v:langID="1033"><v:paragraph v:horizAlign="1"/><v:tabList/>0</text>		</g>
		<g id="shape39-101" v:mID="39" v:groupContext="shape" transform="translate(576.215,-121.017)">
			<title>Sheet.39</title>
			<desc>0</desc>
			<v:textBlock v:margins="rect(0,0,0,0)"/>
			<v:textRect cx="5.7483" cy="196.509" width="11.5" height="14.3829"/>
			<path d="M11.5 189.32 L0 189.32 L0 203.7 L11.5 203.7 L11.5 189.32" class="st3"/>
			<text x="2.42" y="200.1" class="st8" v:langID="1033"><v:paragraph v:horizAlign="1"/><v:tabList/>0</text>		</g>
		<g id="shape40-105" v:mID="40" v:groupContext="shape" transform="translate(584.486,-121.017)">
			<title>Sheet.40</title>
			<desc>1</desc>
			<v:textBlock v:margins="rect(0,0,0,0)"/>
			<v:textRect cx="5.7483" cy="196.509" width="11.5" height="14.3829"/>
			<path d="M11.5 189.32 L0 189.32 L0 203.7 L11.5 203.7 L11.5 189.32" class="st3"/>
			<text x="2.42" y="200.1" class="st9" v:langID="1033"><v:paragraph v:horizAlign="1"/><v:tabList/>1</text>		</g>
		<g id="shape41-109" v:mID="41" v:groupContext="shape" transform="translate(588.646,-121.017)">
			<title>Sheet.41</title>
			<desc>0 0000 00</desc>
			<v:textBlock v:margins="rect(0,0,0,0)"/>
			<v:textRect cx="32.5687" cy="196.509" width="65.14" height="14.3829"/>
			<path d="M65.14 189.32 L0 189.32 L0 203.7 L65.14 203.7 L65.14 189.32" class="st3"/>
			<text x="5.91" y="200.1" class="st8" v:langID="1033"><v:paragraph v:horizAlign="1"/><v:tabList/>0 0000 00</text>		</g>
		<g id="shape42-113" v:mID="42" v:groupContext="shape" transform="translate(644.965,-121.017)">
			<title>Sheet.42</title>
			<desc>?</desc>
			<v:textBlock v:margins="rect(0,0,0,0)"/>
			<v:textRect cx="6.12511" cy="196.509" width="12.26" height="14.3829"/>
			<path d="M12.25 189.32 L0 189.32 L0 203.7 L12.25 203.7 L12.25 189.32" class="st3"/>
			<text x="2.47" y="200.1" class="st10" v:langID="1033"><v:paragraph v:horizAlign="1"/><v:tabList/>?</text>		</g>
		<g id="shape43-117" v:mID="43" v:groupContext="shape" transform="translate(654.718,-121.017)">
			<title>Sheet.43</title>
			<desc>0</desc>
			<v:textBlock v:margins="rect(0,0,0,0)"/>
			<v:textRect cx="5.7483" cy="196.509" width="11.5" height="14.3829"/>
			<path d="M11.5 189.32 L0 189.32 L0 203.7 L11.5 203.7 L11.5 189.32" class="st3"/>
			<text x="2.42" y="200.1" class="st8" v:langID="1033"><v:paragraph v:horizAlign="1"/><v:tabList/>0</text>		</g>
		<g id="shape44-121" v:mID="44" v:groupContext="shape" transform="translate(464.786,-105.296)">
			<title>Sheet.44</title>
			<path d="M0 203.7 L108.29 203.7 C108.86 203.7 109.31 203.22 109.31 202.68 L109.31 189.5 L107.27 189.5 L107.27 202.68
						 L108.29 201.66 L0 201.66 L0 203.7 ZM111.35 190.52 L108.29 184.41 L105.23 190.55 L111.35 190.52 Z"
					class="st11"/>
		</g>
		<g id="shape45-123" v:mID="45" v:groupContext="shape" transform="translate(464.786,-80.4315)">
			<title>Sheet.45</title>
			<path d="M0 203.7 L123.63 203.7 C124.2 203.7 124.65 203.25 124.65 202.68 L124.65 164.28 L122.61 164.28 L122.61 202.68
						 L123.63 201.66 L0 201.66 L0 203.7 ZM126.69 165.3 L123.6 159.18 L120.57 165.33 L126.69 165.3 Z"
					class="st11"/>
		</g>
		<g id="shape46-125" v:mID="46" v:groupContext="shape" transform="translate(464.786,-55.4772)">
			<title>Sheet.46</title>
			<path d="M0 203.7 L186.48 203.7 C186.75 203.7 186.99 203.61 187.2 203.4 C187.38 203.22 187.5 202.95 187.5 202.68 L187.41
						 139.32 L185.37 139.32 L185.46 202.68 L186.48 201.66 L0 201.66 L0 203.7 ZM189.51 140.07 L185.94 134.23 L183.41
						 140.61 L189.51 140.07 Z" class="st11"/>
		</g>
		<g id="shape47-127" v:mID="47" v:groupContext="shape" transform="translate(464.786,-30.9125)">
			<title>Sheet.47</title>
			<path d="M0 203.7 L186.48 203.7 C186.75 203.7 186.99 203.61 187.2 203.4 C187.38 203.22 187.5 202.95 187.5 202.68 L187.41
						 114.76 L185.37 114.76 L185.46 202.68 L186.48 201.66 L0 201.66 L0 203.7 ZM189.51 115.51 L185.94 109.67 L183.41
						 116.05 L189.51 115.51 Z" class="st11"/>
		</g>
		<g id="shape48-129" v:mID="48" v:groupContext="shape" transform="translate(442.996,-151.106)">
			<title>Sheet.48</title>
			<path d="M0 179.56 C0 176.89 2.19 174.7 4.86 174.7 L70.8 174.7 C73.47 174.7 75.64 176.89 75.64 179.56 L75.64 198.88 C75.64
						 201.54 73.47 203.7 70.8 203.7 L4.86 203.7 C2.19 203.7 0 201.54 0 198.88 L0 179.56 Z" class="st5"/>
		</g>
		<g id="shape49-131" v:mID="49" v:groupContext="shape" transform="translate(443.529,-155.018)">
			<title>Sheet.49</title>
			<desc>Values</desc>
			<v:textBlock v:margins="rect(0,0,0,0)"/>
			<v:textRect cx="37.8175" cy="192.914" width="75.64" height="21.5726"/>
			<path d="M75.64 182.13 L0 182.13 L0 203.7 L75.64 203.7 L75.64 182.13" class="st3"/>
			<text x="10.34" y="198.31" class="st12" v:langID="1033"><v:paragraph v:horizAlign="1"/><v:tabList/>Values</text>		</g>
		<g id="shape50-135" v:mID="50" v:groupContext="shape" transform="translate(102.458,-122.192)">
			<title>Sheet.50</title>
			<path d="M0 203.7 C-0 199.21 0.62 195.55 1.37 195.55 L11.67 195.55 C12.42 195.55 13.03 191.9 13.03 187.4 C13.03 191.9
						 13.64 195.55 14.39 195.55 L24.69 195.55 C25.44 195.55 26.05 199.21 26.05 203.7" class="st13"/>
		</g>
		<g id="shape51-138" v:mID="51" v:groupContext="shape" transform="translate(115.454,-137.5)">
			<title>Sheet.51</title>
			<path d="M0.2 203.7 L322.66 174.12 L322.48 172.1 L0 201.68 L0.2 203.7 L0.2 203.7 ZM321.84 176.24 L327.66 172.64 L321.28
						 170.16 L321.84 176.24 L321.84 176.24 Z" class="st14"/>
		</g>
		<g id="shape52-140" v:mID="52" v:groupContext="shape" transform="translate(518.211,-142.473)">
			<title>Sheet.52</title>
			<path d="M0.99 176.74 L44.78 200.38 L43.82 202.17 L0 178.51 L0.99 176.74 L0.99 176.74 ZM44.87 198.1 L48.8 203.7 L41.96
						 203.46 L44.87 198.1 L44.87 198.1 Z" class="st11"/>
		</g>
		<g id="shape53-142" v:mID="53" v:groupContext="shape" transform="translate(518.331,-141.963)">
			<title>Sheet.53</title>
			<path d="M0.75 176.17 L60.09 200.32 L59.34 202.2 L0 178.06 L0.75 176.17 L0.75 176.17 ZM59.91 198.04 L64.44 203.19 L57.6
						 203.7 L59.91 198.04 L59.91 198.04 Z" class="st11"/>
		</g>
		<g id="shape54-144" v:mID="54" v:groupContext="shape" transform="translate(576.558,-153.706)">
			<title>Sheet.54</title>
			<path d="M0 177.04 C0 174.1 2.4 171.71 5.34 171.71 L101.51 171.71 C104.48 171.71 106.85 174.1 106.85 177.04 L106.85 198.37
						 C106.85 201.33 104.48 203.7 101.51 203.7 L5.34 203.7 C2.4 203.7 0 201.33 0 198.37 L0 177.04 Z" class="st1"/>
		</g>
		<g id="shape55-146" v:mID="55" v:groupContext="shape" transform="translate(577.365,-151.611)">
			<title>Sheet.55</title>
			<path d="M0 177.04 C0 174.1 2.4 171.71 5.34 171.71 L101.51 171.71 C104.48 171.71 106.85 174.1 106.85 177.04 L106.85 198.37
						 C106.85 201.33 104.48 203.7 101.51 203.7 L5.34 203.7 C2.4 203.7 0 201.33 0 198.37 L0 177.04 Z" class="st2"/>
		</g>
		<g id="shape56-148" v:mID="56" v:groupContext="shape" transform="translate(593.952,-167.894)">
			<title>Sheet.56</title>
			<desc>Lookup_table</desc>
			<v:textBlock v:margins="rect(0,0,0,0)"/>
			<v:textRect cx="43.2942" cy="196.509" width="86.59" height="14.3829"/>
			<path d="M86.59 189.32 L0 189.32 L0 203.7 L86.59 203.7 L86.59 189.32" class="st3"/>
			<text x="7.31" y="200.1" class="st4" v:langID="1033"><v:paragraph v:horizAlign="1"/><v:tabList/>Lookup_table</text>		</g>
		<g id="shape57-152" v:mID="57" v:groupContext="shape" transform="translate(608.239,-153.515)">
			<title>Sheet.57</title>
			<desc>(16 bits)</desc>
			<v:textBlock v:margins="rect(0,0,0,0)"/>
			<v:textRect cx="26.8054" cy="196.509" width="53.62" height="14.3829"/>
			<path d="M53.61 189.32 L0 189.32 L0 203.7 L53.61 203.7 L53.61 189.32" class="st3"/>
			<text x="5.16" y="200.1" class="st4" v:langID="1033"><v:paragraph v:horizAlign="1"/><v:tabList/>(16 bits)</text>		</g>
	</g>
</svg>
