<?xml version="1.0" encoding="UTF-8" standalone="no"?>
<!DOCTYPE svg PUBLIC "-//W3C//DTD SVG 1.1//EN" "http://www.w3.org/Graphics/SVG/1.1/DTD/svg11.dtd">
<!-- Generated by Microsoft Visio, SVG Export efd_i10.svg Page-1 -->
<svg xmlns="http://www.w3.org/2000/svg" xmlns:xlink="http://www.w3.org/1999/xlink" xmlns:ev="http://www.w3.org/2001/xml-events"
		xmlns:v="http://schemas.microsoft.com/visio/2003/SVGExtensions/" width="9.8125in" height="3.76365in"
		viewBox="0 0 706.5 270.983" xml:space="preserve" color-interpolation-filters="sRGB" class="st9">
	<v:documentProperties v:langID="1033" v:viewMarkup="false">
		<v:userDefs>
			<v:ud v:nameU="msvSubprocessMaster" v:prompt="" v:val="VT4(Rectangle)"/>
			<v:ud v:nameU="msvNoAutoConnect" v:val="VT0(1):26"/>
		</v:userDefs>
	</v:documentProperties>

	<style type="text/css">
	<![CDATA[
		.st1 {fill:#ffffff;stroke:none;stroke-linecap:round;stroke-linejoin:round;stroke-width:0.75}
		.st2 {fill:none;stroke:#00aeef;stroke-linecap:round;stroke-linejoin:round;stroke-width:2.03901}
		.st3 {stroke:none;stroke-linecap:round;stroke-linejoin:round;stroke-width:0.75}
		.st4 {fill:#000000;font-family:Arial;font-size:0.998566em}
		.st5 {fill:#000000;font-family:Arial;font-size:0.918686em}
		.st6 {fill:#0071c5;stroke:none;stroke-linecap:round;stroke-linejoin:round;stroke-width:0.75}
		.st7 {fill:#ffffff;font-family:Arial;font-size:0.998566em}
		.st8 {fill:#ffffff;font-family:Arial;font-size:1.49785em}
		.st9 {fill:none;fill-rule:evenodd;font-size:12px;overflow:visible;stroke-linecap:square;stroke-miterlimit:3}
	]]>
	</style>

	<g v:mID="0" v:index="1" v:groupContext="foregroundPage">
		<v:userDefs>
			<v:ud v:nameU="msvThemeOrder" v:val="VT0(0):26"/>
		</v:userDefs>
		<title>Page-1</title>
		<v:pageProperties v:drawingScale="1" v:pageScale="1" v:drawingUnits="0" v:shadowOffsetX="9" v:shadowOffsetY="-9"/>
		<g id="shape68-1" v:mID="68" v:groupContext="shape" transform="translate(196.523,-158.978)">
			<title>Sheet.68</title>
			<path d="M0 250.22 C0 247.95 1.89 246.06 4.17 246.06 L317.25 246.06 C319.53 246.06 321.39 247.95 321.39 250.22 L321.39
						 266.85 C321.39 269.13 319.53 270.98 317.25 270.98 L4.17 270.98 C1.89 270.98 0 269.13 0 266.85 L0 250.22
						 Z" class="st1"/>
		</g>
		<g id="shape69-3" v:mID="69" v:groupContext="shape" transform="translate(196.523,-158.978)">
			<title>Sheet.69</title>
			<path d="M0 250.22 C0 247.95 1.89 246.06 4.17 246.06 L317.25 246.06 C319.53 246.06 321.39 247.95 321.39 250.22 L321.39
						 266.85 C321.39 269.13 319.53 270.98 317.25 270.98 L4.17 270.98 C1.89 270.98 0 269.13 0 266.85 L0 250.22
						 Z" class="st2"/>
		</g>
		<g id="shape70-5" v:mID="70" v:groupContext="shape" transform="translate(186.139,-162.437)">
			<title>Sheet.70</title>
			<desc>(hash(key, seed1) + hash_index *</desc>
			<v:textBlock v:margins="rect(0,0,0,0)"/>
			<v:textRect cx="106.671" cy="263.792" width="213.35" height="14.3829"/>
			<path d="M213.34 256.6 L0 256.6 L0 270.98 L213.34 270.98 L213.34 256.6" class="st3"/>
			<text x="17.24" y="267.39" class="st4" v:langID="1033"><v:paragraph v:horizAlign="1"/><v:tabList/>(hash(key, seed1) + hash_index *  </text>		</g>
		<g id="shape71-9" v:mID="71" v:groupContext="shape" transform="translate(381.48,-162.845)">
			<title>Sheet.71</title>
			<desc>hash(key</desc>
			<v:textBlock v:margins="rect(0,0,0,0)"/>
			<v:textRect cx="27.4843" cy="264.367" width="54.97" height="13.2327"/>
			<path d="M54.97 257.75 L0 257.75 L0 270.98 L54.97 270.98 L54.97 257.75" class="st3"/>
			<text x="5.12" y="267.67" class="st5" v:langID="1033"><v:paragraph v:horizAlign="1"/><v:tabList/>hash(key</text>		</g>
		<g id="shape72-13" v:mID="72" v:groupContext="shape" transform="translate(424.755,-162.437)">
			<title>Sheet.72</title>
			<desc>, seed2)) % 16</desc>
			<v:textBlock v:margins="rect(0,0,0,0)"/>
			<v:textRect cx="46.7254" cy="263.792" width="93.46" height="14.3829"/>
			<path d="M93.45 256.6 L0 256.6 L0 270.98 L93.45 270.98 L93.45 256.6" class="st3"/>
			<text x="7.76" y="267.39" class="st4" v:langID="1033"><v:paragraph v:horizAlign="1"/><v:tabList/>, seed2)) % 16</text>		</g>
		<g id="shape73-17" v:mID="73" v:groupContext="shape" transform="translate(524.094,-148.373)">
			<title>Sheet.73</title>
			<path d="M0 236.29 L22.75 236.29 L22.75 224.73 L45.5 247.86 L22.75 270.98 L22.75 259.42 L0 259.42 L0 236.29 Z"
					class="st6"/>
		</g>
		<g id="shape74-19" v:mID="74" v:groupContext="shape" transform="translate(574.148,-217.574)">
			<title>Sheet.74</title>
			<path d="M0 244.83 C-0 241.95 2.37 239.59 5.25 239.59 L108.11 239.59 C110.99 239.59 113.33 241.95 113.33 244.83 L113.33
						 265.77 C113.33 268.65 110.99 270.98 108.11 270.98 L5.25 270.98 C2.37 270.98 0 268.65 0 265.77 L0 244.83
						 Z" class="st1"/>
		</g>
		<g id="shape75-21" v:mID="75" v:groupContext="shape" transform="translate(574.148,-217.574)">
			<title>Sheet.75</title>
			<path d="M0 244.83 C-0 241.95 2.37 239.59 5.25 239.59 L108.11 239.59 C110.99 239.59 113.33 241.95 113.33 244.83 L113.33
						 265.77 C113.33 268.65 110.99 270.98 108.11 270.98 L5.25 270.98 C2.37 270.98 0 268.65 0 265.77 L0 244.83
						 Z" class="st2"/>
		</g>
		<g id="shape76-23" v:mID="76" v:groupContext="shape" transform="translate(584.296,-231.499)">
			<title>Sheet.76</title>
			<desc>lookup_table</desc>
			<v:textBlock v:margins="rect(0,0,0,0)"/>
			<v:textRect cx="40.993" cy="263.792" width="81.99" height="14.3829"/>
			<path d="M81.99 256.6 L0 256.6 L0 270.98 L81.99 270.98 L81.99 256.6" class="st3"/>
			<text x="7.01" y="267.39" class="st4" v:langID="1033"><v:paragraph v:horizAlign="1"/><v:tabList/>lookup_table</text>		</g>
		<g id="shape77-27" v:mID="77" v:groupContext="shape" transform="translate(655.369,-231.499)">
			<title>Sheet.77</title>
			<desc>bit</desc>
			<v:textBlock v:margins="rect(0,0,0,0)"/>
			<v:textRect cx="11.1076" cy="263.792" width="22.22" height="14.3829"/>
			<path d="M22.22 256.6 L0 256.6 L0 270.98 L22.22 270.98 L22.22 256.6" class="st3"/>
			<text x="4.78" y="267.39" class="st4" v:langID="1033"><v:paragraph v:horizAlign="1"/><v:tabList/>bit  </text>		</g>
		<g id="shape78-31" v:mID="78" v:groupContext="shape" transform="translate(588.858,-217.12)">
			<title>Sheet.78</title>
			<desc>index for key1</desc>
			<v:textBlock v:margins="rect(0,0,0,0)"/>
			<v:textRect cx="44.8113" cy="263.792" width="89.63" height="14.3829"/>
			<path d="M89.62 256.6 L0 256.6 L0 270.98 L89.62 270.98 L89.62 256.6" class="st3"/>
			<text x="7.51" y="267.39" class="st4" v:langID="1033"><v:paragraph v:horizAlign="1"/><v:tabList/>index for key1</text>		</g>
		<g id="shape79-35" v:mID="79" v:groupContext="shape" transform="translate(573.548,-178.869)">
			<title>Sheet.79</title>
			<path d="M0 244.83 C-0 241.95 2.37 239.59 5.25 239.59 L108.11 239.59 C110.99 239.59 113.33 241.95 113.33 244.83 L113.33
						 265.77 C113.33 268.65 110.99 270.98 108.11 270.98 L5.25 270.98 C2.37 270.98 0 268.65 0 265.77 L0 244.83
						 Z" class="st1"/>
		</g>
		<g id="shape80-37" v:mID="80" v:groupContext="shape" transform="translate(573.548,-178.869)">
			<title>Sheet.80</title>
			<path d="M0 244.83 C-0 241.95 2.37 239.59 5.25 239.59 L108.11 239.59 C110.99 239.59 113.33 241.95 113.33 244.83 L113.33
						 265.77 C113.33 268.65 110.99 270.98 108.11 270.98 L5.25 270.98 C2.37 270.98 0 268.65 0 265.77 L0 244.83
						 Z" class="st2"/>
		</g>
		<g id="shape81-39" v:mID="81" v:groupContext="shape" transform="translate(584.296,-192.768)">
			<title>Sheet.81</title>
			<desc>lookup_table</desc>
			<v:textBlock v:margins="rect(0,0,0,0)"/>
			<v:textRect cx="40.993" cy="263.792" width="81.99" height="14.3829"/>
			<path d="M81.99 256.6 L0 256.6 L0 270.98 L81.99 270.98 L81.99 256.6" class="st3"/>
			<text x="7.01" y="267.39" class="st4" v:langID="1033"><v:paragraph v:horizAlign="1"/><v:tabList/>lookup_table</text>		</g>
		<g id="shape82-43" v:mID="82" v:groupContext="shape" transform="translate(655.369,-192.768)">
			<title>Sheet.82</title>
			<desc>bit</desc>
			<v:textBlock v:margins="rect(0,0,0,0)"/>
			<v:textRect cx="11.1076" cy="263.792" width="22.22" height="14.3829"/>
			<path d="M22.22 256.6 L0 256.6 L0 270.98 L22.22 270.98 L22.22 256.6" class="st3"/>
			<text x="4.78" y="267.39" class="st4" v:langID="1033"><v:paragraph v:horizAlign="1"/><v:tabList/>bit  </text>		</g>
		<g id="shape83-47" v:mID="83" v:groupContext="shape" transform="translate(588.858,-178.388)">
			<title>Sheet.83</title>
			<desc>index for key3</desc>
			<v:textBlock v:margins="rect(0,0,0,0)"/>
			<v:textRect cx="44.8113" cy="263.792" width="89.63" height="14.3829"/>
			<path d="M89.62 256.6 L0 256.6 L0 270.98 L89.62 270.98 L89.62 256.6" class="st3"/>
			<text x="7.51" y="267.39" class="st4" v:langID="1033"><v:paragraph v:horizAlign="1"/><v:tabList/>index for key3</text>		</g>
		<g id="shape84-51" v:mID="84" v:groupContext="shape" transform="translate(574.148,-139.326)">
			<title>Sheet.84</title>
			<path d="M0 244.83 C-0 241.95 2.37 239.59 5.25 239.59 L108.11 239.59 C110.99 239.59 113.33 241.95 113.33 244.83 L113.33
						 265.77 C113.33 268.65 110.99 270.98 108.11 270.98 L5.25 270.98 C2.37 270.98 0 268.65 0 265.77 L0 244.83
						 Z" class="st1"/>
		</g>
		<g id="shape85-53" v:mID="85" v:groupContext="shape" transform="translate(574.148,-139.326)">
			<title>Sheet.85</title>
			<path d="M0 244.83 C-0 241.95 2.37 239.59 5.25 239.59 L108.11 239.59 C110.99 239.59 113.33 241.95 113.33 244.83 L113.33
						 265.77 C113.33 268.65 110.99 270.98 108.11 270.98 L5.25 270.98 C2.37 270.98 0 268.65 0 265.77 L0 244.83
						 Z" class="st2"/>
		</g>
		<g id="shape86-55" v:mID="86" v:groupContext="shape" transform="translate(584.296,-153.227)">
			<title>Sheet.86</title>
			<desc>lookup_table</desc>
			<v:textBlock v:margins="rect(0,0,0,0)"/>
			<v:textRect cx="40.993" cy="263.792" width="81.99" height="14.3829"/>
			<path d="M81.99 256.6 L0 256.6 L0 270.98 L81.99 270.98 L81.99 256.6" class="st3"/>
			<text x="7.01" y="267.39" class="st4" v:langID="1033"><v:paragraph v:horizAlign="1"/><v:tabList/>lookup_table</text>		</g>
		<g id="shape87-59" v:mID="87" v:groupContext="shape" transform="translate(655.369,-153.227)">
			<title>Sheet.87</title>
			<desc>bit</desc>
			<v:textBlock v:margins="rect(0,0,0,0)"/>
			<v:textRect cx="11.1076" cy="263.792" width="22.22" height="14.3829"/>
			<path d="M22.22 256.6 L0 256.6 L0 270.98 L22.22 270.98 L22.22 256.6" class="st3"/>
			<text x="4.78" y="267.39" class="st4" v:langID="1033"><v:paragraph v:horizAlign="1"/><v:tabList/>bit  </text>		</g>
		<g id="shape88-63" v:mID="88" v:groupContext="shape" transform="translate(588.858,-138.848)">
			<title>Sheet.88</title>
			<desc>index for key4</desc>
			<v:textBlock v:margins="rect(0,0,0,0)"/>
			<v:textRect cx="44.8113" cy="263.792" width="89.63" height="14.3829"/>
			<path d="M89.62 256.6 L0 256.6 L0 270.98 L89.62 270.98 L89.62 256.6" class="st3"/>
			<text x="7.51" y="267.39" class="st4" v:langID="1033"><v:paragraph v:horizAlign="1"/><v:tabList/>index for key4</text>		</g>
		<g id="shape89-67" v:mID="89" v:groupContext="shape" transform="translate(574.148,-100.622)">
			<title>Sheet.89</title>
			<path d="M0 244.83 C-0 241.95 2.37 239.59 5.25 239.59 L108.11 239.59 C110.99 239.59 113.33 241.95 113.33 244.83 L113.33
						 265.77 C113.33 268.65 110.99 270.98 108.11 270.98 L5.25 270.98 C2.37 270.98 0 268.65 0 265.77 L0 244.83
						 Z" class="st1"/>
		</g>
		<g id="shape90-69" v:mID="90" v:groupContext="shape" transform="translate(574.148,-100.622)">
			<title>Sheet.90</title>
			<path d="M0 244.83 C-0 241.95 2.37 239.59 5.25 239.59 L108.11 239.59 C110.99 239.59 113.33 241.95 113.33 244.83 L113.33
						 265.77 C113.33 268.65 110.99 270.98 108.11 270.98 L5.25 270.98 C2.37 270.98 0 268.65 0 265.77 L0 244.83
						 Z" class="st2"/>
		</g>
		<g id="shape91-71" v:mID="91" v:groupContext="shape" transform="translate(584.296,-114.496)">
			<title>Sheet.91</title>
			<desc>lookup_table</desc>
			<v:textBlock v:margins="rect(0,0,0,0)"/>
			<v:textRect cx="40.993" cy="263.792" width="81.99" height="14.3829"/>
			<path d="M81.99 256.6 L0 256.6 L0 270.98 L81.99 270.98 L81.99 256.6" class="st3"/>
			<text x="7.01" y="267.39" class="st4" v:langID="1033"><v:paragraph v:horizAlign="1"/><v:tabList/>lookup_table</text>		</g>
		<g id="shape92-75" v:mID="92" v:groupContext="shape" transform="translate(655.369,-114.496)">
			<title>Sheet.92</title>
			<desc>bit</desc>
			<v:textBlock v:margins="rect(0,0,0,0)"/>
			<v:textRect cx="11.1076" cy="263.792" width="22.22" height="14.3829"/>
			<path d="M22.22 256.6 L0 256.6 L0 270.98 L22.22 270.98 L22.22 256.6" class="st3"/>
			<text x="4.78" y="267.39" class="st4" v:langID="1033"><v:paragraph v:horizAlign="1"/><v:tabList/>bit  </text>		</g>
		<g id="shape93-79" v:mID="93" v:groupContext="shape" transform="translate(588.858,-100.117)">
			<title>Sheet.93</title>
			<desc>index for key7</desc>
			<v:textBlock v:margins="rect(0,0,0,0)"/>
			<v:textRect cx="44.8113" cy="263.792" width="89.63" height="14.3829"/>
			<path d="M89.62 256.6 L0 256.6 L0 270.98 L89.62 270.98 L89.62 256.6" class="st3"/>
			<text x="7.51" y="267.39" class="st4" v:langID="1033"><v:paragraph v:horizAlign="1"/><v:tabList/>index for key7</text>		</g>
		<g id="shape94-83" v:mID="94" v:groupContext="shape" transform="translate(205.227,-191.137)">
			<title>Sheet.94</title>
			<path d="M0 217.76 C0 213 3.87 209.14 8.64 209.14 L14.53 209.14 L14.53 209.14 L36.32 209.14 L78.52 209.14 C83.3 209.14
						 87.16 213 87.16 217.76 L87.16 239.33 L87.16 239.33 L87.16 252.27 L87.16 252.27 C87.16 257.05 83.3 260.9
						 78.52 260.9 L36.32 260.9 L18.46 270.98 L14.53 260.9 L8.64 260.9 C3.87 260.9 0 257.05 0 252.27 L0 239.33
						 L0 239.33 L0 217.76 Z" class="st6"/>
		</g>
		<g id="shape95-85" v:mID="95" v:groupContext="shape" transform="translate(214.98,-225.215)">
			<title>Sheet.95</title>
			<desc>CRC32 (32</desc>
			<v:textBlock v:margins="rect(0,0,0,0)"/>
			<v:textRect cx="38.2947" cy="263.792" width="76.59" height="14.3829"/>
			<path d="M76.59 256.6 L0 256.6 L0 270.98 L76.59 270.98 L76.59 256.6" class="st3"/>
			<text x="8.33" y="267.39" class="st7" v:langID="1033"><v:paragraph v:horizAlign="1"/><v:tabList/>CRC32 (32  </text>		</g>
		<g id="shape96-89" v:mID="96" v:groupContext="shape" transform="translate(222.123,-210.835)">
			<title>Sheet.96</title>
			<desc>bit output)</desc>
			<v:textBlock v:margins="rect(0,0,0,0)"/>
			<v:textRect cx="32.5584" cy="263.792" width="65.12" height="14.3829"/>
			<path d="M65.12 256.6 L0 256.6 L0 270.98 L65.12 270.98 L65.12 256.6" class="st3"/>
			<text x="5.91" y="267.39" class="st7" v:langID="1033"><v:paragraph v:horizAlign="1"/><v:tabList/>bit output)</text>		</g>
		<g id="shape97-93" v:mID="97" v:groupContext="shape" transform="translate(305.473,-188.366)">
			<title>Sheet.97</title>
			<path d="M0 226.84 C0 223.28 2.9 220.39 6.47 220.39 L21.37 220.39 L21.37 220.39 L53.42 220.39 L121.77 220.39 C125.34
						 220.39 128.22 223.28 128.22 226.84 L128.22 242.97 L128.22 242.97 L128.22 252.65 L128.22 252.65 C128.22 256.21
						 125.34 259.09 121.77 259.09 L53.42 259.09 L38.73 270.98 L21.37 259.09 L6.47 259.09 C2.9 259.09 0 256.21
						 0 252.65 L0 242.97 L0 242.97 L0 226.84 Z" class="st6"/>
		</g>
		<g id="shape98-95" v:mID="98" v:groupContext="shape" transform="translate(318.48,-217.733)">
			<title>Sheet.98</title>
			<desc>Goal: Find a valid</desc>
			<v:textBlock v:margins="rect(0,0,0,0)"/>
			<v:textRect cx="57.4478" cy="263.792" width="114.9" height="14.3829"/>
			<path d="M114.9 256.6 L0 256.6 L0 270.98 L114.9 270.98 L114.9 256.6" class="st3"/>
			<text x="10.82" y="267.39" class="st7" v:langID="1033"><v:paragraph v:horizAlign="1"/><v:tabList/>Goal: Find a valid  </text>		</g>
		<g id="shape99-99" v:mID="99" v:groupContext="shape" transform="translate(339.077,-203.354)">
			<title>Sheet.99</title>
			<desc>hash_index</desc>
			<v:textBlock v:margins="rect(0,0,0,0)"/>
			<v:textRect cx="37.1611" cy="263.792" width="74.33" height="14.3829"/>
			<path d="M74.32 256.6 L0 256.6 L0 270.98 L74.32 270.98 L74.32 256.6" class="st3"/>
			<text x="6.51" y="267.39" class="st7" v:langID="1033"><v:paragraph v:horizAlign="1"/><v:tabList/>hash_index</text>		</g>
		<g id="shape100-103" v:mID="100" v:groupContext="shape" transform="translate(438.135,-185.939)">
			<title>Sheet.100</title>
			<path d="M0 217.36 C0 213.8 2.91 210.89 6.48 210.89 L21.37 210.89 L21.37 210.89 L53.42 210.89 L121.77 210.89 C125.34
						 210.89 128.22 213.8 128.22 217.36 L128.22 233.48 L128.22 233.48 L128.22 243.15 L128.22 243.15 C128.22 246.72
						 125.34 249.59 121.77 249.59 L53.42 249.59 L54.75 270.98 L21.37 249.59 L6.48 249.59 C2.91 249.59 0 246.72
						 0 243.15 L0 233.48 L0 233.48 L0 217.36 Z" class="st6"/>
		</g>
		<g id="shape101-105" v:mID="101" v:groupContext="shape" transform="translate(448.763,-224.802)">
			<title>Sheet.101</title>
			<desc>Lookup Table has</desc>
			<v:textBlock v:margins="rect(0,0,0,0)"/>
			<v:textRect cx="58.6085" cy="263.792" width="117.22" height="14.3829"/>
			<path d="M117.22 256.6 L0 256.6 L0 270.98 L117.22 270.98 L117.22 256.6" class="st3"/>
			<text x="10.98" y="267.39" class="st7" v:langID="1033"><v:paragraph v:horizAlign="1"/><v:tabList/>Lookup Table has  </text>		</g>
		<g id="shape102-109" v:mID="102" v:groupContext="shape" transform="translate(484.549,-210.423)">
			<title>Sheet.102</title>
			<desc>16 bits</desc>
			<v:textBlock v:margins="rect(0,0,0,0)"/>
			<v:textRect cx="22.2166" cy="263.792" width="44.44" height="14.3829"/>
			<path d="M44.43 256.6 L0 256.6 L0 270.98 L44.43 270.98 L44.43 256.6" class="st3"/>
			<text x="4.56" y="267.39" class="st7" v:langID="1033"><v:paragraph v:horizAlign="1"/><v:tabList/>16 bits</text>		</g>
		<g id="shape103-113" v:mID="103" v:groupContext="shape" transform="translate(369.583,-90.8555)">
			<title>Sheet.103</title>
			<path d="M0 227.76 C0 222.98 3.89 219.1 8.67 219.1 L14.53 219.1 L34.47 205.09 L36.32 219.1 L78.5 219.1 C83.29 219.1 87.16
						 222.98 87.16 227.76 L87.16 227.76 L87.16 240.73 L87.16 262.34 C87.16 267.12 83.29 270.98 78.5 270.98 L36.32
						 270.98 L14.53 270.98 L14.53 270.98 L8.67 270.98 C3.89 270.98 0 267.12 0 262.34 L0 240.73 L0 227.76 L0 227.76
						 Z" class="st6"/>
		</g>
		<g id="shape104-115" v:mID="104" v:groupContext="shape" transform="translate(383.264,-114.932)">
			<title>Sheet.104</title>
			<desc>CRC32 (32</desc>
			<v:textBlock v:margins="rect(0,0,0,0)"/>
			<v:textRect cx="38.2947" cy="263.792" width="76.59" height="14.3829"/>
			<path d="M76.59 256.6 L0 256.6 L0 270.98 L76.59 270.98 L76.59 256.6" class="st3"/>
			<text x="8.33" y="267.39" class="st7" v:langID="1033"><v:paragraph v:horizAlign="1"/><v:tabList/>CRC32 (32  </text>		</g>
		<g id="shape105-119" v:mID="105" v:groupContext="shape" transform="translate(386.505,-100.553)">
			<title>Sheet.105</title>
			<desc>bit output)</desc>
			<v:textBlock v:margins="rect(0,0,0,0)"/>
			<v:textRect cx="32.5584" cy="263.792" width="65.12" height="14.3829"/>
			<path d="M65.12 256.6 L0 256.6 L0 270.98 L65.12 270.98 L65.12 256.6" class="st3"/>
			<text x="5.91" y="267.39" class="st7" v:langID="1033"><v:paragraph v:horizAlign="1"/><v:tabList/>bit output)</text>		</g>
		<g id="shape106-123" v:mID="106" v:groupContext="shape" transform="translate(313.397,-18)">
			<title>Sheet.106</title>
			<path d="M0 226.35 C0 221.43 4.02 217.42 8.94 217.42 L347.02 217.42 C351.97 217.42 355.96 221.43 355.96 226.35 L355.96
						 262.06 C355.96 267 351.97 270.98 347.02 270.98 L8.94 270.98 C4.02 270.98 0 267 0 262.06 L0 226.35 Z"
					class="st6"/>
		</g>
		<g id="shape107-125" v:mID="107" v:groupContext="shape" transform="translate(313.98,-41.963)">
			<title>Sheet.107</title>
			<desc>Goal is to find a hash_index that produces</desc>
			<v:textBlock v:margins="rect(0,0,0,0)"/>
			<v:textRect cx="177.75" cy="260.197" width="355.5" height="21.5726"/>
			<path d="M355.5 249.41 L0 249.41 L0 270.98 L355.5 270.98 L355.5 249.41" class="st3"/>
			<text x="9.88" y="265.59" class="st8" v:langID="1033"><v:paragraph v:horizAlign="1"/><v:tabList/>Goal is to find a hash_index that produces  </text>		</g>
		<g id="shape108-129" v:mID="108" v:groupContext="shape" transform="translate(318.48,-20.3939)">
			<title>Sheet.108</title>
			<desc>a lookup_table with no contradictions</desc>
			<v:textBlock v:margins="rect(0,0,0,0)"/>
			<v:textRect cx="175.5" cy="260.197" width="351" height="21.5726"/>
			<path d="M351 249.41 L0 249.41 L0 270.98 L351 270.98 L351 249.41" class="st3"/>
			<text x="28.12" y="265.59" class="st8" v:langID="1033"><v:paragraph v:horizAlign="1"/><v:tabList/>a lookup_table with no contradictions</text>		</g>
		<g id="shape109-133" v:mID="109" v:groupContext="shape" transform="translate(18,-196.244)">
			<title>Sheet.109</title>
			<path d="M0 250.22 C0 247.92 1.87 246.06 4.16 246.06 L109.18 246.06 C111.47 246.06 113.33 247.92 113.33 250.22 L113.33
						 266.83 C113.33 269.13 111.47 270.98 109.18 270.98 L4.16 270.98 C1.87 270.98 0 269.13 0 266.83 L0 250.22
						 Z" class="st1"/>
		</g>
		<g id="shape110-135" v:mID="110" v:groupContext="shape" transform="translate(29.8201,-196.244)">
			<title>Sheet.110</title>
			<path d="M0 250.22 C-0 247.92 1.67 246.06 3.73 246.06 L97.79 246.06 C99.85 246.06 101.51 247.92 101.51 250.22 L101.51
						 266.83 C101.51 269.13 99.85 270.98 97.79 270.98 L3.73 270.98 C1.67 270.98 0 269.13 0 266.83 L0 250.22 Z"
					class="st2"/>
		</g>
		<g id="shape111-137" v:mID="111" v:groupContext="shape" transform="translate(32.5663,-199.746)">
			<title>Sheet.111</title>
			<desc>Key1: Value = 0</desc>
			<v:textBlock v:margins="rect(0,0,0,0)"/>
			<v:textRect cx="50.7562" cy="263.792" width="101.52" height="14.3829"/>
			<path d="M101.51 256.6 L0 256.6 L0 270.98 L101.51 270.98 L101.51 256.6" class="st3"/>
			<text x="8.29" y="267.39" class="st4" v:langID="1033"><v:paragraph v:horizAlign="1"/><v:tabList/>Key1: Value = 0</text>		</g>
		<g id="shape112-141" v:mID="112" v:groupContext="shape" transform="translate(18,-171.44)">
			<title>Sheet.112</title>
			<path d="M0 250.22 C0 247.92 1.87 246.06 4.16 246.06 L109.18 246.06 C111.47 246.06 113.33 247.92 113.33 250.22 L113.33
						 266.83 C113.33 269.13 111.47 270.98 109.18 270.98 L4.16 270.98 C1.87 270.98 0 269.13 0 266.83 L0 250.22
						 Z" class="st1"/>
		</g>
		<g id="shape113-143" v:mID="113" v:groupContext="shape" transform="translate(29.8201,-171.44)">
			<title>Sheet.113</title>
			<path d="M0 250.22 C0 247.92 1.67 246.06 3.73 246.06 L97.79 246.06 C99.85 246.06 101.51 247.92 101.51 250.22 L101.51
						 266.83 C101.51 269.13 99.85 270.98 97.79 270.98 L3.73 270.98 C1.67 270.98 0 269.13 0 266.83 L0 250.22 Z"
					class="st2"/>
		</g>
		<g id="shape114-145" v:mID="114" v:groupContext="shape" transform="translate(32.5663,-174.923)">
			<title>Sheet.114</title>
			<desc>Key3: Value = 1</desc>
			<v:textBlock v:margins="rect(0,0,0,0)"/>
			<v:textRect cx="50.7562" cy="263.792" width="101.52" height="14.3829"/>
			<path d="M101.51 256.6 L0 256.6 L0 270.98 L101.51 270.98 L101.51 256.6" class="st3"/>
			<text x="8.29" y="267.39" class="st4" v:langID="1033"><v:paragraph v:horizAlign="1"/><v:tabList/>Key3: Value = 1</text>		</g>
		<g id="shape115-149" v:mID="115" v:groupContext="shape" transform="translate(18,-146.396)">
			<title>Sheet.115</title>
			<path d="M0 250.12 C0 247.81 1.88 245.94 4.19 245.94 L109.15 245.94 C111.46 245.94 113.33 247.81 113.33 250.12 L113.33
						 266.81 C113.33 269.12 111.46 270.98 109.15 270.98 L4.19 270.98 C1.88 270.98 0 269.12 0 266.81 L0 250.12
						 Z" class="st1"/>
		</g>
		<g id="shape116-151" v:mID="116" v:groupContext="shape" transform="translate(29.8201,-146.396)">
			<title>Sheet.116</title>
			<path d="M0 250.12 C0 247.81 1.68 245.94 3.75 245.94 L97.77 245.94 C99.84 245.94 101.51 247.81 101.51 250.12 L101.51
						 266.81 C101.51 269.12 99.84 270.98 97.77 270.98 L3.75 270.98 C1.68 270.98 0 269.12 0 266.81 L0 250.12 Z"
					class="st2"/>
		</g>
		<g id="shape117-153" v:mID="117" v:groupContext="shape" transform="translate(32.5663,-149.951)">
			<title>Sheet.117</title>
			<desc>Key4: Value = 0</desc>
			<v:textBlock v:margins="rect(0,0,0,0)"/>
			<v:textRect cx="50.7562" cy="263.792" width="101.52" height="14.3829"/>
			<path d="M101.51 256.6 L0 256.6 L0 270.98 L101.51 270.98 L101.51 256.6" class="st3"/>
			<text x="8.29" y="267.39" class="st4" v:langID="1033"><v:paragraph v:horizAlign="1"/><v:tabList/>Key4: Value = 0</text>		</g>
		<g id="shape118-157" v:mID="118" v:groupContext="shape" transform="translate(18,-121.831)">
			<title>Sheet.118</title>
			<path d="M0 250.12 C0 247.81 1.88 245.94 4.19 245.94 L109.15 245.94 C111.46 245.94 113.33 247.81 113.33 250.12 L113.33
						 266.81 C113.33 269.12 111.46 270.98 109.15 270.98 L4.19 270.98 C1.88 270.98 0 269.12 0 266.81 L0 250.12
						 Z" class="st1"/>
		</g>
		<g id="shape119-159" v:mID="119" v:groupContext="shape" transform="translate(29.8201,-121.831)">
			<title>Sheet.119</title>
			<path d="M0 250.12 C0 247.81 1.68 245.94 3.75 245.94 L97.77 245.94 C99.84 245.94 101.51 247.81 101.51 250.12 L101.51
						 266.81 C101.51 269.12 99.84 270.98 97.77 270.98 L3.75 270.98 C1.68 270.98 0 269.12 0 266.81 L0 250.12 Z"
					class="st2"/>
		</g>
		<g id="shape120-161" v:mID="120" v:groupContext="shape" transform="translate(32.5663,-125.388)">
			<title>Sheet.120</title>
			<desc>Key7: Value = 1</desc>
			<v:textBlock v:margins="rect(0,0,0,0)"/>
			<v:textRect cx="50.7562" cy="263.792" width="101.52" height="14.3829"/>
			<path d="M101.51 256.6 L0 256.6 L0 270.98 L101.51 270.98 L101.51 256.6" class="st3"/>
			<text x="8.29" y="267.39" class="st4" v:langID="1033"><v:paragraph v:horizAlign="1"/><v:tabList/>Key7: Value = 1</text>		</g>
		<g id="shape121-165" v:mID="121" v:groupContext="shape" transform="translate(140.517,-148.373)">
			<title>Sheet.121</title>
			<path d="M0 236.29 L22.75 236.29 L22.75 224.73 L45.5 247.86 L22.75 270.98 L22.75 259.42 L0 259.42 L0 236.29 Z"
					class="st6"/>
		</g>
	</g>
</svg>
