<?xml version="1.0" encoding="UTF-8" standalone="no"?>
<!DOCTYPE svg PUBLIC "-//W3C//DTD SVG 1.1//EN" "http://www.w3.org/Graphics/SVG/1.1/DTD/svg11.dtd">
<!-- Generated by Microsoft Visio, SVG Export efd_i8.svg Page-1 -->
<svg xmlns="http://www.w3.org/2000/svg" xmlns:xlink="http://www.w3.org/1999/xlink" xmlns:ev="http://www.w3.org/2001/xml-events"
		xmlns:v="http://schemas.microsoft.com/visio/2003/SVGExtensions/" width="10.6168in" height="4.81965in"
		viewBox="0 0 764.409 347.015" xml:space="preserve" color-interpolation-filters="sRGB" class="st27">
	<v:documentProperties v:langID="1033" v:viewMarkup="false">
		<v:userDefs>
			<v:ud v:nameU="msvSubprocessMaster" v:prompt="" v:val="VT4(Rectangle)"/>
			<v:ud v:nameU="msvNoAutoConnect" v:val="VT0(1):26"/>
		</v:userDefs>
	</v:documentProperties>

	<style type="text/css">
	<![CDATA[
		.st1 {fill:#ffffff;stroke:none;stroke-linecap:round;stroke-linejoin:round;stroke-width:0.75}
		.st2 {fill:none;stroke:#00aeef;stroke-linecap:round;stroke-linejoin:round;stroke-width:2.03901}
		.st3 {stroke:none;stroke-linecap:round;stroke-linejoin:round;stroke-width:0.75}
		.st4 {fill:#000000;font-family:Intel Clear;font-size:0.998566em}
		.st5 {fill:#0071c5;stroke:none;stroke-linecap:round;stroke-linejoin:round;stroke-width:0.75}
		.st6 {stroke:#00b050;stroke-linecap:round;stroke-linejoin:round;stroke-width:2.03901}
		.st7 {stroke:#004280;stroke-linecap:round;stroke-linejoin:round;stroke-width:2.03901}
		.st8 {stroke:#ca8f02;stroke-linecap:round;stroke-linejoin:round;stroke-width:2.03901}
		.st9 {stroke:#00aeef;stroke-linecap:round;stroke-linejoin:round;stroke-width:2.03901}
		.st10 {fill:#c00000;font-family:Intel Clear;font-size:0.828804em;font-weight:bold}
		.st11 {fill:#7f6d00;font-family:Intel Clear;font-size:0.828804em;font-weight:bold}
		.st12 {fill:#00b050;stroke:#00b050;stroke-linecap:round;stroke-linejoin:round;stroke-width:0.0149927}
		.st13 {fill:#004280;stroke:#004280;stroke-linecap:round;stroke-linejoin:round;stroke-width:0.0149927}
		.st14 {fill:#00b050;stroke:#00b050;stroke-linecap:round;stroke-linejoin:round;stroke-width:0.0299855}
		.st15 {fill:#ca8f02;stroke:#ca8f02;stroke-linecap:round;stroke-linejoin:round;stroke-width:0.0299855}
		.st16 {fill:#004280;font-family:Intel Clear;font-size:0.828804em}
		.st17 {fill:#ffffff;font-family:Intel Clear;font-size:0.998566em}
		.st18 {fill:#ffffff;font-family:Intel Clear;font-size:1.49785em}
		.st19 {visibility:visible}
		.st20 {fill:#5b9bd5;fill-opacity:0.22;filter:url(#filter_2);stroke:#5b9bd5;stroke-opacity:0.22}
		.st21 {fill:#5b9bd5;stroke:#c7c8c8;stroke-width:0.25}
		.st22 {fill:#feffff;font-family:Symbol;font-size:1.16666em}
		.st23 {font-size:1em}
		.st24 {font-family:Calibri;font-size:1em}
		.st25 {fill:none;stroke:none;stroke-width:0.25}
		.st26 {fill:#ffffff;font-family:Calibri;font-size:1.00001em}
		.st27 {fill:none;fill-rule:evenodd;font-size:12px;overflow:visible;stroke-linecap:square;stroke-miterlimit:3}
	]]>
	</style>

	<defs id="Filters">
		<filter id="filter_2">
			<feGaussianBlur stdDeviation="2"/>
		</filter>
	</defs>
	<g v:mID="0" v:index="1" v:groupContext="foregroundPage">
		<v:userDefs>
			<v:ud v:nameU="msvThemeOrder" v:val="VT0(0):26"/>
		</v:userDefs>
		<title>Page-1</title>
		<v:pageProperties v:drawingScale="1" v:pageScale="1" v:drawingUnits="0" v:shadowOffsetX="9" v:shadowOffsetY="-9"/>
		<g id="shape3-1" v:mID="3" v:groupContext="shape" transform="translate(27.7836,-307.505)">
			<title>Sheet.3</title>
			<path d="M0 329.94 C-0 328.06 1.54 326.52 3.42 326.52 L68.49 326.52 C70.38 326.52 71.91 328.06 71.91 329.94 L71.91 343.6
						 C71.91 345.49 70.38 347.02 68.49 347.02 L3.42 347.02 C1.54 347.02 0 345.49 0 343.6 L0 329.94 Z"
					class="st1"/>
		</g>
		<g id="shape4-3" v:mID="4" v:groupContext="shape" transform="translate(27.7836,-307.505)">
			<title>Sheet.4</title>
			<path d="M0 329.94 C-0 328.06 1.54 326.52 3.42 326.52 L68.49 326.52 C70.38 326.52 71.91 328.06 71.91 329.94 L71.91 343.6
						 C71.91 345.49 70.38 347.02 68.49 347.02 L3.42 347.02 C1.54 347.02 0 345.49 0 343.6 L0 329.94 Z"
					class="st2"/>
		</g>
		<g id="shape5-5" v:mID="5" v:groupContext="shape" transform="translate(50.1544,-309.121)">
			<title>Sheet.5</title>
			<desc>Key1</desc>
			<v:textBlock v:margins="rect(0,0,0,0)"/>
			<v:textRect cx="17.3237" cy="339.824" width="34.65" height="14.3829"/>
			<path d="M34.65 332.63 L0 332.63 L0 347.02 L34.65 347.02 L34.65 332.63" class="st3"/>
			<text x="3.72" y="343.42" class="st4" v:langID="1033"><v:paragraph v:horizAlign="1"/><v:tabList/>Key1</text>		</g>
		<g id="shape6-9" v:mID="6" v:groupContext="shape" transform="translate(43.6909,-286.954)">
			<title>Sheet.6</title>
			<path d="M0 336.65 L9.81 336.65 L9.81 326.28 L29.44 326.28 L29.44 336.65 L39.26 336.65 L19.63 347.02 L0 336.65 Z"
					class="st5"/>
		</g>
		<g id="shape7-11" v:mID="7" v:groupContext="shape" transform="translate(27.7836,-266.044)">
			<title>Sheet.7</title>
			<path d="M0 330.04 C0 328.16 1.52 326.64 3.41 326.64 L68.51 326.64 C70.4 326.64 71.91 328.16 71.91 330.04 L71.91 343.62
						 C71.91 345.49 70.4 347.02 68.51 347.02 L3.41 347.02 C1.52 347.02 0 345.49 0 343.62 L0 330.04 Z"
					class="st1"/>
		</g>
		<g id="shape8-13" v:mID="8" v:groupContext="shape" transform="translate(27.7836,-266.044)">
			<title>Sheet.8</title>
			<path d="M0 330.04 C0 328.16 1.52 326.64 3.41 326.64 L68.51 326.64 C70.4 326.64 71.91 328.16 71.91 330.04 L71.91 343.62
						 C71.91 345.49 70.4 347.02 68.51 347.02 L3.41 347.02 C1.52 347.02 0 345.49 0 343.62 L0 330.04 Z"
					class="st2"/>
		</g>
		<g id="shape9-15" v:mID="9" v:groupContext="shape" transform="translate(50.7572,-267.602)">
			<title>Sheet.9</title>
			<desc>hash</desc>
			<v:textBlock v:margins="rect(0,0,0,0)"/>
			<v:textRect cx="16.5866" cy="339.824" width="33.18" height="14.3829"/>
			<path d="M33.17 332.63 L0 332.63 L0 347.02 L33.17 347.02 L33.17 332.63" class="st3"/>
			<text x="3.63" y="343.42" class="st4" v:langID="1033"><v:paragraph v:horizAlign="1"/><v:tabList/>hash</text>		</g>
		<g id="shape10-19" v:mID="10" v:groupContext="shape" transform="translate(19.0195,-225.183)">
			<title>Sheet.10</title>
			<path d="M0 330.74 C0 328.94 1.46 327.48 3.26 327.48 L87.15 327.48 C88.95 327.48 90.4 328.94 90.4 330.74 L90.4 343.76
						 C90.4 345.56 88.95 347.02 87.15 347.02 L3.26 347.02 C1.46 347.02 0 345.56 0 343.76 L0 330.74 Z"
					class="st1"/>
		</g>
		<g id="shape11-21" v:mID="11" v:groupContext="shape" transform="translate(19.0195,-225.183)">
			<title>Sheet.11</title>
			<path d="M0 330.74 C0 328.94 1.46 327.48 3.26 327.48 L87.15 327.48 C88.95 327.48 90.4 328.94 90.4 330.74 L90.4 343.76
						 C90.4 345.56 88.95 347.02 87.15 347.02 L3.26 347.02 C1.46 347.02 0 345.56 0 343.76 L0 330.74 Z"
					class="st2"/>
		</g>
		<g id="shape12-23" v:mID="12" v:groupContext="shape" transform="translate(28.0373,-226.287)">
			<title>Sheet.12</title>
			<desc>0x0102ABCD</desc>
			<v:textBlock v:margins="rect(0,0,0,0)"/>
			<v:textRect cx="43.3615" cy="339.824" width="86.73" height="14.3829"/>
			<path d="M86.72 332.63 L0 332.63 L0 347.02 L86.72 347.02 L86.72 332.63" class="st3"/>
			<text x="7.12" y="343.42" class="st4" v:langID="1033"><v:paragraph v:horizAlign="1"/><v:tabList/>0x0102ABCD</text>		</g>
		<g id="shape13-27" v:mID="13" v:groupContext="shape" transform="translate(43.6909,-244.775)">
			<title>Sheet.13</title>
			<path d="M0 336.71 L9.81 336.71 L9.81 326.4 L29.44 326.4 L29.44 336.71 L39.26 336.71 L19.63 347.02 L0 336.71 Z"
					class="st5"/>
		</g>
		<g id="shape14-29" v:mID="14" v:groupContext="shape" transform="translate(40.7496,-210.444)">
			<title>Sheet.14</title>
			<path d="M26.29 334.91 C26.29 338.26 25.84 340.96 25.29 340.96 L14.16 340.96 C13.6 340.96 13.15 343.67 13.15 347.02 C13.15
						 343.67 12.7 340.96 12.14 340.96 L1.01 340.96 C0.46 340.96 0 338.26 0 334.91" class="st6"/>
		</g>
		<g id="shape15-32" v:mID="15" v:groupContext="shape" transform="translate(125.629,-307.625)">
			<title>Sheet.15</title>
			<path d="M0 330.04 C0 328.16 1.52 326.64 3.41 326.64 L68.63 326.64 C70.51 326.64 72.03 328.16 72.03 330.04 L72.03 343.62
						 C72.03 345.49 70.51 347.02 68.63 347.02 L3.41 347.02 C1.52 347.02 0 345.49 0 343.62 L0 330.04 Z"
					class="st1"/>
		</g>
		<g id="shape16-34" v:mID="16" v:groupContext="shape" transform="translate(125.629,-307.625)">
			<title>Sheet.16</title>
			<path d="M0 330.04 C0 328.16 1.52 326.64 3.41 326.64 L68.63 326.64 C70.51 326.64 72.03 328.16 72.03 330.04 L72.03 343.62
						 C72.03 345.49 70.51 347.02 68.63 347.02 L3.41 347.02 C1.52 347.02 0 345.49 0 343.62 L0 330.04 Z"
					class="st2"/>
		</g>
		<g id="shape17-36" v:mID="17" v:groupContext="shape" transform="translate(148.034,-309.155)">
			<title>Sheet.17</title>
			<desc>Key2</desc>
			<v:textBlock v:margins="rect(0,0,0,0)"/>
			<v:textRect cx="17.3237" cy="339.824" width="34.65" height="14.3829"/>
			<path d="M34.65 332.63 L0 332.63 L0 347.02 L34.65 347.02 L34.65 332.63" class="st3"/>
			<text x="3.72" y="343.42" class="st4" v:langID="1033"><v:paragraph v:horizAlign="1"/><v:tabList/>Key2</text>		</g>
		<g id="shape18-40" v:mID="18" v:groupContext="shape" transform="translate(141.536,-286.954)">
			<title>Sheet.18</title>
			<path d="M0 336.65 L9.81 336.65 L9.81 326.28 L29.44 326.28 L29.44 336.65 L39.26 336.65 L19.63 347.02 L0 336.65 Z"
					class="st5"/>
		</g>
		<g id="shape19-42" v:mID="19" v:groupContext="shape" transform="translate(125.629,-266.044)">
			<title>Sheet.19</title>
			<path d="M0 329.94 C0 328.06 1.54 326.52 3.42 326.52 L68.61 326.52 C70.5 326.52 72.03 328.06 72.03 329.94 L72.03 343.6
						 C72.03 345.49 70.5 347.02 68.61 347.02 L3.42 347.02 C1.54 347.02 0 345.49 0 343.6 L0 329.94 Z" class="st1"/>
		</g>
		<g id="shape20-44" v:mID="20" v:groupContext="shape" transform="translate(125.629,-266.044)">
			<title>Sheet.20</title>
			<path d="M0 329.94 C0 328.06 1.54 326.52 3.42 326.52 L68.61 326.52 C70.5 326.52 72.03 328.06 72.03 329.94 L72.03 343.6
						 C72.03 345.49 70.5 347.02 68.61 347.02 L3.42 347.02 C1.54 347.02 0 345.49 0 343.6 L0 329.94 Z" class="st2"/>
		</g>
		<g id="shape21-46" v:mID="21" v:groupContext="shape" transform="translate(148.636,-267.636)">
			<title>Sheet.21</title>
			<desc>hash</desc>
			<v:textBlock v:margins="rect(0,0,0,0)"/>
			<v:textRect cx="16.5866" cy="339.824" width="33.18" height="14.3829"/>
			<path d="M33.17 332.63 L0 332.63 L0 347.02 L33.17 347.02 L33.17 332.63" class="st3"/>
			<text x="3.63" y="343.42" class="st4" v:langID="1033"><v:paragraph v:horizAlign="1"/><v:tabList/>hash</text>		</g>
		<g id="shape22-50" v:mID="22" v:groupContext="shape" transform="translate(116.865,-225.183)">
			<title>Sheet.22</title>
			<path d="M0 330.74 C0 328.94 1.46 327.48 3.26 327.48 L87.15 327.48 C88.95 327.48 90.4 328.94 90.4 330.74 L90.4 343.76
						 C90.4 345.56 88.95 347.02 87.15 347.02 L3.26 347.02 C1.46 347.02 0 345.56 0 343.76 L0 330.74 Z"
					class="st1"/>
		</g>
		<g id="shape23-52" v:mID="23" v:groupContext="shape" transform="translate(116.865,-225.183)">
			<title>Sheet.23</title>
			<path d="M0 330.74 C0 328.94 1.46 327.48 3.26 327.48 L87.15 327.48 C88.95 327.48 90.4 328.94 90.4 330.74 L90.4 343.76
						 C90.4 345.56 88.95 347.02 87.15 347.02 L3.26 347.02 C1.46 347.02 0 345.56 0 343.76 L0 330.74 Z"
					class="st2"/>
		</g>
		<g id="shape24-54" v:mID="24" v:groupContext="shape" transform="translate(125.917,-226.322)">
			<title>Sheet.24</title>
			<desc>0x0103CDAB</desc>
			<v:textBlock v:margins="rect(0,0,0,0)"/>
			<v:textRect cx="43.3615" cy="339.824" width="86.73" height="14.3829"/>
			<path d="M86.72 332.63 L0 332.63 L0 347.02 L86.72 347.02 L86.72 332.63" class="st3"/>
			<text x="7.12" y="343.42" class="st4" v:langID="1033"><v:paragraph v:horizAlign="1"/><v:tabList/>0x0103CDAB</text>		</g>
		<g id="shape25-58" v:mID="25" v:groupContext="shape" transform="translate(141.536,-244.775)">
			<title>Sheet.25</title>
			<path d="M0 336.71 L9.81 336.71 L9.81 326.4 L29.44 326.4 L29.44 336.71 L39.26 336.71 L19.63 347.02 L0 336.71 Z"
					class="st5"/>
		</g>
		<g id="shape26-60" v:mID="26" v:groupContext="shape" transform="translate(138.595,-210.444)">
			<title>Sheet.26</title>
			<path d="M26.29 334.91 C26.29 338.26 25.84 340.96 25.29 340.96 L14.16 340.96 C13.6 340.96 13.15 343.67 13.15 347.02 C13.15
						 343.67 12.7 340.96 12.14 340.96 L1.01 340.96 C0.46 340.96 0 338.26 0 334.91" class="st7"/>
		</g>
		<g id="shape27-63" v:mID="27" v:groupContext="shape" transform="translate(221.793,-307.625)">
			<title>Sheet.27</title>
			<path d="M0 330.04 C0 328.17 1.53 326.64 3.41 326.64 L68.64 326.64 C70.52 326.64 72.03 328.17 72.03 330.04 L72.03 343.63
						 C72.03 345.5 70.52 347.02 68.64 347.02 L3.41 347.02 C1.53 347.02 0 345.5 0 343.63 L0 330.04 Z" class="st1"/>
		</g>
		<g id="shape28-65" v:mID="28" v:groupContext="shape" transform="translate(221.793,-307.625)">
			<title>Sheet.28</title>
			<path d="M0 330.04 C0 328.17 1.53 326.64 3.41 326.64 L68.64 326.64 C70.52 326.64 72.03 328.17 72.03 330.04 L72.03 343.63
						 C72.03 345.5 70.52 347.02 68.64 347.02 L3.41 347.02 C1.53 347.02 0 345.5 0 343.63 L0 330.04 Z" class="st2"/>
		</g>
		<g id="shape29-67" v:mID="29" v:groupContext="shape" transform="translate(244.237,-309.155)">
			<title>Sheet.29</title>
			<desc>Key3</desc>
			<v:textBlock v:margins="rect(0,0,0,0)"/>
			<v:textRect cx="17.3237" cy="339.824" width="34.65" height="14.3829"/>
			<path d="M34.65 332.63 L0 332.63 L0 347.02 L34.65 347.02 L34.65 332.63" class="st3"/>
			<text x="3.72" y="343.42" class="st4" v:langID="1033"><v:paragraph v:horizAlign="1"/><v:tabList/>Key3</text>		</g>
		<g id="shape30-71" v:mID="30" v:groupContext="shape" transform="translate(237.701,-286.954)">
			<title>Sheet.30</title>
			<path d="M0 336.65 L9.84 336.65 L9.84 326.28 L29.53 326.28 L29.53 336.65 L39.38 336.65 L19.69 347.02 L0 336.65 Z"
					class="st5"/>
		</g>
		<g id="shape31-73" v:mID="31" v:groupContext="shape" transform="translate(221.793,-266.044)">
			<title>Sheet.31</title>
			<path d="M0 329.94 C-0 328.07 1.55 326.52 3.42 326.52 L68.61 326.52 C70.5 326.52 72.03 328.07 72.03 329.94 L72.03 343.6
						 C72.03 345.49 70.5 347.02 68.61 347.02 L3.42 347.02 C1.55 347.02 0 345.49 0 343.6 L0 329.94 Z" class="st1"/>
		</g>
		<g id="shape32-75" v:mID="32" v:groupContext="shape" transform="translate(221.793,-266.044)">
			<title>Sheet.32</title>
			<path d="M0 329.94 C-0 328.07 1.55 326.52 3.42 326.52 L68.61 326.52 C70.5 326.52 72.03 328.07 72.03 329.94 L72.03 343.6
						 C72.03 345.49 70.5 347.02 68.61 347.02 L3.42 347.02 C1.55 347.02 0 345.49 0 343.6 L0 329.94 Z" class="st2"/>
		</g>
		<g id="shape33-77" v:mID="33" v:groupContext="shape" transform="translate(244.84,-267.636)">
			<title>Sheet.33</title>
			<desc>hash</desc>
			<v:textBlock v:margins="rect(0,0,0,0)"/>
			<v:textRect cx="16.5866" cy="339.824" width="33.18" height="14.3829"/>
			<path d="M33.17 332.63 L0 332.63 L0 347.02 L33.17 347.02 L33.17 332.63" class="st3"/>
			<text x="3.63" y="343.42" class="st4" v:langID="1033"><v:paragraph v:horizAlign="1"/><v:tabList/>hash</text>		</g>
		<g id="shape34-81" v:mID="34" v:groupContext="shape" transform="translate(213.029,-225.183)">
			<title>Sheet.34</title>
			<path d="M0 330.75 C0 328.95 1.47 327.48 3.27 327.48 L87.27 327.48 C89.07 327.48 90.52 328.95 90.52 330.75 L90.52 343.76
						 C90.52 345.56 89.07 347.02 87.27 347.02 L3.27 347.02 C1.47 347.02 0 345.56 0 343.76 L0 330.75 Z"
					class="st1"/>
		</g>
		<g id="shape35-83" v:mID="35" v:groupContext="shape" transform="translate(213.029,-225.183)">
			<title>Sheet.35</title>
			<path d="M0 330.75 C0 328.95 1.47 327.48 3.27 327.48 L87.27 327.48 C89.07 327.48 90.52 328.95 90.52 330.75 L90.52 343.76
						 C90.52 345.56 89.07 347.02 87.27 347.02 L3.27 347.02 C1.47 347.02 0 345.56 0 343.76 L0 330.75 Z"
					class="st2"/>
		</g>
		<g id="shape36-85" v:mID="36" v:groupContext="shape" transform="translate(222.002,-226.322)">
			<title>Sheet.36</title>
			<desc>0x0102BAAD</desc>
			<v:textBlock v:margins="rect(0,0,0,0)"/>
			<v:textRect cx="43.4787" cy="339.824" width="86.96" height="14.3829"/>
			<path d="M86.96 332.63 L0 332.63 L0 347.02 L86.96 347.02 L86.96 332.63" class="st3"/>
			<text x="7.13" y="343.42" class="st4" v:langID="1033"><v:paragraph v:horizAlign="1"/><v:tabList/>0x0102BAAD</text>		</g>
		<g id="shape37-89" v:mID="37" v:groupContext="shape" transform="translate(237.701,-244.775)">
			<title>Sheet.37</title>
			<path d="M0 336.71 L9.84 336.71 L9.84 326.4 L29.53 326.4 L29.53 336.71 L39.38 336.71 L19.69 347.02 L0 336.71 Z"
					class="st5"/>
		</g>
		<g id="shape38-91" v:mID="38" v:groupContext="shape" transform="translate(234.759,-210.444)">
			<title>Sheet.38</title>
			<path d="M26.41 334.91 C26.41 338.26 25.96 340.96 25.41 340.96 L14.22 340.96 C13.66 340.96 13.21 343.67 13.21 347.02
						 C13.21 343.67 12.76 340.96 12.2 340.96 L1.01 340.96 C0.46 340.96 0 338.26 0 334.91" class="st6"/>
		</g>
		<g id="shape39-94" v:mID="39" v:groupContext="shape" transform="translate(319.759,-307.625)">
			<title>Sheet.39</title>
			<path d="M0 330.04 C0 328.17 1.53 326.64 3.41 326.64 L68.52 326.64 C70.4 326.64 71.91 328.17 71.91 330.04 L71.91 343.63
						 C71.91 345.5 70.4 347.02 68.52 347.02 L3.41 347.02 C1.53 347.02 0 345.5 0 343.63 L0 330.04 Z" class="st1"/>
		</g>
		<g id="shape40-96" v:mID="40" v:groupContext="shape" transform="translate(319.759,-307.625)">
			<title>Sheet.40</title>
			<path d="M0 330.04 C0 328.17 1.53 326.64 3.41 326.64 L68.52 326.64 C70.4 326.64 71.91 328.17 71.91 330.04 L71.91 343.63
						 C71.91 345.5 70.4 347.02 68.52 347.02 L3.41 347.02 C1.53 347.02 0 345.5 0 343.63 L0 330.04 Z" class="st2"/>
		</g>
		<g id="shape41-98" v:mID="41" v:groupContext="shape" transform="translate(342.125,-309.155)">
			<title>Sheet.41</title>
			<desc>Key4</desc>
			<v:textBlock v:margins="rect(0,0,0,0)"/>
			<v:textRect cx="17.3237" cy="339.824" width="34.65" height="14.3829"/>
			<path d="M34.65 332.63 L0 332.63 L0 347.02 L34.65 347.02 L34.65 332.63" class="st3"/>
			<text x="3.72" y="343.42" class="st4" v:langID="1033"><v:paragraph v:horizAlign="1"/><v:tabList/>Key4</text>		</g>
		<g id="shape42-102" v:mID="42" v:groupContext="shape" transform="translate(335.666,-286.954)">
			<title>Sheet.42</title>
			<path d="M0 336.65 L9.81 336.65 L9.81 326.28 L29.44 326.28 L29.44 336.65 L39.26 336.65 L19.63 347.02 L0 336.65 Z"
					class="st5"/>
		</g>
		<g id="shape43-104" v:mID="43" v:groupContext="shape" transform="translate(319.759,-266.044)">
			<title>Sheet.43</title>
			<path d="M0 329.94 C0 328.07 1.55 326.52 3.42 326.52 L68.49 326.52 C70.38 326.52 71.91 328.07 71.91 329.94 L71.91 343.6
						 C71.91 345.49 70.38 347.02 68.49 347.02 L3.42 347.02 C1.55 347.02 0 345.49 0 343.6 L0 329.94 Z"
					class="st1"/>
		</g>
		<g id="shape44-106" v:mID="44" v:groupContext="shape" transform="translate(319.759,-266.044)">
			<title>Sheet.44</title>
			<path d="M0 329.94 C0 328.07 1.55 326.52 3.42 326.52 L68.49 326.52 C70.38 326.52 71.91 328.07 71.91 329.94 L71.91 343.6
						 C71.91 345.49 70.38 347.02 68.49 347.02 L3.42 347.02 C1.55 347.02 0 345.49 0 343.6 L0 329.94 Z"
					class="st2"/>
		</g>
		<g id="shape45-108" v:mID="45" v:groupContext="shape" transform="translate(342.728,-267.636)">
			<title>Sheet.45</title>
			<desc>hash</desc>
			<v:textBlock v:margins="rect(0,0,0,0)"/>
			<v:textRect cx="16.5866" cy="339.824" width="33.18" height="14.3829"/>
			<path d="M33.17 332.63 L0 332.63 L0 347.02 L33.17 347.02 L33.17 332.63" class="st3"/>
			<text x="3.63" y="343.42" class="st4" v:langID="1033"><v:paragraph v:horizAlign="1"/><v:tabList/>hash</text>		</g>
		<g id="shape46-112" v:mID="46" v:groupContext="shape" transform="translate(310.995,-225.183)">
			<title>Sheet.46</title>
			<path d="M0 330.75 C0 328.95 1.47 327.48 3.27 327.48 L87.15 327.48 C88.95 327.48 90.4 328.95 90.4 330.75 L90.4 343.76
						 C90.4 345.56 88.95 347.02 87.15 347.02 L3.27 347.02 C1.47 347.02 0 345.56 0 343.76 L0 330.75 Z"
					class="st1"/>
		</g>
		<g id="shape47-114" v:mID="47" v:groupContext="shape" transform="translate(310.995,-225.183)">
			<title>Sheet.47</title>
			<path d="M0 330.75 C0 328.95 1.47 327.48 3.27 327.48 L87.15 327.48 C88.95 327.48 90.4 328.95 90.4 330.75 L90.4 343.76
						 C90.4 345.56 88.95 347.02 87.15 347.02 L3.27 347.02 C1.47 347.02 0 345.56 0 343.76 L0 330.75 Z"
					class="st2"/>
		</g>
		<g id="shape48-116" v:mID="48" v:groupContext="shape" transform="translate(321.689,-226.322)">
			<title>Sheet.48</title>
			<desc>0x0104BEEF</desc>
			<v:textBlock v:margins="rect(0,0,0,0)"/>
			<v:textRect cx="41.4183" cy="339.824" width="82.84" height="14.3829"/>
			<path d="M82.84 332.63 L0 332.63 L0 347.02 L82.84 347.02 L82.84 332.63" class="st3"/>
			<text x="6.87" y="343.42" class="st4" v:langID="1033"><v:paragraph v:horizAlign="1"/><v:tabList/>0x0104BEEF</text>		</g>
		<g id="shape49-120" v:mID="49" v:groupContext="shape" transform="translate(335.666,-244.775)">
			<title>Sheet.49</title>
			<path d="M0 336.71 L9.81 336.71 L9.81 326.4 L29.44 326.4 L29.44 336.71 L39.26 336.71 L19.63 347.02 L0 336.71 Z"
					class="st5"/>
		</g>
		<g id="shape50-122" v:mID="50" v:groupContext="shape" transform="translate(332.725,-210.444)">
			<title>Sheet.50</title>
			<path d="M26.29 334.91 C26.29 338.27 25.84 340.96 25.29 340.96 L14.17 340.96 C13.61 340.96 13.15 343.67 13.15 347.02
						 C13.15 343.67 12.7 340.96 12.14 340.96 L1.02 340.96 C0.47 340.96 0 338.27 0 334.91" class="st6"/>
		</g>
		<g id="shape51-125" v:mID="51" v:groupContext="shape" transform="translate(416.884,-307.625)">
			<title>Sheet.51</title>
			<path d="M0 330.04 C0 328.17 1.53 326.64 3.41 326.64 L68.52 326.64 C70.4 326.64 71.91 328.17 71.91 330.04 L71.91 343.63
						 C71.91 345.5 70.4 347.02 68.52 347.02 L3.41 347.02 C1.53 347.02 0 345.5 0 343.63 L0 330.04 Z" class="st1"/>
		</g>
		<g id="shape52-127" v:mID="52" v:groupContext="shape" transform="translate(416.884,-307.625)">
			<title>Sheet.52</title>
			<path d="M0 330.04 C0 328.17 1.53 326.64 3.41 326.64 L68.52 326.64 C70.4 326.64 71.91 328.17 71.91 330.04 L71.91 343.63
						 C71.91 345.5 70.4 347.02 68.52 347.02 L3.41 347.02 C1.53 347.02 0 345.5 0 343.63 L0 330.04 Z" class="st2"/>
		</g>
		<g id="shape53-129" v:mID="53" v:groupContext="shape" transform="translate(439.255,-309.155)">
			<title>Sheet.53</title>
			<desc>Key5</desc>
			<v:textBlock v:margins="rect(0,0,0,0)"/>
			<v:textRect cx="17.3237" cy="339.824" width="34.65" height="14.3829"/>
			<path d="M34.65 332.63 L0 332.63 L0 347.02 L34.65 347.02 L34.65 332.63" class="st3"/>
			<text x="3.72" y="343.42" class="st4" v:langID="1033"><v:paragraph v:horizAlign="1"/><v:tabList/>Key5</text>		</g>
		<g id="shape54-133" v:mID="54" v:groupContext="shape" transform="translate(432.791,-286.954)">
			<title>Sheet.54</title>
			<path d="M0 336.65 L9.81 336.65 L9.81 326.28 L29.44 326.28 L29.44 336.65 L39.26 336.65 L19.63 347.02 L0 336.65 Z"
					class="st5"/>
		</g>
		<g id="shape55-135" v:mID="55" v:groupContext="shape" transform="translate(416.884,-266.044)">
			<title>Sheet.55</title>
			<path d="M0 329.94 C0 328.07 1.55 326.52 3.42 326.52 L68.49 326.52 C70.38 326.52 71.91 328.07 71.91 329.94 L71.91 343.6
						 C71.91 345.49 70.38 347.02 68.49 347.02 L3.42 347.02 C1.55 347.02 0 345.49 0 343.6 L0 329.94 Z"
					class="st1"/>
		</g>
		<g id="shape56-137" v:mID="56" v:groupContext="shape" transform="translate(416.884,-266.044)">
			<title>Sheet.56</title>
			<path d="M0 329.94 C0 328.07 1.55 326.52 3.42 326.52 L68.49 326.52 C70.38 326.52 71.91 328.07 71.91 329.94 L71.91 343.6
						 C71.91 345.49 70.38 347.02 68.49 347.02 L3.42 347.02 C1.55 347.02 0 345.49 0 343.6 L0 329.94 Z"
					class="st2"/>
		</g>
		<g id="shape57-139" v:mID="57" v:groupContext="shape" transform="translate(439.858,-267.636)">
			<title>Sheet.57</title>
			<desc>hash</desc>
			<v:textBlock v:margins="rect(0,0,0,0)"/>
			<v:textRect cx="16.5866" cy="339.824" width="33.18" height="14.3829"/>
			<path d="M33.17 332.63 L0 332.63 L0 347.02 L33.17 347.02 L33.17 332.63" class="st3"/>
			<text x="3.63" y="343.42" class="st4" v:langID="1033"><v:paragraph v:horizAlign="1"/><v:tabList/>hash</text>		</g>
		<g id="shape58-143" v:mID="58" v:groupContext="shape" transform="translate(408.12,-225.183)">
			<title>Sheet.58</title>
			<path d="M0 330.75 C0 328.95 1.47 327.48 3.27 327.48 L87.15 327.48 C88.95 327.48 90.4 328.95 90.4 330.75 L90.4 343.76
						 C90.4 345.56 88.95 347.02 87.15 347.02 L3.27 347.02 C1.47 347.02 0 345.56 0 343.76 L0 330.75 Z"
					class="st1"/>
		</g>
		<g id="shape59-145" v:mID="59" v:groupContext="shape" transform="translate(408.12,-225.183)">
			<title>Sheet.59</title>
			<path d="M0 330.75 C0 328.95 1.47 327.48 3.27 327.48 L87.15 327.48 C88.95 327.48 90.4 328.95 90.4 330.75 L90.4 343.76
						 C90.4 345.56 88.95 347.02 87.15 347.02 L3.27 347.02 C1.47 347.02 0 345.56 0 343.76 L0 330.75 Z"
					class="st2"/>
		</g>
		<g id="shape60-147" v:mID="60" v:groupContext="shape" transform="translate(416.778,-226.322)">
			<title>Sheet.60</title>
			<desc>0x0103DABD</desc>
			<v:textBlock v:margins="rect(0,0,0,0)"/>
			<v:textRect cx="43.7817" cy="339.824" width="87.57" height="14.3829"/>
			<path d="M87.56 332.63 L0 332.63 L0 347.02 L87.56 347.02 L87.56 332.63" class="st3"/>
			<text x="7.17" y="343.42" class="st4" v:langID="1033"><v:paragraph v:horizAlign="1"/><v:tabList/>0x0103DABD</text>		</g>
		<g id="shape61-151" v:mID="61" v:groupContext="shape" transform="translate(432.791,-244.775)">
			<title>Sheet.61</title>
			<path d="M0 336.71 L9.81 336.71 L9.81 326.4 L29.44 326.4 L29.44 336.71 L39.26 336.71 L19.63 347.02 L0 336.71 Z"
					class="st5"/>
		</g>
		<g id="shape62-153" v:mID="62" v:groupContext="shape" transform="translate(429.85,-210.444)">
			<title>Sheet.62</title>
			<path d="M26.29 334.91 C26.29 338.27 25.84 340.96 25.29 340.96 L14.17 340.96 C13.61 340.96 13.15 343.67 13.15 347.02
						 C13.15 343.67 12.7 340.96 12.14 340.96 L1.02 340.96 C0.47 340.96 0 338.27 0 334.91" class="st7"/>
		</g>
		<g id="shape63-156" v:mID="63" v:groupContext="shape" transform="translate(514.489,-307.625)">
			<title>Sheet.63</title>
			<path d="M0 330.06 C-0 328.17 1.53 326.64 3.42 326.64 L68.64 326.64 C70.53 326.64 72.03 328.17 72.03 330.06 L72.03 343.63
						 C72.03 345.52 70.53 347.02 68.64 347.02 L3.42 347.02 C1.53 347.02 0 345.52 0 343.63 L0 330.06 Z"
					class="st1"/>
		</g>
		<g id="shape64-158" v:mID="64" v:groupContext="shape" transform="translate(514.489,-307.625)">
			<title>Sheet.64</title>
			<path d="M0 330.06 C-0 328.17 1.53 326.64 3.42 326.64 L68.64 326.64 C70.53 326.64 72.03 328.17 72.03 330.06 L72.03 343.63
						 C72.03 345.52 70.53 347.02 68.64 347.02 L3.42 347.02 C1.53 347.02 0 345.52 0 343.63 L0 330.06 Z"
					class="st2"/>
		</g>
		<g id="shape65-160" v:mID="65" v:groupContext="shape" transform="translate(536.883,-309.19)">
			<title>Sheet.65</title>
			<desc>Key6</desc>
			<v:textBlock v:margins="rect(0,0,0,0)"/>
			<v:textRect cx="17.3237" cy="339.824" width="34.65" height="14.3829"/>
			<path d="M34.65 332.63 L0 332.63 L0 347.02 L34.65 347.02 L34.65 332.63" class="st3"/>
			<text x="3.72" y="343.42" class="st4" v:langID="1033"><v:paragraph v:horizAlign="1"/><v:tabList/>Key6</text>		</g>
		<g id="shape66-164" v:mID="66" v:groupContext="shape" transform="translate(530.396,-287.074)">
			<title>Sheet.66</title>
			<path d="M0 336.71 L9.81 336.71 L9.81 326.4 L29.44 326.4 L29.44 336.71 L39.26 336.71 L19.63 347.02 L0 336.71 Z"
					class="st5"/>
		</g>
		<g id="shape67-166" v:mID="67" v:groupContext="shape" transform="translate(514.489,-266.044)">
			<title>Sheet.67</title>
			<path d="M0 329.94 C0 328.08 1.56 326.52 3.42 326.52 L68.61 326.52 C70.5 326.52 72.03 328.08 72.03 329.94 L72.03 343.6
						 C72.03 345.49 70.5 347.02 68.61 347.02 L3.42 347.02 C1.56 347.02 0 345.49 0 343.6 L0 329.94 Z" class="st1"/>
		</g>
		<g id="shape68-168" v:mID="68" v:groupContext="shape" transform="translate(514.489,-266.044)">
			<title>Sheet.68</title>
			<path d="M0 329.94 C0 328.08 1.56 326.52 3.42 326.52 L68.61 326.52 C70.5 326.52 72.03 328.08 72.03 329.94 L72.03 343.6
						 C72.03 345.49 70.5 347.02 68.61 347.02 L3.42 347.02 C1.56 347.02 0 345.49 0 343.6 L0 329.94 Z" class="st2"/>
		</g>
		<g id="shape69-170" v:mID="69" v:groupContext="shape" transform="translate(537.486,-267.671)">
			<title>Sheet.69</title>
			<desc>hash</desc>
			<v:textBlock v:margins="rect(0,0,0,0)"/>
			<v:textRect cx="16.5866" cy="339.824" width="33.18" height="14.3829"/>
			<path d="M33.17 332.63 L0 332.63 L0 347.02 L33.17 347.02 L33.17 332.63" class="st3"/>
			<text x="3.63" y="343.42" class="st4" v:langID="1033"><v:paragraph v:horizAlign="1"/><v:tabList/>hash</text>		</g>
		<g id="shape70-174" v:mID="70" v:groupContext="shape" transform="translate(505.725,-225.183)">
			<title>Sheet.70</title>
			<path d="M0 330.75 C0 328.95 1.47 327.48 3.27 327.48 L87.16 327.48 C88.96 327.48 90.4 328.95 90.4 330.75 L90.4 343.78
						 C90.4 345.58 88.96 347.02 87.16 347.02 L3.27 347.02 C1.47 347.02 0 345.58 0 343.78 L0 330.75 Z"
					class="st1"/>
		</g>
		<g id="shape71-176" v:mID="71" v:groupContext="shape" transform="translate(505.725,-225.183)">
			<title>Sheet.71</title>
			<path d="M0 330.75 C0 328.95 1.47 327.48 3.27 327.48 L87.16 327.48 C88.96 327.48 90.4 328.95 90.4 330.75 L90.4 343.78
						 C90.4 345.58 88.96 347.02 87.16 347.02 L3.27 347.02 C1.47 347.02 0 345.58 0 343.78 L0 330.75 Z"
					class="st2"/>
		</g>
		<g id="shape72-178" v:mID="72" v:groupContext="shape" transform="translate(514.766,-226.356)">
			<title>Sheet.72</title>
			<desc>0x0102ADCB</desc>
			<v:textBlock v:margins="rect(0,0,0,0)"/>
			<v:textRect cx="43.3615" cy="339.824" width="86.73" height="14.3829"/>
			<path d="M86.72 332.63 L0 332.63 L0 347.02 L86.72 347.02 L86.72 332.63" class="st3"/>
			<text x="7.12" y="343.42" class="st4" v:langID="1033"><v:paragraph v:horizAlign="1"/><v:tabList/>0x0102ADCB</text>		</g>
		<g id="shape73-182" v:mID="73" v:groupContext="shape" transform="translate(530.396,-244.775)">
			<title>Sheet.73</title>
			<path d="M0 336.65 L9.81 336.65 L9.81 326.28 L29.44 326.28 L29.44 336.65 L39.26 336.65 L19.63 347.02 L0 336.65 Z"
					class="st5"/>
		</g>
		<g id="shape74-184" v:mID="74" v:groupContext="shape" transform="translate(527.455,-210.564)">
			<title>Sheet.74</title>
			<path d="M26.29 335.03 C26.29 338.36 25.87 341.02 25.3 341.02 L14.17 341.02 C13.6 341.02 13.15 343.72 13.15 347.02 C13.15
						 343.72 12.73 341.02 12.16 341.02 L1.02 341.02 C0.45 341.02 0 338.36 0 335.03" class="st6"/>
		</g>
		<g id="shape75-187" v:mID="75" v:groupContext="shape" transform="translate(610.653,-307.505)">
			<title>Sheet.75</title>
			<path d="M0 329.94 C0 328.08 1.56 326.52 3.42 326.52 L68.61 326.52 C70.5 326.52 72.03 328.08 72.03 329.94 L72.03 343.6
						 C72.03 345.49 70.5 347.02 68.61 347.02 L3.42 347.02 C1.56 347.02 0 345.49 0 343.6 L0 329.94 Z" class="st1"/>
		</g>
		<g id="shape76-189" v:mID="76" v:groupContext="shape" transform="translate(610.653,-307.505)">
			<title>Sheet.76</title>
			<path d="M0 329.94 C0 328.08 1.56 326.52 3.42 326.52 L68.61 326.52 C70.5 326.52 72.03 328.08 72.03 329.94 L72.03 343.6
						 C72.03 345.49 70.5 347.02 68.61 347.02 L3.42 347.02 C1.56 347.02 0 345.49 0 343.6 L0 329.94 Z" class="st2"/>
		</g>
		<g id="shape77-191" v:mID="77" v:groupContext="shape" transform="translate(633.086,-309.121)">
			<title>Sheet.77</title>
			<desc>Key7</desc>
			<v:textBlock v:margins="rect(0,0,0,0)"/>
			<v:textRect cx="17.3237" cy="339.824" width="34.65" height="14.3829"/>
			<path d="M34.65 332.63 L0 332.63 L0 347.02 L34.65 347.02 L34.65 332.63" class="st3"/>
			<text x="3.72" y="343.42" class="st4" v:langID="1033"><v:paragraph v:horizAlign="1"/><v:tabList/>Key7</text>		</g>
		<g id="shape78-195" v:mID="78" v:groupContext="shape" transform="translate(626.561,-286.954)">
			<title>Sheet.78</title>
			<path d="M0 336.65 L9.84 336.65 L9.84 326.28 L29.53 326.28 L29.53 336.65 L39.38 336.65 L19.69 347.02 L0 336.65 Z"
					class="st5"/>
		</g>
		<g id="shape79-197" v:mID="79" v:groupContext="shape" transform="translate(610.653,-266.044)">
			<title>Sheet.79</title>
			<path d="M0 330.06 C-0 328.17 1.53 326.64 3.42 326.64 L68.64 326.64 C70.53 326.64 72.03 328.17 72.03 330.06 L72.03 343.63
						 C72.03 345.52 70.53 347.02 68.64 347.02 L3.42 347.02 C1.53 347.02 0 345.52 0 343.63 L0 330.06 Z"
					class="st1"/>
		</g>
		<g id="shape80-199" v:mID="80" v:groupContext="shape" transform="translate(610.653,-266.044)">
			<title>Sheet.80</title>
			<path d="M0 330.06 C-0 328.17 1.53 326.64 3.42 326.64 L68.64 326.64 C70.53 326.64 72.03 328.17 72.03 330.06 L72.03 343.63
						 C72.03 345.52 70.53 347.02 68.64 347.02 L3.42 347.02 C1.53 347.02 0 345.52 0 343.63 L0 330.06 Z"
					class="st2"/>
		</g>
		<g id="shape81-201" v:mID="81" v:groupContext="shape" transform="translate(633.689,-267.602)">
			<title>Sheet.81</title>
			<desc>hash</desc>
			<v:textBlock v:margins="rect(0,0,0,0)"/>
			<v:textRect cx="16.5866" cy="339.824" width="33.18" height="14.3829"/>
			<path d="M33.17 332.63 L0 332.63 L0 347.02 L33.17 347.02 L33.17 332.63" class="st3"/>
			<text x="3.63" y="343.42" class="st4" v:langID="1033"><v:paragraph v:horizAlign="1"/><v:tabList/>hash</text>		</g>
		<g id="shape82-205" v:mID="82" v:groupContext="shape" transform="translate(601.889,-225.183)">
			<title>Sheet.82</title>
			<path d="M0 330.75 C0 328.95 1.47 327.48 3.27 327.48 L87.28 327.48 C89.08 327.48 90.52 328.95 90.52 330.75 L90.52 343.78
						 C90.52 345.58 89.08 347.02 87.28 347.02 L3.27 347.02 C1.47 347.02 0 345.58 0 343.78 L0 330.75 Z"
					class="st1"/>
		</g>
		<g id="shape83-207" v:mID="83" v:groupContext="shape" transform="translate(601.889,-225.183)">
			<title>Sheet.83</title>
			<path d="M0 330.75 C0 328.95 1.47 327.48 3.27 327.48 L87.28 327.48 C89.08 327.48 90.52 328.95 90.52 330.75 L90.52 343.78
						 C90.52 345.58 89.08 347.02 87.28 347.02 L3.27 347.02 C1.47 347.02 0 345.58 0 343.78 L0 330.75 Z"
					class="st2"/>
		</g>
		<g id="shape84-209" v:mID="84" v:groupContext="shape" transform="translate(610.969,-226.287)">
			<title>Sheet.84</title>
			<desc>0x0104DBCA</desc>
			<v:textBlock v:margins="rect(0,0,0,0)"/>
			<v:textRect cx="43.3615" cy="339.824" width="86.73" height="14.3829"/>
			<path d="M86.72 332.63 L0 332.63 L0 347.02 L86.72 347.02 L86.72 332.63" class="st3"/>
			<text x="7.12" y="343.42" class="st4" v:langID="1033"><v:paragraph v:horizAlign="1"/><v:tabList/>0x0104DBCA</text>		</g>
		<g id="shape85-213" v:mID="85" v:groupContext="shape" transform="translate(626.561,-244.775)">
			<title>Sheet.85</title>
			<path d="M0 336.71 L9.84 336.71 L9.84 326.4 L29.53 326.4 L29.53 336.71 L39.38 336.71 L19.69 347.02 L0 336.71 Z"
					class="st5"/>
		</g>
		<g id="shape86-215" v:mID="86" v:groupContext="shape" transform="translate(623.619,-210.444)">
			<title>Sheet.86</title>
			<path d="M26.41 334.91 C26.41 338.27 25.96 340.96 25.42 340.96 L14.23 340.96 C13.69 340.96 13.21 343.69 13.21 347.02
						 C13.21 343.69 12.76 340.96 12.22 340.96 L1.02 340.96 C0.48 340.96 0 338.27 0 334.91" class="st8"/>
		</g>
		<g id="shape87-218" v:mID="87" v:groupContext="shape" transform="translate(242.323,-81.6288)">
			<title>Sheet.87</title>
			<path d="M0 281.23 L0 347.02 L41.18 347.02 L41.18 281.23 L0 281.23 L0 281.23 Z" class="st1"/>
		</g>
		<g id="shape88-220" v:mID="88" v:groupContext="shape" transform="translate(247.009,-81.6288)">
			<title>Sheet.88</title>
			<path d="M0 281.23 L41.18 281.23 L41.18 347.02 L0 347.02 L0 281.23" class="st9"/>
		</g>
		<g id="shape89-223" v:mID="89" v:groupContext="shape" transform="translate(245.254,-132.398)">
			<title>Sheet.89</title>
			<desc>0x0102</desc>
			<v:textBlock v:margins="rect(0,0,0,0)"/>
			<v:textRect cx="21.3211" cy="341.046" width="42.65" height="11.9384"/>
			<path d="M42.64 335.08 L0 335.08 L0 347.02 L42.64 347.02 L42.64 335.08" class="st3"/>
			<text x="4" y="344.03" class="st10" v:langID="1033"><v:paragraph v:horizAlign="1"/><v:tabList/>0x0102</text>		</g>
		<g id="shape90-227" v:mID="90" v:groupContext="shape" transform="translate(245.015,-82.7016)">
			<title>Sheet.90</title>
			<desc>4</desc>
			<v:textBlock v:margins="rect(0,0,0,0)"/>
			<v:textRect cx="4.79425" cy="341.046" width="9.59" height="11.9384"/>
			<path d="M9.59 335.08 L0 335.08 L0 347.02 L9.59 347.02 L9.59 335.08" class="st3"/>
			<text x="1.84" y="344.03" class="st11" v:langID="1033"><v:paragraph v:horizAlign="1"/><v:tabList/>4</text>		</g>
		<g id="shape91-231" v:mID="91" v:groupContext="shape" transform="translate(336.326,-81.6288)">
			<title>Sheet.91</title>
			<path d="M0 281.23 L0 347.02 L41.18 347.02 L41.18 281.23 L0 281.23 L0 281.23 Z" class="st1"/>
		</g>
		<g id="shape92-233" v:mID="92" v:groupContext="shape" transform="translate(339.598,-81.6288)">
			<title>Sheet.92</title>
			<path d="M0 281.23 L41.18 281.23 L41.18 347.02 L0 347.02 L0 281.23" class="st9"/>
		</g>
		<g id="shape93-236" v:mID="93" v:groupContext="shape" transform="translate(339.264,-132.398)">
			<title>Sheet.93</title>
			<desc>0x0103</desc>
			<v:textBlock v:margins="rect(0,0,0,0)"/>
			<v:textRect cx="21.3211" cy="341.046" width="42.65" height="11.9384"/>
			<path d="M42.64 335.08 L0 335.08 L0 347.02 L42.64 347.02 L42.64 335.08" class="st3"/>
			<text x="4" y="344.03" class="st10" v:langID="1033"><v:paragraph v:horizAlign="1"/><v:tabList/>0x0103</text>		</g>
		<g id="shape94-240" v:mID="94" v:groupContext="shape" transform="translate(339.024,-82.7016)">
			<title>Sheet.94</title>
			<desc>2</desc>
			<v:textBlock v:margins="rect(0,0,0,0)"/>
			<v:textRect cx="4.79425" cy="341.046" width="9.59" height="11.9384"/>
			<path d="M9.59 335.08 L0 335.08 L0 347.02 L9.59 347.02 L9.59 335.08" class="st3"/>
			<text x="1.84" y="344.03" class="st11" v:langID="1033"><v:paragraph v:horizAlign="1"/><v:tabList/>2</text>		</g>
		<g id="shape95-244" v:mID="95" v:groupContext="shape" transform="translate(438.598,-81.5089)">
			<title>Sheet.95</title>
			<path d="M0 281.23 L0 347.02 L41.18 347.02 L41.18 281.23 L0 281.23 L0 281.23 Z" class="st1"/>
		</g>
		<g id="shape96-246" v:mID="96" v:groupContext="shape" transform="translate(438.598,-81.5089)">
			<title>Sheet.96</title>
			<path d="M0 281.23 L41.18 281.23 L41.18 347.02 L0 347.02 L0 281.23" class="st9"/>
		</g>
		<g id="shape97-249" v:mID="97" v:groupContext="shape" transform="translate(437.81,-132.27)">
			<title>Sheet.97</title>
			<desc>0x0104</desc>
			<v:textBlock v:margins="rect(0,0,0,0)"/>
			<v:textRect cx="21.3211" cy="341.046" width="42.65" height="11.9384"/>
			<path d="M42.64 335.08 L0 335.08 L0 347.02 L42.64 347.02 L42.64 335.08" class="st3"/>
			<text x="4" y="344.03" class="st10" v:langID="1033"><v:paragraph v:horizAlign="1"/><v:tabList/>0x0104</text>		</g>
		<g id="shape98-253" v:mID="98" v:groupContext="shape" transform="translate(437.57,-82.5735)">
			<title>Sheet.98</title>
			<desc>1</desc>
			<v:textBlock v:margins="rect(0,0,0,0)"/>
			<v:textRect cx="4.79425" cy="341.046" width="9.59" height="11.9384"/>
			<path d="M9.59 335.08 L0 335.08 L0 347.02 L9.59 347.02 L9.59 335.08" class="st3"/>
			<text x="1.84" y="344.03" class="st11" v:langID="1033"><v:paragraph v:horizAlign="1"/><v:tabList/>1</text>		</g>
		<g id="shape99-257" v:mID="99" v:groupContext="shape" transform="translate(53.5505,-147.924)">
			<title>Sheet.99</title>
			<path d="M0.59 283.52 L206.27 343.39 L205.7 345.34 L0 285.48 L0.59 283.52 L0.59 283.52 ZM205.85 341.14 L210.88 345.79
						 L204.14 347.02 L205.85 341.14 L205.85 341.14 Z" class="st12"/>
		</g>
		<g id="shape100-259" v:mID="100" v:groupContext="shape" transform="translate(151.516,-147.924)">
			<title>Sheet.100</title>
			<path d="M0.59 283.52 L202.41 343.41 L201.83 345.35 L0 285.48 L0.59 283.52 L0.59 283.52 ZM202.01 341.16 L207.01 345.83
						 L200.27 347.02 L202.01 341.16 L202.01 341.16 Z" class="st13"/>
		</g>
		<g id="shape101-261" v:mID="101" v:groupContext="shape" transform="translate(246.975,-147.37)">
			<title>Sheet.101</title>
			<path d="M2 283.72 L15.77 341.83 L13.79 342.3 L0 284.18 L2 283.72 L2 283.72 ZM17.53 340.36 L15.97 347.02 L11.57 341.77
						 L17.53 340.36 L17.53 340.36 Z" class="st12"/>
		</g>
		<g id="shape102-263" v:mID="102" v:groupContext="shape" transform="translate(262.972,-147.37)">
			<title>Sheet.102</title>
			<path d="M82.31 283.13 L3.45 343.12 L4.68 344.74 L83.54 284.76 L82.31 283.13 L82.31 283.13 ZM3.02 340.89 L0 347.02 L6.74
						 345.74 L3.02 340.89 L3.02 340.89 Z" class="st12"/>
		</g>
		<g id="shape103-265" v:mID="103" v:groupContext="shape" transform="translate(358.537,-149.107)">
			<title>Sheet.103</title>
			<path d="M83.92 284.85 L3.53 343.2 L4.73 344.84 L85.12 286.5 L83.92 284.85 L83.92 284.85 ZM3.15 340.95 L0 347.02 L6.75
						 345.89 L3.15 340.95 L3.15 340.95 Z" class="st13"/>
		</g>
		<g id="shape104-267" v:mID="104" v:groupContext="shape" transform="translate(264.413,-147.534)">
			<title>Sheet.104</title>
			<path d="M275.95 283 L4.77 343.27 L5.22 345.25 L276.37 285 L275.95 283 L275.95 283 ZM5.31 341.05 L0 345.37 L6.66 347.02
						 L5.31 341.05 L5.31 341.05 Z" class="st14"/>
		</g>
		<g id="shape105-269" v:mID="105" v:groupContext="shape" transform="translate(456.982,-148.103)">
			<title>Sheet.105</title>
			<path d="M179.48 283.72 L4.5 343.48 L5.16 345.43 L180.14 285.66 L179.48 283.72 L179.48 283.72 ZM4.8 341.23 L0 346.12
						 L6.81 347.02 L4.8 341.23 L4.8 341.23 Z" class="st15"/>
		</g>
		<g id="shape106-271" v:mID="106" v:groupContext="shape" transform="translate(335.628,-18)">
			<title>Sheet.106</title>
			<path d="M0 309.64 C0 305.52 2.99 302.16 6.65 302.16 L14.2 302.16 L8.01 284.85 L35.48 302.16 L78.47 302.16 C82.15 302.16
						 85.12 305.52 85.12 309.64 L85.12 309.64 L85.12 320.85 L85.12 339.54 C85.12 343.68 82.15 347.02 78.47 347.02
						 L35.48 347.02 L14.2 347.02 L14.2 347.02 L6.65 347.02 C2.99 347.02 0 343.68 0 339.54 L0 320.85 L0 309.64
						 L0 309.64 Z" class="st5"/>
		</g>
		<g id="shape109-273" v:mID="109" v:groupContext="shape" transform="translate(157.564,-62.4234)">
			<title>Sheet.109</title>
			<path d="M16.21 347.02 C11.74 347.02 8.1 346.42 8.1 345.67 L8.1 303.49 C8.1 302.75 4.49 302.14 0 302.14 C4.49 302.14
						 8.1 301.54 8.1 300.79 L8.1 258.61 C8.1 257.88 11.74 257.26 16.21 257.26" class="st7"/>
		</g>
		<g id="shape110-276" v:mID="110" v:groupContext="shape" transform="translate(113.844,-100.157)">
			<title>Sheet.110</title>
			<desc>Groups</desc>
			<v:textBlock v:margins="rect(0,0,0,0)"/>
			<v:textRect cx="20.2175" cy="341.046" width="40.44" height="11.9384"/>
			<path d="M40.44 335.08 L0 335.08 L0 347.02 L40.44 347.02 L40.44 335.08" class="st3"/>
			<text x="3.85" y="344.03" class="st16" v:langID="1033"><v:paragraph v:horizAlign="1"/><v:tabList/>Groups</text>		</g>
		<g id="shape111-280" v:mID="111" v:groupContext="shape" transform="translate(196.718,-76.2186)">
			<title>Sheet.111</title>
			<path d="M0 331.97 C0 330.32 2.27 328.96 5.04 328.96 L37.61 328.96 L60.43 284.85 L53.72 328.96 L59.43 328.96 C62.22 328.96
						 64.47 330.32 64.47 331.97 L64.47 331.97 L64.47 336.48 L64.47 344.01 C64.47 345.67 62.22 347.02 59.43 347.02
						 L53.72 347.02 L37.61 347.02 L37.61 347.02 L5.04 347.02 C2.27 347.02 0 345.67 0 344.01 L0 336.48 L0 331.97
						 L0 331.97 Z" class="st5"/>
		</g>
		<g id="shape112-282" v:mID="112" v:groupContext="shape" transform="translate(196.65,-80.2991)">
			<title>Sheet.112</title>
			<desc>group id</desc>
			<v:textBlock v:margins="rect(0,0,0,0)"/>
			<v:textRect cx="27.7691" cy="339.824" width="55.54" height="14.3829"/>
			<path d="M55.54 332.63 L0 332.63 L0 347.02 L55.54 347.02 L55.54 332.63" class="st3"/>
			<text x="5.09" y="343.42" class="st17" v:langID="1033"><v:paragraph v:horizAlign="1"/><v:tabList/>group id</text>		</g>
		<g id="shape114-286" v:mID="114" v:groupContext="shape" transform="translate(506.433,-128.007)">
			<title>Sheet.114</title>
			<desc>-</desc>
			<v:textBlock v:margins="rect(0,0,0,0)"/>
			<v:textRect cx="6.63728" cy="336.229" width="13.28" height="21.5726"/>
			<path d="M13.27 325.44 L0 325.44 L0 347.02 L13.27 347.02 L13.27 325.44" class="st3"/>
			<text x="3.06" y="341.62" class="st18" v:langID="1033"><v:paragraph v:horizAlign="1"/><v:tabList/>-</text>		</g>
		<g id="shape115-290" v:mID="115" v:groupContext="shape" transform="translate(529.004,-128.007)">
			<title>Sheet.115</title>
			<desc>Keys separated into</desc>
			<v:textBlock v:margins="rect(0,0,0,0)"/>
			<v:textRect cx="97.1729" cy="336.229" width="194.35" height="21.5726"/>
			<path d="M194.35 325.44 L0 325.44 L0 347.02 L194.35 347.02 L194.35 325.44" class="st3"/>
			<text x="17.06" y="341.62" class="st18" v:langID="1033"><v:paragraph v:horizAlign="1"/><v:tabList/>Keys separated into  </text>		</g>
		<g id="shape116-294" v:mID="116" v:groupContext="shape" transform="translate(529.004,-106.438)">
			<title>Sheet.116</title>
			<desc>groups based on</desc>
			<v:textBlock v:margins="rect(0,0,0,0)"/>
			<v:textRect cx="83.1587" cy="336.229" width="166.32" height="21.5726"/>
			<path d="M166.32 325.44 L0 325.44 L0 347.02 L166.32 347.02 L166.32 325.44" class="st3"/>
			<text x="15.23" y="341.62" class="st18" v:langID="1033"><v:paragraph v:horizAlign="1"/><v:tabList/>groups based on  </text>		</g>
		<g id="shape117-298" v:mID="117" v:groupContext="shape" transform="translate(529.004,-84.869)">
			<title>Sheet.117</title>
			<desc>some bits from hash</desc>
			<v:textBlock v:margins="rect(0,0,0,0)"/>
			<v:textRect cx="97.731" cy="336.229" width="195.47" height="21.5726"/>
			<path d="M195.46 325.44 L0 325.44 L0 347.02 L195.46 347.02 L195.46 325.44" class="st3"/>
			<text x="14.94" y="341.62" class="st18" v:langID="1033"><v:paragraph v:horizAlign="1"/><v:tabList/>some bits from hash</text>		</g>
		<g id="shape118-302" v:mID="118" v:groupContext="shape" transform="translate(506.433,-63.2999)">
			<title>Sheet.118</title>
			<desc>-</desc>
			<v:textBlock v:margins="rect(0,0,0,0)"/>
			<v:textRect cx="6.63728" cy="336.229" width="13.28" height="21.5726"/>
			<path d="M13.27 325.44 L0 325.44 L0 347.02 L13.27 347.02 L13.27 325.44" class="st3"/>
			<text x="3.06" y="341.62" class="st18" v:langID="1033"><v:paragraph v:horizAlign="1"/><v:tabList/>-</text>		</g>
		<g id="shape119-306" v:mID="119" v:groupContext="shape" transform="translate(529.004,-63.2999)">
			<title>Sheet.119</title>
			<desc>Groups contain a</desc>
			<v:textBlock v:margins="rect(0,0,0,0)"/>
			<v:textRect cx="84.2539" cy="336.229" width="168.51" height="21.5726"/>
			<path d="M168.51 325.44 L0 325.44 L0 347.02 L168.51 347.02 L168.51 325.44" class="st3"/>
			<text x="15.38" y="341.62" class="st18" v:langID="1033"><v:paragraph v:horizAlign="1"/><v:tabList/>Groups contain a  </text>		</g>
		<g id="shape120-310" v:mID="120" v:groupContext="shape" transform="translate(529.004,-41.7308)">
			<title>Sheet.120</title>
			<desc>small number of</desc>
			<v:textBlock v:margins="rect(0,0,0,0)"/>
			<v:textRect cx="81.4635" cy="336.229" width="162.93" height="21.5726"/>
			<path d="M162.93 325.44 L0 325.44 L0 347.02 L162.93 347.02 L162.93 325.44" class="st3"/>
			<text x="15.01" y="341.62" class="st18" v:langID="1033"><v:paragraph v:horizAlign="1"/><v:tabList/>small number of  </text>		</g>
		<g id="shape121-314" v:mID="121" v:groupContext="shape" transform="translate(529.004,-20.1617)">
			<title>Sheet.121</title>
			<desc>keys (&#60;28)</desc>
			<v:textBlock v:margins="rect(0,0,0,0)"/>
			<v:textRect cx="50.4481" cy="336.229" width="100.9" height="21.5726"/>
			<path d="M100.9 325.44 L0 325.44 L0 347.02 L100.9 347.02 L100.9 325.44" class="st3"/>
			<text x="8.77" y="341.62" class="st18" v:langID="1033"><v:paragraph v:horizAlign="1"/><v:tabList/>keys (&#60;28)</text>		</g>
		<g id="shape122-318" v:mID="122" v:groupContext="shape" transform="translate(19.1996,-146.276)">
			<title>Sheet.122</title>
			<path d="M0 310.17 C-0 306.1 3.62 302.8 8.07 302.8 L14.46 302.8 L29.68 282.28 L36.14 302.8 L78.65 302.8 C83.11 302.8
						 86.72 306.1 86.72 310.17 L86.72 310.17 L86.72 321.22 L86.72 339.65 C86.72 343.72 83.11 347.02 78.65 347.02
						 L36.14 347.02 L14.46 347.02 L14.46 347.02 L8.07 347.02 C3.62 347.02 0 343.72 0 339.65 L0 321.22 L0 310.17
						 L0 310.17 Z" class="st5"/>
		</g>
		<g id="shape123-320" v:mID="123" v:groupContext="shape" transform="translate(41.9777,-174.053)">
			<title>Sheet.123</title>
			<desc>Group</desc>
			<v:textBlock v:margins="rect(0,0,0,0)"/>
			<v:textRect cx="22.8289" cy="339.824" width="45.66" height="14.3829"/>
			<path d="M45.66 332.63 L0 332.63 L0 347.02 L45.66 347.02 L45.66 332.63" class="st3"/>
			<text x="5.9" y="343.42" class="st17" v:langID="1033"><v:paragraph v:horizAlign="1"/><v:tabList/>Group  </text>		</g>
		<g id="shape124-324" v:mID="124" v:groupContext="shape" transform="translate(34.4142,-159.674)">
			<title>Sheet.124</title>
			<desc>Identifier</desc>
			<v:textBlock v:margins="rect(0,0,0,0)"/>
			<v:textRect cx="31.5173" cy="339.824" width="63.04" height="14.3829"/>
			<path d="M63.03 332.63 L0 332.63 L0 347.02 L63.03 347.02 L63.03 332.63" class="st3"/>
			<text x="7.04" y="343.42" class="st17" v:langID="1033"><v:paragraph v:horizAlign="1"/><v:tabList/>Identifier  </text>		</g>
		<g id="shape125-328" v:mID="125" v:groupContext="shape" transform="translate(28.7716,-145.295)">
			<title>Sheet.125</title>
			<desc>(simplified)</desc>
			<v:textBlock v:margins="rect(0,0,0,0)"/>
			<v:textRect cx="36.2165" cy="339.824" width="72.44" height="14.3829"/>
			<path d="M72.43 332.63 L0 332.63 L0 347.02 L72.43 347.02 L72.43 332.63" class="st3"/>
			<text x="6.19" y="343.42" class="st17" v:langID="1033"><v:paragraph v:horizAlign="1"/><v:tabList/>(simplified)</text>		</g>
		<g id="shape127-332" v:mID="127" v:groupContext="shape" transform="translate(517.688,-71.2991)">
			<title>Sheet.127</title>
			<desc>Keys separated into groups based on some bits from hash. Grou...</desc>
			<v:textBlock v:margins="rect(4,4,4,4)"/>
			<v:textRect cx="112.5" cy="302.139" width="225" height="89.7513"/>
			<g id="shadow127-333" v:groupContext="shadow" v:shadowOffsetX="0.345598" v:shadowOffsetY="-1.97279" v:shadowType="1"
					transform="matrix(1,0,0,1,0.345598,1.97279)" class="st19">
				<rect x="0" y="257.264" width="225" height="89.7513" class="st20"/>
			</g>
			<rect x="0" y="257.264" width="225" height="89.7513" class="st21"/>
			<text x="4" y="281.09" class="st22" v:langID="1033"><v:paragraph v:indentFirst="-18" v:indentLeft="18" v:bullet="1"/><v:tabList/><tspan
						class="st23" v:isBullet="true"></tspan> <tspan class="st24">Keys separated into groups based </tspan><tspan
						x="22" dy="1.204em" class="st24">on some bits from hash</tspan><tspan class="st24">.<v:newlineChar/></tspan><tspan
						x="4" dy="1.211em" class="st23" v:isBullet="true"></tspan> <tspan class="st24">Groups contain a small number of </tspan><tspan
						x="22" dy="1.204em" class="st24">keys </tspan><tspan class="st24">(</tspan><tspan class="st24">&#60;</tspan><tspan
						class="st24">28</tspan><tspan class="st24">)</tspan></text>		</g>
		<g id="shape129-349" v:mID="129" v:groupContext="shape" transform="translate(336.326,-26.2991)">
			<title>Sheet.129</title>
			<desc>Total # of keys in group so far</desc>
			<v:textBlock v:margins="rect(4,4,4,4)"/>
			<v:textRect cx="39.6784" cy="333.515" width="79.36" height="27"/>
			<rect x="0" y="320.015" width="79.3567" height="27" class="st25"/>
			<text x="4.5" y="329.92" class="st26" v:langID="1033"><v:paragraph v:horizAlign="1"/><v:tabList/>Total # of keys <tspan
						x="4.39" dy="1.2em" class="st23">in group so far</tspan></text>		</g>
	</g>
</svg>
