<?xml version="1.0" encoding="UTF-8" standalone="no"?>
<!DOCTYPE svg PUBLIC "-//W3C//DTD SVG 1.1//EN" "http://www.w3.org/Graphics/SVG/1.1/DTD/svg11.dtd">
<!-- Generated by Microsoft Visio, SVG Export efd_i9.svg Page-2 -->
<svg xmlns="http://www.w3.org/2000/svg" xmlns:xlink="http://www.w3.org/1999/xlink" xmlns:ev="http://www.w3.org/2001/xml-events"
		xmlns:v="http://schemas.microsoft.com/visio/2003/SVGExtensions/" width="4.98372in" height="2.08442in"
		viewBox="0 0 358.828 150.078" xml:space="preserve" color-interpolation-filters="sRGB" class="st8">
	<v:documentProperties v:langID="1033" v:viewMarkup="false">
		<v:userDefs>
			<v:ud v:nameU="msvSubprocessMaster" v:prompt="" v:val="VT4(Rectangle)"/>
			<v:ud v:nameU="msvNoAutoConnect" v:val="VT0(1):26"/>
		</v:userDefs>
	</v:documentProperties>

	<style type="text/css">
	<![CDATA[
		.st1 {fill:#ffffff;stroke:none;stroke-linecap:round;stroke-linejoin:round;stroke-width:0.75}
		.st2 {stroke:#00aeef;stroke-linecap:round;stroke-linejoin:round;stroke-width:2.03901}
		.st3 {fill:none;stroke:#00aeef;stroke-linecap:round;stroke-linejoin:round;stroke-width:2.03901}
		.st4 {stroke:none;stroke-linecap:round;stroke-linejoin:round;stroke-width:0.75}
		.st5 {fill:#000000;font-family:Intel Clear;font-size:0.998566em}
		.st6 {fill:#c00000;font-family:Intel Clear;font-size:0.828804em;font-weight:bold}
		.st7 {fill:#0071c5;stroke:none;stroke-linecap:round;stroke-linejoin:round;stroke-width:0.75}
		.st8 {fill:none;fill-rule:evenodd;font-size:12px;overflow:visible;stroke-linecap:square;stroke-miterlimit:3}
	]]>
	</style>

	<g v:mID="4" v:index="2" v:groupContext="foregroundPage">
		<v:userDefs>
			<v:ud v:nameU="msvThemeOrder" v:val="VT0(0):26"/>
		</v:userDefs>
		<title>Page-2</title>
		<v:pageProperties v:drawingScale="1" v:pageScale="1" v:drawingUnits="0" v:shadowOffsetX="9" v:shadowOffsetY="-9"/>
		<g id="shape4-1" v:mID="4" v:groupContext="shape" transform="translate(206.306,-19.0195)">
			<title>Sheet.4</title>
			<path d="M0 38.04 L0 150.08 L133.5 150.08 L133.5 38.04 L0 38.04 L0 38.04 Z" class="st1"/>
		</g>
		<g id="shape5-3" v:mID="5" v:groupContext="shape" transform="translate(206.306,-19.0195)">
			<title>Sheet.5</title>
			<path d="M0 38.04 L133.5 38.04 L133.5 150.08 L0 150.08 L0 38.04" class="st2"/>
		</g>
		<g id="shape6-6" v:mID="6" v:groupContext="shape" transform="translate(215.55,-70.7853)">
			<title>Sheet.6</title>
			<path d="M0 121.92 C0 118.82 2.54 116.29 5.64 116.29 L110.69 116.29 C113.81 116.29 116.33 118.82 116.33 121.92 L116.33
						 144.45 C116.33 147.56 113.81 150.08 110.69 150.08 L5.64 150.08 C2.54 150.08 0 147.56 0 144.45 L0 121.92
						 Z" class="st1"/>
		</g>
		<g id="shape7-8" v:mID="7" v:groupContext="shape" transform="translate(215.55,-70.7853)">
			<title>Sheet.7</title>
			<path d="M0 121.92 C0 118.82 2.54 116.29 5.64 116.29 L110.69 116.29 C113.81 116.29 116.33 118.82 116.33 121.92 L116.33
						 144.45 C116.33 147.56 113.81 150.08 110.69 150.08 L5.64 150.08 C2.54 150.08 0 147.56 0 144.45 L0 121.92
						 Z" class="st3"/>
		</g>
		<g id="shape8-10" v:mID="8" v:groupContext="shape" transform="translate(242.756,-86.1914)">
			<title>Sheet.8</title>
			<desc>hash_index</desc>
			<v:textBlock v:margins="rect(0,0,0,0)"/>
			<v:textRect cx="36.9951" cy="142.887" width="74" height="14.3829"/>
			<path d="M73.99 135.7 L0 135.7 L0 150.08 L73.99 150.08 L73.99 135.7" class="st4"/>
			<text x="6.29" y="146.48" class="st5" v:langID="1033"><v:paragraph v:horizAlign="1"/><v:tabList/>hash_index</text>		</g>
		<g id="shape9-14" v:mID="9" v:groupContext="shape" transform="translate(229.67,-71.812)">
			<title>Sheet.9</title>
			<desc>(integer, 16 bits)</desc>
			<v:textBlock v:margins="rect(0,0,0,0)"/>
			<v:textRect cx="52.0635" cy="142.887" width="104.13" height="14.3829"/>
			<path d="M104.13 135.7 L0 135.7 L0 150.08 L104.13 150.08 L104.13 135.7" class="st4"/>
			<text x="8.25" y="146.48" class="st5" v:langID="1033"><v:paragraph v:horizAlign="1"/><v:tabList/>(integer, 16 bits)</text>		</g>
		<g id="shape10-18" v:mID="10" v:groupContext="shape" transform="translate(215.55,-27.1678)">
			<title>Sheet.10</title>
			<path d="M0 121.92 C0 118.82 2.54 116.29 5.64 116.29 L110.69 116.29 C113.81 116.29 116.33 118.82 116.33 121.92 L116.33
						 144.45 C116.33 147.56 113.81 150.08 110.69 150.08 L5.64 150.08 C2.54 150.08 0 147.56 0 144.45 L0 121.92
						 Z" class="st1"/>
		</g>
		<g id="shape11-20" v:mID="11" v:groupContext="shape" transform="translate(215.55,-27.1678)">
			<title>Sheet.11</title>
			<path d="M0 121.92 C0 118.82 2.54 116.29 5.64 116.29 L110.69 116.29 C113.81 116.29 116.33 118.82 116.33 121.92 L116.33
						 144.45 C116.33 147.56 113.81 150.08 110.69 150.08 L5.64 150.08 C2.54 150.08 0 147.56 0 144.45 L0 121.92
						 Z" class="st3"/>
		</g>
		<g id="shape12-22" v:mID="12" v:groupContext="shape" transform="translate(237.836,-42.6033)">
			<title>Sheet.12</title>
			<desc>lookup_table</desc>
			<v:textBlock v:margins="rect(0,0,0,0)"/>
			<v:textRect cx="42.693" cy="142.887" width="85.39" height="14.3829"/>
			<path d="M85.39 135.7 L0 135.7 L0 150.08 L85.39 150.08 L85.39 135.7" class="st4"/>
			<text x="7.03" y="146.48" class="st5" v:langID="1033"><v:paragraph v:horizAlign="1"/><v:tabList/>lookup_table</text>		</g>
		<g id="shape13-26" v:mID="13" v:groupContext="shape" transform="translate(251.643,-28.2239)">
			<title>Sheet.13</title>
			<desc>(16 bits)</desc>
			<v:textBlock v:margins="rect(0,0,0,0)"/>
			<v:textRect cx="26.9562" cy="142.887" width="53.92" height="14.3829"/>
			<path d="M53.91 135.7 L0 135.7 L0 150.08 L53.91 150.08 L53.91 135.7" class="st4"/>
			<text x="4.98" y="146.48" class="st5" v:langID="1033"><v:paragraph v:horizAlign="1"/><v:tabList/>(16 bits)</text>		</g>
		<g id="shape14-30" v:mID="14" v:groupContext="shape" transform="translate(213.473,-114.303)">
			<title>Sheet.14</title>
			<desc>Group ID: 0x0102</desc>
			<v:textBlock v:margins="rect(0,0,0,0)"/>
			<v:textRect cx="47.976" cy="144.109" width="95.96" height="11.9384"/>
			<path d="M95.95 138.14 L0 138.14 L0 150.08 L95.95 150.08 L95.95 138.14" class="st4"/>
			<text x="7.47" y="147.09" class="st6" v:langID="1033"><v:paragraph v:horizAlign="1"/><v:tabList/>Group ID: 0x0102</text>		</g>
		<g id="shape15-34" v:mID="15" v:groupContext="shape" transform="translate(19.0195,-99.4242)">
			<title>Sheet.15</title>
			<path d="M0 129.31 C0 127.02 1.87 125.15 4.16 125.15 L109.18 125.15 C111.47 125.15 113.33 127.02 113.33 129.31 L113.33
						 145.93 C113.33 148.22 111.47 150.08 109.18 150.08 L4.16 150.08 C1.87 150.08 0 148.22 0 145.93 L0 129.31
						 Z" class="st1"/>
		</g>
		<g id="shape16-36" v:mID="16" v:groupContext="shape" transform="translate(19.0195,-99.4242)">
			<title>Sheet.16</title>
			<path d="M0 129.31 C0 127.02 1.87 125.15 4.16 125.15 L109.18 125.15 C111.47 125.15 113.33 127.02 113.33 129.31 L113.33
						 145.93 C113.33 148.22 111.47 150.08 109.18 150.08 L4.16 150.08 C1.87 150.08 0 148.22 0 145.93 L0 129.31
						 Z" class="st3"/>
		</g>
		<g id="shape17-38" v:mID="17" v:groupContext="shape" transform="translate(33.9485,-103.285)">
			<title>Sheet.17</title>
			<desc>Key1: Value = 0</desc>
			<v:textBlock v:margins="rect(0,0,0,0)"/>
			<v:textRect cx="49.6862" cy="142.887" width="99.38" height="14.3829"/>
			<path d="M99.37 135.7 L0 135.7 L0 150.08 L99.37 150.08 L99.37 135.7" class="st4"/>
			<text x="7.94" y="146.48" class="st5" v:langID="1033"><v:paragraph v:horizAlign="1"/><v:tabList/>Key1: Value = 0</text>		</g>
		<g id="shape18-42" v:mID="18" v:groupContext="shape" transform="translate(19.0195,-74.6198)">
			<title>Sheet.18</title>
			<path d="M0 129.31 C0 127.02 1.87 125.15 4.16 125.15 L109.18 125.15 C111.47 125.15 113.33 127.02 113.33 129.31 L113.33
						 145.93 C113.33 148.22 111.47 150.08 109.18 150.08 L4.16 150.08 C1.87 150.08 0 148.22 0 145.93 L0 129.31
						 Z" class="st1"/>
		</g>
		<g id="shape19-44" v:mID="19" v:groupContext="shape" transform="translate(19.0195,-74.6198)">
			<title>Sheet.19</title>
			<path d="M0 129.31 C0 127.02 1.87 125.15 4.16 125.15 L109.18 125.15 C111.47 125.15 113.33 127.02 113.33 129.31 L113.33
						 145.93 C113.33 148.22 111.47 150.08 109.18 150.08 L4.16 150.08 C1.87 150.08 0 148.22 0 145.93 L0 129.31
						 Z" class="st3"/>
		</g>
		<g id="shape20-46" v:mID="20" v:groupContext="shape" transform="translate(33.9485,-78.4626)">
			<title>Sheet.20</title>
			<desc>Key3: Value = 1</desc>
			<v:textBlock v:margins="rect(0,0,0,0)"/>
			<v:textRect cx="49.6862" cy="142.887" width="99.38" height="14.3829"/>
			<path d="M99.37 135.7 L0 135.7 L0 150.08 L99.37 150.08 L99.37 135.7" class="st4"/>
			<text x="7.94" y="146.48" class="st5" v:langID="1033"><v:paragraph v:horizAlign="1"/><v:tabList/>Key3: Value = 1</text>		</g>
		<g id="shape21-50" v:mID="21" v:groupContext="shape" transform="translate(19.0195,-49.5757)">
			<title>Sheet.21</title>
			<path d="M0 129.21 C0 126.91 1.88 125.03 4.19 125.03 L109.15 125.03 C111.46 125.03 113.33 126.91 113.33 129.21 L113.33
						 145.91 C113.33 148.21 111.46 150.08 109.15 150.08 L4.19 150.08 C1.88 150.08 0 148.21 0 145.91 L0 129.21
						 Z" class="st1"/>
		</g>
		<g id="shape22-52" v:mID="22" v:groupContext="shape" transform="translate(19.0195,-49.5757)">
			<title>Sheet.22</title>
			<path d="M0 129.21 C0 126.91 1.88 125.03 4.19 125.03 L109.15 125.03 C111.46 125.03 113.33 126.91 113.33 129.21 L113.33
						 145.91 C113.33 148.21 111.46 150.08 109.15 150.08 L4.19 150.08 C1.88 150.08 0 148.21 0 145.91 L0 129.21
						 Z" class="st3"/>
		</g>
		<g id="shape23-54" v:mID="23" v:groupContext="shape" transform="translate(33.9485,-53.4903)">
			<title>Sheet.23</title>
			<desc>Key4: Value = 0</desc>
			<v:textBlock v:margins="rect(0,0,0,0)"/>
			<v:textRect cx="49.6862" cy="142.887" width="99.38" height="14.3829"/>
			<path d="M99.37 135.7 L0 135.7 L0 150.08 L99.37 150.08 L99.37 135.7" class="st4"/>
			<text x="7.94" y="146.48" class="st5" v:langID="1033"><v:paragraph v:horizAlign="1"/><v:tabList/>Key4: Value = 0</text>		</g>
		<g id="shape24-58" v:mID="24" v:groupContext="shape" transform="translate(19.0195,-25.0109)">
			<title>Sheet.24</title>
			<path d="M0 129.21 C0 126.91 1.88 125.03 4.19 125.03 L109.15 125.03 C111.46 125.03 113.33 126.91 113.33 129.21 L113.33
						 145.91 C113.33 148.21 111.46 150.08 109.15 150.08 L4.19 150.08 C1.88 150.08 0 148.21 0 145.91 L0 129.21
						 Z" class="st1"/>
		</g>
		<g id="shape25-60" v:mID="25" v:groupContext="shape" transform="translate(19.0195,-25.0109)">
			<title>Sheet.25</title>
			<path d="M0 129.21 C0 126.91 1.88 125.03 4.19 125.03 L109.15 125.03 C111.46 125.03 113.33 126.91 113.33 129.21 L113.33
						 145.91 C113.33 148.21 111.46 150.08 109.15 150.08 L4.19 150.08 C1.88 150.08 0 148.21 0 145.91 L0 129.21
						 Z" class="st3"/>
		</g>
		<g id="shape26-62" v:mID="26" v:groupContext="shape" transform="translate(33.9485,-28.927)">
			<title>Sheet.26</title>
			<desc>Key7: Value = 1</desc>
			<v:textBlock v:margins="rect(0,0,0,0)"/>
			<v:textRect cx="49.6862" cy="142.887" width="99.38" height="14.3829"/>
			<path d="M99.37 135.7 L0 135.7 L0 150.08 L99.37 150.08 L99.37 135.7" class="st4"/>
			<text x="7.94" y="146.48" class="st5" v:langID="1033"><v:paragraph v:horizAlign="1"/><v:tabList/>Key7: Value = 1</text>		</g>
		<g id="shape27-66" v:mID="27" v:groupContext="shape" transform="translate(141.536,-51.5529)">
			<title>Sheet.27</title>
			<path d="M0 115.39 L22.75 115.39 L22.75 103.82 L45.5 126.95 L22.75 150.08 L22.75 138.51 L0 138.51 L0 115.39 Z"
					class="st7"/>
		</g>
	</g>
</svg>
