<?xml version="1.0" encoding="UTF-8" standalone="no"?>
<!DOCTYPE svg PUBLIC "-//W3C//DTD SVG 1.0//EN" "http://www.w3.org/TR/2001/REC-SVG-20010904/DTD/svg10.dtd">
<!-- Generated by Microsoft Visio 11.0, SVG Export, v1.0 gro-key-algorithm.svg Page-1 -->
<svg xmlns="http://www.w3.org/2000/svg" xmlns:xlink="http://www.w3.org/1999/xlink" xmlns:ev="http://www.w3.org/2001/xml-events"
		xmlns:v="http://schemas.microsoft.com/visio/2003/SVGExtensions/" width="6.06163in" height="2.66319in"
		viewBox="0 0 436.438 191.75" xml:space="preserve" color-interpolation-filters="sRGB" class="st10">
	<v:documentProperties v:langID="1033" v:viewMarkup="false"/>

	<style type="text/css">
	<![CDATA[
		.st1 {fill:url(#grad30-4);stroke:#404040;stroke-linecap:round;stroke-linejoin:round;stroke-width:0.25}
		.st2 {fill:#000000;font-family:Calibri;font-size:1.00001em}
		.st3 {font-size:1em;font-weight:bold}
		.st4 {fill:#000000;font-family:Calibri;font-size:1.00001em;font-weight:bold}
		.st5 {font-size:1em;font-weight:normal}
		.st6 {marker-end:url(#mrkr5-38);stroke:#404040;stroke-linecap:round;stroke-linejoin:round;stroke-width:1}
		.st7 {fill:#404040;fill-opacity:1;stroke:#404040;stroke-opacity:1;stroke-width:0.28409090909091}
		.st8 {fill:none;stroke:none;stroke-linecap:round;stroke-linejoin:round;stroke-width:0.25}
		.st9 {fill:#000000;font-family:Calibri;font-size:0.833336em}
		.st10 {fill:none;fill-rule:evenodd;font-size:12px;overflow:visible;stroke-linecap:square;stroke-miterlimit:3}
	]]>
	</style>

	<defs id="Patterns_And_Gradients">
		<linearGradient id="grad30-4" v:fillPattern="30" v:foreground="#c6d09f" v:background="#d1dab4" x1="0" y1="1" x2="0" y2="0">
			<stop offset="0" style="stop-color:#c6d09f;stop-opacity:1"/>
			<stop offset="1" style="stop-color:#d1dab4;stop-opacity:1"/>
		</linearGradient>
		<linearGradient id="grad30-35" v:fillPattern="30" v:foreground="#f0f0f0" v:background="#ffffff" x1="0" y1="1" x2="0" y2="0">
			<stop offset="0" style="stop-color:#f0f0f0;stop-opacity:1"/>
			<stop offset="1" style="stop-color:#ffffff;stop-opacity:1"/>
		</linearGradient>
	</defs>
	<defs id="Markers">
		<g id="lend5">
			<path d="M 2 1 L 0 0 L 1.98117 -0.993387 C 1.67173 -0.364515 1.67301 0.372641 1.98465 1.00043 " style="stroke:none"/>
		</g>
		<marker id="mrkr5-38" class="st7" v:arrowType="5" v:arrowSize="2" v:setback="6.16" refX="-6.16" orient="auto"
				markerUnits="strokeWidth" overflow="visible">
			<use xlink:href="#lend5" transform="scale(-3.52,-3.52) "/>
		</marker>
	</defs>
	<g v:mID="0" v:index="1" v:groupContext="foregroundPage">
		<title>Page-1</title>
		<v:pageProperties v:drawingScale="1" v:pageScale="1" v:drawingUnits="0" v:shadowOffsetX="9" v:shadowOffsetY="-9"/>
		<v:layer v:name="Connector" v:index="0"/>
		<g id="shape1-1" v:mID="1" v:groupContext="shape" transform="translate(0.25,-117.25)">
			<title>Rounded rectangle</title>
			<desc>Categorize into an existed “flow”</desc>
			<v:userDefs>
				<v:ud v:nameU="visVersion" v:val="VT0(14):26"/>
				<v:ud v:nameU="msvThemeColors" v:val="VT0(36):26"/>
				<v:ud v:nameU="msvThemeEffects" v:val="VT0(16):26"/>
			</v:userDefs>
			<v:textBlock v:margins="rect(4,4,4,4)"/>
			<v:textRect cx="90" cy="173.75" width="180" height="36"/>
			<path d="M171 191.75 A9.00007 9.00007 -180 0 0 180 182.75 L180 164.75 A9.00007 9.00007 -180 0 0 171 155.75 L9 155.75
						 A9.00007 9.00007 -180 0 0 -0 164.75 L0 182.75 A9.00007 9.00007 -180 0 0 9 191.75 L171 191.75 Z"
					class="st1"/>
			<text x="8.91" y="177.35" class="st2" v:langID="1033"><v:paragraph v:horizAlign="1"/><v:tabList/>Categorize into an <tspan
						class="st3">existed</tspan><tspan class="st3" v:langID="2052"> </tspan>“<tspan class="st3">flow</tspan>”</text>		</g>
		<g id="shape2-9" v:mID="2" v:groupContext="shape" transform="translate(0.25,-58.75)">
			<title>Rounded rectangle.2</title>
			<desc>Search for a “neighbor”</desc>
			<v:userDefs>
				<v:ud v:nameU="visVersion" v:val="VT0(14):26"/>
				<v:ud v:nameU="msvThemeColors" v:val="VT0(36):26"/>
				<v:ud v:nameU="msvThemeEffects" v:val="VT0(16):26"/>
			</v:userDefs>
			<v:textBlock v:margins="rect(4,4,4,4)"/>
			<v:textRect cx="90" cy="173.75" width="180" height="36"/>
			<path d="M171 191.75 A9.00007 9.00007 -180 0 0 180 182.75 L180 164.75 A9.00007 9.00007 -180 0 0 171 155.75 L9 155.75
						 A9.00007 9.00007 -180 0 0 -0 164.75 L0 182.75 A9.00007 9.00007 -180 0 0 9 191.75 L171 191.75 Z"
					class="st1"/>
			<text x="32.19" y="177.35" class="st2" v:langID="1033"><v:paragraph v:horizAlign="1"/><v:tabList/>Search for a “<tspan
						class="st3">neighbor</tspan>”</text>		</g>
		<g id="shape3-14" v:mID="3" v:groupContext="shape" transform="translate(225.813,-117.25)">
			<title>Rounded rectangle.3</title>
			<desc>Insert a new “flow” and store the packet</desc>
			<v:userDefs>
				<v:ud v:nameU="visVersion" v:val="VT0(14):26"/>
				<v:ud v:nameU="msvThemeColors" v:val="VT0(36):26"/>
				<v:ud v:nameU="msvThemeEffects" v:val="VT0(16):26"/>
			</v:userDefs>
			<v:textBlock v:margins="rect(4,4,4,4)"/>
			<v:textRect cx="105.188" cy="173.75" width="210.38" height="36"/>
			<path d="M201.37 191.75 A9.00007 9.00007 -180 0 0 210.37 182.75 L210.37 164.75 A9.00007 9.00007 -180 0 0 201.37 155.75
						 L9 155.75 A9.00007 9.00007 -180 0 0 -0 164.75 L0 182.75 A9.00007 9.00007 -180 0 0 9 191.75 L201.37 191.75
						 Z" class="st1"/>
			<text x="5.45" y="177.35" class="st2" v:langID="1033"><v:paragraph v:horizAlign="1"/><v:tabList/>Insert a <tspan
						class="st3">new </tspan>“<tspan class="st3">flow</tspan>” and <tspan class="st3">store </tspan>the packet</text>		</g>
		<g id="shape4-21" v:mID="4" v:groupContext="shape" transform="translate(225.25,-58.75)">
			<title>Rounded rectangle.4</title>
			<desc>Store the packet</desc>
			<v:userDefs>
				<v:ud v:nameU="visVersion" v:val="VT0(14):26"/>
				<v:ud v:nameU="msvThemeColors" v:val="VT0(36):26"/>
				<v:ud v:nameU="msvThemeEffects" v:val="VT0(16):26"/>
			</v:userDefs>
			<v:textBlock v:margins="rect(4,4,4,4)"/>
			<v:textRect cx="83.25" cy="173.75" width="166.5" height="36"/>
			<path d="M157.5 191.75 A9.00007 9.00007 -180 0 0 166.5 182.75 L166.5 164.75 A9.00007 9.00007 -180 0 0 157.5 155.75 L9
						 155.75 A9.00007 9.00007 -180 0 0 -0 164.75 L0 182.75 A9.00007 9.00007 -180 0 0 9 191.75 L157.5 191.75 Z"
					class="st1"/>
			<text x="42.81" y="177.35" class="st4" v:langID="1033"><v:paragraph v:horizAlign="1"/><v:tabList/>Store <tspan
						class="st5">the packet</tspan></text>		</g>
		<g id="shape5-26" v:mID="5" v:groupContext="shape" transform="translate(0.25,-0.25)">
			<title>Rounded rectangle.5</title>
			<desc>Merge the packet</desc>
			<v:userDefs>
				<v:ud v:nameU="visVersion" v:val="VT0(14):26"/>
				<v:ud v:nameU="msvThemeColors" v:val="VT0(36):26"/>
				<v:ud v:nameU="msvThemeEffects" v:val="VT0(16):26"/>
			</v:userDefs>
			<v:textBlock v:margins="rect(4,4,4,4)"/>
			<v:textRect cx="90" cy="173.75" width="180" height="36"/>
			<path d="M171 191.75 A9.00007 9.00007 -180 0 0 180 182.75 L180 164.75 A9.00007 9.00007 -180 0 0 171 155.75 L9 155.75
						 A9.00007 9.00007 -180 0 0 -0 164.75 L0 182.75 A9.00007 9.00007 -180 0 0 9 191.75 L171 191.75 Z"
					class="st1"/>
			<text x="46.59" y="177.35" class="st4" v:langID="1033"><v:paragraph v:horizAlign="1"/><v:tabList/>Merge <tspan
						class="st5">the packet</tspan></text>		</g>
		<g id="shape6-31" v:mID="6" v:groupContext="shape" v:layerMember="0" transform="translate(81.25,-175.75)">
			<title>Dynamic connector</title>
			<v:userDefs>
				<v:ud v:nameU="visVersion" v:val="VT0(14):26"/>
				<v:ud v:nameU="msvThemeColors" v:val="VT0(36):26"/>
				<v:ud v:nameU="msvThemeEffects" v:val="VT0(16):26"/>
			</v:userDefs>
			<path d="M9 191.75 L9 208.09" class="st6"/>
		</g>
		<g id="shape7-39" v:mID="7" v:groupContext="shape" v:layerMember="0" transform="translate(81.25,-117.25)">
			<title>Dynamic connector.7</title>
			<v:userDefs>
				<v:ud v:nameU="visVersion" v:val="VT0(14):26"/>
				<v:ud v:nameU="msvThemeColors" v:val="VT0(36):26"/>
				<v:ud v:nameU="msvThemeEffects" v:val="VT0(16):26"/>
			</v:userDefs>
			<path d="M9 191.75 L9 208.09" class="st6"/>
		</g>
		<g id="shape8-45" v:mID="8" v:groupContext="shape" v:layerMember="0" transform="translate(81.25,-58.75)">
			<title>Dynamic connector.8</title>
			<v:userDefs>
				<v:ud v:nameU="visVersion" v:val="VT0(14):26"/>
				<v:ud v:nameU="msvThemeColors" v:val="VT0(36):26"/>
				<v:ud v:nameU="msvThemeEffects" v:val="VT0(16):26"/>
			</v:userDefs>
			<path d="M9 191.75 L9 208.09" class="st6"/>
		</g>
		<g id="shape9-51" v:mID="9" v:groupContext="shape" v:layerMember="0" transform="translate(180.25,-126.25)">
			<title>Dynamic connector.9</title>
			<v:userDefs>
				<v:ud v:nameU="visVersion" v:val="VT0(14):26"/>
				<v:ud v:nameU="msvThemeColors" v:val="VT0(36):26"/>
				<v:ud v:nameU="msvThemeEffects" v:val="VT0(16):26"/>
			</v:userDefs>
			<path d="M0 182.75 L39.4 182.75" class="st6"/>
		</g>
		<g id="shape10-57" v:mID="10" v:groupContext="shape" v:layerMember="0" transform="translate(180.25,-67.75)">
			<title>Dynamic connector.10</title>
			<v:userDefs>
				<v:ud v:nameU="visVersion" v:val="VT0(14):26"/>
				<v:ud v:nameU="msvThemeColors" v:val="VT0(36):26"/>
				<v:ud v:nameU="msvThemeEffects" v:val="VT0(16):26"/>
			</v:userDefs>
			<path d="M0 182.75 L38.84 182.75" class="st6"/>
		</g>
		<g id="shape11-63" v:mID="11" v:groupContext="shape" transform="translate(65.5,-173.5)">
			<title>Sheet.11</title>
			<desc>packet</desc>
			<v:userDefs>
				<v:ud v:nameU="msvThemeColors" v:val="VT0(36):26"/>
				<v:ud v:nameU="msvThemeEffects" v:val="VT0(16):26"/>
			</v:userDefs>
			<v:textBlock v:margins="rect(4,4,4,4)"/>
			<v:textRect cx="24.75" cy="182.75" width="49.5" height="18"/>
			<rect x="0" y="173.75" width="49.5" height="18" class="st8"/>
			<text x="8.46" y="186.35" class="st2" v:langID="1033"><v:paragraph v:horizAlign="1"/><v:tabList/>packet</text>		</g>
		<g id="shape14-66" v:mID="14" v:groupContext="shape" transform="translate(98.125,-98.125)">
			<title>Sheet.14</title>
			<desc>find a “flow”</desc>
			<v:userDefs>
				<v:ud v:nameU="msvThemeColors" v:val="VT0(36):26"/>
				<v:ud v:nameU="msvThemeEffects" v:val="VT0(16):26"/>
			</v:userDefs>
			<v:textBlock v:margins="rect(4,4,4,4)"/>
			<v:textRect cx="32.0625" cy="183.875" width="64.13" height="15.75"/>
			<rect x="0" y="176" width="64.125" height="15.75" class="st8"/>
			<text x="6.41" y="186.88" class="st9" v:langID="1033"><v:paragraph v:horizAlign="1"/><v:tabList/>find a “flow”</text>		</g>
		<g id="shape15-69" v:mID="15" v:groupContext="shape" transform="translate(99.25,-39.625)">
			<title>Sheet.15</title>
			<desc>find a “neighbor”</desc>
			<v:userDefs>
				<v:ud v:nameU="msvThemeColors" v:val="VT0(36):26"/>
				<v:ud v:nameU="msvThemeEffects" v:val="VT0(16):26"/>
			</v:userDefs>
			<v:textBlock v:margins="rect(4,4,4,4)"/>
			<v:textRect cx="40.5" cy="183.875" width="81" height="15.75"/>
			<rect x="0" y="176" width="81" height="15.75" class="st8"/>
			<text x="5.48" y="186.88" class="st9" v:langID="1033"><v:paragraph v:horizAlign="1"/><v:tabList/>find a “neighbor”</text>		</g>
		<g id="shape13-72" v:mID="13" v:groupContext="shape" transform="translate(181.375,-79)">
			<title>Sheet.13</title>
			<desc>not find</desc>
			<v:userDefs>
				<v:ud v:nameU="msvThemeColors" v:val="VT0(36):26"/>
				<v:ud v:nameU="msvThemeEffects" v:val="VT0(16):26"/>
			</v:userDefs>
			<v:textBlock v:margins="rect(4,4,4,4)"/>
			<v:textRect cx="21.375" cy="183.875" width="42.75" height="15.75"/>
			<rect x="0" y="176" width="42.75" height="15.75" class="st8"/>
			<text x="5.38" y="186.88" class="st9" v:langID="1033"><v:paragraph v:horizAlign="1"/><v:tabList/>not find</text>		</g>
		<g id="shape12-75" v:mID="12" v:groupContext="shape" transform="translate(181.375,-137.5)">
			<title>Sheet.12</title>
			<desc>not find</desc>
			<v:userDefs>
				<v:ud v:nameU="msvThemeColors" v:val="VT0(36):26"/>
				<v:ud v:nameU="msvThemeEffects" v:val="VT0(16):26"/>
			</v:userDefs>
			<v:textBlock v:margins="rect(4,4,4,4)"/>
			<v:textRect cx="21.375" cy="183.875" width="42.75" height="15.75"/>
			<rect x="0" y="176" width="42.75" height="15.75" class="st8"/>
			<text x="5.38" y="186.88" class="st9" v:langID="1033"><v:paragraph v:horizAlign="1"/><v:tabList/>not find</text>		</g>
	</g>
</svg>
