<?xml version="1.0" encoding="UTF-8" standalone="no"?>
<!DOCTYPE svg PUBLIC "-//W3C//DTD SVG 1.1//EN" "http://www.w3.org/Graphics/SVG/1.1/DTD/svg11.dtd">
<!-- Generated by Microsoft Visio, SVG Export memship_i3.svg Page-1 -->
<svg xmlns="http://www.w3.org/2000/svg" xmlns:xlink="http://www.w3.org/1999/xlink" xmlns:ev="http://www.w3.org/2001/xml-events"
		width="4.71875in" height="2.84375in" viewBox="0 0 339.75 204.75" xml:space="preserve" color-interpolation-filters="sRGB"
		class="st14">
	<style type="text/css">
	<![CDATA[
		.st1 {visibility:visible}
		.st2 {fill:#5b9bd5;fill-opacity:0.22;filter:url(#filter_2);stroke:#5b9bd5;stroke-opacity:0.22}
		.st3 {fill:#5b9bd5;stroke:#c7c8c8;stroke-width:0.25}
		.st4 {marker-end:url(#mrkr5-32);stroke:#5b9bd5;stroke-linecap:round;stroke-linejoin:round;stroke-width:1}
		.st5 {fill:#5b9bd5;fill-opacity:1;stroke:#5b9bd5;stroke-opacity:1;stroke-width:0.28409090909091}
		.st6 {fill:#feffff;font-family:Calibri;font-size:0.833336em}
		.st7 {font-size:1em}
		.st8 {fill:#deebf6;stroke:#c7c8c8;stroke-width:0.25}
		.st9 {fill:#000000;font-family:Calibri;font-size:0.833336em}
		.st10 {marker-end:url(#mrkr5-84);stroke:#ff0000;stroke-linecap:round;stroke-linejoin:round;stroke-width:1}
		.st11 {fill:#ff0000;fill-opacity:1;stroke:#ff0000;stroke-opacity:1;stroke-width:0.28409090909091}
		.st12 {fill:none;stroke:none;stroke-width:0.25}
		.st13 {fill:#ff0000;font-family:Calibri;font-size:1.00001em}
		.st14 {fill:none;fill-rule:evenodd;font-size:12px;overflow:visible;stroke-linecap:square;stroke-miterlimit:3}
	]]>
	</style>

	<defs id="Markers">
		<g id="lend5">
			<path d="M 2 1 L 0 0 L 1.98117 -0.993387 C 1.67173 -0.364515 1.67301 0.372641 1.98465 1.00043 " style="stroke:none"/>
		</g>
		<marker id="mrkr5-32" class="st5" refX="-6.16" orient="auto" markerUnits="strokeWidth" overflow="visible">
			<use xlink:href="#lend5" transform="scale(-3.52,-3.52) "/>
		</marker>
		<marker id="mrkr5-84" class="st11" refX="-5.8" orient="auto" markerUnits="strokeWidth" overflow="visible">
			<use xlink:href="#lend5" transform="scale(-3.52,-3.52) "/>
		</marker>
	</defs>
	<defs id="Filters">
		<filter id="filter_2">
			<feGaussianBlur stdDeviation="2"/>
		</filter>
	</defs>
	<g>
		<title>Page-1</title>
		<g id="group174-1" transform="translate(3.0294,-5.3478)">
			<title>Sheet.174</title>
			<g id="shape155-2" transform="translate(99,-99)">
				<title>Circle</title>
				<g id="shadow155-3" transform="matrix(1,0,0,1,0.345598,1.97279)" class="st1">
					<path d="M0 186.75 A18 18 0 0 1 36 186.75 A18 18 0 1 1 0 186.75 Z" class="st2"/>
				</g>
				<path d="M0 186.75 A18 18 0 0 1 36 186.75 A18 18 0 1 1 0 186.75 Z" class="st3"/>
			</g>
			<g id="shape156-7" transform="translate(207,-108)">
				<title>Circle.156</title>
				<g id="shadow156-8" transform="matrix(1,0,0,1,0.345598,1.97279)" class="st1">
					<path d="M0 186.75 A18 18 0 0 1 36 186.75 A18 18 0 1 1 0 186.75 Z" class="st2"/>
				</g>
				<path d="M0 186.75 A18 18 0 0 1 36 186.75 A18 18 0 1 1 0 186.75 Z" class="st3"/>
			</g>
			<g id="shape157-12" transform="translate(153,-162)">
				<title>Circle.157</title>
				<g id="shadow157-13" transform="matrix(1,0,0,1,0.345598,1.97279)" class="st1">
					<path d="M0 186.75 A18 18 0 0 1 36 186.75 A18 18 0 1 1 0 186.75 Z" class="st2"/>
				</g>
				<path d="M0 186.75 A18 18 0 0 1 36 186.75 A18 18 0 1 1 0 186.75 Z" class="st3"/>
			</g>
			<g id="shape158-17" transform="translate(297,-99)">
				<title>Circle.158</title>
				<g id="shadow158-18" transform="matrix(1,0,0,1,0.345598,1.97279)" class="st1">
					<path d="M0 186.75 A18 18 0 0 1 36 186.75 A18 18 0 1 1 0 186.75 Z" class="st2"/>
				</g>
				<path d="M0 186.75 A18 18 0 0 1 36 186.75 A18 18 0 1 1 0 186.75 Z" class="st3"/>
			</g>
			<g id="shape159-22" transform="translate(180,-36)">
				<title>Circle.159</title>
				<g id="shadow159-23" transform="matrix(1,0,0,1,0.345598,1.97279)" class="st1">
					<path d="M0 186.75 A18 18 0 0 1 36 186.75 A18 18 0 1 1 0 186.75 Z" class="st2"/>
				</g>
				<path d="M0 186.75 A18 18 0 0 1 36 186.75 A18 18 0 1 1 0 186.75 Z" class="st3"/>
			</g>
			<g id="shape160-27" transform="translate(109.604,-115.419) rotate(-7.12502)">
				<title>Sheet.160</title>
				<path d="M0 204.75 L66.4 204.75" class="st4"/>
			</g>
			<g id="shape161-33" transform="translate(276.661,-123.214) rotate(9.46232)">
				<title>Sheet.161</title>
				<path d="M0 204.75 L48.58 204.75" class="st4"/>
			</g>
			<g id="shape162-38" transform="translate(246.135,262.572) rotate(-160.346)">
				<title>Sheet.162</title>
				<path d="M0 204.75 L127.63 204.75" class="st4"/>
			</g>
			<g id="shape163-43" transform="translate(284.391,198.775) rotate(141.977)">
				<title>Sheet.163</title>
				<path d="M0 204.75 L46.23 204.75" class="st4"/>
			</g>
			<g id="shape164-48" transform="translate(70.6118,307.655) rotate(-145.945)">
				<title>Sheet.164</title>
				<path d="M0 204.75 L60.88 204.75" class="st4"/>
			</g>
			<g id="shape167-53" transform="translate(72,0)">
				<title>Rectangle.167</title>
				<desc>BF of IDs</desc>
				<g id="shadow167-54" transform="matrix(1,0,0,1,0.345598,1.97279)" class="st1">
					<rect x="0" y="177.75" width="36" height="27" class="st2"/>
				</g>
				<rect x="0" y="177.75" width="36" height="27" class="st3"/>
				<text x="7.69" y="188.25" class="st6">BF of <tspan x="11.71" dy="1.2em" class="st7">IDs</tspan></text>			</g>
			<g id="shape168-60" transform="translate(108,0)">
				<title>Rectangle.168</title>
				<desc>Packet</desc>
				<g id="shadow168-61" transform="matrix(1,0,0,1,0.345598,1.97279)" class="st1">
					<rect x="0" y="177.75" width="90" height="27" class="st2"/>
				</g>
				<rect x="0" y="177.75" width="90" height="27" class="st8"/>
				<text x="31.47" y="194.25" class="st9">Packet</text>			</g>
			<g id="shape169-66" transform="translate(0,-63)">
				<title>Rectangle.169</title>
				<desc>BF of IDs</desc>
				<g id="shadow169-67" transform="matrix(1,0,0,1,0.345598,1.97279)" class="st1">
					<rect x="0" y="177.75" width="36" height="27" class="st2"/>
				</g>
				<rect x="0" y="177.75" width="36" height="27" class="st3"/>
				<text x="7.69" y="188.25" class="st6">BF of <tspan x="11.71" dy="1.2em" class="st7">IDs</tspan></text>			</g>
			<g id="shape170-73" transform="translate(36,-63)">
				<title>Rectangle.170</title>
				<desc>Packet</desc>
				<g id="shadow170-74" transform="matrix(1,0,0,1,0.345598,1.97279)" class="st1">
					<rect x="0" y="177.75" width="90" height="27" class="st2"/>
				</g>
				<rect x="0" y="177.75" width="90" height="27" class="st8"/>
				<text x="31.47" y="194.25" class="st9">Packet</text>			</g>
			<g id="shape171-79" transform="translate(240.248,331.493) rotate(161.565)">
				<title>Sheet.171</title>
				<path d="M-0 190.52 A81.3416 36.0611 -153.48 0 0 82.31 195.86 L82.49 195.55" class="st10"/>
			</g>
			<g id="shape172-85" transform="translate(156.426,260.029) rotate(161.565)">
				<title>Sheet.172</title>
				<path d="M-0 181.6 A88.1422 54.1439 -124.1 0 0 82.68 187.13 L82.83 186.81" class="st10"/>
			</g>
			<g id="shape173-90" transform="translate(18,-121.5)">
				<title>Sheet.173</title>
				<desc>Encode ID</desc>
				<rect x="0" y="177.75" width="63" height="27" class="st12"/>
				<text x="7.02" y="194.85" class="st13">Encode ID</text>			</g>
		</g>
	</g>
</svg>
