<?xml version="1.0" encoding="UTF-8" standalone="no"?>
<!-- SPDX-License-Identifier: BSD-3-Clause -->

<!-- Copyright(c) 2022 NVIDIA Corporation & Affiliates -->

<svg
   width="880"
   height="610"
   overflow="hidden"
   version="1.1"
   id="svg103"
   sodipodi:docname="rte_flow_async_usage.svg"
   inkscape:version="1.1.1 (3bf5ae0d25, 2021-09-20)"
   xmlns:inkscape="http://www.inkscape.org/namespaces/inkscape"
   xmlns:sodipodi="http://sodipodi.sourceforge.net/DTD/sodipodi-0.dtd"
   xmlns="http://www.w3.org/2000/svg"
   xmlns:svg="http://www.w3.org/2000/svg">
  <sodipodi:namedview
     id="namedview105"
     pagecolor="#ffffff"
     bordercolor="#666666"
     borderopacity="1.0"
     inkscape:pageshadow="2"
     inkscape:pageopacity="0.0"
     inkscape:pagecheckerboard="0"
     showgrid="false"
     inkscape:zoom="1.3311475"
     inkscape:cx="439.84607"
     inkscape:cy="305.37563"
     inkscape:window-width="2400"
     inkscape:window-height="1271"
     inkscape:window-x="-9"
     inkscape:window-y="-9"
     inkscape:window-maximized="1"
     inkscape:current-layer="g101" />
  <defs
     id="defs5">
    <clipPath
       id="clip0">
      <rect
         x="0"
         y="0"
         width="880"
         height="610"
         id="rect2" />
    </clipPath>
  </defs>
  <g
     clip-path="url(#clip0)"
     id="g101">
    <rect
       x="0"
       y="0"
       width="880"
       height="610"
       fill="#FFFFFF"
       id="rect7" />
    <rect
       x="333.5"
       y="0.500053"
       width="234"
       height="45"
       stroke="#000000"
       stroke-width="1.33333"
       stroke-miterlimit="8"
       fill="#A6A6A6"
       id="rect9" />
    <text
       font-family="Consolas, Consolas_MSFontService, sans-serif"
       font-weight="400"
       font-size="19px"
       transform="translate(357.196,29)"
       id="text11">rte_eth_rx_burst()</text>
    <rect
       x="333.5"
       y="63.5001"
       width="234"
       height="45"
       stroke="#000000"
       stroke-width="1.33333"
       stroke-miterlimit="8"
       fill="#D9D9D9"
       id="rect13" />
    <text
       font-family="Calibri,Calibri_MSFontService,sans-serif"
       font-weight="400"
       font-size="19"
       transform="translate(394.666 91)"
       id="text17">analyze <tspan
   font-size="19"
   x="60.9267"
   y="0"
   id="tspan15">packet </tspan></text>
    <rect
       x="587.84119"
       y="279.47534"
       width="200.65393"
       height="46.049305"
       stroke="#000000"
       stroke-width="1.20888"
       stroke-miterlimit="8"
       fill="#ffffff"
       id="rect19" />
    <text
       font-family="Calibri, Calibri_MSFontService, sans-serif"
       font-weight="400"
       font-size="19px"
       id="text21"
       x="595.42902"
       y="308">rte_flow_async_create()</text>
    <path
       d="M333.5 384 450.5 350.5 567.5 384 450.5 417.5Z"
       stroke="#000000"
       stroke-width="1.33333"
       stroke-miterlimit="8"
       fill="#D9D9D9"
       fill-rule="evenodd"
       id="path23" />
    <text
       font-family="Calibri,Calibri_MSFontService,sans-serif"
       font-weight="400"
       font-size="19"
       transform="translate(430.069 378)"
       id="text27">more <tspan
   font-size="19"
   x="-12.94"
   y="23"
   id="tspan25">packets?</tspan></text>
    <path
       d="M689.249 325.5 689.249 338.402 450.5 338.402 450.833 338.069 450.833 343.971 450.167 343.971 450.167 337.735 688.916 337.735 688.582 338.069 688.582 325.5ZM454.5 342.638 450.5 350.638 446.5 342.638Z"
       id="path29" />
    <path
       d="M450.833 45.5 450.833 56.8197 450.167 56.8197 450.167 45.5001ZM454.5 55.4864 450.5 63.4864 446.5 55.4864Z"
       id="path31" />
    <path
       d="M450.833 108.5 450.833 120.375 450.167 120.375 450.167 108.5ZM454.5 119.041 450.5 127.041 446.5 119.041Z"
       id="path33" />
    <path
       d="M451.833 507.5 451.833 533.61 451.167 533.61 451.167 507.5ZM455.5 532.277 451.5 540.277 447.5 532.277Z"
       id="path35" />
    <path
       d="M0 0.333333-23.9993 0.333333-23.666 0-23.666 141.649-23.9993 141.316 562.966 141.316 562.633 141.649 562.633 124.315 563.299 124.315 563.299 141.983-24.3327 141.983-24.3327-0.333333 0-0.333333ZM558.966 125.649 562.966 117.649 566.966 125.649Z"
       transform="matrix(-6.12323e-17 -1 -1 6.12323e-17 451.149 585.466)"
       id="path37" />
    <path
       d="M333.5 160.5 450.5 126.5 567.5 160.5 450.5 194.5Z"
       stroke="#000000"
       stroke-width="1.33333"
       stroke-miterlimit="8"
       fill="#D9D9D9"
       fill-rule="evenodd"
       id="path39" />
    <text
       font-family="Calibri,Calibri_MSFontService,sans-serif"
       font-weight="400"
       font-size="19"
       transform="translate(417.576 155)"
       id="text43">add new <tspan
   font-size="19"
   x="13.2867"
   y="23"
   id="tspan41">rule?</tspan></text>
    <path
       d="M567.5 160.167 689.267 160.167 689.267 273.228 688.6 273.228 688.6 160.5 688.933 160.833 567.5 160.833ZM692.933 271.894 688.933 279.894 684.933 271.894Z"
       id="path45" />
    <rect
       x="602.5"
       y="127.5"
       width="46"
       height="30"
       stroke="#000000"
       stroke-width="0.666667"
       stroke-miterlimit="8"
       fill="#D9D9D9"
       id="rect47" />
    <text
       font-family="Calibri,Calibri_MSFontService,sans-serif"
       font-weight="400"
       font-size="19"
       transform="translate(611.34 148)"
       id="text49">yes</text>
    <rect
       x="254.5"
       y="126.5"
       width="46"
       height="31"
       stroke="#000000"
       stroke-width="0.666667"
       stroke-miterlimit="8"
       fill="#D9D9D9"
       id="rect51" />
    <text
       font-family="Calibri,Calibri_MSFontService,sans-serif"
       font-weight="400"
       font-size="19"
       transform="translate(267.182 147)"
       id="text53">no</text>
    <path
       d="M0-0.333333 251.563-0.333333 251.563 298.328 8.00002 298.328 8.00002 297.662 251.229 297.662 250.896 297.995 250.896 0 251.229 0.333333 0 0.333333ZM9.33333 301.995 1.33333 297.995 9.33333 293.995Z"
       transform="matrix(1 0 0 -1 567.5 383.495)"
       id="path55" />
    <path
       d="M86.5001 213.5 203.5 180.5 320.5 213.5 203.5 246.5Z"
       stroke="#000000"
       stroke-width="1.33333"
       stroke-miterlimit="8"
       fill="#D9D9D9"
       fill-rule="evenodd"
       id="path57" />
    <text
       font-family="Calibri,Calibri_MSFontService,sans-serif"
       font-weight="400"
       font-size="19"
       transform="translate(159.155 208)"
       id="text61">destroy the <tspan
   font-size="19"
   x="24.0333"
   y="23"
   id="tspan59">rule?</tspan></text>
    <path
       d="M0-0.333333 131.029-0.333333 131.029 12.9778 130.363 12.9778 130.363 0 130.696 0.333333 0 0.333333ZM134.696 11.6445 130.696 19.6445 126.696 11.6445Z"
       transform="matrix(-1 1.22465e-16 1.22465e-16 1 334.196 160.5)"
       id="path63" />
    <rect
       x="92.600937"
       y="280.48242"
       width="210.14578"
       height="45.035149"
       stroke="#000000"
       stroke-width="1.24464"
       stroke-miterlimit="8"
       fill="#ffffff"
       id="rect65" />
    <text
       font-family="Calibri, Calibri_MSFontService, sans-serif"
       font-weight="400"
       font-size="19px"
       id="text67"
       x="100.2282"
       y="308">rte_flow_async_destroy()</text>
    <path
       d="M0 0.333333-24.0001 0.333333-23.6667 0-23.6667 49.9498-24.0001 49.6165 121.748 49.6165 121.748 59.958 121.082 59.958 121.082 49.9498 121.415 50.2832-24.3334 50.2832-24.3334-0.333333 0-0.333333ZM125.415 58.6247 121.415 66.6247 117.415 58.6247Z"
       transform="matrix(-1 0 0 1 319.915 213.5)"
       id="path69" />
    <path
       d="M86.5001 213.833 62.5002 213.833 62.8335 213.5 62.8335 383.95 62.5002 383.617 327.511 383.617 327.511 384.283 62.1668 384.283 62.1668 213.167 86.5001 213.167ZM326.178 379.95 334.178 383.95 326.178 387.95Z"
       id="path71" />
    <path
       d="M0-0.333333 12.8273-0.333333 12.8273 252.111 12.494 251.778 18.321 251.778 18.321 252.445 12.1607 252.445 12.1607 0 12.494 0.333333 0 0.333333ZM16.9877 248.111 24.9877 252.111 16.9877 256.111Z"
       transform="matrix(1.83697e-16 1 1 -1.83697e-16 198.5 325.5)"
       id="path73" />
    <rect
       x="357.15436"
       y="540.45984"
       width="183.59026"
       height="45.08033"
       stroke="#000000"
       stroke-width="1.25785"
       stroke-miterlimit="8"
       fill="#ffffff"
       id="rect75" />
    <text
       font-family="Calibri, Calibri_MSFontService, sans-serif"
       font-weight="400"
       font-size="19px"
       id="text77"
       x="393.08301"
       y="569">rte_flow_pull()</text>
    <rect
       x="357.15436"
       y="462.45984"
       width="183.59026"
       height="45.08033"
       stroke="#000000"
       stroke-width="1.25785"
       stroke-miterlimit="8"
       fill="#ffffff"
       id="rect79" />
    <text
       font-family="Calibri, Calibri_MSFontService, sans-serif"
       font-weight="400"
       font-size="19px"
       id="text81"
       x="389.19"
       y="491">rte_flow_push()</text>
    <path
       d="M450.833 417.495 451.402 455.999 450.735 456.008 450.167 417.505ZM455.048 454.611 451.167 462.669 447.049 454.729Z"
       id="path83" />
    <rect
       x="0.500053"
       y="287.5"
       width="46"
       height="30"
       stroke="#000000"
       stroke-width="0.666667"
       stroke-miterlimit="8"
       fill="#D9D9D9"
       id="rect85" />
    <text
       font-family="Calibri,Calibri_MSFontService,sans-serif"
       font-weight="400"
       font-size="19"
       transform="translate(12.8617 308)"
       id="text87">no</text>
    <rect
       x="357.5"
       y="223.5"
       width="47"
       height="31"
       stroke="#000000"
       stroke-width="0.666667"
       stroke-miterlimit="8"
       fill="#D9D9D9"
       id="rect89" />
    <text
       font-family="Calibri,Calibri_MSFontService,sans-serif"
       font-weight="400"
       font-size="19"
       transform="translate(367.001 244)"
       id="text91">yes</text>
    <rect
       x="469.5"
       y="421.5"
       width="46"
       height="30"
       stroke="#000000"
       stroke-width="0.666667"
       stroke-miterlimit="8"
       fill="#D9D9D9"
       id="rect93" />
    <text
       font-family="Calibri,Calibri_MSFontService,sans-serif"
       font-weight="400"
       font-size="19"
       transform="translate(481.872 442)"
       id="text95">no</text>
    <rect
       x="832.5"
       y="223.5"
       width="46"
       height="31"
       stroke="#000000"
       stroke-width="0.666667"
       stroke-miterlimit="8"
       fill="#D9D9D9"
       id="rect97" />
    <text
       font-family="Calibri,Calibri_MSFontService,sans-serif"
       font-weight="400"
       font-size="19"
       transform="translate(841.777 244)"
       id="text99">yes</text>
  </g>
</svg>
