<?xml version="1.0" encoding="UTF-8" standalone="no"?>
<!DOCTYPE svg PUBLIC "-//W3C//DTD SVG 1.1//EN" "http://www.w3.org/Graphics/SVG/1.1/DTD/svg11.dtd">
<!-- Generated by Microsoft Visio, SVG Export Drawing5.svg Page-1 -->
<svg xmlns="http://www.w3.org/2000/svg" xmlns:xlink="http://www.w3.org/1999/xlink" xmlns:ev="http://www.w3.org/2001/xml-events"
		xmlns:v="http://schemas.microsoft.com/visio/2003/SVGExtensions/" width="1.89687in" height="1.60662in"
		viewBox="0 0 136.575 115.676" xml:space="preserve" color-interpolation-filters="sRGB" class="st7">
	<v:documentProperties v:langID="16393" v:metric="true" v:viewMarkup="false"/>

	<style type="text/css">
	<![CDATA[
		.st1 {visibility:visible}
		.st2 {fill:#5b9bd5;fill-opacity:0.22;filter:url(#filter_2);stroke:#5b9bd5;stroke-opacity:0.22}
		.st3 {fill:#5b9bd5;stroke:#c7c8c8;stroke-width:0.25}
		.st4 {fill:#feffff;font-family:Calibri;font-size:0.833336em}
		.st5 {fill:none}
		.st6 {stroke:#5b9bd5;stroke-linecap:round;stroke-linejoin:round;stroke-width:0.999999}
		.st7 {fill:none;fill-rule:evenodd;font-size:12px;overflow:visible;stroke-linecap:square;stroke-miterlimit:3}
	]]>
	</style>

	<defs id="Filters">
		<filter id="filter_2">
			<feGaussianBlur stdDeviation="2"/>
		</filter>
	</defs>
	<g v:mID="0" v:index="1" v:groupContext="foregroundPage">
		<title>Page-1</title>
		<v:pageProperties v:drawingScale="0.0393701" v:pageScale="0.0393701" v:drawingUnits="24" v:shadowOffsetX="8.50394"
				v:shadowOffsetY="-8.50394"/>
		<g id="group47-1" transform="translate(3.02997,-5.34779)" v:mID="47" v:groupContext="group">
			<title>Sheet.47</title>
			<g id="shape36-2" v:mID="36" v:groupContext="shape" transform="translate(66.2255,-27.0553)">
				<title>Circle</title>
				<desc>priv_xform</desc>
				<v:userDefs>
					<v:ud v:nameU="visVersion" v:val="VT0(15):26"/>
				</v:userDefs>
				<v:textBlock v:margins="rect(3.99999,3.99999,3.99999,3.99999)" v:tabSpace="42.5196"/>
				<v:textRect cx="31.7998" cy="88.2699" width="55.66" height="40.7542"/>
				<g id="shadow36-3" v:groupContext="shadow" v:shadowOffsetX="0.345598" v:shadowOffsetY="-1.97279" v:shadowType="1"
						transform="matrix(1,0,0,1,0.345598,1.97279)" class="st1">
					<path d="M0 88.27 A31.7998 27.1694 0 1 1 63.6 88.27 A31.7998 27.1694 0 1 1 0 88.27 Z" class="st2"/>
				</g>
				<path d="M0 88.27 A31.7998 27.1694 0 1 1 63.6 88.27 A31.7998 27.1694 0 1 1 0 88.27 Z" class="st3"/>
				<text x="9.47" y="91.27" class="st4" v:langID="16393"><v:paragraph v:horizAlign="1"/><v:tabList/>priv_xform</text>			</g>
			<g id="shape39-8" v:mID="39" v:groupContext="shape" transform="translate(-5.9952E-015,-81.5083)">
				<title>Circle.40</title>
				<desc>op</desc>
				<v:userDefs>
					<v:ud v:nameU="visVersion" v:val="VT0(15):26"/>
				</v:userDefs>
				<v:textBlock v:margins="rect(3.99999,3.99999,3.99999,3.99999)" v:tabSpace="42.5196"/>
				<v:textRect cx="13.5848" cy="101.968" width="23.78" height="20.3771"/>
				<g id="shadow39-9" v:groupContext="shadow" v:shadowOffsetX="0.345598" v:shadowOffsetY="-1.97279" v:shadowType="1"
						transform="matrix(1,0,0,1,0.345598,1.97279)" class="st1">
					<path d="M0 101.97 A13.5848 13.5848 0 1 1 27.17 101.97 A13.5848 13.5848 0 1 1 0 101.97 Z" class="st2"/>
				</g>
				<path d="M0 101.97 A13.5848 13.5848 0 1 1 27.17 101.97 A13.5848 13.5848 0 1 1 0 101.97 Z" class="st3"/>
				<text x="8.32" y="104.97" class="st4" v:langID="16393"><v:paragraph v:horizAlign="1"/><v:tabList/>op</text>			</g>
			<g id="shape40-14" v:mID="40" v:groupContext="shape" transform="translate(-5.9952E-015,-54.3389)">
				<title>Circle.41</title>
				<desc>op</desc>
				<v:userDefs>
					<v:ud v:nameU="visVersion" v:val="VT0(15):26"/>
				</v:userDefs>
				<v:textBlock v:margins="rect(3.99999,3.99999,3.99999,3.99999)" v:tabSpace="42.5196"/>
				<v:textRect cx="13.5848" cy="101.968" width="23.78" height="20.3771"/>
				<g id="shadow40-15" v:groupContext="shadow" v:shadowOffsetX="0.345598" v:shadowOffsetY="-1.97279" v:shadowType="1"
						transform="matrix(1,0,0,1,0.345598,1.97279)" class="st1">
					<path d="M0 101.97 A13.5848 13.5848 0 1 1 27.17 101.97 A13.5848 13.5848 0 1 1 0 101.97 Z" class="st2"/>
				</g>
				<path d="M0 101.97 A13.5848 13.5848 0 1 1 27.17 101.97 A13.5848 13.5848 0 1 1 0 101.97 Z" class="st3"/>
				<text x="8.32" y="104.97" class="st4" v:langID="16393"><v:paragraph v:horizAlign="1"/><v:tabList/>op</text>			</g>
			<g id="shape41-20" v:mID="41" v:groupContext="shape" transform="translate(-5.9952E-015,-27.1694)">
				<title>Circle.42</title>
				<desc>op</desc>
				<v:userDefs>
					<v:ud v:nameU="visVersion" v:val="VT0(15):26"/>
				</v:userDefs>
				<v:textBlock v:margins="rect(3.99999,3.99999,3.99999,3.99999)" v:tabSpace="42.5196"/>
				<v:textRect cx="13.5848" cy="101.968" width="23.78" height="20.3771"/>
				<g id="shadow41-21" v:groupContext="shadow" v:shadowOffsetX="0.345598" v:shadowOffsetY="-1.97279" v:shadowType="1"
						transform="matrix(1,0,0,1,0.345598,1.97279)" class="st1">
					<path d="M0 101.97 A13.5848 13.5848 0 1 1 27.17 101.97 A13.5848 13.5848 0 1 1 0 101.97 Z" class="st2"/>
				</g>
				<path d="M0 101.97 A13.5848 13.5848 0 1 1 27.17 101.97 A13.5848 13.5848 0 1 1 0 101.97 Z" class="st3"/>
				<text x="8.32" y="104.97" class="st4" v:langID="16393"><v:paragraph v:horizAlign="1"/><v:tabList/>op</text>			</g>
			<g id="shape42-26" v:mID="42" v:groupContext="shape">
				<title>Circle.249</title>
				<desc>op</desc>
				<v:userDefs>
					<v:ud v:nameU="visVersion" v:val="VT0(15):26"/>
				</v:userDefs>
				<v:textBlock v:margins="rect(3.99999,3.99999,3.99999,3.99999)" v:tabSpace="42.5196"/>
				<v:textRect cx="13.5848" cy="101.968" width="23.78" height="20.3771"/>
				<g id="shadow42-27" v:groupContext="shadow" v:shadowOffsetX="0.345598" v:shadowOffsetY="-1.97279" v:shadowType="1"
						transform="matrix(1,0,0,1,0.345598,1.97279)" class="st1">
					<path d="M0 101.97 A13.5848 13.5848 0 1 1 27.17 101.97 A13.5848 13.5848 0 1 1 0 101.97 Z" class="st2"/>
				</g>
				<path d="M0 101.97 A13.5848 13.5848 0 1 1 27.17 101.97 A13.5848 13.5848 0 1 1 0 101.97 Z" class="st3"/>
				<text x="8.32" y="104.97" class="st4" v:langID="16393"><v:paragraph v:horizAlign="1"/><v:tabList/>op</text>			</g>
			<g id="shape43-32" v:mID="43" v:groupContext="shape" transform="translate(75.3544,-84.7046) rotate(24.6166)">
				<title>Sheet.43</title>
				<path d="M0 115.68 L51.71 115.68 L0 115.68 Z" class="st5"/>
				<path d="M0 115.68 L51.71 115.68" class="st6"/>
			</g>
			<g id="shape44-35" v:mID="44" v:groupContext="shape" transform="translate(40.8189,-67.2403) rotate(6.77654)">
				<title>Sheet.44</title>
				<path d="M0 115.68 L40.8 115.68 L0 115.68 Z" class="st5"/>
				<path d="M0 115.68 L40.8 115.68" class="st6"/>
			</g>
			<g id="shape45-38" v:mID="45" v:groupContext="shape" transform="translate(-10.8336,-34.4585) rotate(-19.179)">
				<title>Sheet.45</title>
				<path d="M0 115.68 L41.35 115.68 L0 115.68 Z" class="st5"/>
				<path d="M0 115.68 L41.35 115.68" class="st6"/>
			</g>
			<g id="shape46-41" v:mID="46" v:groupContext="shape" transform="translate(-21.0159,-3.19618) rotate(-24.6166)">
				<title>Sheet.46</title>
				<path d="M0 115.68 L51.71 115.68 L0 115.68 Z" class="st5"/>
				<path d="M0 115.68 L51.71 115.68" class="st6"/>
			</g>
		</g>
	</g>
</svg>
