<?xml version="1.0" encoding="UTF-8" standalone="no"?>
<!DOCTYPE svg PUBLIC "-//W3C//DTD SVG 1.1//EN" "http://www.w3.org/Graphics/SVG/1.1/DTD/svg11.dtd">
<!-- Generated by Microsoft Visio, SVG Export stateless-ops.svg Page-1 -->
<svg xmlns="http://www.w3.org/2000/svg" xmlns:xlink="http://www.w3.org/1999/xlink" xmlns:ev="http://www.w3.org/2001/xml-events"
		xmlns:v="http://schemas.microsoft.com/visio/2003/SVGExtensions/" width="2.24024in" height="2.70592in"
		viewBox="0 0 161.298 194.826" xml:space="preserve" color-interpolation-filters="sRGB" class="st8">
	<v:documentProperties v:langID="16393" v:metric="true" v:viewMarkup="false"/>

	<style type="text/css">
	<![CDATA[
		.st1 {visibility:visible}
		.st2 {fill:#5b9bd5;fill-opacity:0.22;filter:url(#filter_2);stroke:#5b9bd5;stroke-opacity:0.22}
		.st3 {fill:#5b9bd5;stroke:#c7c8c8;stroke-width:0.25}
		.st4 {fill:#feffff;font-family:Calibri;font-size:0.833336em}
		.st5 {fill:#feffff;font-family:Calibri;font-size:0.75em}
		.st6 {marker-start:url(#mrkr13-19);stroke:#5b9bd5;stroke-linecap:round;stroke-linejoin:round;stroke-width:1}
		.st7 {fill:#5b9bd5;fill-opacity:1;stroke:#5b9bd5;stroke-opacity:1;stroke-width:0.28409094308259}
		.st8 {fill:none;fill-rule:evenodd;font-size:12px;overflow:visible;stroke-linecap:square;stroke-miterlimit:3}
	]]>
	</style>

	<defs id="Markers">
		<g id="lend13">
			<path d="M 3 1 L 0 0 L 3 -1 L 3 1 " style="stroke:none"/>
		</g>
		<marker id="mrkr13-19" class="st7" v:arrowType="13" v:arrowSize="2" v:setback="0" refX="0" orient="auto"
				markerUnits="strokeWidth" overflow="visible">
			<use xlink:href="#lend13" transform="scale(3.5199995788296) "/>
		</marker>
	</defs>
	<defs id="Filters">
		<filter id="filter_2">
			<feGaussianBlur stdDeviation="2"/>
		</filter>
	</defs>
	<g v:mID="0" v:index="1" v:groupContext="foregroundPage">
		<title>Page-1</title>
		<v:pageProperties v:drawingScale="0.0393701" v:pageScale="0.0393701" v:drawingUnits="24" v:shadowOffsetX="9"
				v:shadowOffsetY="-9"/>
		<g id="group61-1" transform="translate(3.02943,-5.34782)" v:mID="61" v:groupContext="group">
			<title>Sheet.61</title>
			<g id="shape52-2" v:mID="52" v:groupContext="shape" transform="translate(97.856,-133.39)">
				<title>Circle.40</title>
				<desc>op</desc>
				<v:userDefs>
					<v:ud v:nameU="visVersion" v:val="VT0(15):26"/>
				</v:userDefs>
				<v:textBlock v:margins="rect(4,4,4,4)" v:tabSpace="42.5197"/>
				<v:textRect cx="28.3463" cy="167.479" width="49.62" height="41.4408"/>
				<g id="shadow52-3" v:groupContext="shadow" v:shadowOffsetX="0.345598" v:shadowOffsetY="-1.97279" v:shadowType="1"
						transform="matrix(1,0,0,1,0.345598,1.97279)" class="st1">
					<path d="M-0 167.48 A28.3465 27.6272 180 0 1 56.69 167.48 A28.3465 27.6272 180 0 1 -0 167.48 Z" class="st2"/>
				</g>
				<path d="M-0 167.48 A28.3465 27.6272 180 0 1 56.69 167.48 A28.3465 27.6272 180 0 1 -0 167.48 Z" class="st3"/>
				<text x="23.08" y="170.48" class="st4" v:langID="16393"><v:paragraph v:horizAlign="1"/><v:tabList/>op</text>			</g>
			<g id="shape53-8" v:mID="53" v:groupContext="shape" transform="translate(-3.9968E-015,-133.39)">
				<title>Circle.299</title>
				<desc>priv_xform</desc>
				<v:userDefs>
					<v:ud v:nameU="visVersion" v:val="VT0(15):26"/>
				</v:userDefs>
				<v:textBlock v:margins="rect(4,4,4,4)" v:tabSpace="42.5197"/>
				<v:textRect cx="28.3463" cy="167.479" width="49.62" height="41.4408"/>
				<g id="shadow53-9" v:groupContext="shadow" v:shadowOffsetX="0.345598" v:shadowOffsetY="-1.97279" v:shadowType="1"
						transform="matrix(1,0,0,1,0.345598,1.97279)" class="st1">
					<path d="M-0 167.48 A28.3465 27.6272 180 0 1 56.69 167.48 A28.3465 27.6272 180 0 1 -0 167.48 Z" class="st2"/>
				</g>
				<path d="M-0 167.48 A28.3465 27.6272 180 0 1 56.69 167.48 A28.3465 27.6272 180 0 1 -0 167.48 Z" class="st3"/>
				<text x="8.25" y="170.18" class="st5" v:langID="16393"><v:paragraph v:horizAlign="1"/><v:tabList/>priv_xform</text>			</g>
			<g id="shape54-14" v:mID="54" v:groupContext="shape" transform="translate(56.693,-160.74)">
				<title>Sheet.54</title>
				<path d="M0 194.83 L10.2 194.83 L10.56 194.83 L41.16 194.83" class="st6"/>
			</g>
			<g id="shape55-20" v:mID="55" v:groupContext="shape" transform="translate(97.856,-65.1969)">
				<title>Circle.479</title>
				<desc>op</desc>
				<v:userDefs>
					<v:ud v:nameU="visVersion" v:val="VT0(15):26"/>
				</v:userDefs>
				<v:textBlock v:margins="rect(4,4,4,4)" v:tabSpace="42.5197"/>
				<v:textRect cx="28.3463" cy="166.185" width="49.62" height="42.5197"/>
				<g id="shadow55-21" v:groupContext="shadow" v:shadowOffsetX="0.345598" v:shadowOffsetY="-1.97279" v:shadowType="1"
						transform="matrix(1,0,0,1,0.345598,1.97279)" class="st1">
					<path d="M0 166.19 A28.3465 28.3465 0 1 1 56.69 166.19 A28.3465 28.3465 0 1 1 0 166.19 Z" class="st2"/>
				</g>
				<path d="M0 166.19 A28.3465 28.3465 0 1 1 56.69 166.19 A28.3465 28.3465 0 1 1 0 166.19 Z" class="st3"/>
				<text x="23.08" y="169.19" class="st4" v:langID="16393"><v:paragraph v:horizAlign="1"/><v:tabList/>op</text>			</g>
			<g id="shape56-26" v:mID="56" v:groupContext="shape" transform="translate(-3.9968E-015,-65.7801)">
				<title>Circle.480</title>
				<desc>priv_xform</desc>
				<v:userDefs>
					<v:ud v:nameU="visVersion" v:val="VT0(15):26"/>
				</v:userDefs>
				<v:textBlock v:margins="rect(4,4,4,4)" v:tabSpace="42.5197"/>
				<v:textRect cx="28.3463" cy="166.768" width="49.62" height="42.5197"/>
				<g id="shadow56-27" v:groupContext="shadow" v:shadowOffsetX="0.345598" v:shadowOffsetY="-1.97279" v:shadowType="1"
						transform="matrix(1,0,0,1,0.345598,1.97279)" class="st1">
					<path d="M0 166.77 A28.3465 28.3465 0 0 1 56.69 166.77 A28.3465 28.3465 0 0 1 0 166.77 Z" class="st2"/>
				</g>
				<path d="M0 166.77 A28.3465 28.3465 0 0 1 56.69 166.77 A28.3465 28.3465 0 0 1 0 166.77 Z" class="st3"/>
				<text x="8.25" y="169.47" class="st5" v:langID="16393"><v:paragraph v:horizAlign="1"/><v:tabList/>priv_xform</text>			</g>
			<g id="shape57-32" v:mID="57" v:groupContext="shape" transform="translate(56.693,-93.8414)">
				<title>Sheet.57</title>
				<path d="M0 194.83 L10.2 194.83 L10.56 194.83 L41.16 194.83" class="st6"/>
			</g>
			<g id="shape58-37" v:mID="58" v:groupContext="shape" transform="translate(97.856,0)">
				<title>Circle.482</title>
				<desc>op</desc>
				<v:userDefs>
					<v:ud v:nameU="visVersion" v:val="VT0(15):26"/>
				</v:userDefs>
				<v:textBlock v:margins="rect(4,4,4,4)" v:tabSpace="42.5197"/>
				<v:textRect cx="28.3463" cy="166.185" width="49.62" height="42.5197"/>
				<g id="shadow58-38" v:groupContext="shadow" v:shadowOffsetX="0.345598" v:shadowOffsetY="-1.97279" v:shadowType="1"
						transform="matrix(1,0,0,1,0.345598,1.97279)" class="st1">
					<path d="M0 166.19 A28.3465 28.3465 0 1 1 56.69 166.19 A28.3465 28.3465 0 1 1 0 166.19 Z" class="st2"/>
				</g>
				<path d="M0 166.19 A28.3465 28.3465 0 1 1 56.69 166.19 A28.3465 28.3465 0 1 1 0 166.19 Z" class="st3"/>
				<text x="23.08" y="169.19" class="st4" v:langID="16393"><v:paragraph v:horizAlign="1"/><v:tabList/>op</text>			</g>
			<g id="shape59-43" v:mID="59" v:groupContext="shape" transform="translate(-3.9968E-015,-0.583223)">
				<title>Circle.483</title>
				<desc>priv_xform</desc>
				<v:userDefs>
					<v:ud v:nameU="visVersion" v:val="VT0(15):26"/>
				</v:userDefs>
				<v:textBlock v:margins="rect(4,4,4,4)" v:tabSpace="42.5197"/>
				<v:textRect cx="28.3463" cy="166.768" width="49.62" height="42.5197"/>
				<g id="shadow59-44" v:groupContext="shadow" v:shadowOffsetX="0.345598" v:shadowOffsetY="-1.97279" v:shadowType="1"
						transform="matrix(1,0,0,1,0.345598,1.97279)" class="st1">
					<path d="M0 166.77 A28.3465 28.3465 0 0 1 56.69 166.77 A28.3465 28.3465 0 0 1 0 166.77 Z" class="st2"/>
				</g>
				<path d="M0 166.77 A28.3465 28.3465 0 0 1 56.69 166.77 A28.3465 28.3465 0 0 1 0 166.77 Z" class="st3"/>
				<text x="8.25" y="169.47" class="st5" v:langID="16393"><v:paragraph v:horizAlign="1"/><v:tabList/>priv_xform</text>			</g>
			<g id="shape60-49" v:mID="60" v:groupContext="shape" transform="translate(56.693,-28.6446)">
				<title>Sheet.60</title>
				<path d="M0 194.83 L10.2 194.83 L10.56 194.83 L41.16 194.83" class="st6"/>
			</g>
		</g>
	</g>
</svg>
